ISO-10303-21;
HEADER;
FILE_DESCRIPTION(('FreeCAD Model'),'2;1');
FILE_NAME('Open CASCADE Shape Model','2026-08-28T15:12:32',(''),(''),
  'Open CASCADE STEP processor 7.8','FreeCAD','Unknown');
FILE_SCHEMA(('AUTOMOTIVE_DESIGN { 1 0 10303 214 1 1 1 1 }'));
ENDSEC;
DATA;
#1 = APPLICATION_PROTOCOL_DEFINITION('international standard',
  'automotive_design',2000,#2);
#2 = APPLICATION_CONTEXT(
  'core data for automotive mechanical design processes');
#3 = SHAPE_DEFINITION_REPRESENTATION(#4,#10);
#4 = PRODUCT_DEFINITION_SHAPE('','',#5);
#5 = PRODUCT_DEFINITION('design','',#6,#9);
#6 = PRODUCT_DEFINITION_FORMATION('','',#7);
#7 = PRODUCT('Body','Body','',(#8));
#8 = PRODUCT_CONTEXT('',#2,'mechanical');
#9 = PRODUCT_DEFINITION_CONTEXT('part definition',#2,'design');
#10 = ADVANCED_BREP_SHAPE_REPRESENTATION('',(#11,#15),#378);
#11 = AXIS2_PLACEMENT_3D('',#12,#13,#14);
#12 = CARTESIAN_POINT('',(0.,0.,0.));
#13 = DIRECTION('',(0.,0.,1.));
#14 = DIRECTION('',(1.,0.,-0.));
#15 = MANIFOLD_SOLID_BREP('',#16);
#16 = CLOSED_SHELL('',(#17,#65,#140,#164,#188,#212,#229,#242,#267,#292,
    #317,#342,#351,#360,#369));
#17 = ADVANCED_FACE('',(#18),#60,.F.);
#18 = FACE_BOUND('',#19,.F.);
#19 = EDGE_LOOP('',(#20,#30,#38,#46,#54));
#20 = ORIENTED_EDGE('',*,*,#21,.F.);
#21 = EDGE_CURVE('',#22,#24,#26,.T.);
#22 = VERTEX_POINT('',#23);
#23 = CARTESIAN_POINT('',(0.,0.,0.));
#24 = VERTEX_POINT('',#25);
#25 = CARTESIAN_POINT('',(24.1,0.,0.));
#26 = LINE('',#27,#28);
#27 = CARTESIAN_POINT('',(0.,0.,0.));
#28 = VECTOR('',#29,1.);
#29 = DIRECTION('',(1.,0.,0.));
#30 = ORIENTED_EDGE('',*,*,#31,.T.);
#31 = EDGE_CURVE('',#22,#32,#34,.T.);
#32 = VERTEX_POINT('',#33);
#33 = CARTESIAN_POINT('',(0.,1.593272777598E-15,7.175462687492));
#34 = LINE('',#35,#36);
#35 = CARTESIAN_POINT('',(0.,0.,0.));
#36 = VECTOR('',#37,1.);
#37 = DIRECTION('',(0.,0.,1.));
#38 = ORIENTED_EDGE('',*,*,#39,.T.);
#39 = EDGE_CURVE('',#32,#40,#42,.T.);
#40 = VERTEX_POINT('',#41);
#41 = CARTESIAN_POINT('',(1.024537312508,1.820765760385E-15,8.2));
#42 = LINE('',#43,#44);
#43 = CARTESIAN_POINT('',(0.,1.593272777598E-15,7.175462687492));
#44 = VECTOR('',#45,1.);
#45 = DIRECTION('',(0.707106781187,1.570092458684E-16,0.707106781187));
#46 = ORIENTED_EDGE('',*,*,#47,.T.);
#47 = EDGE_CURVE('',#40,#48,#50,.T.);
#48 = VERTEX_POINT('',#49);
#49 = CARTESIAN_POINT('',(24.1,0.,8.2));
#50 = LINE('',#51,#52);
#51 = CARTESIAN_POINT('',(0.,0.,8.2));
#52 = VECTOR('',#53,1.);
#53 = DIRECTION('',(1.,0.,0.));
#54 = ORIENTED_EDGE('',*,*,#55,.F.);
#55 = EDGE_CURVE('',#24,#48,#56,.T.);
#56 = LINE('',#57,#58);
#57 = CARTESIAN_POINT('',(24.1,0.,0.));
#58 = VECTOR('',#59,1.);
#59 = DIRECTION('',(0.,0.,1.));
#60 = PLANE('',#61);
#61 = AXIS2_PLACEMENT_3D('',#62,#63,#64);
#62 = CARTESIAN_POINT('',(0.,0.,0.));
#63 = DIRECTION('',(0.,1.,0.));
#64 = DIRECTION('',(1.,0.,0.));
#65 = ADVANCED_FACE('',(#66,#91,#102,#113,#124),#135,.F.);
#66 = FACE_BOUND('',#67,.F.);
#67 = EDGE_LOOP('',(#68,#69,#77,#85));
#68 = ORIENTED_EDGE('',*,*,#21,.T.);
#69 = ORIENTED_EDGE('',*,*,#70,.T.);
#70 = EDGE_CURVE('',#24,#71,#73,.T.);
#71 = VERTEX_POINT('',#72);
#72 = CARTESIAN_POINT('',(24.1,6.2,0.));
#73 = LINE('',#74,#75);
#74 = CARTESIAN_POINT('',(24.1,0.,0.));
#75 = VECTOR('',#76,1.);
#76 = DIRECTION('',(0.,1.,0.));
#77 = ORIENTED_EDGE('',*,*,#78,.T.);
#78 = EDGE_CURVE('',#71,#79,#81,.T.);
#79 = VERTEX_POINT('',#80);
#80 = CARTESIAN_POINT('',(0.,6.2,0.));
#81 = LINE('',#82,#83);
#82 = CARTESIAN_POINT('',(24.1,6.2,0.));
#83 = VECTOR('',#84,1.);
#84 = DIRECTION('',(-1.,0.,0.));
#85 = ORIENTED_EDGE('',*,*,#86,.T.);
#86 = EDGE_CURVE('',#79,#22,#87,.T.);
#87 = LINE('',#88,#89);
#88 = CARTESIAN_POINT('',(0.,6.2,0.));
#89 = VECTOR('',#90,1.);
#90 = DIRECTION('',(0.,-1.,0.));
#91 = FACE_BOUND('',#92,.F.);
#92 = EDGE_LOOP('',(#93));
#93 = ORIENTED_EDGE('',*,*,#94,.T.);
#94 = EDGE_CURVE('',#95,#95,#97,.T.);
#95 = VERTEX_POINT('',#96);
#96 = CARTESIAN_POINT('',(2.015,3.1,0.));
#97 = CIRCLE('',#98,0.125);
#98 = AXIS2_PLACEMENT_3D('',#99,#100,#101);
#99 = CARTESIAN_POINT('',(1.89,3.1,0.));
#100 = DIRECTION('',(0.,0.,-1.));
#101 = DIRECTION('',(1.,0.,0.));
#102 = FACE_BOUND('',#103,.F.);
#103 = EDGE_LOOP('',(#104));
#104 = ORIENTED_EDGE('',*,*,#105,.T.);
#105 = EDGE_CURVE('',#106,#106,#108,.T.);
#106 = VERTEX_POINT('',#107);
#107 = CARTESIAN_POINT('',(9.635,3.1,0.));
#108 = CIRCLE('',#109,0.125);
#109 = AXIS2_PLACEMENT_3D('',#110,#111,#112);
#110 = CARTESIAN_POINT('',(9.51,3.1,0.));
#111 = DIRECTION('',(0.,0.,-1.));
#112 = DIRECTION('',(1.,0.,0.));
#113 = FACE_BOUND('',#114,.F.);
#114 = EDGE_LOOP('',(#115));
#115 = ORIENTED_EDGE('',*,*,#116,.T.);
#116 = EDGE_CURVE('',#117,#117,#119,.T.);
#117 = VERTEX_POINT('',#118);
#118 = CARTESIAN_POINT('',(14.715,3.1,0.));
#119 = CIRCLE('',#120,0.125);
#120 = AXIS2_PLACEMENT_3D('',#121,#122,#123);
#121 = CARTESIAN_POINT('',(14.59,3.1,0.));
#122 = DIRECTION('',(0.,0.,-1.));
#123 = DIRECTION('',(1.,0.,0.));
#124 = FACE_BOUND('',#125,.F.);
#125 = EDGE_LOOP('',(#126));
#126 = ORIENTED_EDGE('',*,*,#127,.T.);
#127 = EDGE_CURVE('',#128,#128,#130,.T.);
#128 = VERTEX_POINT('',#129);
#129 = CARTESIAN_POINT('',(22.335,3.1,0.));
#130 = CIRCLE('',#131,0.125);
#131 = AXIS2_PLACEMENT_3D('',#132,#133,#134);
#132 = CARTESIAN_POINT('',(22.21,3.1,0.));
#133 = DIRECTION('',(0.,0.,-1.));
#134 = DIRECTION('',(1.,0.,0.));
#135 = PLANE('',#136);
#136 = AXIS2_PLACEMENT_3D('',#137,#138,#139);
#137 = CARTESIAN_POINT('',(12.05,3.1,0.));
#138 = DIRECTION('',(0.,0.,1.));
#139 = DIRECTION('',(1.,0.,0.));
#140 = ADVANCED_FACE('',(#141),#159,.F.);
#141 = FACE_BOUND('',#142,.F.);
#142 = EDGE_LOOP('',(#143,#144,#152,#158));
#143 = ORIENTED_EDGE('',*,*,#55,.T.);
#144 = ORIENTED_EDGE('',*,*,#145,.T.);
#145 = EDGE_CURVE('',#48,#146,#148,.T.);
#146 = VERTEX_POINT('',#147);
#147 = CARTESIAN_POINT('',(24.1,6.2,8.2));
#148 = LINE('',#149,#150);
#149 = CARTESIAN_POINT('',(24.1,0.,8.2));
#150 = VECTOR('',#151,1.);
#151 = DIRECTION('',(0.,1.,0.));
#152 = ORIENTED_EDGE('',*,*,#153,.F.);
#153 = EDGE_CURVE('',#71,#146,#154,.T.);
#154 = LINE('',#155,#156);
#155 = CARTESIAN_POINT('',(24.1,6.2,0.));
#156 = VECTOR('',#157,1.);
#157 = DIRECTION('',(0.,0.,1.));
#158 = ORIENTED_EDGE('',*,*,#70,.F.);
#159 = PLANE('',#160);
#160 = AXIS2_PLACEMENT_3D('',#161,#162,#163);
#161 = CARTESIAN_POINT('',(24.1,0.,0.));
#162 = DIRECTION('',(-1.,0.,0.));
#163 = DIRECTION('',(0.,1.,0.));
#164 = ADVANCED_FACE('',(#165),#183,.T.);
#165 = FACE_BOUND('',#166,.T.);
#166 = EDGE_LOOP('',(#167,#175,#176,#177));
#167 = ORIENTED_EDGE('',*,*,#168,.F.);
#168 = EDGE_CURVE('',#40,#169,#171,.T.);
#169 = VERTEX_POINT('',#170);
#170 = CARTESIAN_POINT('',(1.024537312508,6.2,8.2));
#171 = LINE('',#172,#173);
#172 = CARTESIAN_POINT('',(1.024537312508,1.820765760385E-15,8.2));
#173 = VECTOR('',#174,1.);
#174 = DIRECTION('',(0.,1.,-2.22044604925E-16));
#175 = ORIENTED_EDGE('',*,*,#47,.T.);
#176 = ORIENTED_EDGE('',*,*,#145,.T.);
#177 = ORIENTED_EDGE('',*,*,#178,.T.);
#178 = EDGE_CURVE('',#146,#169,#179,.T.);
#179 = LINE('',#180,#181);
#180 = CARTESIAN_POINT('',(24.1,6.2,8.2));
#181 = VECTOR('',#182,1.);
#182 = DIRECTION('',(-1.,0.,0.));
#183 = PLANE('',#184);
#184 = AXIS2_PLACEMENT_3D('',#185,#186,#187);
#185 = CARTESIAN_POINT('',(12.05,3.1,8.2));
#186 = DIRECTION('',(0.,0.,1.));
#187 = DIRECTION('',(1.,0.,0.));
#188 = ADVANCED_FACE('',(#189),#207,.F.);
#189 = FACE_BOUND('',#190,.F.);
#190 = EDGE_LOOP('',(#191,#192,#200,#206));
#191 = ORIENTED_EDGE('',*,*,#39,.F.);
#192 = ORIENTED_EDGE('',*,*,#193,.T.);
#193 = EDGE_CURVE('',#32,#194,#196,.T.);
#194 = VERTEX_POINT('',#195);
#195 = CARTESIAN_POINT('',(0.,6.2,7.175462687492));
#196 = LINE('',#197,#198);
#197 = CARTESIAN_POINT('',(0.,1.593272777598E-15,7.175462687492));
#198 = VECTOR('',#199,1.);
#199 = DIRECTION('',(0.,1.,-2.22044604925E-16));
#200 = ORIENTED_EDGE('',*,*,#201,.T.);
#201 = EDGE_CURVE('',#194,#169,#202,.T.);
#202 = LINE('',#203,#204);
#203 = CARTESIAN_POINT('',(4.231134328127,6.2,11.406597015619));
#204 = VECTOR('',#205,1.);
#205 = DIRECTION('',(0.707106781187,0.,0.707106781187));
#206 = ORIENTED_EDGE('',*,*,#168,.F.);
#207 = PLANE('',#208);
#208 = AXIS2_PLACEMENT_3D('',#209,#210,#211);
#209 = CARTESIAN_POINT('',(0.,1.593272777598E-15,7.175462687492));
#210 = DIRECTION('',(0.707106781187,-1.570092458684E-16,-0.707106781187)
  );
#211 = DIRECTION('',(0.707106781187,1.570092458684E-16,0.707106781187));
#212 = ADVANCED_FACE('',(#213),#224,.F.);
#213 = FACE_BOUND('',#214,.F.);
#214 = EDGE_LOOP('',(#215,#216,#222,#223));
#215 = ORIENTED_EDGE('',*,*,#86,.F.);
#216 = ORIENTED_EDGE('',*,*,#217,.T.);
#217 = EDGE_CURVE('',#79,#194,#218,.T.);
#218 = LINE('',#219,#220);
#219 = CARTESIAN_POINT('',(0.,6.2,0.));
#220 = VECTOR('',#221,1.);
#221 = DIRECTION('',(0.,0.,1.));
#222 = ORIENTED_EDGE('',*,*,#193,.F.);
#223 = ORIENTED_EDGE('',*,*,#31,.F.);
#224 = PLANE('',#225);
#225 = AXIS2_PLACEMENT_3D('',#226,#227,#228);
#226 = CARTESIAN_POINT('',(0.,6.2,0.));
#227 = DIRECTION('',(1.,0.,0.));
#228 = DIRECTION('',(0.,-1.,0.));
#229 = ADVANCED_FACE('',(#230),#237,.F.);
#230 = FACE_BOUND('',#231,.F.);
#231 = EDGE_LOOP('',(#232,#233,#234,#235,#236));
#232 = ORIENTED_EDGE('',*,*,#78,.F.);
#233 = ORIENTED_EDGE('',*,*,#153,.T.);
#234 = ORIENTED_EDGE('',*,*,#178,.T.);
#235 = ORIENTED_EDGE('',*,*,#201,.F.);
#236 = ORIENTED_EDGE('',*,*,#217,.F.);
#237 = PLANE('',#238);
#238 = AXIS2_PLACEMENT_3D('',#239,#240,#241);
#239 = CARTESIAN_POINT('',(24.1,6.2,0.));
#240 = DIRECTION('',(0.,-1.,0.));
#241 = DIRECTION('',(-1.,0.,0.));
#242 = ADVANCED_FACE('',(#243),#262,.T.);
#243 = FACE_BOUND('',#244,.F.);
#244 = EDGE_LOOP('',(#245,#253,#260,#261));
#245 = ORIENTED_EDGE('',*,*,#246,.T.);
#246 = EDGE_CURVE('',#95,#247,#249,.T.);
#247 = VERTEX_POINT('',#248);
#248 = CARTESIAN_POINT('',(2.015,3.1,-3.2));
#249 = LINE('',#250,#251);
#250 = CARTESIAN_POINT('',(2.015,3.1,0.));
#251 = VECTOR('',#252,1.);
#252 = DIRECTION('',(0.,0.,-1.));
#253 = ORIENTED_EDGE('',*,*,#254,.T.);
#254 = EDGE_CURVE('',#247,#247,#255,.T.);
#255 = CIRCLE('',#256,0.125);
#256 = AXIS2_PLACEMENT_3D('',#257,#258,#259);
#257 = CARTESIAN_POINT('',(1.89,3.1,-3.2));
#258 = DIRECTION('',(0.,0.,-1.));
#259 = DIRECTION('',(1.,0.,0.));
#260 = ORIENTED_EDGE('',*,*,#246,.F.);
#261 = ORIENTED_EDGE('',*,*,#94,.F.);
#262 = CYLINDRICAL_SURFACE('',#263,0.125);
#263 = AXIS2_PLACEMENT_3D('',#264,#265,#266);
#264 = CARTESIAN_POINT('',(1.89,3.1,0.));
#265 = DIRECTION('',(0.,0.,1.));
#266 = DIRECTION('',(1.,0.,0.));
#267 = ADVANCED_FACE('',(#268),#287,.T.);
#268 = FACE_BOUND('',#269,.F.);
#269 = EDGE_LOOP('',(#270,#278,#285,#286));
#270 = ORIENTED_EDGE('',*,*,#271,.T.);
#271 = EDGE_CURVE('',#106,#272,#274,.T.);
#272 = VERTEX_POINT('',#273);
#273 = CARTESIAN_POINT('',(9.635,3.1,-3.2));
#274 = LINE('',#275,#276);
#275 = CARTESIAN_POINT('',(9.635,3.1,0.));
#276 = VECTOR('',#277,1.);
#277 = DIRECTION('',(0.,0.,-1.));
#278 = ORIENTED_EDGE('',*,*,#279,.T.);
#279 = EDGE_CURVE('',#272,#272,#280,.T.);
#280 = CIRCLE('',#281,0.125);
#281 = AXIS2_PLACEMENT_3D('',#282,#283,#284);
#282 = CARTESIAN_POINT('',(9.51,3.1,-3.2));
#283 = DIRECTION('',(0.,0.,-1.));
#284 = DIRECTION('',(1.,0.,0.));
#285 = ORIENTED_EDGE('',*,*,#271,.F.);
#286 = ORIENTED_EDGE('',*,*,#105,.F.);
#287 = CYLINDRICAL_SURFACE('',#288,0.125);
#288 = AXIS2_PLACEMENT_3D('',#289,#290,#291);
#289 = CARTESIAN_POINT('',(9.51,3.1,0.));
#290 = DIRECTION('',(0.,0.,1.));
#291 = DIRECTION('',(1.,0.,0.));
#292 = ADVANCED_FACE('',(#293),#312,.T.);
#293 = FACE_BOUND('',#294,.F.);
#294 = EDGE_LOOP('',(#295,#303,#310,#311));
#295 = ORIENTED_EDGE('',*,*,#296,.T.);
#296 = EDGE_CURVE('',#117,#297,#299,.T.);
#297 = VERTEX_POINT('',#298);
#298 = CARTESIAN_POINT('',(14.715,3.1,-3.2));
#299 = LINE('',#300,#301);
#300 = CARTESIAN_POINT('',(14.715,3.1,0.));
#301 = VECTOR('',#302,1.);
#302 = DIRECTION('',(0.,0.,-1.));
#303 = ORIENTED_EDGE('',*,*,#304,.T.);
#304 = EDGE_CURVE('',#297,#297,#305,.T.);
#305 = CIRCLE('',#306,0.125);
#306 = AXIS2_PLACEMENT_3D('',#307,#308,#309);
#307 = CARTESIAN_POINT('',(14.59,3.1,-3.2));
#308 = DIRECTION('',(0.,0.,-1.));
#309 = DIRECTION('',(1.,0.,0.));
#310 = ORIENTED_EDGE('',*,*,#296,.F.);
#311 = ORIENTED_EDGE('',*,*,#116,.F.);
#312 = CYLINDRICAL_SURFACE('',#313,0.125);
#313 = AXIS2_PLACEMENT_3D('',#314,#315,#316);
#314 = CARTESIAN_POINT('',(14.59,3.1,0.));
#315 = DIRECTION('',(0.,0.,1.));
#316 = DIRECTION('',(1.,0.,0.));
#317 = ADVANCED_FACE('',(#318),#337,.T.);
#318 = FACE_BOUND('',#319,.F.);
#319 = EDGE_LOOP('',(#320,#328,#335,#336));
#320 = ORIENTED_EDGE('',*,*,#321,.T.);
#321 = EDGE_CURVE('',#128,#322,#324,.T.);
#322 = VERTEX_POINT('',#323);
#323 = CARTESIAN_POINT('',(22.335,3.1,-3.2));
#324 = LINE('',#325,#326);
#325 = CARTESIAN_POINT('',(22.335,3.1,0.));
#326 = VECTOR('',#327,1.);
#327 = DIRECTION('',(0.,0.,-1.));
#328 = ORIENTED_EDGE('',*,*,#329,.T.);
#329 = EDGE_CURVE('',#322,#322,#330,.T.);
#330 = CIRCLE('',#331,0.125);
#331 = AXIS2_PLACEMENT_3D('',#332,#333,#334);
#332 = CARTESIAN_POINT('',(22.21,3.1,-3.2));
#333 = DIRECTION('',(0.,0.,-1.));
#334 = DIRECTION('',(1.,0.,0.));
#335 = ORIENTED_EDGE('',*,*,#321,.F.);
#336 = ORIENTED_EDGE('',*,*,#127,.F.);
#337 = CYLINDRICAL_SURFACE('',#338,0.125);
#338 = AXIS2_PLACEMENT_3D('',#339,#340,#341);
#339 = CARTESIAN_POINT('',(22.21,3.1,0.));
#340 = DIRECTION('',(0.,0.,1.));
#341 = DIRECTION('',(1.,0.,0.));
#342 = ADVANCED_FACE('',(#343),#346,.F.);
#343 = FACE_BOUND('',#344,.T.);
#344 = EDGE_LOOP('',(#345));
#345 = ORIENTED_EDGE('',*,*,#254,.T.);
#346 = PLANE('',#347);
#347 = AXIS2_PLACEMENT_3D('',#348,#349,#350);
#348 = CARTESIAN_POINT('',(12.05,3.1,-3.2));
#349 = DIRECTION('',(0.,0.,1.));
#350 = DIRECTION('',(1.,0.,0.));
#351 = ADVANCED_FACE('',(#352),#355,.F.);
#352 = FACE_BOUND('',#353,.T.);
#353 = EDGE_LOOP('',(#354));
#354 = ORIENTED_EDGE('',*,*,#279,.T.);
#355 = PLANE('',#356);
#356 = AXIS2_PLACEMENT_3D('',#357,#358,#359);
#357 = CARTESIAN_POINT('',(12.05,3.1,-3.2));
#358 = DIRECTION('',(0.,0.,1.));
#359 = DIRECTION('',(1.,0.,0.));
#360 = ADVANCED_FACE('',(#361),#364,.F.);
#361 = FACE_BOUND('',#362,.T.);
#362 = EDGE_LOOP('',(#363));
#363 = ORIENTED_EDGE('',*,*,#304,.T.);
#364 = PLANE('',#365);
#365 = AXIS2_PLACEMENT_3D('',#366,#367,#368);
#366 = CARTESIAN_POINT('',(12.05,3.1,-3.2));
#367 = DIRECTION('',(0.,0.,1.));
#368 = DIRECTION('',(1.,0.,0.));
#369 = ADVANCED_FACE('',(#370),#373,.F.);
#370 = FACE_BOUND('',#371,.T.);
#371 = EDGE_LOOP('',(#372));
#372 = ORIENTED_EDGE('',*,*,#329,.T.);
#373 = PLANE('',#374);
#374 = AXIS2_PLACEMENT_3D('',#375,#376,#377);
#375 = CARTESIAN_POINT('',(12.05,3.1,-3.2));
#376 = DIRECTION('',(0.,0.,1.));
#377 = DIRECTION('',(1.,0.,0.));
#378 = ( GEOMETRIC_REPRESENTATION_CONTEXT(3) 
GLOBAL_UNCERTAINTY_ASSIGNED_CONTEXT((#382)) GLOBAL_UNIT_ASSIGNED_CONTEXT
((#379,#380,#381)) REPRESENTATION_CONTEXT('Context #1',
  '3D Context with UNIT and UNCERTAINTY') );
#379 = ( LENGTH_UNIT() NAMED_UNIT(*) SI_UNIT(.MILLI.,.METRE.) );
#380 = ( NAMED_UNIT(*) PLANE_ANGLE_UNIT() SI_UNIT($,.RADIAN.) );
#381 = ( NAMED_UNIT(*) SI_UNIT($,.STERADIAN.) SOLID_ANGLE_UNIT() );
#382 = UNCERTAINTY_MEASURE_WITH_UNIT(LENGTH_MEASURE(2.E-06),#379,
  'distance_accuracy_value','confusion accuracy');
#383 = PRODUCT_RELATED_PRODUCT_CATEGORY('part',$,(#7));
#384 = MECHANICAL_DESIGN_GEOMETRIC_PRESENTATION_REPRESENTATION('',(#385,
    #396,#404,#411,#418,#425,#432,#439,#446),#378);
#385 = STYLED_ITEM('color',(#386),#15);
#386 = PRESENTATION_STYLE_ASSIGNMENT((#387,#393));
#387 = SURFACE_STYLE_USAGE(.BOTH.,#388);
#388 = SURFACE_SIDE_STYLE('',(#389));
#389 = SURFACE_STYLE_FILL_AREA(#390);
#390 = FILL_AREA_STYLE('',(#391));
#391 = FILL_AREA_STYLE_COLOUR('',#392);
#392 = DRAUGHTING_PRE_DEFINED_COLOUR('black');
#393 = CURVE_STYLE('',#394,POSITIVE_LENGTH_MEASURE(0.1),#395);
#394 = DRAUGHTING_PRE_DEFINED_CURVE_FONT('continuous');
#395 = COLOUR_RGB('',9.803921802644E-02,9.803921802644E-02,
  9.803921802644E-02);
#396 = OVER_RIDING_STYLED_ITEM('overriding color',(#397),#242,#385);
#397 = PRESENTATION_STYLE_ASSIGNMENT((#398));
#398 = SURFACE_STYLE_USAGE(.BOTH.,#399);
#399 = SURFACE_SIDE_STYLE('',(#400));
#400 = SURFACE_STYLE_FILL_AREA(#401);
#401 = FILL_AREA_STYLE('',(#402));
#402 = FILL_AREA_STYLE_COLOUR('',#403);
#403 = COLOUR_RGB('',0.917599985683,0.917599985683,0.917599985683);
#404 = OVER_RIDING_STYLED_ITEM('overriding color',(#405),#267,#385);
#405 = PRESENTATION_STYLE_ASSIGNMENT((#406));
#406 = SURFACE_STYLE_USAGE(.BOTH.,#407);
#407 = SURFACE_SIDE_STYLE('',(#408));
#408 = SURFACE_STYLE_FILL_AREA(#409);
#409 = FILL_AREA_STYLE('',(#410));
#410 = FILL_AREA_STYLE_COLOUR('',#403);
#411 = OVER_RIDING_STYLED_ITEM('overriding color',(#412),#292,#385);
#412 = PRESENTATION_STYLE_ASSIGNMENT((#413));
#413 = SURFACE_STYLE_USAGE(.BOTH.,#414);
#414 = SURFACE_SIDE_STYLE('',(#415));
#415 = SURFACE_STYLE_FILL_AREA(#416);
#416 = FILL_AREA_STYLE('',(#417));
#417 = FILL_AREA_STYLE_COLOUR('',#403);
#418 = OVER_RIDING_STYLED_ITEM('overriding color',(#419),#317,#385);
#419 = PRESENTATION_STYLE_ASSIGNMENT((#420));
#420 = SURFACE_STYLE_USAGE(.BOTH.,#421);
#421 = SURFACE_SIDE_STYLE('',(#422));
#422 = SURFACE_STYLE_FILL_AREA(#423);
#423 = FILL_AREA_STYLE('',(#424));
#424 = FILL_AREA_STYLE_COLOUR('',#403);
#425 = OVER_RIDING_STYLED_ITEM('overriding color',(#426),#342,#385);
#426 = PRESENTATION_STYLE_ASSIGNMENT((#427));
#427 = SURFACE_STYLE_USAGE(.BOTH.,#428);
#428 = SURFACE_SIDE_STYLE('',(#429));
#429 = SURFACE_STYLE_FILL_AREA(#430);
#430 = FILL_AREA_STYLE('',(#431));
#431 = FILL_AREA_STYLE_COLOUR('',#403);
#432 = OVER_RIDING_STYLED_ITEM('overriding color',(#433),#351,#385);
#433 = PRESENTATION_STYLE_ASSIGNMENT((#434));
#434 = SURFACE_STYLE_USAGE(.BOTH.,#435);
#435 = SURFACE_SIDE_STYLE('',(#436));
#436 = SURFACE_STYLE_FILL_AREA(#437);
#437 = FILL_AREA_STYLE('',(#438));
#438 = FILL_AREA_STYLE_COLOUR('',#403);
#439 = OVER_RIDING_STYLED_ITEM('overriding color',(#440),#360,#385);
#440 = PRESENTATION_STYLE_ASSIGNMENT((#441));
#441 = SURFACE_STYLE_USAGE(.BOTH.,#442);
#442 = SURFACE_SIDE_STYLE('',(#443));
#443 = SURFACE_STYLE_FILL_AREA(#444);
#444 = FILL_AREA_STYLE('',(#445));
#445 = FILL_AREA_STYLE_COLOUR('',#403);
#446 = OVER_RIDING_STYLED_ITEM('overriding color',(#447),#369,#385);
#447 = PRESENTATION_STYLE_ASSIGNMENT((#448));
#448 = SURFACE_STYLE_USAGE(.BOTH.,#449);
#449 = SURFACE_SIDE_STYLE('',(#450));
#450 = SURFACE_STYLE_FILL_AREA(#451);
#451 = FILL_AREA_STYLE('',(#452));
#452 = FILL_AREA_STYLE_COLOUR('',#403);
ENDSEC;
END-ISO-10303-21;
