M48
;DRILL file {KiCad 5.0.0+dfsg1-1} date Thu Jul 26 15:49:37 2018
;FORMAT={-:-/ absolute / inch / decimal}
FMAT,2
INCH,TZ
T1C0.0100
T2C0.0315
T3C0.0394
T4C0.0512
T5C0.0925
T6C0.1102
%
G90
G05
M72
T1
X2.063Y-4.4803
X2.0748Y-2.874
X2.0787Y-2.685
X2.1804Y-3.9008
X2.2323Y-3.6299
X2.2835Y-2.6772
X2.2874Y-2.6214
X2.2953Y-2.8661
X2.311Y-3.437
X2.3228Y-2.8071
X2.3465Y-2.4134
X2.3543Y-4.3661
X2.3583Y-3.9961
X2.3701Y-2.5394
X2.3976Y-3.0276
X2.4449Y-3.6969
X2.4577Y-2.8081
X2.4724Y-3.2598
X2.5221Y-3.6441
X2.534Y-3.7197
X2.5623Y-2.5819
X2.593Y-2.8873
X2.6339Y-2.9528
X2.6339Y-4.0394
X2.6693Y-2.1299
X2.7205Y-3.3898
X2.7559Y-2.689
X2.7835Y-4.1969
X2.8189Y-3.6417
X2.878Y-2.6929
X2.878Y-2.8228
X2.8942Y-3.7289
X2.9055Y-2.2165
X2.9134Y-3.6575
X2.937Y-2.4646
X2.9843Y-3.6614
X2.9921Y-3.9488
X3.0157Y-4.2874
X3.0748Y-3.4606
X3.0748Y-3.5512
X3.1575Y-4.3031
X3.1772Y-3.5276
X3.185Y-4.4449
X3.2299Y-4.3834
X3.4843Y-2.8661
X3.5041Y-3.9962
X3.5512Y-2.7717
X3.575Y-3.9605
X3.5984Y-3.6063
X3.6457Y-2.3819
X3.6494Y-4.6219
X3.6496Y-3.0394
X3.7041Y-3.4494
X3.7248Y-3.5474
X3.7559Y-3.2835
X3.7953Y-2.9779
X3.7953Y-3.6024
X3.7992Y-3.0709
X3.9094Y-2.685
X3.9488Y-3.7638
X3.9685Y-2.5
X4.0039Y-3.5512
X4.0389Y-3.6697
T2
X3.3193Y-3.6101
X3.3193Y-3.8022
T3
X3.8012Y-2.0984
X3.8012Y-2.1984
X3.8012Y-2.2984
X3.8012Y-2.3984
X3.8012Y-2.4984
X3.8012Y-2.5984
X2.7575Y-2.5827
X2.9575Y-2.5827
X3.1575Y-2.5827
X3.3575Y-2.5827
X2.7575Y-3.0551
X2.9575Y-3.0551
X3.1575Y-3.0551
X3.3575Y-3.0551
X3.5827Y-2.0913
X3.5827Y-2.2913
X3.5827Y-2.4913
X3.5827Y-2.6913
X2.859Y-3.3057
X2.959Y-3.3057
X3.059Y-3.3057
X3.159Y-3.3057
X3.259Y-3.3057
X2.7575Y-2.8189
X2.9575Y-2.8189
X3.1575Y-2.8189
X3.3575Y-2.8189
T4
X2.9913Y-2.2571
X2.9913Y-2.3965
X3.061Y-2.1693
X3.1307Y-2.2571
X3.1307Y-2.3965
T5
X2.7657Y-2.3268
X3.3563Y-2.3268
T6
X2.7657Y-2.1693
X3.3563Y-2.1693
T0
M30
