G04 #@! TF.GenerationSoftware,KiCad,Pcbnew,5.0.0+dfsg1-1*
G04 #@! TF.CreationDate,2018-07-27T15:14:12-04:00*
G04 #@! TF.ProjectId,mystat,6D79737461742E6B696361645F706362,1*
G04 #@! TF.SameCoordinates,Original*
G04 #@! TF.FileFunction,Copper,L2,Bot,Signal*
G04 #@! TF.FilePolarity,Positive*
%FSLAX46Y46*%
G04 Gerber Fmt 4.6, Leading zero omitted, Abs format (unit mm)*
G04 Created by KiCad (PCBNEW 5.0.0+dfsg1-1) date Fri Jul 27 15:14:12 2018*
%MOMM*%
%LPD*%
G01*
G04 APERTURE LIST*
G04 #@! TA.AperFunction,NonConductor*
%ADD10C,0.300000*%
G04 #@! TD*
G04 #@! TA.AperFunction,ComponentPad*
%ADD11C,2.000000*%
G04 #@! TD*
G04 #@! TA.AperFunction,WasherPad*
%ADD12C,2.900000*%
G04 #@! TD*
G04 #@! TA.AperFunction,WasherPad*
%ADD13C,2.400000*%
G04 #@! TD*
G04 #@! TA.AperFunction,WasherPad*
%ADD14C,2.450000*%
G04 #@! TD*
G04 #@! TA.AperFunction,ComponentPad*
%ADD15O,2.700000X1.600000*%
G04 #@! TD*
G04 #@! TA.AperFunction,ComponentPad*
%ADD16R,2.700000X1.600000*%
G04 #@! TD*
G04 #@! TA.AperFunction,ComponentPad*
%ADD17R,1.600000X2.700000*%
G04 #@! TD*
G04 #@! TA.AperFunction,ComponentPad*
%ADD18O,1.600000X2.700000*%
G04 #@! TD*
G04 #@! TA.AperFunction,ComponentPad*
%ADD19R,1.700000X1.700000*%
G04 #@! TD*
G04 #@! TA.AperFunction,ComponentPad*
%ADD20O,1.700000X1.700000*%
G04 #@! TD*
G04 #@! TA.AperFunction,ComponentPad*
%ADD21C,1.500000*%
G04 #@! TD*
G04 #@! TA.AperFunction,ViaPad*
%ADD22C,0.762000*%
G04 #@! TD*
G04 #@! TA.AperFunction,Conductor*
%ADD23C,0.508000*%
G04 #@! TD*
G04 #@! TA.AperFunction,Conductor*
%ADD24C,0.254000*%
G04 #@! TD*
G04 APERTURE END LIST*
D10*
X103492857Y-118478571D02*
X103992857Y-117764285D01*
X104350000Y-118478571D02*
X104350000Y-116978571D01*
X103778571Y-116978571D01*
X103635714Y-117050000D01*
X103564285Y-117121428D01*
X103492857Y-117264285D01*
X103492857Y-117478571D01*
X103564285Y-117621428D01*
X103635714Y-117692857D01*
X103778571Y-117764285D01*
X104350000Y-117764285D01*
X102278571Y-118407142D02*
X102421428Y-118478571D01*
X102707142Y-118478571D01*
X102850000Y-118407142D01*
X102921428Y-118264285D01*
X102921428Y-117692857D01*
X102850000Y-117550000D01*
X102707142Y-117478571D01*
X102421428Y-117478571D01*
X102278571Y-117550000D01*
X102207142Y-117692857D01*
X102207142Y-117835714D01*
X102921428Y-117978571D01*
X101707142Y-117478571D02*
X101350000Y-118478571D01*
X100992857Y-117478571D01*
X100421428Y-118335714D02*
X100350000Y-118407142D01*
X100421428Y-118478571D01*
X100492857Y-118407142D01*
X100421428Y-118335714D01*
X100421428Y-118478571D01*
X97778571Y-118478571D02*
X98635714Y-118478571D01*
X98207142Y-118478571D02*
X98207142Y-116978571D01*
X98350000Y-117192857D01*
X98492857Y-117335714D01*
X98635714Y-117407142D01*
D11*
G04 #@! TO.P,P2,5*
G04 #@! TO.N,GND*
X77750000Y-55100000D03*
D12*
G04 #@! TO.P,P2,*
G04 #@! TO.N,*
X85250000Y-55100000D03*
X70250000Y-55100000D03*
D13*
X70250000Y-59100000D03*
D14*
X85250000Y-59100000D03*
D11*
G04 #@! TO.P,P2,4*
G04 #@! TO.N,/RE*
X79520000Y-57330000D03*
G04 #@! TO.P,P2,3*
G04 #@! TO.N,/CE*
X75980000Y-57330000D03*
G04 #@! TO.P,P2,2*
G04 #@! TO.N,/SE*
X75980000Y-60870000D03*
G04 #@! TO.P,P2,1*
G04 #@! TO.N,/WE*
X79520000Y-60870000D03*
G04 #@! TD*
D15*
G04 #@! TO.P,K1,4*
G04 #@! TO.N,/WE*
X91000000Y-53120000D03*
G04 #@! TO.P,K1,3*
G04 #@! TO.N,GND*
X91000000Y-58200000D03*
G04 #@! TO.P,K1,2*
G04 #@! TO.N,/CELL_ON*
X91000000Y-63280000D03*
D16*
G04 #@! TO.P,K1,1*
G04 #@! TO.N,Net-(C24-Pad1)*
X91000000Y-68360000D03*
G04 #@! TD*
D17*
G04 #@! TO.P,K2,1*
G04 #@! TO.N,Net-(K2-Pad1)*
X70040000Y-71600000D03*
D18*
G04 #@! TO.P,K2,2*
G04 #@! TO.N,/RANGE1*
X75120000Y-71600000D03*
G04 #@! TO.P,K2,3*
G04 #@! TO.N,GND*
X80200000Y-71600000D03*
G04 #@! TO.P,K2,4*
X85280000Y-71600000D03*
G04 #@! TD*
D17*
G04 #@! TO.P,K3,1*
G04 #@! TO.N,Net-(K3-Pad1)*
X70040000Y-65600000D03*
D18*
G04 #@! TO.P,K3,2*
G04 #@! TO.N,/RANGE2*
X75120000Y-65600000D03*
G04 #@! TO.P,K3,3*
G04 #@! TO.N,GND*
X80200000Y-65600000D03*
G04 #@! TO.P,K3,4*
X85280000Y-65600000D03*
G04 #@! TD*
G04 #@! TO.P,K4,4*
G04 #@! TO.N,GND*
X85280000Y-77600000D03*
G04 #@! TO.P,K4,3*
X80200000Y-77600000D03*
G04 #@! TO.P,K4,2*
G04 #@! TO.N,/RANGE3*
X75120000Y-77600000D03*
D17*
G04 #@! TO.P,K4,1*
G04 #@! TO.N,Net-(K4-Pad1)*
X70040000Y-77600000D03*
G04 #@! TD*
D19*
G04 #@! TO.P,P1,5*
G04 #@! TO.N,GND*
X82778286Y-83964941D03*
D20*
G04 #@! TO.P,P1,4*
X80238286Y-83964941D03*
G04 #@! TO.P,P1,3*
G04 #@! TO.N,/USB_D+*
X77698286Y-83964941D03*
G04 #@! TO.P,P1,2*
G04 #@! TO.N,/USB_D-*
X75158286Y-83964941D03*
G04 #@! TO.P,P1,1*
G04 #@! TO.N,+5V*
X72618286Y-83964941D03*
G04 #@! TD*
D19*
G04 #@! TO.P,P3,1*
G04 #@! TO.N,/MCLR*
X96550000Y-53300000D03*
D20*
G04 #@! TO.P,P3,2*
G04 #@! TO.N,+5V*
X96550000Y-55840000D03*
G04 #@! TO.P,P3,3*
G04 #@! TO.N,GND*
X96550000Y-58380000D03*
G04 #@! TO.P,P3,4*
G04 #@! TO.N,/ICSPDAT*
X96550000Y-60920000D03*
G04 #@! TO.P,P3,5*
G04 #@! TO.N,/ICSPCLK*
X96550000Y-63460000D03*
G04 #@! TO.P,P3,6*
G04 #@! TO.N,Net-(P3-Pad6)*
X96550000Y-66000000D03*
G04 #@! TD*
D21*
G04 #@! TO.P,X1,1*
G04 #@! TO.N,Net-(C17-Pad1)*
X84309511Y-91695939D03*
G04 #@! TO.P,X1,2*
G04 #@! TO.N,Net-(C18-Pad1)*
X84309511Y-96575939D03*
G04 #@! TD*
D22*
G04 #@! TO.N,+5V*
X93300000Y-55800000D03*
X90300000Y-74637500D03*
X86200000Y-75500000D03*
G04 #@! TO.N,GND*
X59300000Y-57100000D03*
X96500000Y-74462500D03*
X90262500Y-70962500D03*
X75400000Y-86500000D03*
X81000000Y-93500000D03*
X81000000Y-98400000D03*
X62400000Y-69937500D03*
X62425000Y-76725000D03*
X58150000Y-74950000D03*
X75400000Y-110500000D03*
X57600000Y-83200000D03*
X85366990Y-107400000D03*
X79004290Y-107104290D03*
X93200000Y-110265000D03*
X88100000Y-114300000D03*
X65570830Y-94129170D03*
X88000000Y-98900000D03*
X96800000Y-92100000D03*
X66300000Y-102900000D03*
X70605000Y-107995000D03*
X57700000Y-103000000D03*
X54714335Y-110000000D03*
X70000000Y-61800000D03*
X74000000Y-58900000D03*
X92700000Y-61300000D03*
X94300000Y-85600000D03*
X67700000Y-54200000D03*
X83800000Y-102200000D03*
X73300000Y-77500000D03*
X73400000Y-66700000D03*
X93000000Y-74300000D03*
X57900000Y-71200000D03*
G04 #@! TO.N,+9V*
X52700000Y-73000000D03*
X58100000Y-66584278D03*
G04 #@! TO.N,-9V*
X57600000Y-69400000D03*
X52800000Y-69400000D03*
X89700000Y-107300000D03*
X61520830Y-92320830D03*
G04 #@! TO.N,/VREF*
X70000000Y-84800000D03*
X56400000Y-99500000D03*
X54370830Y-99500000D03*
X68600000Y-81800000D03*
X68800000Y-100300000D03*
X77000000Y-101200000D03*
X86000000Y-101200000D03*
X90800000Y-101200000D03*
G04 #@! TO.N,Net-(C20-Pad2)*
X100300000Y-95600000D03*
X62790830Y-82990830D03*
X85700000Y-79900000D03*
X74800000Y-81000000D03*
G04 #@! TO.N,Net-(C24-Pad1)*
X84940000Y-68360000D03*
X65908330Y-74891670D03*
X73391670Y-74891670D03*
G04 #@! TO.N,/V_MEAS*
X57800000Y-78100000D03*
X56122833Y-89600000D03*
G04 #@! TO.N,/I_MEAS*
X69100000Y-86100000D03*
X58300000Y-72800000D03*
X67300000Y-76600000D03*
X67300000Y-83000000D03*
G04 #@! TO.N,/USB_D+*
X92900000Y-81200000D03*
X84700000Y-81200000D03*
G04 #@! TO.N,/USB_D-*
X92900000Y-82600000D03*
X85600000Y-82600000D03*
G04 #@! TO.N,/ICSPCLK*
X100800000Y-63500000D03*
G04 #@! TO.N,Net-(R8-Pad2)*
X64060830Y-92560830D03*
X62100000Y-93900000D03*
G04 #@! TO.N,/MODE_SW*
X92700000Y-77200000D03*
X87000000Y-73700000D03*
X74600000Y-73700000D03*
X64300000Y-72700000D03*
G04 #@! TO.N,/SDIO2*
X74402002Y-92502002D03*
X77200000Y-88900000D03*
G04 #@! TO.N,/CS2*
X78100000Y-90200000D03*
X75400000Y-93300000D03*
X71435000Y-105535000D03*
X74100000Y-107100000D03*
G04 #@! TO.N,/SCK*
X94609511Y-90104889D03*
X79400000Y-89900000D03*
X92700000Y-90104889D03*
X73513001Y-95100000D03*
G04 #@! TO.N,/SDIO*
X85900000Y-116600000D03*
X102500000Y-104800000D03*
G04 #@! TD*
D23*
G04 #@! TO.N,+5V*
X95347919Y-55840000D02*
X95307919Y-55800000D01*
X96550000Y-55840000D02*
X95347919Y-55840000D01*
X95307919Y-55800000D02*
X93300000Y-55800000D01*
X93300000Y-55800000D02*
X93300000Y-55800000D01*
X89761185Y-74637500D02*
X88898685Y-75500000D01*
X90300000Y-74637500D02*
X89761185Y-74637500D01*
X88898685Y-75500000D02*
X86200000Y-75500000D01*
X86200000Y-75500000D02*
X86200000Y-75500000D01*
G04 #@! TO.N,+9V*
X58100000Y-66584278D02*
X53100000Y-66584278D01*
X51910999Y-67773279D02*
X53100000Y-66584278D01*
X52700000Y-73000000D02*
X51910999Y-72210999D01*
X51910999Y-72210999D02*
X51910999Y-67773279D01*
G04 #@! TO.N,-9V*
X57600000Y-69400000D02*
X57061185Y-69400000D01*
X57061185Y-69400000D02*
X52800000Y-69400000D01*
X52800000Y-69400000D02*
X52800000Y-69400000D01*
X57600000Y-69400000D02*
X54300000Y-72700000D01*
X54300000Y-88000000D02*
X53100000Y-89200000D01*
X54300000Y-72700000D02*
X54300000Y-88000000D01*
X58079170Y-92320830D02*
X53100000Y-97300000D01*
X61520830Y-92320830D02*
X58079170Y-92320830D01*
X53100000Y-89200000D02*
X53100000Y-97300000D01*
X53100000Y-113200000D02*
X53100000Y-97300000D01*
X53100000Y-114700000D02*
X53100000Y-113200000D01*
X54000000Y-115600000D02*
X53100000Y-114700000D01*
X89700000Y-107300000D02*
X81400000Y-115600000D01*
X81400000Y-115600000D02*
X54000000Y-115600000D01*
G04 #@! TO.N,/VREF*
X54370830Y-99500000D02*
X56400000Y-99500000D01*
X70000000Y-83200000D02*
X68600000Y-81800000D01*
X70000000Y-84800000D02*
X70000000Y-83200000D01*
X69700000Y-101200000D02*
X68800000Y-100300000D01*
X77000000Y-101200000D02*
X69700000Y-101200000D01*
X90800000Y-101200000D02*
X86000000Y-101200000D01*
G04 #@! TO.N,Net-(C20-Pad2)*
X100300000Y-95061185D02*
X97800000Y-92561185D01*
X100300000Y-95600000D02*
X100300000Y-95061185D01*
X97800000Y-84784278D02*
X92915722Y-79900000D01*
X97800000Y-92561185D02*
X97800000Y-84784278D01*
X92915722Y-79900000D02*
X85700000Y-79900000D01*
X85700000Y-79900000D02*
X85700000Y-79900000D01*
X63171829Y-82609831D02*
X62790830Y-82990830D01*
X65162659Y-80619001D02*
X63171829Y-82609831D01*
X74419001Y-80619001D02*
X65162659Y-80619001D01*
X74800000Y-81000000D02*
X74419001Y-80619001D01*
G04 #@! TO.N,Net-(C24-Pad1)*
X90960000Y-68400000D02*
X91000000Y-68360000D01*
X91000000Y-68360000D02*
X84940000Y-68360000D01*
X84940000Y-68360000D02*
X84940000Y-68360000D01*
X65908330Y-74891670D02*
X73391670Y-74891670D01*
X73391670Y-74891670D02*
X73391670Y-74891670D01*
G04 #@! TO.N,/V_MEAS*
X57800000Y-78100000D02*
X57800000Y-78100000D01*
X56122833Y-89061185D02*
X56122833Y-89600000D01*
X56122833Y-79238352D02*
X56122833Y-89061185D01*
X57261185Y-78100000D02*
X56122833Y-79238352D01*
X57800000Y-78100000D02*
X57261185Y-78100000D01*
G04 #@! TO.N,/I_MEAS*
X61280671Y-75780671D02*
X66480671Y-75780671D01*
X58300000Y-72800000D02*
X61280671Y-75780671D01*
X66480671Y-75780671D02*
X67300000Y-76600000D01*
X67300000Y-76600000D02*
X67300000Y-76600000D01*
X69100000Y-84800000D02*
X67300000Y-83000000D01*
X69100000Y-86100000D02*
X69100000Y-84800000D01*
G04 #@! TO.N,/USB_D+*
X90700000Y-81200000D02*
X92900000Y-81200000D01*
X90700000Y-81200000D02*
X84700000Y-81200000D01*
X84700000Y-81200000D02*
X84700000Y-81200000D01*
G04 #@! TO.N,/USB_D-*
X92900000Y-82600000D02*
X92900000Y-82600000D01*
X92900000Y-82600000D02*
X92361185Y-82600000D01*
X92361185Y-82600000D02*
X85600000Y-82600000D01*
X85600000Y-82600000D02*
X85600000Y-82600000D01*
G04 #@! TO.N,/ICSPCLK*
X100760000Y-63460000D02*
X100800000Y-63500000D01*
X96550000Y-63460000D02*
X100760000Y-63460000D01*
G04 #@! TO.N,Net-(R8-Pad2)*
X62721660Y-93900000D02*
X64060830Y-92560830D01*
X62100000Y-93900000D02*
X62721660Y-93900000D01*
G04 #@! TO.N,/MODE_SW*
X92700000Y-77200000D02*
X92700000Y-77200000D01*
X91189001Y-74210779D02*
X90678222Y-73700000D01*
X92700000Y-77200000D02*
X91189001Y-75689001D01*
X91189001Y-75689001D02*
X91189001Y-74210779D01*
X90678222Y-73700000D02*
X87000000Y-73700000D01*
X87000000Y-73700000D02*
X87000000Y-73700000D01*
X73800000Y-73700000D02*
X74600000Y-73700000D01*
X74600000Y-73700000D02*
X74600000Y-73700000D01*
X67500000Y-73700000D02*
X65300000Y-73700000D01*
X67500000Y-73700000D02*
X67231801Y-73700000D01*
X73800000Y-73700000D02*
X67500000Y-73700000D01*
X65300000Y-73700000D02*
X64300000Y-72700000D01*
X64300000Y-72700000D02*
X64300000Y-72700000D01*
G04 #@! TO.N,/SDIO2*
X74402002Y-92502002D02*
X74402002Y-91697998D01*
X74402002Y-91697998D02*
X77200000Y-88900000D01*
X77200000Y-88900000D02*
X77200000Y-88900000D01*
G04 #@! TO.N,/CS2*
X75400000Y-92900000D02*
X78100000Y-90200000D01*
X75400000Y-93300000D02*
X75400000Y-92900000D01*
X71815999Y-105915999D02*
X72915999Y-105915999D01*
X71435000Y-105535000D02*
X71815999Y-105915999D01*
X72915999Y-105915999D02*
X74100000Y-107100000D01*
X74100000Y-107100000D02*
X74100000Y-107100000D01*
G04 #@! TO.N,/SCK*
X79400000Y-90700000D02*
X79400000Y-89900000D01*
X92700000Y-90104889D02*
X94609511Y-90104889D01*
X75000000Y-95100000D02*
X75300000Y-94800000D01*
X73513001Y-95100000D02*
X75000000Y-95100000D01*
X75006000Y-95094000D02*
X75300000Y-94800000D01*
X75300000Y-94800000D02*
X79400000Y-90700000D01*
G04 #@! TO.N,/SDIO*
X85900000Y-116600000D02*
X90700000Y-116600000D01*
X90700000Y-116600000D02*
X102500000Y-104800000D01*
X102500000Y-104800000D02*
X102500000Y-104800000D01*
G04 #@! TD*
D24*
G04 #@! TO.N,GND*
G36*
X105069001Y-116264000D02*
X96961857Y-116264000D01*
X96961857Y-119569000D01*
X50431000Y-119569000D01*
X50431000Y-116448429D01*
X85138000Y-116448429D01*
X85138000Y-116751571D01*
X85254008Y-117031638D01*
X85468362Y-117245992D01*
X85748429Y-117362000D01*
X86051571Y-117362000D01*
X86331638Y-117245992D01*
X86342630Y-117235000D01*
X90637463Y-117235000D01*
X90700000Y-117247439D01*
X90762537Y-117235000D01*
X90762541Y-117235000D01*
X90947765Y-117198157D01*
X91157809Y-117057809D01*
X91193238Y-117004786D01*
X102636025Y-105562000D01*
X102651571Y-105562000D01*
X102931638Y-105445992D01*
X103145992Y-105231638D01*
X103262000Y-104951571D01*
X103262000Y-104648429D01*
X103145992Y-104368362D01*
X102931638Y-104154008D01*
X102651571Y-104038000D01*
X102348429Y-104038000D01*
X102068362Y-104154008D01*
X101854008Y-104368362D01*
X101738000Y-104648429D01*
X101738000Y-104663975D01*
X90436976Y-115965000D01*
X86342630Y-115965000D01*
X86331638Y-115954008D01*
X86051571Y-115838000D01*
X85748429Y-115838000D01*
X85468362Y-115954008D01*
X85254008Y-116168362D01*
X85138000Y-116448429D01*
X50431000Y-116448429D01*
X50431000Y-67773279D01*
X51263560Y-67773279D01*
X51276000Y-67835821D01*
X51275999Y-72148462D01*
X51263560Y-72210999D01*
X51275999Y-72273536D01*
X51275999Y-72273539D01*
X51312842Y-72458763D01*
X51453190Y-72668808D01*
X51506213Y-72704237D01*
X51938000Y-73136025D01*
X51938000Y-73151571D01*
X52054008Y-73431638D01*
X52268362Y-73645992D01*
X52548429Y-73762000D01*
X52851571Y-73762000D01*
X53131638Y-73645992D01*
X53345992Y-73431638D01*
X53462000Y-73151571D01*
X53462000Y-72848429D01*
X53345992Y-72568362D01*
X53131638Y-72354008D01*
X52851571Y-72238000D01*
X52836025Y-72238000D01*
X52545999Y-71947974D01*
X52545999Y-70119572D01*
X52648429Y-70162000D01*
X52951571Y-70162000D01*
X53231638Y-70045992D01*
X53242630Y-70035000D01*
X56066975Y-70035000D01*
X53895214Y-72206762D01*
X53842191Y-72242191D01*
X53701843Y-72452236D01*
X53665000Y-72637460D01*
X53665000Y-72637463D01*
X53652561Y-72700000D01*
X53665000Y-72762537D01*
X53665001Y-87736974D01*
X52695214Y-88706762D01*
X52642191Y-88742191D01*
X52501843Y-88952236D01*
X52465000Y-89137460D01*
X52465000Y-89137463D01*
X52452561Y-89200000D01*
X52465000Y-89262537D01*
X52465001Y-97237458D01*
X52452561Y-97300000D01*
X52465001Y-97362541D01*
X52465000Y-113262540D01*
X52465001Y-113262545D01*
X52465000Y-114637463D01*
X52452561Y-114700000D01*
X52465000Y-114762537D01*
X52465000Y-114762540D01*
X52501843Y-114947764D01*
X52642191Y-115157809D01*
X52695214Y-115193238D01*
X53506764Y-116004788D01*
X53542191Y-116057809D01*
X53752235Y-116198157D01*
X53937459Y-116235000D01*
X53937462Y-116235000D01*
X53999999Y-116247439D01*
X54062536Y-116235000D01*
X81337463Y-116235000D01*
X81400000Y-116247439D01*
X81462537Y-116235000D01*
X81462541Y-116235000D01*
X81647765Y-116198157D01*
X81857809Y-116057809D01*
X81893238Y-116004786D01*
X89836026Y-108062000D01*
X89851571Y-108062000D01*
X90131638Y-107945992D01*
X90345992Y-107731638D01*
X90462000Y-107451571D01*
X90462000Y-107148429D01*
X90345992Y-106868362D01*
X90131638Y-106654008D01*
X89851571Y-106538000D01*
X89548429Y-106538000D01*
X89268362Y-106654008D01*
X89054008Y-106868362D01*
X88938000Y-107148429D01*
X88938000Y-107163974D01*
X81136976Y-114965000D01*
X54263025Y-114965000D01*
X53735000Y-114436976D01*
X53735000Y-105383429D01*
X70673000Y-105383429D01*
X70673000Y-105686571D01*
X70789008Y-105966638D01*
X71003362Y-106180992D01*
X71283429Y-106297000D01*
X71298975Y-106297000D01*
X71322762Y-106320787D01*
X71358190Y-106373808D01*
X71568234Y-106514156D01*
X71753458Y-106550999D01*
X71753462Y-106550999D01*
X71815999Y-106563438D01*
X71878536Y-106550999D01*
X72652975Y-106550999D01*
X73338000Y-107236025D01*
X73338000Y-107251571D01*
X73454008Y-107531638D01*
X73668362Y-107745992D01*
X73948429Y-107862000D01*
X74251571Y-107862000D01*
X74531638Y-107745992D01*
X74745992Y-107531638D01*
X74862000Y-107251571D01*
X74862000Y-106948429D01*
X74745992Y-106668362D01*
X74531638Y-106454008D01*
X74251571Y-106338000D01*
X74236025Y-106338000D01*
X73409237Y-105511213D01*
X73373808Y-105458190D01*
X73163764Y-105317842D01*
X72978540Y-105280999D01*
X72978536Y-105280999D01*
X72915999Y-105268560D01*
X72853462Y-105280999D01*
X72154572Y-105280999D01*
X72080992Y-105103362D01*
X71866638Y-104889008D01*
X71586571Y-104773000D01*
X71283429Y-104773000D01*
X71003362Y-104889008D01*
X70789008Y-105103362D01*
X70673000Y-105383429D01*
X53735000Y-105383429D01*
X53735000Y-99941800D01*
X53939192Y-100145992D01*
X54219259Y-100262000D01*
X54522401Y-100262000D01*
X54802468Y-100145992D01*
X54813460Y-100135000D01*
X55957370Y-100135000D01*
X55968362Y-100145992D01*
X56248429Y-100262000D01*
X56551571Y-100262000D01*
X56825754Y-100148429D01*
X68038000Y-100148429D01*
X68038000Y-100451571D01*
X68154008Y-100731638D01*
X68368362Y-100945992D01*
X68648429Y-101062000D01*
X68663976Y-101062000D01*
X69206764Y-101604788D01*
X69242191Y-101657809D01*
X69452235Y-101798157D01*
X69637459Y-101835000D01*
X69637462Y-101835000D01*
X69699999Y-101847439D01*
X69762536Y-101835000D01*
X76557370Y-101835000D01*
X76568362Y-101845992D01*
X76848429Y-101962000D01*
X77151571Y-101962000D01*
X77431638Y-101845992D01*
X77645992Y-101631638D01*
X77762000Y-101351571D01*
X77762000Y-101048429D01*
X85238000Y-101048429D01*
X85238000Y-101351571D01*
X85354008Y-101631638D01*
X85568362Y-101845992D01*
X85848429Y-101962000D01*
X86151571Y-101962000D01*
X86431638Y-101845992D01*
X86442630Y-101835000D01*
X90357370Y-101835000D01*
X90368362Y-101845992D01*
X90648429Y-101962000D01*
X90951571Y-101962000D01*
X91231638Y-101845992D01*
X91445992Y-101631638D01*
X91562000Y-101351571D01*
X91562000Y-101048429D01*
X91445992Y-100768362D01*
X91231638Y-100554008D01*
X90951571Y-100438000D01*
X90648429Y-100438000D01*
X90368362Y-100554008D01*
X90357370Y-100565000D01*
X86442630Y-100565000D01*
X86431638Y-100554008D01*
X86151571Y-100438000D01*
X85848429Y-100438000D01*
X85568362Y-100554008D01*
X85354008Y-100768362D01*
X85238000Y-101048429D01*
X77762000Y-101048429D01*
X77645992Y-100768362D01*
X77431638Y-100554008D01*
X77151571Y-100438000D01*
X76848429Y-100438000D01*
X76568362Y-100554008D01*
X76557370Y-100565000D01*
X69963025Y-100565000D01*
X69562000Y-100163976D01*
X69562000Y-100148429D01*
X69445992Y-99868362D01*
X69231638Y-99654008D01*
X68951571Y-99538000D01*
X68648429Y-99538000D01*
X68368362Y-99654008D01*
X68154008Y-99868362D01*
X68038000Y-100148429D01*
X56825754Y-100148429D01*
X56831638Y-100145992D01*
X57045992Y-99931638D01*
X57162000Y-99651571D01*
X57162000Y-99348429D01*
X57045992Y-99068362D01*
X56831638Y-98854008D01*
X56551571Y-98738000D01*
X56248429Y-98738000D01*
X55968362Y-98854008D01*
X55957370Y-98865000D01*
X54813460Y-98865000D01*
X54802468Y-98854008D01*
X54522401Y-98738000D01*
X54219259Y-98738000D01*
X53939192Y-98854008D01*
X53735000Y-99058200D01*
X53735000Y-97563024D01*
X54947055Y-96350969D01*
X83178511Y-96350969D01*
X83178511Y-96800909D01*
X83350695Y-97216599D01*
X83668851Y-97534755D01*
X84084541Y-97706939D01*
X84534481Y-97706939D01*
X84950171Y-97534755D01*
X85268327Y-97216599D01*
X85440511Y-96800909D01*
X85440511Y-96350969D01*
X85268327Y-95935279D01*
X84950171Y-95617123D01*
X84534481Y-95444939D01*
X84084541Y-95444939D01*
X83668851Y-95617123D01*
X83350695Y-95935279D01*
X83178511Y-96350969D01*
X54947055Y-96350969D01*
X56349595Y-94948429D01*
X72751001Y-94948429D01*
X72751001Y-95251571D01*
X72867009Y-95531638D01*
X73081363Y-95745992D01*
X73361430Y-95862000D01*
X73664572Y-95862000D01*
X73944639Y-95745992D01*
X73955631Y-95735000D01*
X74937463Y-95735000D01*
X75000000Y-95747439D01*
X75062537Y-95735000D01*
X75062541Y-95735000D01*
X75247765Y-95698157D01*
X75457809Y-95557809D01*
X75493238Y-95504786D01*
X75599867Y-95398157D01*
X75793236Y-95204789D01*
X75793238Y-95204786D01*
X79527056Y-91470969D01*
X83178511Y-91470969D01*
X83178511Y-91920909D01*
X83350695Y-92336599D01*
X83668851Y-92654755D01*
X84084541Y-92826939D01*
X84534481Y-92826939D01*
X84950171Y-92654755D01*
X85268327Y-92336599D01*
X85440511Y-91920909D01*
X85440511Y-91470969D01*
X85268327Y-91055279D01*
X84950171Y-90737123D01*
X84534481Y-90564939D01*
X84084541Y-90564939D01*
X83668851Y-90737123D01*
X83350695Y-91055279D01*
X83178511Y-91470969D01*
X79527056Y-91470969D01*
X79804792Y-91193234D01*
X79857809Y-91157809D01*
X79893234Y-91104792D01*
X79893236Y-91104790D01*
X79998157Y-90947765D01*
X80014244Y-90866889D01*
X80035000Y-90762541D01*
X80035000Y-90762537D01*
X80047439Y-90700000D01*
X80035000Y-90637463D01*
X80035000Y-90342630D01*
X80045992Y-90331638D01*
X80162000Y-90051571D01*
X80162000Y-89953318D01*
X91938000Y-89953318D01*
X91938000Y-90256460D01*
X92054008Y-90536527D01*
X92268362Y-90750881D01*
X92548429Y-90866889D01*
X92851571Y-90866889D01*
X93131638Y-90750881D01*
X93142630Y-90739889D01*
X94166881Y-90739889D01*
X94177873Y-90750881D01*
X94457940Y-90866889D01*
X94761082Y-90866889D01*
X95041149Y-90750881D01*
X95255503Y-90536527D01*
X95371511Y-90256460D01*
X95371511Y-89953318D01*
X95255503Y-89673251D01*
X95041149Y-89458897D01*
X94761082Y-89342889D01*
X94457940Y-89342889D01*
X94177873Y-89458897D01*
X94166881Y-89469889D01*
X93142630Y-89469889D01*
X93131638Y-89458897D01*
X92851571Y-89342889D01*
X92548429Y-89342889D01*
X92268362Y-89458897D01*
X92054008Y-89673251D01*
X91938000Y-89953318D01*
X80162000Y-89953318D01*
X80162000Y-89748429D01*
X80045992Y-89468362D01*
X79831638Y-89254008D01*
X79551571Y-89138000D01*
X79248429Y-89138000D01*
X78968362Y-89254008D01*
X78754008Y-89468362D01*
X78663792Y-89686162D01*
X78531638Y-89554008D01*
X78251571Y-89438000D01*
X77948429Y-89438000D01*
X77668362Y-89554008D01*
X77454008Y-89768362D01*
X77338000Y-90048429D01*
X77338000Y-90063974D01*
X75131064Y-92270912D01*
X75047994Y-92070364D01*
X75037002Y-92059372D01*
X75037002Y-91961022D01*
X77336026Y-89662000D01*
X77351571Y-89662000D01*
X77631638Y-89545992D01*
X77845992Y-89331638D01*
X77962000Y-89051571D01*
X77962000Y-88748429D01*
X77845992Y-88468362D01*
X77631638Y-88254008D01*
X77351571Y-88138000D01*
X77048429Y-88138000D01*
X76768362Y-88254008D01*
X76554008Y-88468362D01*
X76438000Y-88748429D01*
X76438000Y-88763974D01*
X73997214Y-91204762D01*
X73944194Y-91240189D01*
X73908767Y-91293209D01*
X73803845Y-91450234D01*
X73799721Y-91470969D01*
X73767002Y-91635457D01*
X73767002Y-91635461D01*
X73754563Y-91697998D01*
X73767002Y-91760535D01*
X73767002Y-92059372D01*
X73756010Y-92070364D01*
X73640002Y-92350431D01*
X73640002Y-92653573D01*
X73756010Y-92933640D01*
X73970364Y-93147994D01*
X74250431Y-93264002D01*
X74553573Y-93264002D01*
X74638000Y-93229031D01*
X74638000Y-93451571D01*
X74754008Y-93731638D01*
X74968362Y-93945992D01*
X75171741Y-94030235D01*
X74895214Y-94306762D01*
X74895211Y-94306764D01*
X74736975Y-94465000D01*
X73955631Y-94465000D01*
X73944639Y-94454008D01*
X73664572Y-94338000D01*
X73361430Y-94338000D01*
X73081363Y-94454008D01*
X72867009Y-94668362D01*
X72751001Y-94948429D01*
X56349595Y-94948429D01*
X57549596Y-93748429D01*
X61338000Y-93748429D01*
X61338000Y-94051571D01*
X61454008Y-94331638D01*
X61668362Y-94545992D01*
X61948429Y-94662000D01*
X62251571Y-94662000D01*
X62531638Y-94545992D01*
X62542630Y-94535000D01*
X62659123Y-94535000D01*
X62721660Y-94547439D01*
X62784197Y-94535000D01*
X62784201Y-94535000D01*
X62969425Y-94498157D01*
X63179469Y-94357809D01*
X63214898Y-94304786D01*
X64196855Y-93322830D01*
X64212401Y-93322830D01*
X64492468Y-93206822D01*
X64706822Y-92992468D01*
X64822830Y-92712401D01*
X64822830Y-92409259D01*
X64706822Y-92129192D01*
X64492468Y-91914838D01*
X64212401Y-91798830D01*
X63909259Y-91798830D01*
X63629192Y-91914838D01*
X63414838Y-92129192D01*
X63298830Y-92409259D01*
X63298830Y-92424805D01*
X62487790Y-93235846D01*
X62251571Y-93138000D01*
X61948429Y-93138000D01*
X61668362Y-93254008D01*
X61454008Y-93468362D01*
X61338000Y-93748429D01*
X57549596Y-93748429D01*
X58342196Y-92955830D01*
X61078200Y-92955830D01*
X61089192Y-92966822D01*
X61369259Y-93082830D01*
X61672401Y-93082830D01*
X61952468Y-92966822D01*
X62166822Y-92752468D01*
X62282830Y-92472401D01*
X62282830Y-92169259D01*
X62166822Y-91889192D01*
X61952468Y-91674838D01*
X61672401Y-91558830D01*
X61369259Y-91558830D01*
X61089192Y-91674838D01*
X61078200Y-91685830D01*
X58141707Y-91685830D01*
X58079170Y-91673391D01*
X58016633Y-91685830D01*
X58016629Y-91685830D01*
X57831405Y-91722673D01*
X57674380Y-91827594D01*
X57674378Y-91827596D01*
X57621361Y-91863021D01*
X57585936Y-91916038D01*
X53735000Y-95766976D01*
X53735000Y-89463024D01*
X53749595Y-89448429D01*
X55360833Y-89448429D01*
X55360833Y-89751571D01*
X55476841Y-90031638D01*
X55691195Y-90245992D01*
X55971262Y-90362000D01*
X56274404Y-90362000D01*
X56554471Y-90245992D01*
X56768825Y-90031638D01*
X56884833Y-89751571D01*
X56884833Y-89448429D01*
X56768825Y-89168362D01*
X56757833Y-89157370D01*
X56757833Y-82839259D01*
X62028830Y-82839259D01*
X62028830Y-83142401D01*
X62144838Y-83422468D01*
X62359192Y-83636822D01*
X62639259Y-83752830D01*
X62942401Y-83752830D01*
X63222468Y-83636822D01*
X63436822Y-83422468D01*
X63552830Y-83142401D01*
X63552830Y-83126855D01*
X63665065Y-83014620D01*
X63665067Y-83014617D01*
X65425685Y-81254001D01*
X68068369Y-81254001D01*
X67954008Y-81368362D01*
X67838000Y-81648429D01*
X67838000Y-81951571D01*
X67954008Y-82231638D01*
X68168362Y-82445992D01*
X68448429Y-82562000D01*
X68463976Y-82562000D01*
X69365001Y-83463026D01*
X69365000Y-84166976D01*
X68062000Y-82863976D01*
X68062000Y-82848429D01*
X67945992Y-82568362D01*
X67731638Y-82354008D01*
X67451571Y-82238000D01*
X67148429Y-82238000D01*
X66868362Y-82354008D01*
X66654008Y-82568362D01*
X66538000Y-82848429D01*
X66538000Y-83151571D01*
X66654008Y-83431638D01*
X66868362Y-83645992D01*
X67148429Y-83762000D01*
X67163976Y-83762000D01*
X68465001Y-85063026D01*
X68465000Y-85657370D01*
X68454008Y-85668362D01*
X68338000Y-85948429D01*
X68338000Y-86251571D01*
X68454008Y-86531638D01*
X68668362Y-86745992D01*
X68948429Y-86862000D01*
X69251571Y-86862000D01*
X69531638Y-86745992D01*
X69745992Y-86531638D01*
X69862000Y-86251571D01*
X69862000Y-85948429D01*
X69745992Y-85668362D01*
X69735000Y-85657370D01*
X69735000Y-85515016D01*
X69848429Y-85562000D01*
X70151571Y-85562000D01*
X70431638Y-85445992D01*
X70645992Y-85231638D01*
X70762000Y-84951571D01*
X70762000Y-84648429D01*
X70645992Y-84368362D01*
X70635000Y-84357370D01*
X70635000Y-83964941D01*
X71363170Y-83964941D01*
X71458710Y-84445253D01*
X71730785Y-84852442D01*
X72137974Y-85124517D01*
X72497047Y-85195941D01*
X72739525Y-85195941D01*
X73098598Y-85124517D01*
X73505787Y-84852442D01*
X73777862Y-84445253D01*
X73873402Y-83964941D01*
X73903170Y-83964941D01*
X73998710Y-84445253D01*
X74270785Y-84852442D01*
X74677974Y-85124517D01*
X75037047Y-85195941D01*
X75279525Y-85195941D01*
X75638598Y-85124517D01*
X76045787Y-84852442D01*
X76317862Y-84445253D01*
X76413402Y-83964941D01*
X76443170Y-83964941D01*
X76538710Y-84445253D01*
X76810785Y-84852442D01*
X77217974Y-85124517D01*
X77577047Y-85195941D01*
X77819525Y-85195941D01*
X78178598Y-85124517D01*
X78585787Y-84852442D01*
X78856041Y-84447978D01*
X79043103Y-84846299D01*
X79471362Y-85236586D01*
X79881396Y-85406417D01*
X80111286Y-85285096D01*
X80111286Y-84091941D01*
X80365286Y-84091941D01*
X80365286Y-85285096D01*
X80595176Y-85406417D01*
X81005210Y-85236586D01*
X81303150Y-84965063D01*
X81389959Y-85174639D01*
X81568587Y-85353268D01*
X81801976Y-85449941D01*
X82492536Y-85449941D01*
X82651286Y-85291191D01*
X82651286Y-84091941D01*
X82905286Y-84091941D01*
X82905286Y-85291191D01*
X83064036Y-85449941D01*
X83754596Y-85449941D01*
X83987985Y-85353268D01*
X84166613Y-85174639D01*
X84263286Y-84941250D01*
X84263286Y-84250691D01*
X84104536Y-84091941D01*
X82905286Y-84091941D01*
X82651286Y-84091941D01*
X80365286Y-84091941D01*
X80111286Y-84091941D01*
X80091286Y-84091941D01*
X80091286Y-83837941D01*
X80111286Y-83837941D01*
X80111286Y-82644786D01*
X80365286Y-82644786D01*
X80365286Y-83837941D01*
X82651286Y-83837941D01*
X82651286Y-82638691D01*
X82905286Y-82638691D01*
X82905286Y-83837941D01*
X84104536Y-83837941D01*
X84263286Y-83679191D01*
X84263286Y-82988632D01*
X84166613Y-82755243D01*
X83987985Y-82576614D01*
X83754596Y-82479941D01*
X83064036Y-82479941D01*
X82905286Y-82638691D01*
X82651286Y-82638691D01*
X82492536Y-82479941D01*
X81801976Y-82479941D01*
X81568587Y-82576614D01*
X81389959Y-82755243D01*
X81303150Y-82964819D01*
X81005210Y-82693296D01*
X80595176Y-82523465D01*
X80365286Y-82644786D01*
X80111286Y-82644786D01*
X79881396Y-82523465D01*
X79471362Y-82693296D01*
X79043103Y-83083583D01*
X78856041Y-83481904D01*
X78585787Y-83077440D01*
X78178598Y-82805365D01*
X77819525Y-82733941D01*
X77577047Y-82733941D01*
X77217974Y-82805365D01*
X76810785Y-83077440D01*
X76538710Y-83484629D01*
X76443170Y-83964941D01*
X76413402Y-83964941D01*
X76317862Y-83484629D01*
X76045787Y-83077440D01*
X75638598Y-82805365D01*
X75279525Y-82733941D01*
X75037047Y-82733941D01*
X74677974Y-82805365D01*
X74270785Y-83077440D01*
X73998710Y-83484629D01*
X73903170Y-83964941D01*
X73873402Y-83964941D01*
X73777862Y-83484629D01*
X73505787Y-83077440D01*
X73098598Y-82805365D01*
X72739525Y-82733941D01*
X72497047Y-82733941D01*
X72137974Y-82805365D01*
X71730785Y-83077440D01*
X71458710Y-83484629D01*
X71363170Y-83964941D01*
X70635000Y-83964941D01*
X70635000Y-83262537D01*
X70647439Y-83200000D01*
X70635000Y-83137463D01*
X70635000Y-83137459D01*
X70598157Y-82952235D01*
X70457809Y-82742191D01*
X70404789Y-82706764D01*
X69362000Y-81663976D01*
X69362000Y-81648429D01*
X69245992Y-81368362D01*
X69131631Y-81254001D01*
X74080428Y-81254001D01*
X74154008Y-81431638D01*
X74368362Y-81645992D01*
X74648429Y-81762000D01*
X74951571Y-81762000D01*
X75231638Y-81645992D01*
X75445992Y-81431638D01*
X75562000Y-81151571D01*
X75562000Y-80848429D01*
X75445992Y-80568362D01*
X75231638Y-80354008D01*
X74951571Y-80238000D01*
X74936024Y-80238000D01*
X74912239Y-80214215D01*
X74876810Y-80161192D01*
X74666766Y-80020844D01*
X74481542Y-79984001D01*
X74481538Y-79984001D01*
X74419001Y-79971562D01*
X74356464Y-79984001D01*
X65225196Y-79984001D01*
X65162659Y-79971562D01*
X65100122Y-79984001D01*
X65100118Y-79984001D01*
X64914894Y-80020844D01*
X64757869Y-80125765D01*
X64757868Y-80125766D01*
X64704850Y-80161192D01*
X64669425Y-80214210D01*
X62767043Y-82116593D01*
X62767040Y-82116595D01*
X62654805Y-82228830D01*
X62639259Y-82228830D01*
X62359192Y-82344838D01*
X62144838Y-82559192D01*
X62028830Y-82839259D01*
X56757833Y-82839259D01*
X56757833Y-79501376D01*
X57470791Y-78788420D01*
X57648429Y-78862000D01*
X57951571Y-78862000D01*
X58231638Y-78745992D01*
X58445992Y-78531638D01*
X58562000Y-78251571D01*
X58562000Y-77948429D01*
X58445992Y-77668362D01*
X58231638Y-77454008D01*
X57951571Y-77338000D01*
X57648429Y-77338000D01*
X57368362Y-77454008D01*
X57357370Y-77465000D01*
X57323722Y-77465000D01*
X57261185Y-77452561D01*
X57198648Y-77465000D01*
X57198644Y-77465000D01*
X57013420Y-77501843D01*
X56856395Y-77606764D01*
X56856393Y-77606766D01*
X56803376Y-77642191D01*
X56767950Y-77695209D01*
X55718047Y-78745114D01*
X55665024Y-78780543D01*
X55524676Y-78990588D01*
X55487833Y-79175812D01*
X55487833Y-79175815D01*
X55475394Y-79238352D01*
X55487833Y-79300889D01*
X55487834Y-88998640D01*
X55487833Y-88998645D01*
X55487833Y-89157370D01*
X55476841Y-89168362D01*
X55360833Y-89448429D01*
X53749595Y-89448429D01*
X54704788Y-88493236D01*
X54757809Y-88457809D01*
X54898157Y-88247765D01*
X54935000Y-88062541D01*
X54935000Y-88062536D01*
X54947439Y-88000001D01*
X54935000Y-87937465D01*
X54935000Y-72963024D01*
X55249595Y-72648429D01*
X57538000Y-72648429D01*
X57538000Y-72951571D01*
X57654008Y-73231638D01*
X57868362Y-73445992D01*
X58148429Y-73562000D01*
X58163976Y-73562000D01*
X60787435Y-76185460D01*
X60822862Y-76238480D01*
X61032906Y-76378828D01*
X61218130Y-76415671D01*
X61218135Y-76415671D01*
X61280670Y-76428110D01*
X61343206Y-76415671D01*
X66217647Y-76415671D01*
X66538000Y-76736025D01*
X66538000Y-76751571D01*
X66654008Y-77031638D01*
X66868362Y-77245992D01*
X67148429Y-77362000D01*
X67451571Y-77362000D01*
X67731638Y-77245992D01*
X67945992Y-77031638D01*
X68062000Y-76751571D01*
X68062000Y-76448429D01*
X67979808Y-76250000D01*
X68851536Y-76250000D01*
X68851536Y-78950000D01*
X68881106Y-79098659D01*
X68965314Y-79224686D01*
X69091341Y-79308894D01*
X69240000Y-79338464D01*
X70840000Y-79338464D01*
X70988659Y-79308894D01*
X71114686Y-79224686D01*
X71198894Y-79098659D01*
X71228464Y-78950000D01*
X71228464Y-76933683D01*
X73939000Y-76933683D01*
X73939000Y-78266318D01*
X74007522Y-78610803D01*
X74268548Y-79001453D01*
X74659198Y-79262478D01*
X75120000Y-79354137D01*
X75580803Y-79262478D01*
X75971453Y-79001453D01*
X76232478Y-78610803D01*
X76301000Y-78266318D01*
X76301000Y-77727000D01*
X78765000Y-77727000D01*
X78765000Y-78277000D01*
X78922834Y-78816483D01*
X79275104Y-79254500D01*
X79768181Y-79524367D01*
X79850961Y-79541904D01*
X80073000Y-79419915D01*
X80073000Y-77727000D01*
X80327000Y-77727000D01*
X80327000Y-79419915D01*
X80549039Y-79541904D01*
X80631819Y-79524367D01*
X81124896Y-79254500D01*
X81477166Y-78816483D01*
X81635000Y-78277000D01*
X81635000Y-77727000D01*
X83845000Y-77727000D01*
X83845000Y-78277000D01*
X84002834Y-78816483D01*
X84355104Y-79254500D01*
X84848181Y-79524367D01*
X84930961Y-79541904D01*
X85050823Y-79476051D01*
X84938000Y-79748429D01*
X84938000Y-80051571D01*
X85054008Y-80331638D01*
X85268362Y-80545992D01*
X85314251Y-80565000D01*
X85142630Y-80565000D01*
X85131638Y-80554008D01*
X84851571Y-80438000D01*
X84548429Y-80438000D01*
X84268362Y-80554008D01*
X84054008Y-80768362D01*
X83938000Y-81048429D01*
X83938000Y-81351571D01*
X84054008Y-81631638D01*
X84268362Y-81845992D01*
X84548429Y-81962000D01*
X84851571Y-81962000D01*
X85131638Y-81845992D01*
X85142630Y-81835000D01*
X92457370Y-81835000D01*
X92468362Y-81845992D01*
X92598748Y-81900000D01*
X92468362Y-81954008D01*
X92457370Y-81965000D01*
X86042630Y-81965000D01*
X86031638Y-81954008D01*
X85751571Y-81838000D01*
X85448429Y-81838000D01*
X85168362Y-81954008D01*
X84954008Y-82168362D01*
X84838000Y-82448429D01*
X84838000Y-82751571D01*
X84954008Y-83031638D01*
X85168362Y-83245992D01*
X85448429Y-83362000D01*
X85751571Y-83362000D01*
X86031638Y-83245992D01*
X86042630Y-83235000D01*
X92457370Y-83235000D01*
X92468362Y-83245992D01*
X92748429Y-83362000D01*
X93051571Y-83362000D01*
X93331638Y-83245992D01*
X93545992Y-83031638D01*
X93662000Y-82751571D01*
X93662000Y-82448429D01*
X93545992Y-82168362D01*
X93331638Y-81954008D01*
X93201252Y-81900000D01*
X93331638Y-81845992D01*
X93545992Y-81631638D01*
X93605550Y-81487852D01*
X97165001Y-85047304D01*
X97165000Y-92498648D01*
X97152561Y-92561185D01*
X97165000Y-92623722D01*
X97165000Y-92623725D01*
X97201843Y-92808949D01*
X97342191Y-93018994D01*
X97395214Y-93054423D01*
X99611580Y-95270791D01*
X99538000Y-95448429D01*
X99538000Y-95751571D01*
X99654008Y-96031638D01*
X99868362Y-96245992D01*
X100148429Y-96362000D01*
X100451571Y-96362000D01*
X100731638Y-96245992D01*
X100945992Y-96031638D01*
X101062000Y-95751571D01*
X101062000Y-95448429D01*
X100945992Y-95168362D01*
X100935000Y-95157370D01*
X100935000Y-95123722D01*
X100947439Y-95061185D01*
X100935000Y-94998648D01*
X100935000Y-94998644D01*
X100898157Y-94813420D01*
X100796981Y-94662000D01*
X100793236Y-94656395D01*
X100793234Y-94656393D01*
X100757809Y-94603376D01*
X100704791Y-94567951D01*
X98435000Y-92298161D01*
X98435000Y-84846814D01*
X98447439Y-84784277D01*
X98435000Y-84721740D01*
X98435000Y-84721737D01*
X98398157Y-84536513D01*
X98257809Y-84326469D01*
X98204789Y-84291042D01*
X93408960Y-79495214D01*
X93373531Y-79442191D01*
X93163487Y-79301843D01*
X92978263Y-79265000D01*
X92978259Y-79265000D01*
X92915722Y-79252561D01*
X92853185Y-79265000D01*
X86185711Y-79265000D01*
X86204896Y-79254500D01*
X86557166Y-78816483D01*
X86715000Y-78277000D01*
X86715000Y-77727000D01*
X85407000Y-77727000D01*
X85407000Y-77747000D01*
X85153000Y-77747000D01*
X85153000Y-77727000D01*
X83845000Y-77727000D01*
X81635000Y-77727000D01*
X80327000Y-77727000D01*
X80073000Y-77727000D01*
X78765000Y-77727000D01*
X76301000Y-77727000D01*
X76301000Y-76933682D01*
X76298876Y-76923000D01*
X78765000Y-76923000D01*
X78765000Y-77473000D01*
X80073000Y-77473000D01*
X80073000Y-75780085D01*
X80327000Y-75780085D01*
X80327000Y-77473000D01*
X81635000Y-77473000D01*
X81635000Y-76923000D01*
X83845000Y-76923000D01*
X83845000Y-77473000D01*
X85153000Y-77473000D01*
X85153000Y-75780085D01*
X85407000Y-75780085D01*
X85407000Y-77473000D01*
X86715000Y-77473000D01*
X86715000Y-76923000D01*
X86557166Y-76383517D01*
X86432483Y-76228485D01*
X86631638Y-76145992D01*
X86642630Y-76135000D01*
X88836148Y-76135000D01*
X88898685Y-76147439D01*
X88961222Y-76135000D01*
X88961226Y-76135000D01*
X89146450Y-76098157D01*
X89356494Y-75957809D01*
X89391923Y-75904786D01*
X89970790Y-75325919D01*
X90148429Y-75399500D01*
X90451571Y-75399500D01*
X90554001Y-75357072D01*
X90554001Y-75626464D01*
X90541562Y-75689001D01*
X90554001Y-75751538D01*
X90554001Y-75751541D01*
X90590844Y-75936765D01*
X90731192Y-76146810D01*
X90784215Y-76182239D01*
X91938000Y-77336025D01*
X91938000Y-77351571D01*
X92054008Y-77631638D01*
X92268362Y-77845992D01*
X92548429Y-77962000D01*
X92851571Y-77962000D01*
X93131638Y-77845992D01*
X93345992Y-77631638D01*
X93462000Y-77351571D01*
X93462000Y-77048429D01*
X93345992Y-76768362D01*
X93131638Y-76554008D01*
X92851571Y-76438000D01*
X92836025Y-76438000D01*
X91824001Y-75425977D01*
X91824001Y-74273316D01*
X91836440Y-74210779D01*
X91824001Y-74148242D01*
X91824001Y-74148238D01*
X91787158Y-73963014D01*
X91712694Y-73851571D01*
X91682237Y-73805989D01*
X91682235Y-73805987D01*
X91646810Y-73752970D01*
X91593792Y-73717544D01*
X91171460Y-73295213D01*
X91136031Y-73242191D01*
X90925987Y-73101843D01*
X90740763Y-73065000D01*
X90740759Y-73065000D01*
X90678222Y-73052561D01*
X90615685Y-73065000D01*
X87442630Y-73065000D01*
X87431638Y-73054008D01*
X87151571Y-72938000D01*
X86848429Y-72938000D01*
X86568362Y-73054008D01*
X86354008Y-73268362D01*
X86238000Y-73548429D01*
X86238000Y-73851571D01*
X86354008Y-74131638D01*
X86568362Y-74345992D01*
X86848429Y-74462000D01*
X87151571Y-74462000D01*
X87431638Y-74345992D01*
X87442630Y-74335000D01*
X89165660Y-74335000D01*
X88635661Y-74865000D01*
X86642630Y-74865000D01*
X86631638Y-74854008D01*
X86351571Y-74738000D01*
X86048429Y-74738000D01*
X85768362Y-74854008D01*
X85554008Y-75068362D01*
X85438000Y-75348429D01*
X85438000Y-75651571D01*
X85475617Y-75742386D01*
X85407000Y-75780085D01*
X85153000Y-75780085D01*
X84930961Y-75658096D01*
X84848181Y-75675633D01*
X84355104Y-75945500D01*
X84002834Y-76383517D01*
X83845000Y-76923000D01*
X81635000Y-76923000D01*
X81477166Y-76383517D01*
X81124896Y-75945500D01*
X80631819Y-75675633D01*
X80549039Y-75658096D01*
X80327000Y-75780085D01*
X80073000Y-75780085D01*
X79850961Y-75658096D01*
X79768181Y-75675633D01*
X79275104Y-75945500D01*
X78922834Y-76383517D01*
X78765000Y-76923000D01*
X76298876Y-76923000D01*
X76232478Y-76589197D01*
X75971453Y-76198547D01*
X75580802Y-75937522D01*
X75120000Y-75845863D01*
X74659197Y-75937522D01*
X74268547Y-76198547D01*
X74007522Y-76589198D01*
X73939000Y-76933683D01*
X71228464Y-76933683D01*
X71228464Y-76250000D01*
X71198894Y-76101341D01*
X71114686Y-75975314D01*
X70988659Y-75891106D01*
X70840000Y-75861536D01*
X69240000Y-75861536D01*
X69091341Y-75891106D01*
X68965314Y-75975314D01*
X68881106Y-76101341D01*
X68851536Y-76250000D01*
X67979808Y-76250000D01*
X67945992Y-76168362D01*
X67731638Y-75954008D01*
X67451571Y-75838000D01*
X67436025Y-75838000D01*
X67124694Y-75526670D01*
X72949040Y-75526670D01*
X72960032Y-75537662D01*
X73240099Y-75653670D01*
X73543241Y-75653670D01*
X73823308Y-75537662D01*
X74037662Y-75323308D01*
X74153670Y-75043241D01*
X74153670Y-74740099D01*
X74037662Y-74460032D01*
X73912630Y-74335000D01*
X74157370Y-74335000D01*
X74168362Y-74345992D01*
X74448429Y-74462000D01*
X74751571Y-74462000D01*
X75031638Y-74345992D01*
X75245992Y-74131638D01*
X75362000Y-73851571D01*
X75362000Y-73548429D01*
X75269226Y-73324454D01*
X75580803Y-73262478D01*
X75971453Y-73001453D01*
X76232478Y-72610803D01*
X76301000Y-72266318D01*
X76301000Y-71727000D01*
X78765000Y-71727000D01*
X78765000Y-72277000D01*
X78922834Y-72816483D01*
X79275104Y-73254500D01*
X79768181Y-73524367D01*
X79850961Y-73541904D01*
X80073000Y-73419915D01*
X80073000Y-71727000D01*
X80327000Y-71727000D01*
X80327000Y-73419915D01*
X80549039Y-73541904D01*
X80631819Y-73524367D01*
X81124896Y-73254500D01*
X81477166Y-72816483D01*
X81635000Y-72277000D01*
X81635000Y-71727000D01*
X83845000Y-71727000D01*
X83845000Y-72277000D01*
X84002834Y-72816483D01*
X84355104Y-73254500D01*
X84848181Y-73524367D01*
X84930961Y-73541904D01*
X85153000Y-73419915D01*
X85153000Y-71727000D01*
X85407000Y-71727000D01*
X85407000Y-73419915D01*
X85629039Y-73541904D01*
X85711819Y-73524367D01*
X86204896Y-73254500D01*
X86557166Y-72816483D01*
X86715000Y-72277000D01*
X86715000Y-71727000D01*
X85407000Y-71727000D01*
X85153000Y-71727000D01*
X83845000Y-71727000D01*
X81635000Y-71727000D01*
X80327000Y-71727000D01*
X80073000Y-71727000D01*
X78765000Y-71727000D01*
X76301000Y-71727000D01*
X76301000Y-70933682D01*
X76298876Y-70923000D01*
X78765000Y-70923000D01*
X78765000Y-71473000D01*
X80073000Y-71473000D01*
X80073000Y-69780085D01*
X80327000Y-69780085D01*
X80327000Y-71473000D01*
X81635000Y-71473000D01*
X81635000Y-70923000D01*
X83845000Y-70923000D01*
X83845000Y-71473000D01*
X85153000Y-71473000D01*
X85153000Y-69780085D01*
X85407000Y-69780085D01*
X85407000Y-71473000D01*
X86715000Y-71473000D01*
X86715000Y-70923000D01*
X86557166Y-70383517D01*
X86204896Y-69945500D01*
X85711819Y-69675633D01*
X85629039Y-69658096D01*
X85407000Y-69780085D01*
X85153000Y-69780085D01*
X84930961Y-69658096D01*
X84848181Y-69675633D01*
X84355104Y-69945500D01*
X84002834Y-70383517D01*
X83845000Y-70923000D01*
X81635000Y-70923000D01*
X81477166Y-70383517D01*
X81124896Y-69945500D01*
X80631819Y-69675633D01*
X80549039Y-69658096D01*
X80327000Y-69780085D01*
X80073000Y-69780085D01*
X79850961Y-69658096D01*
X79768181Y-69675633D01*
X79275104Y-69945500D01*
X78922834Y-70383517D01*
X78765000Y-70923000D01*
X76298876Y-70923000D01*
X76232478Y-70589197D01*
X75971453Y-70198547D01*
X75580802Y-69937522D01*
X75120000Y-69845863D01*
X74659197Y-69937522D01*
X74268547Y-70198547D01*
X74007522Y-70589198D01*
X73939000Y-70933683D01*
X73939000Y-72266318D01*
X74007522Y-72610803D01*
X74268548Y-73001453D01*
X74278763Y-73008278D01*
X74168362Y-73054008D01*
X74157370Y-73065000D01*
X71205589Y-73065000D01*
X71228464Y-72950000D01*
X71228464Y-70250000D01*
X71198894Y-70101341D01*
X71114686Y-69975314D01*
X70988659Y-69891106D01*
X70840000Y-69861536D01*
X69240000Y-69861536D01*
X69091341Y-69891106D01*
X68965314Y-69975314D01*
X68881106Y-70101341D01*
X68851536Y-70250000D01*
X68851536Y-72950000D01*
X68874411Y-73065000D01*
X65563026Y-73065000D01*
X65062000Y-72563975D01*
X65062000Y-72548429D01*
X64945992Y-72268362D01*
X64731638Y-72054008D01*
X64451571Y-71938000D01*
X64148429Y-71938000D01*
X63868362Y-72054008D01*
X63654008Y-72268362D01*
X63538000Y-72548429D01*
X63538000Y-72851571D01*
X63654008Y-73131638D01*
X63868362Y-73345992D01*
X64148429Y-73462000D01*
X64163975Y-73462000D01*
X64806765Y-74104791D01*
X64842191Y-74157809D01*
X64895208Y-74193234D01*
X64895210Y-74193236D01*
X65052235Y-74298157D01*
X65300000Y-74347440D01*
X65362541Y-74335000D01*
X65387370Y-74335000D01*
X65262338Y-74460032D01*
X65146330Y-74740099D01*
X65146330Y-75043241D01*
X65188758Y-75145671D01*
X61543696Y-75145671D01*
X59062000Y-72663976D01*
X59062000Y-72648429D01*
X58945992Y-72368362D01*
X58731638Y-72154008D01*
X58451571Y-72038000D01*
X58148429Y-72038000D01*
X57868362Y-72154008D01*
X57654008Y-72368362D01*
X57538000Y-72648429D01*
X55249595Y-72648429D01*
X57736026Y-70162000D01*
X57751571Y-70162000D01*
X58031638Y-70045992D01*
X58245992Y-69831638D01*
X58362000Y-69551571D01*
X58362000Y-69248429D01*
X58245992Y-68968362D01*
X58031638Y-68754008D01*
X57751571Y-68638000D01*
X57448429Y-68638000D01*
X57168362Y-68754008D01*
X57157370Y-68765000D01*
X53242630Y-68765000D01*
X53231638Y-68754008D01*
X52951571Y-68638000D01*
X52648429Y-68638000D01*
X52545999Y-68680428D01*
X52545999Y-68208429D01*
X84178000Y-68208429D01*
X84178000Y-68511571D01*
X84294008Y-68791638D01*
X84508362Y-69005992D01*
X84788429Y-69122000D01*
X85091571Y-69122000D01*
X85371638Y-69005992D01*
X85382630Y-68995000D01*
X89261536Y-68995000D01*
X89261536Y-69160000D01*
X89291106Y-69308659D01*
X89375314Y-69434686D01*
X89501341Y-69518894D01*
X89650000Y-69548464D01*
X92350000Y-69548464D01*
X92498659Y-69518894D01*
X92624686Y-69434686D01*
X92708894Y-69308659D01*
X92738464Y-69160000D01*
X92738464Y-67560000D01*
X92708894Y-67411341D01*
X92624686Y-67285314D01*
X92498659Y-67201106D01*
X92350000Y-67171536D01*
X89650000Y-67171536D01*
X89501341Y-67201106D01*
X89375314Y-67285314D01*
X89291106Y-67411341D01*
X89261536Y-67560000D01*
X89261536Y-67725000D01*
X85382630Y-67725000D01*
X85371638Y-67714008D01*
X85091571Y-67598000D01*
X84788429Y-67598000D01*
X84508362Y-67714008D01*
X84294008Y-67928362D01*
X84178000Y-68208429D01*
X52545999Y-68208429D01*
X52545999Y-68036303D01*
X53363025Y-67219278D01*
X57657370Y-67219278D01*
X57668362Y-67230270D01*
X57948429Y-67346278D01*
X58251571Y-67346278D01*
X58531638Y-67230270D01*
X58745992Y-67015916D01*
X58862000Y-66735849D01*
X58862000Y-66432707D01*
X58745992Y-66152640D01*
X58531638Y-65938286D01*
X58251571Y-65822278D01*
X57948429Y-65822278D01*
X57668362Y-65938286D01*
X57657370Y-65949278D01*
X53162535Y-65949278D01*
X53099999Y-65936839D01*
X53037464Y-65949278D01*
X53037459Y-65949278D01*
X52852235Y-65986121D01*
X52642191Y-66126469D01*
X52606764Y-66179490D01*
X51506211Y-67280043D01*
X51453191Y-67315470D01*
X51417764Y-67368490D01*
X51312842Y-67525515D01*
X51263560Y-67773279D01*
X50431000Y-67773279D01*
X50431000Y-64250000D01*
X68851536Y-64250000D01*
X68851536Y-66950000D01*
X68881106Y-67098659D01*
X68965314Y-67224686D01*
X69091341Y-67308894D01*
X69240000Y-67338464D01*
X70840000Y-67338464D01*
X70988659Y-67308894D01*
X71114686Y-67224686D01*
X71198894Y-67098659D01*
X71228464Y-66950000D01*
X71228464Y-64933683D01*
X73939000Y-64933683D01*
X73939000Y-66266318D01*
X74007522Y-66610803D01*
X74268548Y-67001453D01*
X74659198Y-67262478D01*
X75120000Y-67354137D01*
X75580803Y-67262478D01*
X75971453Y-67001453D01*
X76232478Y-66610803D01*
X76301000Y-66266318D01*
X76301000Y-65727000D01*
X78765000Y-65727000D01*
X78765000Y-66277000D01*
X78922834Y-66816483D01*
X79275104Y-67254500D01*
X79768181Y-67524367D01*
X79850961Y-67541904D01*
X80073000Y-67419915D01*
X80073000Y-65727000D01*
X80327000Y-65727000D01*
X80327000Y-67419915D01*
X80549039Y-67541904D01*
X80631819Y-67524367D01*
X81124896Y-67254500D01*
X81477166Y-66816483D01*
X81635000Y-66277000D01*
X81635000Y-65727000D01*
X83845000Y-65727000D01*
X83845000Y-66277000D01*
X84002834Y-66816483D01*
X84355104Y-67254500D01*
X84848181Y-67524367D01*
X84930961Y-67541904D01*
X85153000Y-67419915D01*
X85153000Y-65727000D01*
X85407000Y-65727000D01*
X85407000Y-67419915D01*
X85629039Y-67541904D01*
X85711819Y-67524367D01*
X86204896Y-67254500D01*
X86557166Y-66816483D01*
X86715000Y-66277000D01*
X86715000Y-66000000D01*
X95294884Y-66000000D01*
X95390424Y-66480312D01*
X95662499Y-66887501D01*
X96069688Y-67159576D01*
X96428761Y-67231000D01*
X96671239Y-67231000D01*
X97030312Y-67159576D01*
X97437501Y-66887501D01*
X97709576Y-66480312D01*
X97805116Y-66000000D01*
X97709576Y-65519688D01*
X97437501Y-65112499D01*
X97030312Y-64840424D01*
X96671239Y-64769000D01*
X96428761Y-64769000D01*
X96069688Y-64840424D01*
X95662499Y-65112499D01*
X95390424Y-65519688D01*
X95294884Y-66000000D01*
X86715000Y-66000000D01*
X86715000Y-65727000D01*
X85407000Y-65727000D01*
X85153000Y-65727000D01*
X83845000Y-65727000D01*
X81635000Y-65727000D01*
X80327000Y-65727000D01*
X80073000Y-65727000D01*
X78765000Y-65727000D01*
X76301000Y-65727000D01*
X76301000Y-64933682D01*
X76298876Y-64923000D01*
X78765000Y-64923000D01*
X78765000Y-65473000D01*
X80073000Y-65473000D01*
X80073000Y-63780085D01*
X80327000Y-63780085D01*
X80327000Y-65473000D01*
X81635000Y-65473000D01*
X81635000Y-64923000D01*
X83845000Y-64923000D01*
X83845000Y-65473000D01*
X85153000Y-65473000D01*
X85153000Y-63780085D01*
X85407000Y-63780085D01*
X85407000Y-65473000D01*
X86715000Y-65473000D01*
X86715000Y-64923000D01*
X86557166Y-64383517D01*
X86204896Y-63945500D01*
X85711819Y-63675633D01*
X85629039Y-63658096D01*
X85407000Y-63780085D01*
X85153000Y-63780085D01*
X84930961Y-63658096D01*
X84848181Y-63675633D01*
X84355104Y-63945500D01*
X84002834Y-64383517D01*
X83845000Y-64923000D01*
X81635000Y-64923000D01*
X81477166Y-64383517D01*
X81124896Y-63945500D01*
X80631819Y-63675633D01*
X80549039Y-63658096D01*
X80327000Y-63780085D01*
X80073000Y-63780085D01*
X79850961Y-63658096D01*
X79768181Y-63675633D01*
X79275104Y-63945500D01*
X78922834Y-64383517D01*
X78765000Y-64923000D01*
X76298876Y-64923000D01*
X76232478Y-64589197D01*
X75971453Y-64198547D01*
X75580802Y-63937522D01*
X75120000Y-63845863D01*
X74659197Y-63937522D01*
X74268547Y-64198547D01*
X74007522Y-64589198D01*
X73939000Y-64933683D01*
X71228464Y-64933683D01*
X71228464Y-64250000D01*
X71198894Y-64101341D01*
X71114686Y-63975314D01*
X70988659Y-63891106D01*
X70840000Y-63861536D01*
X69240000Y-63861536D01*
X69091341Y-63891106D01*
X68965314Y-63975314D01*
X68881106Y-64101341D01*
X68851536Y-64250000D01*
X50431000Y-64250000D01*
X50431000Y-63280000D01*
X89245863Y-63280000D01*
X89337522Y-63740803D01*
X89598547Y-64131453D01*
X89989197Y-64392478D01*
X90333682Y-64461000D01*
X91666318Y-64461000D01*
X92010803Y-64392478D01*
X92401453Y-64131453D01*
X92662478Y-63740803D01*
X92718332Y-63460000D01*
X95294884Y-63460000D01*
X95390424Y-63940312D01*
X95662499Y-64347501D01*
X96069688Y-64619576D01*
X96428761Y-64691000D01*
X96671239Y-64691000D01*
X97030312Y-64619576D01*
X97437501Y-64347501D01*
X97606217Y-64095000D01*
X100317370Y-64095000D01*
X100368362Y-64145992D01*
X100648429Y-64262000D01*
X100951571Y-64262000D01*
X101231638Y-64145992D01*
X101445992Y-63931638D01*
X101562000Y-63651571D01*
X101562000Y-63348429D01*
X101445992Y-63068362D01*
X101231638Y-62854008D01*
X100951571Y-62738000D01*
X100648429Y-62738000D01*
X100438393Y-62825000D01*
X97606217Y-62825000D01*
X97437501Y-62572499D01*
X97030312Y-62300424D01*
X96671239Y-62229000D01*
X96428761Y-62229000D01*
X96069688Y-62300424D01*
X95662499Y-62572499D01*
X95390424Y-62979688D01*
X95294884Y-63460000D01*
X92718332Y-63460000D01*
X92754137Y-63280000D01*
X92662478Y-62819197D01*
X92401453Y-62428547D01*
X92010803Y-62167522D01*
X91666318Y-62099000D01*
X90333682Y-62099000D01*
X89989197Y-62167522D01*
X89598547Y-62428547D01*
X89337522Y-62819197D01*
X89245863Y-63280000D01*
X50431000Y-63280000D01*
X50431000Y-58785519D01*
X68669000Y-58785519D01*
X68669000Y-59414481D01*
X68909693Y-59995565D01*
X69354435Y-60440307D01*
X69935519Y-60681000D01*
X70564481Y-60681000D01*
X70771374Y-60595302D01*
X74599000Y-60595302D01*
X74599000Y-61144698D01*
X74809245Y-61652273D01*
X75197727Y-62040755D01*
X75705302Y-62251000D01*
X76254698Y-62251000D01*
X76762273Y-62040755D01*
X77150755Y-61652273D01*
X77361000Y-61144698D01*
X77361000Y-60595302D01*
X78139000Y-60595302D01*
X78139000Y-61144698D01*
X78349245Y-61652273D01*
X78737727Y-62040755D01*
X79245302Y-62251000D01*
X79794698Y-62251000D01*
X80302273Y-62040755D01*
X80690755Y-61652273D01*
X80901000Y-61144698D01*
X80901000Y-60595302D01*
X80690755Y-60087727D01*
X80302273Y-59699245D01*
X79794698Y-59489000D01*
X79245302Y-59489000D01*
X78737727Y-59699245D01*
X78349245Y-60087727D01*
X78139000Y-60595302D01*
X77361000Y-60595302D01*
X77150755Y-60087727D01*
X76762273Y-59699245D01*
X76254698Y-59489000D01*
X75705302Y-59489000D01*
X75197727Y-59699245D01*
X74809245Y-60087727D01*
X74599000Y-60595302D01*
X70771374Y-60595302D01*
X71145565Y-60440307D01*
X71590307Y-59995565D01*
X71831000Y-59414481D01*
X71831000Y-58785519D01*
X71828941Y-58780547D01*
X83644000Y-58780547D01*
X83644000Y-59419453D01*
X83888499Y-60009726D01*
X84340274Y-60461501D01*
X84930547Y-60706000D01*
X85569453Y-60706000D01*
X86159726Y-60461501D01*
X86611501Y-60009726D01*
X86856000Y-59419453D01*
X86856000Y-58780547D01*
X86760107Y-58549039D01*
X89058096Y-58549039D01*
X89075633Y-58631819D01*
X89345500Y-59124896D01*
X89783517Y-59477166D01*
X90323000Y-59635000D01*
X90873000Y-59635000D01*
X90873000Y-58327000D01*
X91127000Y-58327000D01*
X91127000Y-59635000D01*
X91677000Y-59635000D01*
X92216483Y-59477166D01*
X92654500Y-59124896D01*
X92866860Y-58736890D01*
X95108524Y-58736890D01*
X95278355Y-59146924D01*
X95668642Y-59575183D01*
X96066963Y-59762245D01*
X95662499Y-60032499D01*
X95390424Y-60439688D01*
X95294884Y-60920000D01*
X95390424Y-61400312D01*
X95662499Y-61807501D01*
X96069688Y-62079576D01*
X96428761Y-62151000D01*
X96671239Y-62151000D01*
X97030312Y-62079576D01*
X97437501Y-61807501D01*
X97709576Y-61400312D01*
X97805116Y-60920000D01*
X97709576Y-60439688D01*
X97437501Y-60032499D01*
X97033037Y-59762245D01*
X97431358Y-59575183D01*
X97821645Y-59146924D01*
X97991476Y-58736890D01*
X97870155Y-58507000D01*
X96677000Y-58507000D01*
X96677000Y-58527000D01*
X96423000Y-58527000D01*
X96423000Y-58507000D01*
X95229845Y-58507000D01*
X95108524Y-58736890D01*
X92866860Y-58736890D01*
X92924367Y-58631819D01*
X92941904Y-58549039D01*
X92819915Y-58327000D01*
X91127000Y-58327000D01*
X90873000Y-58327000D01*
X89180085Y-58327000D01*
X89058096Y-58549039D01*
X86760107Y-58549039D01*
X86611501Y-58190274D01*
X86272188Y-57850961D01*
X89058096Y-57850961D01*
X89180085Y-58073000D01*
X90873000Y-58073000D01*
X90873000Y-56765000D01*
X91127000Y-56765000D01*
X91127000Y-58073000D01*
X92819915Y-58073000D01*
X92941904Y-57850961D01*
X92924367Y-57768181D01*
X92654500Y-57275104D01*
X92216483Y-56922834D01*
X91677000Y-56765000D01*
X91127000Y-56765000D01*
X90873000Y-56765000D01*
X90323000Y-56765000D01*
X89783517Y-56922834D01*
X89345500Y-57275104D01*
X89075633Y-57768181D01*
X89058096Y-57850961D01*
X86272188Y-57850961D01*
X86159726Y-57738499D01*
X85569453Y-57494000D01*
X84930547Y-57494000D01*
X84340274Y-57738499D01*
X83888499Y-58190274D01*
X83644000Y-58780547D01*
X71828941Y-58780547D01*
X71590307Y-58204435D01*
X71145565Y-57759693D01*
X70564481Y-57519000D01*
X69935519Y-57519000D01*
X69354435Y-57759693D01*
X68909693Y-58204435D01*
X68669000Y-58785519D01*
X50431000Y-58785519D01*
X50431000Y-57055302D01*
X74599000Y-57055302D01*
X74599000Y-57604698D01*
X74809245Y-58112273D01*
X75197727Y-58500755D01*
X75705302Y-58711000D01*
X76254698Y-58711000D01*
X76762273Y-58500755D01*
X77150755Y-58112273D01*
X77361000Y-57604698D01*
X77361000Y-57055302D01*
X77186900Y-56634989D01*
X77485461Y-56745908D01*
X78135460Y-56721856D01*
X78306457Y-56651027D01*
X78139000Y-57055302D01*
X78139000Y-57604698D01*
X78349245Y-58112273D01*
X78737727Y-58500755D01*
X79245302Y-58711000D01*
X79794698Y-58711000D01*
X80302273Y-58500755D01*
X80690755Y-58112273D01*
X80901000Y-57604698D01*
X80901000Y-57055302D01*
X80690755Y-56547727D01*
X80302273Y-56159245D01*
X79794698Y-55949000D01*
X79245302Y-55949000D01*
X78915300Y-56085692D01*
X78902534Y-56072926D01*
X79169387Y-55974264D01*
X79395908Y-55364539D01*
X79372643Y-54735792D01*
X83419000Y-54735792D01*
X83419000Y-55464208D01*
X83697753Y-56137178D01*
X84212822Y-56652247D01*
X84885792Y-56931000D01*
X85614208Y-56931000D01*
X86287178Y-56652247D01*
X86802247Y-56137178D01*
X87004693Y-55648429D01*
X92538000Y-55648429D01*
X92538000Y-55951571D01*
X92654008Y-56231638D01*
X92868362Y-56445992D01*
X93148429Y-56562000D01*
X93451571Y-56562000D01*
X93731638Y-56445992D01*
X93742630Y-56435000D01*
X95095429Y-56435000D01*
X95100154Y-56438157D01*
X95285378Y-56475000D01*
X95347919Y-56487440D01*
X95410460Y-56475000D01*
X95493783Y-56475000D01*
X95662499Y-56727501D01*
X96066963Y-56997755D01*
X95668642Y-57184817D01*
X95278355Y-57613076D01*
X95108524Y-58023110D01*
X95229845Y-58253000D01*
X96423000Y-58253000D01*
X96423000Y-58233000D01*
X96677000Y-58233000D01*
X96677000Y-58253000D01*
X97870155Y-58253000D01*
X97991476Y-58023110D01*
X97821645Y-57613076D01*
X97431358Y-57184817D01*
X97033037Y-56997755D01*
X97437501Y-56727501D01*
X97709576Y-56320312D01*
X97805116Y-55840000D01*
X97709576Y-55359688D01*
X97437501Y-54952499D01*
X97030312Y-54680424D01*
X96671239Y-54609000D01*
X96428761Y-54609000D01*
X96069688Y-54680424D01*
X95662499Y-54952499D01*
X95502907Y-55191345D01*
X95370460Y-55165000D01*
X95370456Y-55165000D01*
X95307919Y-55152561D01*
X95245382Y-55165000D01*
X93742630Y-55165000D01*
X93731638Y-55154008D01*
X93451571Y-55038000D01*
X93148429Y-55038000D01*
X92868362Y-55154008D01*
X92654008Y-55368362D01*
X92538000Y-55648429D01*
X87004693Y-55648429D01*
X87081000Y-55464208D01*
X87081000Y-54735792D01*
X86802247Y-54062822D01*
X86287178Y-53547753D01*
X85614208Y-53269000D01*
X84885792Y-53269000D01*
X84212822Y-53547753D01*
X83697753Y-54062822D01*
X83419000Y-54735792D01*
X79372643Y-54735792D01*
X79371856Y-54714540D01*
X79169387Y-54225736D01*
X78902532Y-54127073D01*
X77929605Y-55100000D01*
X77943748Y-55114143D01*
X77764143Y-55293748D01*
X77750000Y-55279605D01*
X77735858Y-55293748D01*
X77556253Y-55114143D01*
X77570395Y-55100000D01*
X76597468Y-54127073D01*
X76330613Y-54225736D01*
X76104092Y-54835461D01*
X76128144Y-55485460D01*
X76330613Y-55974264D01*
X76597466Y-56072926D01*
X76584700Y-56085692D01*
X76254698Y-55949000D01*
X75705302Y-55949000D01*
X75197727Y-56159245D01*
X74809245Y-56547727D01*
X74599000Y-57055302D01*
X50431000Y-57055302D01*
X50431000Y-54735792D01*
X68419000Y-54735792D01*
X68419000Y-55464208D01*
X68697753Y-56137178D01*
X69212822Y-56652247D01*
X69885792Y-56931000D01*
X70614208Y-56931000D01*
X71287178Y-56652247D01*
X71802247Y-56137178D01*
X72081000Y-55464208D01*
X72081000Y-54735792D01*
X71802247Y-54062822D01*
X71686893Y-53947468D01*
X76777073Y-53947468D01*
X77750000Y-54920395D01*
X78722927Y-53947468D01*
X78624264Y-53680613D01*
X78014539Y-53454092D01*
X77364540Y-53478144D01*
X76875736Y-53680613D01*
X76777073Y-53947468D01*
X71686893Y-53947468D01*
X71287178Y-53547753D01*
X70614208Y-53269000D01*
X69885792Y-53269000D01*
X69212822Y-53547753D01*
X68697753Y-54062822D01*
X68419000Y-54735792D01*
X50431000Y-54735792D01*
X50431000Y-53120000D01*
X89245863Y-53120000D01*
X89337522Y-53580803D01*
X89598547Y-53971453D01*
X89989197Y-54232478D01*
X90333682Y-54301000D01*
X91666318Y-54301000D01*
X92010803Y-54232478D01*
X92401453Y-53971453D01*
X92662478Y-53580803D01*
X92754137Y-53120000D01*
X92662478Y-52659197D01*
X92522697Y-52450000D01*
X95311536Y-52450000D01*
X95311536Y-54150000D01*
X95341106Y-54298659D01*
X95425314Y-54424686D01*
X95551341Y-54508894D01*
X95700000Y-54538464D01*
X97400000Y-54538464D01*
X97548659Y-54508894D01*
X97674686Y-54424686D01*
X97758894Y-54298659D01*
X97788464Y-54150000D01*
X97788464Y-52450000D01*
X97758894Y-52301341D01*
X97674686Y-52175314D01*
X97548659Y-52091106D01*
X97400000Y-52061536D01*
X95700000Y-52061536D01*
X95551341Y-52091106D01*
X95425314Y-52175314D01*
X95341106Y-52301341D01*
X95311536Y-52450000D01*
X92522697Y-52450000D01*
X92401453Y-52268547D01*
X92010803Y-52007522D01*
X91666318Y-51939000D01*
X90333682Y-51939000D01*
X89989197Y-52007522D01*
X89598547Y-52268547D01*
X89337522Y-52659197D01*
X89245863Y-53120000D01*
X50431000Y-53120000D01*
X50431000Y-50431000D01*
X105069000Y-50431000D01*
X105069001Y-116264000D01*
X105069001Y-116264000D01*
G37*
X105069001Y-116264000D02*
X96961857Y-116264000D01*
X96961857Y-119569000D01*
X50431000Y-119569000D01*
X50431000Y-116448429D01*
X85138000Y-116448429D01*
X85138000Y-116751571D01*
X85254008Y-117031638D01*
X85468362Y-117245992D01*
X85748429Y-117362000D01*
X86051571Y-117362000D01*
X86331638Y-117245992D01*
X86342630Y-117235000D01*
X90637463Y-117235000D01*
X90700000Y-117247439D01*
X90762537Y-117235000D01*
X90762541Y-117235000D01*
X90947765Y-117198157D01*
X91157809Y-117057809D01*
X91193238Y-117004786D01*
X102636025Y-105562000D01*
X102651571Y-105562000D01*
X102931638Y-105445992D01*
X103145992Y-105231638D01*
X103262000Y-104951571D01*
X103262000Y-104648429D01*
X103145992Y-104368362D01*
X102931638Y-104154008D01*
X102651571Y-104038000D01*
X102348429Y-104038000D01*
X102068362Y-104154008D01*
X101854008Y-104368362D01*
X101738000Y-104648429D01*
X101738000Y-104663975D01*
X90436976Y-115965000D01*
X86342630Y-115965000D01*
X86331638Y-115954008D01*
X86051571Y-115838000D01*
X85748429Y-115838000D01*
X85468362Y-115954008D01*
X85254008Y-116168362D01*
X85138000Y-116448429D01*
X50431000Y-116448429D01*
X50431000Y-67773279D01*
X51263560Y-67773279D01*
X51276000Y-67835821D01*
X51275999Y-72148462D01*
X51263560Y-72210999D01*
X51275999Y-72273536D01*
X51275999Y-72273539D01*
X51312842Y-72458763D01*
X51453190Y-72668808D01*
X51506213Y-72704237D01*
X51938000Y-73136025D01*
X51938000Y-73151571D01*
X52054008Y-73431638D01*
X52268362Y-73645992D01*
X52548429Y-73762000D01*
X52851571Y-73762000D01*
X53131638Y-73645992D01*
X53345992Y-73431638D01*
X53462000Y-73151571D01*
X53462000Y-72848429D01*
X53345992Y-72568362D01*
X53131638Y-72354008D01*
X52851571Y-72238000D01*
X52836025Y-72238000D01*
X52545999Y-71947974D01*
X52545999Y-70119572D01*
X52648429Y-70162000D01*
X52951571Y-70162000D01*
X53231638Y-70045992D01*
X53242630Y-70035000D01*
X56066975Y-70035000D01*
X53895214Y-72206762D01*
X53842191Y-72242191D01*
X53701843Y-72452236D01*
X53665000Y-72637460D01*
X53665000Y-72637463D01*
X53652561Y-72700000D01*
X53665000Y-72762537D01*
X53665001Y-87736974D01*
X52695214Y-88706762D01*
X52642191Y-88742191D01*
X52501843Y-88952236D01*
X52465000Y-89137460D01*
X52465000Y-89137463D01*
X52452561Y-89200000D01*
X52465000Y-89262537D01*
X52465001Y-97237458D01*
X52452561Y-97300000D01*
X52465001Y-97362541D01*
X52465000Y-113262540D01*
X52465001Y-113262545D01*
X52465000Y-114637463D01*
X52452561Y-114700000D01*
X52465000Y-114762537D01*
X52465000Y-114762540D01*
X52501843Y-114947764D01*
X52642191Y-115157809D01*
X52695214Y-115193238D01*
X53506764Y-116004788D01*
X53542191Y-116057809D01*
X53752235Y-116198157D01*
X53937459Y-116235000D01*
X53937462Y-116235000D01*
X53999999Y-116247439D01*
X54062536Y-116235000D01*
X81337463Y-116235000D01*
X81400000Y-116247439D01*
X81462537Y-116235000D01*
X81462541Y-116235000D01*
X81647765Y-116198157D01*
X81857809Y-116057809D01*
X81893238Y-116004786D01*
X89836026Y-108062000D01*
X89851571Y-108062000D01*
X90131638Y-107945992D01*
X90345992Y-107731638D01*
X90462000Y-107451571D01*
X90462000Y-107148429D01*
X90345992Y-106868362D01*
X90131638Y-106654008D01*
X89851571Y-106538000D01*
X89548429Y-106538000D01*
X89268362Y-106654008D01*
X89054008Y-106868362D01*
X88938000Y-107148429D01*
X88938000Y-107163974D01*
X81136976Y-114965000D01*
X54263025Y-114965000D01*
X53735000Y-114436976D01*
X53735000Y-105383429D01*
X70673000Y-105383429D01*
X70673000Y-105686571D01*
X70789008Y-105966638D01*
X71003362Y-106180992D01*
X71283429Y-106297000D01*
X71298975Y-106297000D01*
X71322762Y-106320787D01*
X71358190Y-106373808D01*
X71568234Y-106514156D01*
X71753458Y-106550999D01*
X71753462Y-106550999D01*
X71815999Y-106563438D01*
X71878536Y-106550999D01*
X72652975Y-106550999D01*
X73338000Y-107236025D01*
X73338000Y-107251571D01*
X73454008Y-107531638D01*
X73668362Y-107745992D01*
X73948429Y-107862000D01*
X74251571Y-107862000D01*
X74531638Y-107745992D01*
X74745992Y-107531638D01*
X74862000Y-107251571D01*
X74862000Y-106948429D01*
X74745992Y-106668362D01*
X74531638Y-106454008D01*
X74251571Y-106338000D01*
X74236025Y-106338000D01*
X73409237Y-105511213D01*
X73373808Y-105458190D01*
X73163764Y-105317842D01*
X72978540Y-105280999D01*
X72978536Y-105280999D01*
X72915999Y-105268560D01*
X72853462Y-105280999D01*
X72154572Y-105280999D01*
X72080992Y-105103362D01*
X71866638Y-104889008D01*
X71586571Y-104773000D01*
X71283429Y-104773000D01*
X71003362Y-104889008D01*
X70789008Y-105103362D01*
X70673000Y-105383429D01*
X53735000Y-105383429D01*
X53735000Y-99941800D01*
X53939192Y-100145992D01*
X54219259Y-100262000D01*
X54522401Y-100262000D01*
X54802468Y-100145992D01*
X54813460Y-100135000D01*
X55957370Y-100135000D01*
X55968362Y-100145992D01*
X56248429Y-100262000D01*
X56551571Y-100262000D01*
X56825754Y-100148429D01*
X68038000Y-100148429D01*
X68038000Y-100451571D01*
X68154008Y-100731638D01*
X68368362Y-100945992D01*
X68648429Y-101062000D01*
X68663976Y-101062000D01*
X69206764Y-101604788D01*
X69242191Y-101657809D01*
X69452235Y-101798157D01*
X69637459Y-101835000D01*
X69637462Y-101835000D01*
X69699999Y-101847439D01*
X69762536Y-101835000D01*
X76557370Y-101835000D01*
X76568362Y-101845992D01*
X76848429Y-101962000D01*
X77151571Y-101962000D01*
X77431638Y-101845992D01*
X77645992Y-101631638D01*
X77762000Y-101351571D01*
X77762000Y-101048429D01*
X85238000Y-101048429D01*
X85238000Y-101351571D01*
X85354008Y-101631638D01*
X85568362Y-101845992D01*
X85848429Y-101962000D01*
X86151571Y-101962000D01*
X86431638Y-101845992D01*
X86442630Y-101835000D01*
X90357370Y-101835000D01*
X90368362Y-101845992D01*
X90648429Y-101962000D01*
X90951571Y-101962000D01*
X91231638Y-101845992D01*
X91445992Y-101631638D01*
X91562000Y-101351571D01*
X91562000Y-101048429D01*
X91445992Y-100768362D01*
X91231638Y-100554008D01*
X90951571Y-100438000D01*
X90648429Y-100438000D01*
X90368362Y-100554008D01*
X90357370Y-100565000D01*
X86442630Y-100565000D01*
X86431638Y-100554008D01*
X86151571Y-100438000D01*
X85848429Y-100438000D01*
X85568362Y-100554008D01*
X85354008Y-100768362D01*
X85238000Y-101048429D01*
X77762000Y-101048429D01*
X77645992Y-100768362D01*
X77431638Y-100554008D01*
X77151571Y-100438000D01*
X76848429Y-100438000D01*
X76568362Y-100554008D01*
X76557370Y-100565000D01*
X69963025Y-100565000D01*
X69562000Y-100163976D01*
X69562000Y-100148429D01*
X69445992Y-99868362D01*
X69231638Y-99654008D01*
X68951571Y-99538000D01*
X68648429Y-99538000D01*
X68368362Y-99654008D01*
X68154008Y-99868362D01*
X68038000Y-100148429D01*
X56825754Y-100148429D01*
X56831638Y-100145992D01*
X57045992Y-99931638D01*
X57162000Y-99651571D01*
X57162000Y-99348429D01*
X57045992Y-99068362D01*
X56831638Y-98854008D01*
X56551571Y-98738000D01*
X56248429Y-98738000D01*
X55968362Y-98854008D01*
X55957370Y-98865000D01*
X54813460Y-98865000D01*
X54802468Y-98854008D01*
X54522401Y-98738000D01*
X54219259Y-98738000D01*
X53939192Y-98854008D01*
X53735000Y-99058200D01*
X53735000Y-97563024D01*
X54947055Y-96350969D01*
X83178511Y-96350969D01*
X83178511Y-96800909D01*
X83350695Y-97216599D01*
X83668851Y-97534755D01*
X84084541Y-97706939D01*
X84534481Y-97706939D01*
X84950171Y-97534755D01*
X85268327Y-97216599D01*
X85440511Y-96800909D01*
X85440511Y-96350969D01*
X85268327Y-95935279D01*
X84950171Y-95617123D01*
X84534481Y-95444939D01*
X84084541Y-95444939D01*
X83668851Y-95617123D01*
X83350695Y-95935279D01*
X83178511Y-96350969D01*
X54947055Y-96350969D01*
X56349595Y-94948429D01*
X72751001Y-94948429D01*
X72751001Y-95251571D01*
X72867009Y-95531638D01*
X73081363Y-95745992D01*
X73361430Y-95862000D01*
X73664572Y-95862000D01*
X73944639Y-95745992D01*
X73955631Y-95735000D01*
X74937463Y-95735000D01*
X75000000Y-95747439D01*
X75062537Y-95735000D01*
X75062541Y-95735000D01*
X75247765Y-95698157D01*
X75457809Y-95557809D01*
X75493238Y-95504786D01*
X75599867Y-95398157D01*
X75793236Y-95204789D01*
X75793238Y-95204786D01*
X79527056Y-91470969D01*
X83178511Y-91470969D01*
X83178511Y-91920909D01*
X83350695Y-92336599D01*
X83668851Y-92654755D01*
X84084541Y-92826939D01*
X84534481Y-92826939D01*
X84950171Y-92654755D01*
X85268327Y-92336599D01*
X85440511Y-91920909D01*
X85440511Y-91470969D01*
X85268327Y-91055279D01*
X84950171Y-90737123D01*
X84534481Y-90564939D01*
X84084541Y-90564939D01*
X83668851Y-90737123D01*
X83350695Y-91055279D01*
X83178511Y-91470969D01*
X79527056Y-91470969D01*
X79804792Y-91193234D01*
X79857809Y-91157809D01*
X79893234Y-91104792D01*
X79893236Y-91104790D01*
X79998157Y-90947765D01*
X80014244Y-90866889D01*
X80035000Y-90762541D01*
X80035000Y-90762537D01*
X80047439Y-90700000D01*
X80035000Y-90637463D01*
X80035000Y-90342630D01*
X80045992Y-90331638D01*
X80162000Y-90051571D01*
X80162000Y-89953318D01*
X91938000Y-89953318D01*
X91938000Y-90256460D01*
X92054008Y-90536527D01*
X92268362Y-90750881D01*
X92548429Y-90866889D01*
X92851571Y-90866889D01*
X93131638Y-90750881D01*
X93142630Y-90739889D01*
X94166881Y-90739889D01*
X94177873Y-90750881D01*
X94457940Y-90866889D01*
X94761082Y-90866889D01*
X95041149Y-90750881D01*
X95255503Y-90536527D01*
X95371511Y-90256460D01*
X95371511Y-89953318D01*
X95255503Y-89673251D01*
X95041149Y-89458897D01*
X94761082Y-89342889D01*
X94457940Y-89342889D01*
X94177873Y-89458897D01*
X94166881Y-89469889D01*
X93142630Y-89469889D01*
X93131638Y-89458897D01*
X92851571Y-89342889D01*
X92548429Y-89342889D01*
X92268362Y-89458897D01*
X92054008Y-89673251D01*
X91938000Y-89953318D01*
X80162000Y-89953318D01*
X80162000Y-89748429D01*
X80045992Y-89468362D01*
X79831638Y-89254008D01*
X79551571Y-89138000D01*
X79248429Y-89138000D01*
X78968362Y-89254008D01*
X78754008Y-89468362D01*
X78663792Y-89686162D01*
X78531638Y-89554008D01*
X78251571Y-89438000D01*
X77948429Y-89438000D01*
X77668362Y-89554008D01*
X77454008Y-89768362D01*
X77338000Y-90048429D01*
X77338000Y-90063974D01*
X75131064Y-92270912D01*
X75047994Y-92070364D01*
X75037002Y-92059372D01*
X75037002Y-91961022D01*
X77336026Y-89662000D01*
X77351571Y-89662000D01*
X77631638Y-89545992D01*
X77845992Y-89331638D01*
X77962000Y-89051571D01*
X77962000Y-88748429D01*
X77845992Y-88468362D01*
X77631638Y-88254008D01*
X77351571Y-88138000D01*
X77048429Y-88138000D01*
X76768362Y-88254008D01*
X76554008Y-88468362D01*
X76438000Y-88748429D01*
X76438000Y-88763974D01*
X73997214Y-91204762D01*
X73944194Y-91240189D01*
X73908767Y-91293209D01*
X73803845Y-91450234D01*
X73799721Y-91470969D01*
X73767002Y-91635457D01*
X73767002Y-91635461D01*
X73754563Y-91697998D01*
X73767002Y-91760535D01*
X73767002Y-92059372D01*
X73756010Y-92070364D01*
X73640002Y-92350431D01*
X73640002Y-92653573D01*
X73756010Y-92933640D01*
X73970364Y-93147994D01*
X74250431Y-93264002D01*
X74553573Y-93264002D01*
X74638000Y-93229031D01*
X74638000Y-93451571D01*
X74754008Y-93731638D01*
X74968362Y-93945992D01*
X75171741Y-94030235D01*
X74895214Y-94306762D01*
X74895211Y-94306764D01*
X74736975Y-94465000D01*
X73955631Y-94465000D01*
X73944639Y-94454008D01*
X73664572Y-94338000D01*
X73361430Y-94338000D01*
X73081363Y-94454008D01*
X72867009Y-94668362D01*
X72751001Y-94948429D01*
X56349595Y-94948429D01*
X57549596Y-93748429D01*
X61338000Y-93748429D01*
X61338000Y-94051571D01*
X61454008Y-94331638D01*
X61668362Y-94545992D01*
X61948429Y-94662000D01*
X62251571Y-94662000D01*
X62531638Y-94545992D01*
X62542630Y-94535000D01*
X62659123Y-94535000D01*
X62721660Y-94547439D01*
X62784197Y-94535000D01*
X62784201Y-94535000D01*
X62969425Y-94498157D01*
X63179469Y-94357809D01*
X63214898Y-94304786D01*
X64196855Y-93322830D01*
X64212401Y-93322830D01*
X64492468Y-93206822D01*
X64706822Y-92992468D01*
X64822830Y-92712401D01*
X64822830Y-92409259D01*
X64706822Y-92129192D01*
X64492468Y-91914838D01*
X64212401Y-91798830D01*
X63909259Y-91798830D01*
X63629192Y-91914838D01*
X63414838Y-92129192D01*
X63298830Y-92409259D01*
X63298830Y-92424805D01*
X62487790Y-93235846D01*
X62251571Y-93138000D01*
X61948429Y-93138000D01*
X61668362Y-93254008D01*
X61454008Y-93468362D01*
X61338000Y-93748429D01*
X57549596Y-93748429D01*
X58342196Y-92955830D01*
X61078200Y-92955830D01*
X61089192Y-92966822D01*
X61369259Y-93082830D01*
X61672401Y-93082830D01*
X61952468Y-92966822D01*
X62166822Y-92752468D01*
X62282830Y-92472401D01*
X62282830Y-92169259D01*
X62166822Y-91889192D01*
X61952468Y-91674838D01*
X61672401Y-91558830D01*
X61369259Y-91558830D01*
X61089192Y-91674838D01*
X61078200Y-91685830D01*
X58141707Y-91685830D01*
X58079170Y-91673391D01*
X58016633Y-91685830D01*
X58016629Y-91685830D01*
X57831405Y-91722673D01*
X57674380Y-91827594D01*
X57674378Y-91827596D01*
X57621361Y-91863021D01*
X57585936Y-91916038D01*
X53735000Y-95766976D01*
X53735000Y-89463024D01*
X53749595Y-89448429D01*
X55360833Y-89448429D01*
X55360833Y-89751571D01*
X55476841Y-90031638D01*
X55691195Y-90245992D01*
X55971262Y-90362000D01*
X56274404Y-90362000D01*
X56554471Y-90245992D01*
X56768825Y-90031638D01*
X56884833Y-89751571D01*
X56884833Y-89448429D01*
X56768825Y-89168362D01*
X56757833Y-89157370D01*
X56757833Y-82839259D01*
X62028830Y-82839259D01*
X62028830Y-83142401D01*
X62144838Y-83422468D01*
X62359192Y-83636822D01*
X62639259Y-83752830D01*
X62942401Y-83752830D01*
X63222468Y-83636822D01*
X63436822Y-83422468D01*
X63552830Y-83142401D01*
X63552830Y-83126855D01*
X63665065Y-83014620D01*
X63665067Y-83014617D01*
X65425685Y-81254001D01*
X68068369Y-81254001D01*
X67954008Y-81368362D01*
X67838000Y-81648429D01*
X67838000Y-81951571D01*
X67954008Y-82231638D01*
X68168362Y-82445992D01*
X68448429Y-82562000D01*
X68463976Y-82562000D01*
X69365001Y-83463026D01*
X69365000Y-84166976D01*
X68062000Y-82863976D01*
X68062000Y-82848429D01*
X67945992Y-82568362D01*
X67731638Y-82354008D01*
X67451571Y-82238000D01*
X67148429Y-82238000D01*
X66868362Y-82354008D01*
X66654008Y-82568362D01*
X66538000Y-82848429D01*
X66538000Y-83151571D01*
X66654008Y-83431638D01*
X66868362Y-83645992D01*
X67148429Y-83762000D01*
X67163976Y-83762000D01*
X68465001Y-85063026D01*
X68465000Y-85657370D01*
X68454008Y-85668362D01*
X68338000Y-85948429D01*
X68338000Y-86251571D01*
X68454008Y-86531638D01*
X68668362Y-86745992D01*
X68948429Y-86862000D01*
X69251571Y-86862000D01*
X69531638Y-86745992D01*
X69745992Y-86531638D01*
X69862000Y-86251571D01*
X69862000Y-85948429D01*
X69745992Y-85668362D01*
X69735000Y-85657370D01*
X69735000Y-85515016D01*
X69848429Y-85562000D01*
X70151571Y-85562000D01*
X70431638Y-85445992D01*
X70645992Y-85231638D01*
X70762000Y-84951571D01*
X70762000Y-84648429D01*
X70645992Y-84368362D01*
X70635000Y-84357370D01*
X70635000Y-83964941D01*
X71363170Y-83964941D01*
X71458710Y-84445253D01*
X71730785Y-84852442D01*
X72137974Y-85124517D01*
X72497047Y-85195941D01*
X72739525Y-85195941D01*
X73098598Y-85124517D01*
X73505787Y-84852442D01*
X73777862Y-84445253D01*
X73873402Y-83964941D01*
X73903170Y-83964941D01*
X73998710Y-84445253D01*
X74270785Y-84852442D01*
X74677974Y-85124517D01*
X75037047Y-85195941D01*
X75279525Y-85195941D01*
X75638598Y-85124517D01*
X76045787Y-84852442D01*
X76317862Y-84445253D01*
X76413402Y-83964941D01*
X76443170Y-83964941D01*
X76538710Y-84445253D01*
X76810785Y-84852442D01*
X77217974Y-85124517D01*
X77577047Y-85195941D01*
X77819525Y-85195941D01*
X78178598Y-85124517D01*
X78585787Y-84852442D01*
X78856041Y-84447978D01*
X79043103Y-84846299D01*
X79471362Y-85236586D01*
X79881396Y-85406417D01*
X80111286Y-85285096D01*
X80111286Y-84091941D01*
X80365286Y-84091941D01*
X80365286Y-85285096D01*
X80595176Y-85406417D01*
X81005210Y-85236586D01*
X81303150Y-84965063D01*
X81389959Y-85174639D01*
X81568587Y-85353268D01*
X81801976Y-85449941D01*
X82492536Y-85449941D01*
X82651286Y-85291191D01*
X82651286Y-84091941D01*
X82905286Y-84091941D01*
X82905286Y-85291191D01*
X83064036Y-85449941D01*
X83754596Y-85449941D01*
X83987985Y-85353268D01*
X84166613Y-85174639D01*
X84263286Y-84941250D01*
X84263286Y-84250691D01*
X84104536Y-84091941D01*
X82905286Y-84091941D01*
X82651286Y-84091941D01*
X80365286Y-84091941D01*
X80111286Y-84091941D01*
X80091286Y-84091941D01*
X80091286Y-83837941D01*
X80111286Y-83837941D01*
X80111286Y-82644786D01*
X80365286Y-82644786D01*
X80365286Y-83837941D01*
X82651286Y-83837941D01*
X82651286Y-82638691D01*
X82905286Y-82638691D01*
X82905286Y-83837941D01*
X84104536Y-83837941D01*
X84263286Y-83679191D01*
X84263286Y-82988632D01*
X84166613Y-82755243D01*
X83987985Y-82576614D01*
X83754596Y-82479941D01*
X83064036Y-82479941D01*
X82905286Y-82638691D01*
X82651286Y-82638691D01*
X82492536Y-82479941D01*
X81801976Y-82479941D01*
X81568587Y-82576614D01*
X81389959Y-82755243D01*
X81303150Y-82964819D01*
X81005210Y-82693296D01*
X80595176Y-82523465D01*
X80365286Y-82644786D01*
X80111286Y-82644786D01*
X79881396Y-82523465D01*
X79471362Y-82693296D01*
X79043103Y-83083583D01*
X78856041Y-83481904D01*
X78585787Y-83077440D01*
X78178598Y-82805365D01*
X77819525Y-82733941D01*
X77577047Y-82733941D01*
X77217974Y-82805365D01*
X76810785Y-83077440D01*
X76538710Y-83484629D01*
X76443170Y-83964941D01*
X76413402Y-83964941D01*
X76317862Y-83484629D01*
X76045787Y-83077440D01*
X75638598Y-82805365D01*
X75279525Y-82733941D01*
X75037047Y-82733941D01*
X74677974Y-82805365D01*
X74270785Y-83077440D01*
X73998710Y-83484629D01*
X73903170Y-83964941D01*
X73873402Y-83964941D01*
X73777862Y-83484629D01*
X73505787Y-83077440D01*
X73098598Y-82805365D01*
X72739525Y-82733941D01*
X72497047Y-82733941D01*
X72137974Y-82805365D01*
X71730785Y-83077440D01*
X71458710Y-83484629D01*
X71363170Y-83964941D01*
X70635000Y-83964941D01*
X70635000Y-83262537D01*
X70647439Y-83200000D01*
X70635000Y-83137463D01*
X70635000Y-83137459D01*
X70598157Y-82952235D01*
X70457809Y-82742191D01*
X70404789Y-82706764D01*
X69362000Y-81663976D01*
X69362000Y-81648429D01*
X69245992Y-81368362D01*
X69131631Y-81254001D01*
X74080428Y-81254001D01*
X74154008Y-81431638D01*
X74368362Y-81645992D01*
X74648429Y-81762000D01*
X74951571Y-81762000D01*
X75231638Y-81645992D01*
X75445992Y-81431638D01*
X75562000Y-81151571D01*
X75562000Y-80848429D01*
X75445992Y-80568362D01*
X75231638Y-80354008D01*
X74951571Y-80238000D01*
X74936024Y-80238000D01*
X74912239Y-80214215D01*
X74876810Y-80161192D01*
X74666766Y-80020844D01*
X74481542Y-79984001D01*
X74481538Y-79984001D01*
X74419001Y-79971562D01*
X74356464Y-79984001D01*
X65225196Y-79984001D01*
X65162659Y-79971562D01*
X65100122Y-79984001D01*
X65100118Y-79984001D01*
X64914894Y-80020844D01*
X64757869Y-80125765D01*
X64757868Y-80125766D01*
X64704850Y-80161192D01*
X64669425Y-80214210D01*
X62767043Y-82116593D01*
X62767040Y-82116595D01*
X62654805Y-82228830D01*
X62639259Y-82228830D01*
X62359192Y-82344838D01*
X62144838Y-82559192D01*
X62028830Y-82839259D01*
X56757833Y-82839259D01*
X56757833Y-79501376D01*
X57470791Y-78788420D01*
X57648429Y-78862000D01*
X57951571Y-78862000D01*
X58231638Y-78745992D01*
X58445992Y-78531638D01*
X58562000Y-78251571D01*
X58562000Y-77948429D01*
X58445992Y-77668362D01*
X58231638Y-77454008D01*
X57951571Y-77338000D01*
X57648429Y-77338000D01*
X57368362Y-77454008D01*
X57357370Y-77465000D01*
X57323722Y-77465000D01*
X57261185Y-77452561D01*
X57198648Y-77465000D01*
X57198644Y-77465000D01*
X57013420Y-77501843D01*
X56856395Y-77606764D01*
X56856393Y-77606766D01*
X56803376Y-77642191D01*
X56767950Y-77695209D01*
X55718047Y-78745114D01*
X55665024Y-78780543D01*
X55524676Y-78990588D01*
X55487833Y-79175812D01*
X55487833Y-79175815D01*
X55475394Y-79238352D01*
X55487833Y-79300889D01*
X55487834Y-88998640D01*
X55487833Y-88998645D01*
X55487833Y-89157370D01*
X55476841Y-89168362D01*
X55360833Y-89448429D01*
X53749595Y-89448429D01*
X54704788Y-88493236D01*
X54757809Y-88457809D01*
X54898157Y-88247765D01*
X54935000Y-88062541D01*
X54935000Y-88062536D01*
X54947439Y-88000001D01*
X54935000Y-87937465D01*
X54935000Y-72963024D01*
X55249595Y-72648429D01*
X57538000Y-72648429D01*
X57538000Y-72951571D01*
X57654008Y-73231638D01*
X57868362Y-73445992D01*
X58148429Y-73562000D01*
X58163976Y-73562000D01*
X60787435Y-76185460D01*
X60822862Y-76238480D01*
X61032906Y-76378828D01*
X61218130Y-76415671D01*
X61218135Y-76415671D01*
X61280670Y-76428110D01*
X61343206Y-76415671D01*
X66217647Y-76415671D01*
X66538000Y-76736025D01*
X66538000Y-76751571D01*
X66654008Y-77031638D01*
X66868362Y-77245992D01*
X67148429Y-77362000D01*
X67451571Y-77362000D01*
X67731638Y-77245992D01*
X67945992Y-77031638D01*
X68062000Y-76751571D01*
X68062000Y-76448429D01*
X67979808Y-76250000D01*
X68851536Y-76250000D01*
X68851536Y-78950000D01*
X68881106Y-79098659D01*
X68965314Y-79224686D01*
X69091341Y-79308894D01*
X69240000Y-79338464D01*
X70840000Y-79338464D01*
X70988659Y-79308894D01*
X71114686Y-79224686D01*
X71198894Y-79098659D01*
X71228464Y-78950000D01*
X71228464Y-76933683D01*
X73939000Y-76933683D01*
X73939000Y-78266318D01*
X74007522Y-78610803D01*
X74268548Y-79001453D01*
X74659198Y-79262478D01*
X75120000Y-79354137D01*
X75580803Y-79262478D01*
X75971453Y-79001453D01*
X76232478Y-78610803D01*
X76301000Y-78266318D01*
X76301000Y-77727000D01*
X78765000Y-77727000D01*
X78765000Y-78277000D01*
X78922834Y-78816483D01*
X79275104Y-79254500D01*
X79768181Y-79524367D01*
X79850961Y-79541904D01*
X80073000Y-79419915D01*
X80073000Y-77727000D01*
X80327000Y-77727000D01*
X80327000Y-79419915D01*
X80549039Y-79541904D01*
X80631819Y-79524367D01*
X81124896Y-79254500D01*
X81477166Y-78816483D01*
X81635000Y-78277000D01*
X81635000Y-77727000D01*
X83845000Y-77727000D01*
X83845000Y-78277000D01*
X84002834Y-78816483D01*
X84355104Y-79254500D01*
X84848181Y-79524367D01*
X84930961Y-79541904D01*
X85050823Y-79476051D01*
X84938000Y-79748429D01*
X84938000Y-80051571D01*
X85054008Y-80331638D01*
X85268362Y-80545992D01*
X85314251Y-80565000D01*
X85142630Y-80565000D01*
X85131638Y-80554008D01*
X84851571Y-80438000D01*
X84548429Y-80438000D01*
X84268362Y-80554008D01*
X84054008Y-80768362D01*
X83938000Y-81048429D01*
X83938000Y-81351571D01*
X84054008Y-81631638D01*
X84268362Y-81845992D01*
X84548429Y-81962000D01*
X84851571Y-81962000D01*
X85131638Y-81845992D01*
X85142630Y-81835000D01*
X92457370Y-81835000D01*
X92468362Y-81845992D01*
X92598748Y-81900000D01*
X92468362Y-81954008D01*
X92457370Y-81965000D01*
X86042630Y-81965000D01*
X86031638Y-81954008D01*
X85751571Y-81838000D01*
X85448429Y-81838000D01*
X85168362Y-81954008D01*
X84954008Y-82168362D01*
X84838000Y-82448429D01*
X84838000Y-82751571D01*
X84954008Y-83031638D01*
X85168362Y-83245992D01*
X85448429Y-83362000D01*
X85751571Y-83362000D01*
X86031638Y-83245992D01*
X86042630Y-83235000D01*
X92457370Y-83235000D01*
X92468362Y-83245992D01*
X92748429Y-83362000D01*
X93051571Y-83362000D01*
X93331638Y-83245992D01*
X93545992Y-83031638D01*
X93662000Y-82751571D01*
X93662000Y-82448429D01*
X93545992Y-82168362D01*
X93331638Y-81954008D01*
X93201252Y-81900000D01*
X93331638Y-81845992D01*
X93545992Y-81631638D01*
X93605550Y-81487852D01*
X97165001Y-85047304D01*
X97165000Y-92498648D01*
X97152561Y-92561185D01*
X97165000Y-92623722D01*
X97165000Y-92623725D01*
X97201843Y-92808949D01*
X97342191Y-93018994D01*
X97395214Y-93054423D01*
X99611580Y-95270791D01*
X99538000Y-95448429D01*
X99538000Y-95751571D01*
X99654008Y-96031638D01*
X99868362Y-96245992D01*
X100148429Y-96362000D01*
X100451571Y-96362000D01*
X100731638Y-96245992D01*
X100945992Y-96031638D01*
X101062000Y-95751571D01*
X101062000Y-95448429D01*
X100945992Y-95168362D01*
X100935000Y-95157370D01*
X100935000Y-95123722D01*
X100947439Y-95061185D01*
X100935000Y-94998648D01*
X100935000Y-94998644D01*
X100898157Y-94813420D01*
X100796981Y-94662000D01*
X100793236Y-94656395D01*
X100793234Y-94656393D01*
X100757809Y-94603376D01*
X100704791Y-94567951D01*
X98435000Y-92298161D01*
X98435000Y-84846814D01*
X98447439Y-84784277D01*
X98435000Y-84721740D01*
X98435000Y-84721737D01*
X98398157Y-84536513D01*
X98257809Y-84326469D01*
X98204789Y-84291042D01*
X93408960Y-79495214D01*
X93373531Y-79442191D01*
X93163487Y-79301843D01*
X92978263Y-79265000D01*
X92978259Y-79265000D01*
X92915722Y-79252561D01*
X92853185Y-79265000D01*
X86185711Y-79265000D01*
X86204896Y-79254500D01*
X86557166Y-78816483D01*
X86715000Y-78277000D01*
X86715000Y-77727000D01*
X85407000Y-77727000D01*
X85407000Y-77747000D01*
X85153000Y-77747000D01*
X85153000Y-77727000D01*
X83845000Y-77727000D01*
X81635000Y-77727000D01*
X80327000Y-77727000D01*
X80073000Y-77727000D01*
X78765000Y-77727000D01*
X76301000Y-77727000D01*
X76301000Y-76933682D01*
X76298876Y-76923000D01*
X78765000Y-76923000D01*
X78765000Y-77473000D01*
X80073000Y-77473000D01*
X80073000Y-75780085D01*
X80327000Y-75780085D01*
X80327000Y-77473000D01*
X81635000Y-77473000D01*
X81635000Y-76923000D01*
X83845000Y-76923000D01*
X83845000Y-77473000D01*
X85153000Y-77473000D01*
X85153000Y-75780085D01*
X85407000Y-75780085D01*
X85407000Y-77473000D01*
X86715000Y-77473000D01*
X86715000Y-76923000D01*
X86557166Y-76383517D01*
X86432483Y-76228485D01*
X86631638Y-76145992D01*
X86642630Y-76135000D01*
X88836148Y-76135000D01*
X88898685Y-76147439D01*
X88961222Y-76135000D01*
X88961226Y-76135000D01*
X89146450Y-76098157D01*
X89356494Y-75957809D01*
X89391923Y-75904786D01*
X89970790Y-75325919D01*
X90148429Y-75399500D01*
X90451571Y-75399500D01*
X90554001Y-75357072D01*
X90554001Y-75626464D01*
X90541562Y-75689001D01*
X90554001Y-75751538D01*
X90554001Y-75751541D01*
X90590844Y-75936765D01*
X90731192Y-76146810D01*
X90784215Y-76182239D01*
X91938000Y-77336025D01*
X91938000Y-77351571D01*
X92054008Y-77631638D01*
X92268362Y-77845992D01*
X92548429Y-77962000D01*
X92851571Y-77962000D01*
X93131638Y-77845992D01*
X93345992Y-77631638D01*
X93462000Y-77351571D01*
X93462000Y-77048429D01*
X93345992Y-76768362D01*
X93131638Y-76554008D01*
X92851571Y-76438000D01*
X92836025Y-76438000D01*
X91824001Y-75425977D01*
X91824001Y-74273316D01*
X91836440Y-74210779D01*
X91824001Y-74148242D01*
X91824001Y-74148238D01*
X91787158Y-73963014D01*
X91712694Y-73851571D01*
X91682237Y-73805989D01*
X91682235Y-73805987D01*
X91646810Y-73752970D01*
X91593792Y-73717544D01*
X91171460Y-73295213D01*
X91136031Y-73242191D01*
X90925987Y-73101843D01*
X90740763Y-73065000D01*
X90740759Y-73065000D01*
X90678222Y-73052561D01*
X90615685Y-73065000D01*
X87442630Y-73065000D01*
X87431638Y-73054008D01*
X87151571Y-72938000D01*
X86848429Y-72938000D01*
X86568362Y-73054008D01*
X86354008Y-73268362D01*
X86238000Y-73548429D01*
X86238000Y-73851571D01*
X86354008Y-74131638D01*
X86568362Y-74345992D01*
X86848429Y-74462000D01*
X87151571Y-74462000D01*
X87431638Y-74345992D01*
X87442630Y-74335000D01*
X89165660Y-74335000D01*
X88635661Y-74865000D01*
X86642630Y-74865000D01*
X86631638Y-74854008D01*
X86351571Y-74738000D01*
X86048429Y-74738000D01*
X85768362Y-74854008D01*
X85554008Y-75068362D01*
X85438000Y-75348429D01*
X85438000Y-75651571D01*
X85475617Y-75742386D01*
X85407000Y-75780085D01*
X85153000Y-75780085D01*
X84930961Y-75658096D01*
X84848181Y-75675633D01*
X84355104Y-75945500D01*
X84002834Y-76383517D01*
X83845000Y-76923000D01*
X81635000Y-76923000D01*
X81477166Y-76383517D01*
X81124896Y-75945500D01*
X80631819Y-75675633D01*
X80549039Y-75658096D01*
X80327000Y-75780085D01*
X80073000Y-75780085D01*
X79850961Y-75658096D01*
X79768181Y-75675633D01*
X79275104Y-75945500D01*
X78922834Y-76383517D01*
X78765000Y-76923000D01*
X76298876Y-76923000D01*
X76232478Y-76589197D01*
X75971453Y-76198547D01*
X75580802Y-75937522D01*
X75120000Y-75845863D01*
X74659197Y-75937522D01*
X74268547Y-76198547D01*
X74007522Y-76589198D01*
X73939000Y-76933683D01*
X71228464Y-76933683D01*
X71228464Y-76250000D01*
X71198894Y-76101341D01*
X71114686Y-75975314D01*
X70988659Y-75891106D01*
X70840000Y-75861536D01*
X69240000Y-75861536D01*
X69091341Y-75891106D01*
X68965314Y-75975314D01*
X68881106Y-76101341D01*
X68851536Y-76250000D01*
X67979808Y-76250000D01*
X67945992Y-76168362D01*
X67731638Y-75954008D01*
X67451571Y-75838000D01*
X67436025Y-75838000D01*
X67124694Y-75526670D01*
X72949040Y-75526670D01*
X72960032Y-75537662D01*
X73240099Y-75653670D01*
X73543241Y-75653670D01*
X73823308Y-75537662D01*
X74037662Y-75323308D01*
X74153670Y-75043241D01*
X74153670Y-74740099D01*
X74037662Y-74460032D01*
X73912630Y-74335000D01*
X74157370Y-74335000D01*
X74168362Y-74345992D01*
X74448429Y-74462000D01*
X74751571Y-74462000D01*
X75031638Y-74345992D01*
X75245992Y-74131638D01*
X75362000Y-73851571D01*
X75362000Y-73548429D01*
X75269226Y-73324454D01*
X75580803Y-73262478D01*
X75971453Y-73001453D01*
X76232478Y-72610803D01*
X76301000Y-72266318D01*
X76301000Y-71727000D01*
X78765000Y-71727000D01*
X78765000Y-72277000D01*
X78922834Y-72816483D01*
X79275104Y-73254500D01*
X79768181Y-73524367D01*
X79850961Y-73541904D01*
X80073000Y-73419915D01*
X80073000Y-71727000D01*
X80327000Y-71727000D01*
X80327000Y-73419915D01*
X80549039Y-73541904D01*
X80631819Y-73524367D01*
X81124896Y-73254500D01*
X81477166Y-72816483D01*
X81635000Y-72277000D01*
X81635000Y-71727000D01*
X83845000Y-71727000D01*
X83845000Y-72277000D01*
X84002834Y-72816483D01*
X84355104Y-73254500D01*
X84848181Y-73524367D01*
X84930961Y-73541904D01*
X85153000Y-73419915D01*
X85153000Y-71727000D01*
X85407000Y-71727000D01*
X85407000Y-73419915D01*
X85629039Y-73541904D01*
X85711819Y-73524367D01*
X86204896Y-73254500D01*
X86557166Y-72816483D01*
X86715000Y-72277000D01*
X86715000Y-71727000D01*
X85407000Y-71727000D01*
X85153000Y-71727000D01*
X83845000Y-71727000D01*
X81635000Y-71727000D01*
X80327000Y-71727000D01*
X80073000Y-71727000D01*
X78765000Y-71727000D01*
X76301000Y-71727000D01*
X76301000Y-70933682D01*
X76298876Y-70923000D01*
X78765000Y-70923000D01*
X78765000Y-71473000D01*
X80073000Y-71473000D01*
X80073000Y-69780085D01*
X80327000Y-69780085D01*
X80327000Y-71473000D01*
X81635000Y-71473000D01*
X81635000Y-70923000D01*
X83845000Y-70923000D01*
X83845000Y-71473000D01*
X85153000Y-71473000D01*
X85153000Y-69780085D01*
X85407000Y-69780085D01*
X85407000Y-71473000D01*
X86715000Y-71473000D01*
X86715000Y-70923000D01*
X86557166Y-70383517D01*
X86204896Y-69945500D01*
X85711819Y-69675633D01*
X85629039Y-69658096D01*
X85407000Y-69780085D01*
X85153000Y-69780085D01*
X84930961Y-69658096D01*
X84848181Y-69675633D01*
X84355104Y-69945500D01*
X84002834Y-70383517D01*
X83845000Y-70923000D01*
X81635000Y-70923000D01*
X81477166Y-70383517D01*
X81124896Y-69945500D01*
X80631819Y-69675633D01*
X80549039Y-69658096D01*
X80327000Y-69780085D01*
X80073000Y-69780085D01*
X79850961Y-69658096D01*
X79768181Y-69675633D01*
X79275104Y-69945500D01*
X78922834Y-70383517D01*
X78765000Y-70923000D01*
X76298876Y-70923000D01*
X76232478Y-70589197D01*
X75971453Y-70198547D01*
X75580802Y-69937522D01*
X75120000Y-69845863D01*
X74659197Y-69937522D01*
X74268547Y-70198547D01*
X74007522Y-70589198D01*
X73939000Y-70933683D01*
X73939000Y-72266318D01*
X74007522Y-72610803D01*
X74268548Y-73001453D01*
X74278763Y-73008278D01*
X74168362Y-73054008D01*
X74157370Y-73065000D01*
X71205589Y-73065000D01*
X71228464Y-72950000D01*
X71228464Y-70250000D01*
X71198894Y-70101341D01*
X71114686Y-69975314D01*
X70988659Y-69891106D01*
X70840000Y-69861536D01*
X69240000Y-69861536D01*
X69091341Y-69891106D01*
X68965314Y-69975314D01*
X68881106Y-70101341D01*
X68851536Y-70250000D01*
X68851536Y-72950000D01*
X68874411Y-73065000D01*
X65563026Y-73065000D01*
X65062000Y-72563975D01*
X65062000Y-72548429D01*
X64945992Y-72268362D01*
X64731638Y-72054008D01*
X64451571Y-71938000D01*
X64148429Y-71938000D01*
X63868362Y-72054008D01*
X63654008Y-72268362D01*
X63538000Y-72548429D01*
X63538000Y-72851571D01*
X63654008Y-73131638D01*
X63868362Y-73345992D01*
X64148429Y-73462000D01*
X64163975Y-73462000D01*
X64806765Y-74104791D01*
X64842191Y-74157809D01*
X64895208Y-74193234D01*
X64895210Y-74193236D01*
X65052235Y-74298157D01*
X65300000Y-74347440D01*
X65362541Y-74335000D01*
X65387370Y-74335000D01*
X65262338Y-74460032D01*
X65146330Y-74740099D01*
X65146330Y-75043241D01*
X65188758Y-75145671D01*
X61543696Y-75145671D01*
X59062000Y-72663976D01*
X59062000Y-72648429D01*
X58945992Y-72368362D01*
X58731638Y-72154008D01*
X58451571Y-72038000D01*
X58148429Y-72038000D01*
X57868362Y-72154008D01*
X57654008Y-72368362D01*
X57538000Y-72648429D01*
X55249595Y-72648429D01*
X57736026Y-70162000D01*
X57751571Y-70162000D01*
X58031638Y-70045992D01*
X58245992Y-69831638D01*
X58362000Y-69551571D01*
X58362000Y-69248429D01*
X58245992Y-68968362D01*
X58031638Y-68754008D01*
X57751571Y-68638000D01*
X57448429Y-68638000D01*
X57168362Y-68754008D01*
X57157370Y-68765000D01*
X53242630Y-68765000D01*
X53231638Y-68754008D01*
X52951571Y-68638000D01*
X52648429Y-68638000D01*
X52545999Y-68680428D01*
X52545999Y-68208429D01*
X84178000Y-68208429D01*
X84178000Y-68511571D01*
X84294008Y-68791638D01*
X84508362Y-69005992D01*
X84788429Y-69122000D01*
X85091571Y-69122000D01*
X85371638Y-69005992D01*
X85382630Y-68995000D01*
X89261536Y-68995000D01*
X89261536Y-69160000D01*
X89291106Y-69308659D01*
X89375314Y-69434686D01*
X89501341Y-69518894D01*
X89650000Y-69548464D01*
X92350000Y-69548464D01*
X92498659Y-69518894D01*
X92624686Y-69434686D01*
X92708894Y-69308659D01*
X92738464Y-69160000D01*
X92738464Y-67560000D01*
X92708894Y-67411341D01*
X92624686Y-67285314D01*
X92498659Y-67201106D01*
X92350000Y-67171536D01*
X89650000Y-67171536D01*
X89501341Y-67201106D01*
X89375314Y-67285314D01*
X89291106Y-67411341D01*
X89261536Y-67560000D01*
X89261536Y-67725000D01*
X85382630Y-67725000D01*
X85371638Y-67714008D01*
X85091571Y-67598000D01*
X84788429Y-67598000D01*
X84508362Y-67714008D01*
X84294008Y-67928362D01*
X84178000Y-68208429D01*
X52545999Y-68208429D01*
X52545999Y-68036303D01*
X53363025Y-67219278D01*
X57657370Y-67219278D01*
X57668362Y-67230270D01*
X57948429Y-67346278D01*
X58251571Y-67346278D01*
X58531638Y-67230270D01*
X58745992Y-67015916D01*
X58862000Y-66735849D01*
X58862000Y-66432707D01*
X58745992Y-66152640D01*
X58531638Y-65938286D01*
X58251571Y-65822278D01*
X57948429Y-65822278D01*
X57668362Y-65938286D01*
X57657370Y-65949278D01*
X53162535Y-65949278D01*
X53099999Y-65936839D01*
X53037464Y-65949278D01*
X53037459Y-65949278D01*
X52852235Y-65986121D01*
X52642191Y-66126469D01*
X52606764Y-66179490D01*
X51506211Y-67280043D01*
X51453191Y-67315470D01*
X51417764Y-67368490D01*
X51312842Y-67525515D01*
X51263560Y-67773279D01*
X50431000Y-67773279D01*
X50431000Y-64250000D01*
X68851536Y-64250000D01*
X68851536Y-66950000D01*
X68881106Y-67098659D01*
X68965314Y-67224686D01*
X69091341Y-67308894D01*
X69240000Y-67338464D01*
X70840000Y-67338464D01*
X70988659Y-67308894D01*
X71114686Y-67224686D01*
X71198894Y-67098659D01*
X71228464Y-66950000D01*
X71228464Y-64933683D01*
X73939000Y-64933683D01*
X73939000Y-66266318D01*
X74007522Y-66610803D01*
X74268548Y-67001453D01*
X74659198Y-67262478D01*
X75120000Y-67354137D01*
X75580803Y-67262478D01*
X75971453Y-67001453D01*
X76232478Y-66610803D01*
X76301000Y-66266318D01*
X76301000Y-65727000D01*
X78765000Y-65727000D01*
X78765000Y-66277000D01*
X78922834Y-66816483D01*
X79275104Y-67254500D01*
X79768181Y-67524367D01*
X79850961Y-67541904D01*
X80073000Y-67419915D01*
X80073000Y-65727000D01*
X80327000Y-65727000D01*
X80327000Y-67419915D01*
X80549039Y-67541904D01*
X80631819Y-67524367D01*
X81124896Y-67254500D01*
X81477166Y-66816483D01*
X81635000Y-66277000D01*
X81635000Y-65727000D01*
X83845000Y-65727000D01*
X83845000Y-66277000D01*
X84002834Y-66816483D01*
X84355104Y-67254500D01*
X84848181Y-67524367D01*
X84930961Y-67541904D01*
X85153000Y-67419915D01*
X85153000Y-65727000D01*
X85407000Y-65727000D01*
X85407000Y-67419915D01*
X85629039Y-67541904D01*
X85711819Y-67524367D01*
X86204896Y-67254500D01*
X86557166Y-66816483D01*
X86715000Y-66277000D01*
X86715000Y-66000000D01*
X95294884Y-66000000D01*
X95390424Y-66480312D01*
X95662499Y-66887501D01*
X96069688Y-67159576D01*
X96428761Y-67231000D01*
X96671239Y-67231000D01*
X97030312Y-67159576D01*
X97437501Y-66887501D01*
X97709576Y-66480312D01*
X97805116Y-66000000D01*
X97709576Y-65519688D01*
X97437501Y-65112499D01*
X97030312Y-64840424D01*
X96671239Y-64769000D01*
X96428761Y-64769000D01*
X96069688Y-64840424D01*
X95662499Y-65112499D01*
X95390424Y-65519688D01*
X95294884Y-66000000D01*
X86715000Y-66000000D01*
X86715000Y-65727000D01*
X85407000Y-65727000D01*
X85153000Y-65727000D01*
X83845000Y-65727000D01*
X81635000Y-65727000D01*
X80327000Y-65727000D01*
X80073000Y-65727000D01*
X78765000Y-65727000D01*
X76301000Y-65727000D01*
X76301000Y-64933682D01*
X76298876Y-64923000D01*
X78765000Y-64923000D01*
X78765000Y-65473000D01*
X80073000Y-65473000D01*
X80073000Y-63780085D01*
X80327000Y-63780085D01*
X80327000Y-65473000D01*
X81635000Y-65473000D01*
X81635000Y-64923000D01*
X83845000Y-64923000D01*
X83845000Y-65473000D01*
X85153000Y-65473000D01*
X85153000Y-63780085D01*
X85407000Y-63780085D01*
X85407000Y-65473000D01*
X86715000Y-65473000D01*
X86715000Y-64923000D01*
X86557166Y-64383517D01*
X86204896Y-63945500D01*
X85711819Y-63675633D01*
X85629039Y-63658096D01*
X85407000Y-63780085D01*
X85153000Y-63780085D01*
X84930961Y-63658096D01*
X84848181Y-63675633D01*
X84355104Y-63945500D01*
X84002834Y-64383517D01*
X83845000Y-64923000D01*
X81635000Y-64923000D01*
X81477166Y-64383517D01*
X81124896Y-63945500D01*
X80631819Y-63675633D01*
X80549039Y-63658096D01*
X80327000Y-63780085D01*
X80073000Y-63780085D01*
X79850961Y-63658096D01*
X79768181Y-63675633D01*
X79275104Y-63945500D01*
X78922834Y-64383517D01*
X78765000Y-64923000D01*
X76298876Y-64923000D01*
X76232478Y-64589197D01*
X75971453Y-64198547D01*
X75580802Y-63937522D01*
X75120000Y-63845863D01*
X74659197Y-63937522D01*
X74268547Y-64198547D01*
X74007522Y-64589198D01*
X73939000Y-64933683D01*
X71228464Y-64933683D01*
X71228464Y-64250000D01*
X71198894Y-64101341D01*
X71114686Y-63975314D01*
X70988659Y-63891106D01*
X70840000Y-63861536D01*
X69240000Y-63861536D01*
X69091341Y-63891106D01*
X68965314Y-63975314D01*
X68881106Y-64101341D01*
X68851536Y-64250000D01*
X50431000Y-64250000D01*
X50431000Y-63280000D01*
X89245863Y-63280000D01*
X89337522Y-63740803D01*
X89598547Y-64131453D01*
X89989197Y-64392478D01*
X90333682Y-64461000D01*
X91666318Y-64461000D01*
X92010803Y-64392478D01*
X92401453Y-64131453D01*
X92662478Y-63740803D01*
X92718332Y-63460000D01*
X95294884Y-63460000D01*
X95390424Y-63940312D01*
X95662499Y-64347501D01*
X96069688Y-64619576D01*
X96428761Y-64691000D01*
X96671239Y-64691000D01*
X97030312Y-64619576D01*
X97437501Y-64347501D01*
X97606217Y-64095000D01*
X100317370Y-64095000D01*
X100368362Y-64145992D01*
X100648429Y-64262000D01*
X100951571Y-64262000D01*
X101231638Y-64145992D01*
X101445992Y-63931638D01*
X101562000Y-63651571D01*
X101562000Y-63348429D01*
X101445992Y-63068362D01*
X101231638Y-62854008D01*
X100951571Y-62738000D01*
X100648429Y-62738000D01*
X100438393Y-62825000D01*
X97606217Y-62825000D01*
X97437501Y-62572499D01*
X97030312Y-62300424D01*
X96671239Y-62229000D01*
X96428761Y-62229000D01*
X96069688Y-62300424D01*
X95662499Y-62572499D01*
X95390424Y-62979688D01*
X95294884Y-63460000D01*
X92718332Y-63460000D01*
X92754137Y-63280000D01*
X92662478Y-62819197D01*
X92401453Y-62428547D01*
X92010803Y-62167522D01*
X91666318Y-62099000D01*
X90333682Y-62099000D01*
X89989197Y-62167522D01*
X89598547Y-62428547D01*
X89337522Y-62819197D01*
X89245863Y-63280000D01*
X50431000Y-63280000D01*
X50431000Y-58785519D01*
X68669000Y-58785519D01*
X68669000Y-59414481D01*
X68909693Y-59995565D01*
X69354435Y-60440307D01*
X69935519Y-60681000D01*
X70564481Y-60681000D01*
X70771374Y-60595302D01*
X74599000Y-60595302D01*
X74599000Y-61144698D01*
X74809245Y-61652273D01*
X75197727Y-62040755D01*
X75705302Y-62251000D01*
X76254698Y-62251000D01*
X76762273Y-62040755D01*
X77150755Y-61652273D01*
X77361000Y-61144698D01*
X77361000Y-60595302D01*
X78139000Y-60595302D01*
X78139000Y-61144698D01*
X78349245Y-61652273D01*
X78737727Y-62040755D01*
X79245302Y-62251000D01*
X79794698Y-62251000D01*
X80302273Y-62040755D01*
X80690755Y-61652273D01*
X80901000Y-61144698D01*
X80901000Y-60595302D01*
X80690755Y-60087727D01*
X80302273Y-59699245D01*
X79794698Y-59489000D01*
X79245302Y-59489000D01*
X78737727Y-59699245D01*
X78349245Y-60087727D01*
X78139000Y-60595302D01*
X77361000Y-60595302D01*
X77150755Y-60087727D01*
X76762273Y-59699245D01*
X76254698Y-59489000D01*
X75705302Y-59489000D01*
X75197727Y-59699245D01*
X74809245Y-60087727D01*
X74599000Y-60595302D01*
X70771374Y-60595302D01*
X71145565Y-60440307D01*
X71590307Y-59995565D01*
X71831000Y-59414481D01*
X71831000Y-58785519D01*
X71828941Y-58780547D01*
X83644000Y-58780547D01*
X83644000Y-59419453D01*
X83888499Y-60009726D01*
X84340274Y-60461501D01*
X84930547Y-60706000D01*
X85569453Y-60706000D01*
X86159726Y-60461501D01*
X86611501Y-60009726D01*
X86856000Y-59419453D01*
X86856000Y-58780547D01*
X86760107Y-58549039D01*
X89058096Y-58549039D01*
X89075633Y-58631819D01*
X89345500Y-59124896D01*
X89783517Y-59477166D01*
X90323000Y-59635000D01*
X90873000Y-59635000D01*
X90873000Y-58327000D01*
X91127000Y-58327000D01*
X91127000Y-59635000D01*
X91677000Y-59635000D01*
X92216483Y-59477166D01*
X92654500Y-59124896D01*
X92866860Y-58736890D01*
X95108524Y-58736890D01*
X95278355Y-59146924D01*
X95668642Y-59575183D01*
X96066963Y-59762245D01*
X95662499Y-60032499D01*
X95390424Y-60439688D01*
X95294884Y-60920000D01*
X95390424Y-61400312D01*
X95662499Y-61807501D01*
X96069688Y-62079576D01*
X96428761Y-62151000D01*
X96671239Y-62151000D01*
X97030312Y-62079576D01*
X97437501Y-61807501D01*
X97709576Y-61400312D01*
X97805116Y-60920000D01*
X97709576Y-60439688D01*
X97437501Y-60032499D01*
X97033037Y-59762245D01*
X97431358Y-59575183D01*
X97821645Y-59146924D01*
X97991476Y-58736890D01*
X97870155Y-58507000D01*
X96677000Y-58507000D01*
X96677000Y-58527000D01*
X96423000Y-58527000D01*
X96423000Y-58507000D01*
X95229845Y-58507000D01*
X95108524Y-58736890D01*
X92866860Y-58736890D01*
X92924367Y-58631819D01*
X92941904Y-58549039D01*
X92819915Y-58327000D01*
X91127000Y-58327000D01*
X90873000Y-58327000D01*
X89180085Y-58327000D01*
X89058096Y-58549039D01*
X86760107Y-58549039D01*
X86611501Y-58190274D01*
X86272188Y-57850961D01*
X89058096Y-57850961D01*
X89180085Y-58073000D01*
X90873000Y-58073000D01*
X90873000Y-56765000D01*
X91127000Y-56765000D01*
X91127000Y-58073000D01*
X92819915Y-58073000D01*
X92941904Y-57850961D01*
X92924367Y-57768181D01*
X92654500Y-57275104D01*
X92216483Y-56922834D01*
X91677000Y-56765000D01*
X91127000Y-56765000D01*
X90873000Y-56765000D01*
X90323000Y-56765000D01*
X89783517Y-56922834D01*
X89345500Y-57275104D01*
X89075633Y-57768181D01*
X89058096Y-57850961D01*
X86272188Y-57850961D01*
X86159726Y-57738499D01*
X85569453Y-57494000D01*
X84930547Y-57494000D01*
X84340274Y-57738499D01*
X83888499Y-58190274D01*
X83644000Y-58780547D01*
X71828941Y-58780547D01*
X71590307Y-58204435D01*
X71145565Y-57759693D01*
X70564481Y-57519000D01*
X69935519Y-57519000D01*
X69354435Y-57759693D01*
X68909693Y-58204435D01*
X68669000Y-58785519D01*
X50431000Y-58785519D01*
X50431000Y-57055302D01*
X74599000Y-57055302D01*
X74599000Y-57604698D01*
X74809245Y-58112273D01*
X75197727Y-58500755D01*
X75705302Y-58711000D01*
X76254698Y-58711000D01*
X76762273Y-58500755D01*
X77150755Y-58112273D01*
X77361000Y-57604698D01*
X77361000Y-57055302D01*
X77186900Y-56634989D01*
X77485461Y-56745908D01*
X78135460Y-56721856D01*
X78306457Y-56651027D01*
X78139000Y-57055302D01*
X78139000Y-57604698D01*
X78349245Y-58112273D01*
X78737727Y-58500755D01*
X79245302Y-58711000D01*
X79794698Y-58711000D01*
X80302273Y-58500755D01*
X80690755Y-58112273D01*
X80901000Y-57604698D01*
X80901000Y-57055302D01*
X80690755Y-56547727D01*
X80302273Y-56159245D01*
X79794698Y-55949000D01*
X79245302Y-55949000D01*
X78915300Y-56085692D01*
X78902534Y-56072926D01*
X79169387Y-55974264D01*
X79395908Y-55364539D01*
X79372643Y-54735792D01*
X83419000Y-54735792D01*
X83419000Y-55464208D01*
X83697753Y-56137178D01*
X84212822Y-56652247D01*
X84885792Y-56931000D01*
X85614208Y-56931000D01*
X86287178Y-56652247D01*
X86802247Y-56137178D01*
X87004693Y-55648429D01*
X92538000Y-55648429D01*
X92538000Y-55951571D01*
X92654008Y-56231638D01*
X92868362Y-56445992D01*
X93148429Y-56562000D01*
X93451571Y-56562000D01*
X93731638Y-56445992D01*
X93742630Y-56435000D01*
X95095429Y-56435000D01*
X95100154Y-56438157D01*
X95285378Y-56475000D01*
X95347919Y-56487440D01*
X95410460Y-56475000D01*
X95493783Y-56475000D01*
X95662499Y-56727501D01*
X96066963Y-56997755D01*
X95668642Y-57184817D01*
X95278355Y-57613076D01*
X95108524Y-58023110D01*
X95229845Y-58253000D01*
X96423000Y-58253000D01*
X96423000Y-58233000D01*
X96677000Y-58233000D01*
X96677000Y-58253000D01*
X97870155Y-58253000D01*
X97991476Y-58023110D01*
X97821645Y-57613076D01*
X97431358Y-57184817D01*
X97033037Y-56997755D01*
X97437501Y-56727501D01*
X97709576Y-56320312D01*
X97805116Y-55840000D01*
X97709576Y-55359688D01*
X97437501Y-54952499D01*
X97030312Y-54680424D01*
X96671239Y-54609000D01*
X96428761Y-54609000D01*
X96069688Y-54680424D01*
X95662499Y-54952499D01*
X95502907Y-55191345D01*
X95370460Y-55165000D01*
X95370456Y-55165000D01*
X95307919Y-55152561D01*
X95245382Y-55165000D01*
X93742630Y-55165000D01*
X93731638Y-55154008D01*
X93451571Y-55038000D01*
X93148429Y-55038000D01*
X92868362Y-55154008D01*
X92654008Y-55368362D01*
X92538000Y-55648429D01*
X87004693Y-55648429D01*
X87081000Y-55464208D01*
X87081000Y-54735792D01*
X86802247Y-54062822D01*
X86287178Y-53547753D01*
X85614208Y-53269000D01*
X84885792Y-53269000D01*
X84212822Y-53547753D01*
X83697753Y-54062822D01*
X83419000Y-54735792D01*
X79372643Y-54735792D01*
X79371856Y-54714540D01*
X79169387Y-54225736D01*
X78902532Y-54127073D01*
X77929605Y-55100000D01*
X77943748Y-55114143D01*
X77764143Y-55293748D01*
X77750000Y-55279605D01*
X77735858Y-55293748D01*
X77556253Y-55114143D01*
X77570395Y-55100000D01*
X76597468Y-54127073D01*
X76330613Y-54225736D01*
X76104092Y-54835461D01*
X76128144Y-55485460D01*
X76330613Y-55974264D01*
X76597466Y-56072926D01*
X76584700Y-56085692D01*
X76254698Y-55949000D01*
X75705302Y-55949000D01*
X75197727Y-56159245D01*
X74809245Y-56547727D01*
X74599000Y-57055302D01*
X50431000Y-57055302D01*
X50431000Y-54735792D01*
X68419000Y-54735792D01*
X68419000Y-55464208D01*
X68697753Y-56137178D01*
X69212822Y-56652247D01*
X69885792Y-56931000D01*
X70614208Y-56931000D01*
X71287178Y-56652247D01*
X71802247Y-56137178D01*
X72081000Y-55464208D01*
X72081000Y-54735792D01*
X71802247Y-54062822D01*
X71686893Y-53947468D01*
X76777073Y-53947468D01*
X77750000Y-54920395D01*
X78722927Y-53947468D01*
X78624264Y-53680613D01*
X78014539Y-53454092D01*
X77364540Y-53478144D01*
X76875736Y-53680613D01*
X76777073Y-53947468D01*
X71686893Y-53947468D01*
X71287178Y-53547753D01*
X70614208Y-53269000D01*
X69885792Y-53269000D01*
X69212822Y-53547753D01*
X68697753Y-54062822D01*
X68419000Y-54735792D01*
X50431000Y-54735792D01*
X50431000Y-53120000D01*
X89245863Y-53120000D01*
X89337522Y-53580803D01*
X89598547Y-53971453D01*
X89989197Y-54232478D01*
X90333682Y-54301000D01*
X91666318Y-54301000D01*
X92010803Y-54232478D01*
X92401453Y-53971453D01*
X92662478Y-53580803D01*
X92754137Y-53120000D01*
X92662478Y-52659197D01*
X92522697Y-52450000D01*
X95311536Y-52450000D01*
X95311536Y-54150000D01*
X95341106Y-54298659D01*
X95425314Y-54424686D01*
X95551341Y-54508894D01*
X95700000Y-54538464D01*
X97400000Y-54538464D01*
X97548659Y-54508894D01*
X97674686Y-54424686D01*
X97758894Y-54298659D01*
X97788464Y-54150000D01*
X97788464Y-52450000D01*
X97758894Y-52301341D01*
X97674686Y-52175314D01*
X97548659Y-52091106D01*
X97400000Y-52061536D01*
X95700000Y-52061536D01*
X95551341Y-52091106D01*
X95425314Y-52175314D01*
X95341106Y-52301341D01*
X95311536Y-52450000D01*
X92522697Y-52450000D01*
X92401453Y-52268547D01*
X92010803Y-52007522D01*
X91666318Y-51939000D01*
X90333682Y-51939000D01*
X89989197Y-52007522D01*
X89598547Y-52268547D01*
X89337522Y-52659197D01*
X89245863Y-53120000D01*
X50431000Y-53120000D01*
X50431000Y-50431000D01*
X105069000Y-50431000D01*
X105069001Y-116264000D01*
G04 #@! TD*
M02*
