G04 #@! TF.GenerationSoftware,KiCad,Pcbnew,5.0.0-rc2+dfsg1-3*
G04 #@! TF.CreationDate,2018-07-01T23:41:37-04:00*
G04 #@! TF.ProjectId,mystatv1,6D797374617476312E6B696361645F70,1*
G04 #@! TF.SameCoordinates,Original*
G04 #@! TF.FileFunction,Legend,Top*
G04 #@! TF.FilePolarity,Positive*
%FSLAX46Y46*%
G04 Gerber Fmt 4.6, Leading zero omitted, Abs format (unit mm)*
G04 Created by KiCad (PCBNEW 5.0.0-rc2+dfsg1-3) date Sun Jul  1 23:41:37 2018*
%MOMM*%
%LPD*%
G01*
G04 APERTURE LIST*
%ADD10C,0.150000*%
%ADD11C,0.120000*%
G04 APERTURE END LIST*
D10*
G04 #@! TO.C,K3*
X68050000Y-84796000D02*
X68050000Y-84196000D01*
X87450000Y-84796000D02*
X87450000Y-84496000D01*
X68050000Y-79796000D02*
X68050000Y-80396000D01*
X87450000Y-79796000D02*
X87450000Y-80096000D01*
X82870000Y-84796000D02*
X82870000Y-84196000D01*
X82870000Y-79796000D02*
X82870000Y-80396000D01*
X87450000Y-84796000D02*
X68050000Y-84796000D01*
X68050000Y-79796000D02*
X87450000Y-79796000D01*
D11*
G04 #@! TO.C,C1*
X99306000Y-98843000D02*
X98306000Y-98843000D01*
X99306000Y-101563000D02*
X98306000Y-101563000D01*
G04 #@! TO.C,C2*
X89140000Y-73500000D02*
X89140000Y-74500000D01*
X91860000Y-73500000D02*
X91860000Y-74500000D01*
G04 #@! TO.C,C3*
X82894000Y-102608000D02*
X82894000Y-101608000D01*
X80174000Y-102608000D02*
X80174000Y-101608000D01*
G04 #@! TO.C,C4*
X82767000Y-109085000D02*
X82767000Y-108085000D01*
X80047000Y-109085000D02*
X80047000Y-108085000D01*
G04 #@! TO.C,C5*
X87974000Y-109085000D02*
X87974000Y-108085000D01*
X85254000Y-109085000D02*
X85254000Y-108085000D01*
G04 #@! TO.C,C6*
X93435000Y-109085000D02*
X93435000Y-108085000D01*
X90715000Y-109085000D02*
X90715000Y-108085000D01*
G04 #@! TO.C,C7*
X101563000Y-74500000D02*
X101563000Y-73500000D01*
X98843000Y-74500000D02*
X98843000Y-73500000D01*
G04 #@! TO.C,C8*
X57390000Y-99000000D02*
X57390000Y-100000000D01*
X60110000Y-99000000D02*
X60110000Y-100000000D01*
G04 #@! TO.C,C19*
X63791000Y-58141000D02*
X63791000Y-59141000D01*
X66511000Y-58141000D02*
X66511000Y-59141000D01*
G04 #@! TO.C,D1*
X85161000Y-102233000D02*
X85161000Y-100773000D01*
X88321000Y-102233000D02*
X88321000Y-100073000D01*
X88321000Y-102233000D02*
X87391000Y-102233000D01*
X85161000Y-102233000D02*
X86091000Y-102233000D01*
G04 #@! TO.C,D2*
X90495000Y-102233000D02*
X90495000Y-100773000D01*
X93655000Y-102233000D02*
X93655000Y-100073000D01*
X93655000Y-102233000D02*
X92725000Y-102233000D01*
X90495000Y-102233000D02*
X91425000Y-102233000D01*
D10*
G04 #@! TO.C,K1*
X68050000Y-68000000D02*
X68050000Y-67400000D01*
X87450000Y-68000000D02*
X87450000Y-67700000D01*
X68050000Y-63000000D02*
X68050000Y-63600000D01*
X87450000Y-63000000D02*
X87450000Y-63300000D01*
X82870000Y-68000000D02*
X82870000Y-67400000D01*
X82870000Y-63000000D02*
X82870000Y-63600000D01*
X87450000Y-68000000D02*
X68050000Y-68000000D01*
X68050000Y-63000000D02*
X87450000Y-63000000D01*
G04 #@! TO.C,K2*
X68050000Y-73493000D02*
X68050000Y-72893000D01*
X87450000Y-73493000D02*
X87450000Y-73193000D01*
X68050000Y-68493000D02*
X68050000Y-69093000D01*
X87450000Y-68493000D02*
X87450000Y-68793000D01*
X82870000Y-73493000D02*
X82870000Y-72893000D01*
X82870000Y-68493000D02*
X82870000Y-69093000D01*
X87450000Y-73493000D02*
X68050000Y-73493000D01*
X68050000Y-68493000D02*
X87450000Y-68493000D01*
G04 #@! TO.C,K4*
X68050000Y-79208000D02*
X68050000Y-78608000D01*
X87450000Y-79208000D02*
X87450000Y-78908000D01*
X68050000Y-74208000D02*
X68050000Y-74808000D01*
X87450000Y-74208000D02*
X87450000Y-74508000D01*
X82870000Y-79208000D02*
X82870000Y-78608000D01*
X82870000Y-74208000D02*
X82870000Y-74808000D01*
X87450000Y-79208000D02*
X68050000Y-79208000D01*
X68050000Y-74208000D02*
X87450000Y-74208000D01*
D11*
G04 #@! TO.C,P1*
X63948000Y-63313000D02*
X65278000Y-63313000D01*
X63948000Y-64643000D02*
X63948000Y-63313000D01*
X63948000Y-65913000D02*
X66608000Y-65913000D01*
X66608000Y-65913000D02*
X66608000Y-76133000D01*
X63948000Y-65913000D02*
X63948000Y-76133000D01*
X63948000Y-76133000D02*
X66608000Y-76133000D01*
G04 #@! TO.C,P3*
X63948000Y-78934000D02*
X65278000Y-78934000D01*
X63948000Y-80264000D02*
X63948000Y-78934000D01*
X63948000Y-81534000D02*
X66608000Y-81534000D01*
X66608000Y-81534000D02*
X66608000Y-94294000D01*
X63948000Y-81534000D02*
X63948000Y-94294000D01*
X63948000Y-94294000D02*
X66608000Y-94294000D01*
D10*
G04 #@! TO.C,U1*
X96027000Y-109136000D02*
X96027000Y-110536000D01*
X101127000Y-109136000D02*
X101127000Y-104986000D01*
X95977000Y-109136000D02*
X95977000Y-104986000D01*
X101127000Y-109136000D02*
X100982000Y-109136000D01*
X101127000Y-104986000D02*
X100982000Y-104986000D01*
X95977000Y-104986000D02*
X96122000Y-104986000D01*
X95977000Y-109136000D02*
X96027000Y-109136000D01*
G04 #@! TO.C,U2*
X82779000Y-88200000D02*
X82779000Y-86400000D01*
X69879000Y-88200000D02*
X69879000Y-95950000D01*
X83029000Y-88200000D02*
X83029000Y-95950000D01*
X69879000Y-88200000D02*
X70214000Y-88200000D01*
X69879000Y-95950000D02*
X70214000Y-95950000D01*
X83029000Y-95950000D02*
X82694000Y-95950000D01*
X83029000Y-88200000D02*
X82779000Y-88200000D01*
G04 #@! TO.C,U3*
X55925000Y-83225000D02*
X54525000Y-83225000D01*
X55925000Y-88325000D02*
X60075000Y-88325000D01*
X55925000Y-83175000D02*
X60075000Y-83175000D01*
X55925000Y-88325000D02*
X55925000Y-88180000D01*
X60075000Y-88325000D02*
X60075000Y-88180000D01*
X60075000Y-83175000D02*
X60075000Y-83320000D01*
X55925000Y-83175000D02*
X55925000Y-83225000D01*
G04 #@! TO.C,U4*
X55925000Y-70475000D02*
X54525000Y-70475000D01*
X55925000Y-75575000D02*
X60075000Y-75575000D01*
X55925000Y-70425000D02*
X60075000Y-70425000D01*
X55925000Y-75575000D02*
X55925000Y-75430000D01*
X60075000Y-75575000D02*
X60075000Y-75430000D01*
X60075000Y-70425000D02*
X60075000Y-70570000D01*
X55925000Y-70425000D02*
X55925000Y-70475000D01*
G04 #@! TO.C,U5*
X55925000Y-57225000D02*
X54525000Y-57225000D01*
X55925000Y-62325000D02*
X60075000Y-62325000D01*
X55925000Y-57175000D02*
X60075000Y-57175000D01*
X55925000Y-62325000D02*
X55925000Y-62180000D01*
X60075000Y-62325000D02*
X60075000Y-62180000D01*
X60075000Y-57175000D02*
X60075000Y-57320000D01*
X55925000Y-57175000D02*
X55925000Y-57225000D01*
G04 #@! TO.C,U6*
X70512000Y-102685000D02*
X75787000Y-102685000D01*
X71787000Y-108085000D02*
X75787000Y-108085000D01*
G04 #@! TO.C,U7*
X95080000Y-83586000D02*
X93705000Y-83586000D01*
X95080000Y-92461000D02*
X99230000Y-92461000D01*
X95080000Y-83561000D02*
X99230000Y-83561000D01*
X95080000Y-92461000D02*
X95080000Y-92346000D01*
X99230000Y-92461000D02*
X99230000Y-92346000D01*
X99230000Y-83561000D02*
X99230000Y-83676000D01*
X95080000Y-83561000D02*
X95080000Y-83586000D01*
G04 #@! TO.C,U8*
X96923800Y-73200800D02*
X96923800Y-74799200D01*
X94076200Y-73200800D02*
X96923800Y-73200800D01*
X94076200Y-74799200D02*
X94076200Y-73200800D01*
X96923800Y-74799200D02*
X94076200Y-74799200D01*
X96923800Y-73720000D02*
X96400000Y-73200800D01*
G04 #@! TO.C,U9*
X101331000Y-58631000D02*
X101331000Y-57231000D01*
X96231000Y-58631000D02*
X96231000Y-62781000D01*
X101381000Y-58631000D02*
X101381000Y-62781000D01*
X96231000Y-58631000D02*
X96376000Y-58631000D01*
X96231000Y-62781000D02*
X96376000Y-62781000D01*
X101381000Y-62781000D02*
X101236000Y-62781000D01*
X101381000Y-58631000D02*
X101331000Y-58631000D01*
D11*
G04 #@! TO.C,X1*
X67803000Y-99337000D02*
G75*
G03X62753000Y-99337000I-2525000J0D01*
G01*
X67803000Y-105587000D02*
G75*
G02X62753000Y-105587000I-2525000J0D01*
G01*
X67803000Y-105587000D02*
X67803000Y-99337000D01*
X62753000Y-105587000D02*
X62753000Y-99337000D01*
G04 #@! TO.C,P2*
D10*
X77011904Y-52452380D02*
X77011904Y-51452380D01*
X77392857Y-51452380D01*
X77488095Y-51500000D01*
X77535714Y-51547619D01*
X77583333Y-51642857D01*
X77583333Y-51785714D01*
X77535714Y-51880952D01*
X77488095Y-51928571D01*
X77392857Y-51976190D01*
X77011904Y-51976190D01*
X77964285Y-51547619D02*
X78011904Y-51500000D01*
X78107142Y-51452380D01*
X78345238Y-51452380D01*
X78440476Y-51500000D01*
X78488095Y-51547619D01*
X78535714Y-51642857D01*
X78535714Y-51738095D01*
X78488095Y-51880952D01*
X77916666Y-52452380D01*
X78535714Y-52452380D01*
G04 #@! TO.C,K3*
X88012666Y-82812666D02*
X87312666Y-82812666D01*
X88012666Y-82412666D02*
X87612666Y-82712666D01*
X87312666Y-82412666D02*
X87712666Y-82812666D01*
X87312666Y-82179333D02*
X87312666Y-81746000D01*
X87579333Y-81979333D01*
X87579333Y-81879333D01*
X87612666Y-81812666D01*
X87646000Y-81779333D01*
X87712666Y-81746000D01*
X87879333Y-81746000D01*
X87946000Y-81779333D01*
X87979333Y-81812666D01*
X88012666Y-81879333D01*
X88012666Y-82079333D01*
X87979333Y-82146000D01*
X87946000Y-82179333D01*
G04 #@! TO.C,R17*
X95352380Y-68392857D02*
X94876190Y-68726190D01*
X95352380Y-68964285D02*
X94352380Y-68964285D01*
X94352380Y-68583333D01*
X94400000Y-68488095D01*
X94447619Y-68440476D01*
X94542857Y-68392857D01*
X94685714Y-68392857D01*
X94780952Y-68440476D01*
X94828571Y-68488095D01*
X94876190Y-68583333D01*
X94876190Y-68964285D01*
X95352380Y-67440476D02*
X95352380Y-68011904D01*
X95352380Y-67726190D02*
X94352380Y-67726190D01*
X94495238Y-67821428D01*
X94590476Y-67916666D01*
X94638095Y-68011904D01*
X94352380Y-67107142D02*
X94352380Y-66440476D01*
X95352380Y-66869047D01*
G04 #@! TO.C,C1*
X98639333Y-102860142D02*
X98591714Y-102907761D01*
X98448857Y-102955380D01*
X98353619Y-102955380D01*
X98210761Y-102907761D01*
X98115523Y-102812523D01*
X98067904Y-102717285D01*
X98020285Y-102526809D01*
X98020285Y-102383952D01*
X98067904Y-102193476D01*
X98115523Y-102098238D01*
X98210761Y-102003000D01*
X98353619Y-101955380D01*
X98448857Y-101955380D01*
X98591714Y-102003000D01*
X98639333Y-102050619D01*
X99591714Y-102955380D02*
X99020285Y-102955380D01*
X99306000Y-102955380D02*
X99306000Y-101955380D01*
X99210761Y-102098238D01*
X99115523Y-102193476D01*
X99020285Y-102241095D01*
G04 #@! TO.C,C2*
X93357142Y-74166666D02*
X93404761Y-74214285D01*
X93452380Y-74357142D01*
X93452380Y-74452380D01*
X93404761Y-74595238D01*
X93309523Y-74690476D01*
X93214285Y-74738095D01*
X93023809Y-74785714D01*
X92880952Y-74785714D01*
X92690476Y-74738095D01*
X92595238Y-74690476D01*
X92500000Y-74595238D01*
X92452380Y-74452380D01*
X92452380Y-74357142D01*
X92500000Y-74214285D01*
X92547619Y-74166666D01*
X92547619Y-73785714D02*
X92500000Y-73738095D01*
X92452380Y-73642857D01*
X92452380Y-73404761D01*
X92500000Y-73309523D01*
X92547619Y-73261904D01*
X92642857Y-73214285D01*
X92738095Y-73214285D01*
X92880952Y-73261904D01*
X93452380Y-73833333D01*
X93452380Y-73214285D01*
G04 #@! TO.C,C3*
X79591142Y-102274666D02*
X79638761Y-102322285D01*
X79686380Y-102465142D01*
X79686380Y-102560380D01*
X79638761Y-102703238D01*
X79543523Y-102798476D01*
X79448285Y-102846095D01*
X79257809Y-102893714D01*
X79114952Y-102893714D01*
X78924476Y-102846095D01*
X78829238Y-102798476D01*
X78734000Y-102703238D01*
X78686380Y-102560380D01*
X78686380Y-102465142D01*
X78734000Y-102322285D01*
X78781619Y-102274666D01*
X78686380Y-101941333D02*
X78686380Y-101322285D01*
X79067333Y-101655619D01*
X79067333Y-101512761D01*
X79114952Y-101417523D01*
X79162571Y-101369904D01*
X79257809Y-101322285D01*
X79495904Y-101322285D01*
X79591142Y-101369904D01*
X79638761Y-101417523D01*
X79686380Y-101512761D01*
X79686380Y-101798476D01*
X79638761Y-101893714D01*
X79591142Y-101941333D01*
G04 #@! TO.C,C4*
X79464142Y-108751666D02*
X79511761Y-108799285D01*
X79559380Y-108942142D01*
X79559380Y-109037380D01*
X79511761Y-109180238D01*
X79416523Y-109275476D01*
X79321285Y-109323095D01*
X79130809Y-109370714D01*
X78987952Y-109370714D01*
X78797476Y-109323095D01*
X78702238Y-109275476D01*
X78607000Y-109180238D01*
X78559380Y-109037380D01*
X78559380Y-108942142D01*
X78607000Y-108799285D01*
X78654619Y-108751666D01*
X78892714Y-107894523D02*
X79559380Y-107894523D01*
X78511761Y-108132619D02*
X79226047Y-108370714D01*
X79226047Y-107751666D01*
G04 #@! TO.C,C5*
X84671142Y-108751666D02*
X84718761Y-108799285D01*
X84766380Y-108942142D01*
X84766380Y-109037380D01*
X84718761Y-109180238D01*
X84623523Y-109275476D01*
X84528285Y-109323095D01*
X84337809Y-109370714D01*
X84194952Y-109370714D01*
X84004476Y-109323095D01*
X83909238Y-109275476D01*
X83814000Y-109180238D01*
X83766380Y-109037380D01*
X83766380Y-108942142D01*
X83814000Y-108799285D01*
X83861619Y-108751666D01*
X83766380Y-107846904D02*
X83766380Y-108323095D01*
X84242571Y-108370714D01*
X84194952Y-108323095D01*
X84147333Y-108227857D01*
X84147333Y-107989761D01*
X84194952Y-107894523D01*
X84242571Y-107846904D01*
X84337809Y-107799285D01*
X84575904Y-107799285D01*
X84671142Y-107846904D01*
X84718761Y-107894523D01*
X84766380Y-107989761D01*
X84766380Y-108227857D01*
X84718761Y-108323095D01*
X84671142Y-108370714D01*
G04 #@! TO.C,C6*
X90132142Y-108751666D02*
X90179761Y-108799285D01*
X90227380Y-108942142D01*
X90227380Y-109037380D01*
X90179761Y-109180238D01*
X90084523Y-109275476D01*
X89989285Y-109323095D01*
X89798809Y-109370714D01*
X89655952Y-109370714D01*
X89465476Y-109323095D01*
X89370238Y-109275476D01*
X89275000Y-109180238D01*
X89227380Y-109037380D01*
X89227380Y-108942142D01*
X89275000Y-108799285D01*
X89322619Y-108751666D01*
X89227380Y-107894523D02*
X89227380Y-108085000D01*
X89275000Y-108180238D01*
X89322619Y-108227857D01*
X89465476Y-108323095D01*
X89655952Y-108370714D01*
X90036904Y-108370714D01*
X90132142Y-108323095D01*
X90179761Y-108275476D01*
X90227380Y-108180238D01*
X90227380Y-107989761D01*
X90179761Y-107894523D01*
X90132142Y-107846904D01*
X90036904Y-107799285D01*
X89798809Y-107799285D01*
X89703571Y-107846904D01*
X89655952Y-107894523D01*
X89608333Y-107989761D01*
X89608333Y-108180238D01*
X89655952Y-108275476D01*
X89703571Y-108323095D01*
X89798809Y-108370714D01*
G04 #@! TO.C,C7*
X103107142Y-74166666D02*
X103154761Y-74214285D01*
X103202380Y-74357142D01*
X103202380Y-74452380D01*
X103154761Y-74595238D01*
X103059523Y-74690476D01*
X102964285Y-74738095D01*
X102773809Y-74785714D01*
X102630952Y-74785714D01*
X102440476Y-74738095D01*
X102345238Y-74690476D01*
X102250000Y-74595238D01*
X102202380Y-74452380D01*
X102202380Y-74357142D01*
X102250000Y-74214285D01*
X102297619Y-74166666D01*
X102202380Y-73833333D02*
X102202380Y-73166666D01*
X103202380Y-73595238D01*
G04 #@! TO.C,C8*
X61407142Y-99666666D02*
X61454761Y-99714285D01*
X61502380Y-99857142D01*
X61502380Y-99952380D01*
X61454761Y-100095238D01*
X61359523Y-100190476D01*
X61264285Y-100238095D01*
X61073809Y-100285714D01*
X60930952Y-100285714D01*
X60740476Y-100238095D01*
X60645238Y-100190476D01*
X60550000Y-100095238D01*
X60502380Y-99952380D01*
X60502380Y-99857142D01*
X60550000Y-99714285D01*
X60597619Y-99666666D01*
X60930952Y-99095238D02*
X60883333Y-99190476D01*
X60835714Y-99238095D01*
X60740476Y-99285714D01*
X60692857Y-99285714D01*
X60597619Y-99238095D01*
X60550000Y-99190476D01*
X60502380Y-99095238D01*
X60502380Y-98904761D01*
X60550000Y-98809523D01*
X60597619Y-98761904D01*
X60692857Y-98714285D01*
X60740476Y-98714285D01*
X60835714Y-98761904D01*
X60883333Y-98809523D01*
X60930952Y-98904761D01*
X60930952Y-99095238D01*
X60978571Y-99190476D01*
X61026190Y-99238095D01*
X61121428Y-99285714D01*
X61311904Y-99285714D01*
X61407142Y-99238095D01*
X61454761Y-99190476D01*
X61502380Y-99095238D01*
X61502380Y-98904761D01*
X61454761Y-98809523D01*
X61407142Y-98761904D01*
X61311904Y-98714285D01*
X61121428Y-98714285D01*
X61026190Y-98761904D01*
X60978571Y-98809523D01*
X60930952Y-98904761D01*
G04 #@! TO.C,C9*
X61757142Y-91916666D02*
X61804761Y-91964285D01*
X61852380Y-92107142D01*
X61852380Y-92202380D01*
X61804761Y-92345238D01*
X61709523Y-92440476D01*
X61614285Y-92488095D01*
X61423809Y-92535714D01*
X61280952Y-92535714D01*
X61090476Y-92488095D01*
X60995238Y-92440476D01*
X60900000Y-92345238D01*
X60852380Y-92202380D01*
X60852380Y-92107142D01*
X60900000Y-91964285D01*
X60947619Y-91916666D01*
X61852380Y-91440476D02*
X61852380Y-91250000D01*
X61804761Y-91154761D01*
X61757142Y-91107142D01*
X61614285Y-91011904D01*
X61423809Y-90964285D01*
X61042857Y-90964285D01*
X60947619Y-91011904D01*
X60900000Y-91059523D01*
X60852380Y-91154761D01*
X60852380Y-91345238D01*
X60900000Y-91440476D01*
X60947619Y-91488095D01*
X61042857Y-91535714D01*
X61280952Y-91535714D01*
X61376190Y-91488095D01*
X61423809Y-91440476D01*
X61471428Y-91345238D01*
X61471428Y-91154761D01*
X61423809Y-91059523D01*
X61376190Y-91011904D01*
X61280952Y-90964285D01*
G04 #@! TO.C,C10*
X61757142Y-79892857D02*
X61804761Y-79940476D01*
X61852380Y-80083333D01*
X61852380Y-80178571D01*
X61804761Y-80321428D01*
X61709523Y-80416666D01*
X61614285Y-80464285D01*
X61423809Y-80511904D01*
X61280952Y-80511904D01*
X61090476Y-80464285D01*
X60995238Y-80416666D01*
X60900000Y-80321428D01*
X60852380Y-80178571D01*
X60852380Y-80083333D01*
X60900000Y-79940476D01*
X60947619Y-79892857D01*
X61852380Y-78940476D02*
X61852380Y-79511904D01*
X61852380Y-79226190D02*
X60852380Y-79226190D01*
X60995238Y-79321428D01*
X61090476Y-79416666D01*
X61138095Y-79511904D01*
X60852380Y-78321428D02*
X60852380Y-78226190D01*
X60900000Y-78130952D01*
X60947619Y-78083333D01*
X61042857Y-78035714D01*
X61233333Y-77988095D01*
X61471428Y-77988095D01*
X61661904Y-78035714D01*
X61757142Y-78083333D01*
X61804761Y-78130952D01*
X61852380Y-78226190D01*
X61852380Y-78321428D01*
X61804761Y-78416666D01*
X61757142Y-78464285D01*
X61661904Y-78511904D01*
X61471428Y-78559523D01*
X61233333Y-78559523D01*
X61042857Y-78511904D01*
X60947619Y-78464285D01*
X60900000Y-78416666D01*
X60852380Y-78321428D01*
G04 #@! TO.C,C11*
X57252142Y-92392857D02*
X57299761Y-92440476D01*
X57347380Y-92583333D01*
X57347380Y-92678571D01*
X57299761Y-92821428D01*
X57204523Y-92916666D01*
X57109285Y-92964285D01*
X56918809Y-93011904D01*
X56775952Y-93011904D01*
X56585476Y-92964285D01*
X56490238Y-92916666D01*
X56395000Y-92821428D01*
X56347380Y-92678571D01*
X56347380Y-92583333D01*
X56395000Y-92440476D01*
X56442619Y-92392857D01*
X57347380Y-91440476D02*
X57347380Y-92011904D01*
X57347380Y-91726190D02*
X56347380Y-91726190D01*
X56490238Y-91821428D01*
X56585476Y-91916666D01*
X56633095Y-92011904D01*
X57347380Y-90488095D02*
X57347380Y-91059523D01*
X57347380Y-90773809D02*
X56347380Y-90773809D01*
X56490238Y-90869047D01*
X56585476Y-90964285D01*
X56633095Y-91059523D01*
G04 #@! TO.C,C12*
X62107142Y-53892857D02*
X62154761Y-53940476D01*
X62202380Y-54083333D01*
X62202380Y-54178571D01*
X62154761Y-54321428D01*
X62059523Y-54416666D01*
X61964285Y-54464285D01*
X61773809Y-54511904D01*
X61630952Y-54511904D01*
X61440476Y-54464285D01*
X61345238Y-54416666D01*
X61250000Y-54321428D01*
X61202380Y-54178571D01*
X61202380Y-54083333D01*
X61250000Y-53940476D01*
X61297619Y-53892857D01*
X62202380Y-52940476D02*
X62202380Y-53511904D01*
X62202380Y-53226190D02*
X61202380Y-53226190D01*
X61345238Y-53321428D01*
X61440476Y-53416666D01*
X61488095Y-53511904D01*
X61297619Y-52559523D02*
X61250000Y-52511904D01*
X61202380Y-52416666D01*
X61202380Y-52178571D01*
X61250000Y-52083333D01*
X61297619Y-52035714D01*
X61392857Y-51988095D01*
X61488095Y-51988095D01*
X61630952Y-52035714D01*
X62202380Y-52607142D01*
X62202380Y-51988095D01*
G04 #@! TO.C,C13*
X59357142Y-64107142D02*
X59309523Y-64154761D01*
X59166666Y-64202380D01*
X59071428Y-64202380D01*
X58928571Y-64154761D01*
X58833333Y-64059523D01*
X58785714Y-63964285D01*
X58738095Y-63773809D01*
X58738095Y-63630952D01*
X58785714Y-63440476D01*
X58833333Y-63345238D01*
X58928571Y-63250000D01*
X59071428Y-63202380D01*
X59166666Y-63202380D01*
X59309523Y-63250000D01*
X59357142Y-63297619D01*
X60309523Y-64202380D02*
X59738095Y-64202380D01*
X60023809Y-64202380D02*
X60023809Y-63202380D01*
X59928571Y-63345238D01*
X59833333Y-63440476D01*
X59738095Y-63488095D01*
X60642857Y-63202380D02*
X61261904Y-63202380D01*
X60928571Y-63583333D01*
X61071428Y-63583333D01*
X61166666Y-63630952D01*
X61214285Y-63678571D01*
X61261904Y-63773809D01*
X61261904Y-64011904D01*
X61214285Y-64107142D01*
X61166666Y-64154761D01*
X61071428Y-64202380D01*
X60785714Y-64202380D01*
X60690476Y-64154761D01*
X60642857Y-64107142D01*
G04 #@! TO.C,C14*
X53985142Y-97749857D02*
X54032761Y-97797476D01*
X54080380Y-97940333D01*
X54080380Y-98035571D01*
X54032761Y-98178428D01*
X53937523Y-98273666D01*
X53842285Y-98321285D01*
X53651809Y-98368904D01*
X53508952Y-98368904D01*
X53318476Y-98321285D01*
X53223238Y-98273666D01*
X53128000Y-98178428D01*
X53080380Y-98035571D01*
X53080380Y-97940333D01*
X53128000Y-97797476D01*
X53175619Y-97749857D01*
X54080380Y-96797476D02*
X54080380Y-97368904D01*
X54080380Y-97083190D02*
X53080380Y-97083190D01*
X53223238Y-97178428D01*
X53318476Y-97273666D01*
X53366095Y-97368904D01*
X53413714Y-95940333D02*
X54080380Y-95940333D01*
X53032761Y-96178428D02*
X53747047Y-96416523D01*
X53747047Y-95797476D01*
G04 #@! TO.C,C15*
X66650142Y-54236857D02*
X66697761Y-54284476D01*
X66745380Y-54427333D01*
X66745380Y-54522571D01*
X66697761Y-54665428D01*
X66602523Y-54760666D01*
X66507285Y-54808285D01*
X66316809Y-54855904D01*
X66173952Y-54855904D01*
X65983476Y-54808285D01*
X65888238Y-54760666D01*
X65793000Y-54665428D01*
X65745380Y-54522571D01*
X65745380Y-54427333D01*
X65793000Y-54284476D01*
X65840619Y-54236857D01*
X66745380Y-53284476D02*
X66745380Y-53855904D01*
X66745380Y-53570190D02*
X65745380Y-53570190D01*
X65888238Y-53665428D01*
X65983476Y-53760666D01*
X66031095Y-53855904D01*
X65745380Y-52379714D02*
X65745380Y-52855904D01*
X66221571Y-52903523D01*
X66173952Y-52855904D01*
X66126333Y-52760666D01*
X66126333Y-52522571D01*
X66173952Y-52427333D01*
X66221571Y-52379714D01*
X66316809Y-52332095D01*
X66554904Y-52332095D01*
X66650142Y-52379714D01*
X66697761Y-52427333D01*
X66745380Y-52522571D01*
X66745380Y-52760666D01*
X66697761Y-52855904D01*
X66650142Y-52903523D01*
G04 #@! TO.C,C16*
X57257142Y-79892857D02*
X57304761Y-79940476D01*
X57352380Y-80083333D01*
X57352380Y-80178571D01*
X57304761Y-80321428D01*
X57209523Y-80416666D01*
X57114285Y-80464285D01*
X56923809Y-80511904D01*
X56780952Y-80511904D01*
X56590476Y-80464285D01*
X56495238Y-80416666D01*
X56400000Y-80321428D01*
X56352380Y-80178571D01*
X56352380Y-80083333D01*
X56400000Y-79940476D01*
X56447619Y-79892857D01*
X57352380Y-78940476D02*
X57352380Y-79511904D01*
X57352380Y-79226190D02*
X56352380Y-79226190D01*
X56495238Y-79321428D01*
X56590476Y-79416666D01*
X56638095Y-79511904D01*
X56352380Y-78083333D02*
X56352380Y-78273809D01*
X56400000Y-78369047D01*
X56447619Y-78416666D01*
X56590476Y-78511904D01*
X56780952Y-78559523D01*
X57161904Y-78559523D01*
X57257142Y-78511904D01*
X57304761Y-78464285D01*
X57352380Y-78369047D01*
X57352380Y-78178571D01*
X57304761Y-78083333D01*
X57257142Y-78035714D01*
X57161904Y-77988095D01*
X56923809Y-77988095D01*
X56828571Y-78035714D01*
X56780952Y-78083333D01*
X56733333Y-78178571D01*
X56733333Y-78369047D01*
X56780952Y-78464285D01*
X56828571Y-78511904D01*
X56923809Y-78559523D01*
G04 #@! TO.C,C17*
X58107142Y-106825142D02*
X58059523Y-106872761D01*
X57916666Y-106920380D01*
X57821428Y-106920380D01*
X57678571Y-106872761D01*
X57583333Y-106777523D01*
X57535714Y-106682285D01*
X57488095Y-106491809D01*
X57488095Y-106348952D01*
X57535714Y-106158476D01*
X57583333Y-106063238D01*
X57678571Y-105968000D01*
X57821428Y-105920380D01*
X57916666Y-105920380D01*
X58059523Y-105968000D01*
X58107142Y-106015619D01*
X59059523Y-106920380D02*
X58488095Y-106920380D01*
X58773809Y-106920380D02*
X58773809Y-105920380D01*
X58678571Y-106063238D01*
X58583333Y-106158476D01*
X58488095Y-106206095D01*
X59392857Y-105920380D02*
X60059523Y-105920380D01*
X59630952Y-106920380D01*
G04 #@! TO.C,C18*
X53985142Y-102855857D02*
X54032761Y-102903476D01*
X54080380Y-103046333D01*
X54080380Y-103141571D01*
X54032761Y-103284428D01*
X53937523Y-103379666D01*
X53842285Y-103427285D01*
X53651809Y-103474904D01*
X53508952Y-103474904D01*
X53318476Y-103427285D01*
X53223238Y-103379666D01*
X53128000Y-103284428D01*
X53080380Y-103141571D01*
X53080380Y-103046333D01*
X53128000Y-102903476D01*
X53175619Y-102855857D01*
X54080380Y-101903476D02*
X54080380Y-102474904D01*
X54080380Y-102189190D02*
X53080380Y-102189190D01*
X53223238Y-102284428D01*
X53318476Y-102379666D01*
X53366095Y-102474904D01*
X53508952Y-101332047D02*
X53461333Y-101427285D01*
X53413714Y-101474904D01*
X53318476Y-101522523D01*
X53270857Y-101522523D01*
X53175619Y-101474904D01*
X53128000Y-101427285D01*
X53080380Y-101332047D01*
X53080380Y-101141571D01*
X53128000Y-101046333D01*
X53175619Y-100998714D01*
X53270857Y-100951095D01*
X53318476Y-100951095D01*
X53413714Y-100998714D01*
X53461333Y-101046333D01*
X53508952Y-101141571D01*
X53508952Y-101332047D01*
X53556571Y-101427285D01*
X53604190Y-101474904D01*
X53699428Y-101522523D01*
X53889904Y-101522523D01*
X53985142Y-101474904D01*
X54032761Y-101427285D01*
X54080380Y-101332047D01*
X54080380Y-101141571D01*
X54032761Y-101046333D01*
X53985142Y-100998714D01*
X53889904Y-100951095D01*
X53699428Y-100951095D01*
X53604190Y-100998714D01*
X53556571Y-101046333D01*
X53508952Y-101141571D01*
G04 #@! TO.C,C19*
X67808142Y-59283857D02*
X67855761Y-59331476D01*
X67903380Y-59474333D01*
X67903380Y-59569571D01*
X67855761Y-59712428D01*
X67760523Y-59807666D01*
X67665285Y-59855285D01*
X67474809Y-59902904D01*
X67331952Y-59902904D01*
X67141476Y-59855285D01*
X67046238Y-59807666D01*
X66951000Y-59712428D01*
X66903380Y-59569571D01*
X66903380Y-59474333D01*
X66951000Y-59331476D01*
X66998619Y-59283857D01*
X67903380Y-58331476D02*
X67903380Y-58902904D01*
X67903380Y-58617190D02*
X66903380Y-58617190D01*
X67046238Y-58712428D01*
X67141476Y-58807666D01*
X67189095Y-58902904D01*
X67903380Y-57855285D02*
X67903380Y-57664809D01*
X67855761Y-57569571D01*
X67808142Y-57521952D01*
X67665285Y-57426714D01*
X67474809Y-57379095D01*
X67093857Y-57379095D01*
X66998619Y-57426714D01*
X66951000Y-57474333D01*
X66903380Y-57569571D01*
X66903380Y-57760047D01*
X66951000Y-57855285D01*
X66998619Y-57902904D01*
X67093857Y-57950523D01*
X67331952Y-57950523D01*
X67427190Y-57902904D01*
X67474809Y-57855285D01*
X67522428Y-57760047D01*
X67522428Y-57569571D01*
X67474809Y-57474333D01*
X67427190Y-57426714D01*
X67331952Y-57379095D01*
G04 #@! TO.C,C20*
X70107142Y-113007142D02*
X70059523Y-113054761D01*
X69916666Y-113102380D01*
X69821428Y-113102380D01*
X69678571Y-113054761D01*
X69583333Y-112959523D01*
X69535714Y-112864285D01*
X69488095Y-112673809D01*
X69488095Y-112530952D01*
X69535714Y-112340476D01*
X69583333Y-112245238D01*
X69678571Y-112150000D01*
X69821428Y-112102380D01*
X69916666Y-112102380D01*
X70059523Y-112150000D01*
X70107142Y-112197619D01*
X70488095Y-112197619D02*
X70535714Y-112150000D01*
X70630952Y-112102380D01*
X70869047Y-112102380D01*
X70964285Y-112150000D01*
X71011904Y-112197619D01*
X71059523Y-112292857D01*
X71059523Y-112388095D01*
X71011904Y-112530952D01*
X70440476Y-113102380D01*
X71059523Y-113102380D01*
X71678571Y-112102380D02*
X71773809Y-112102380D01*
X71869047Y-112150000D01*
X71916666Y-112197619D01*
X71964285Y-112292857D01*
X72011904Y-112483333D01*
X72011904Y-112721428D01*
X71964285Y-112911904D01*
X71916666Y-113007142D01*
X71869047Y-113054761D01*
X71773809Y-113102380D01*
X71678571Y-113102380D01*
X71583333Y-113054761D01*
X71535714Y-113007142D01*
X71488095Y-112911904D01*
X71440476Y-112721428D01*
X71440476Y-112483333D01*
X71488095Y-112292857D01*
X71535714Y-112197619D01*
X71583333Y-112150000D01*
X71678571Y-112102380D01*
G04 #@! TO.C,C21*
X74857142Y-112857142D02*
X74809523Y-112904761D01*
X74666666Y-112952380D01*
X74571428Y-112952380D01*
X74428571Y-112904761D01*
X74333333Y-112809523D01*
X74285714Y-112714285D01*
X74238095Y-112523809D01*
X74238095Y-112380952D01*
X74285714Y-112190476D01*
X74333333Y-112095238D01*
X74428571Y-112000000D01*
X74571428Y-111952380D01*
X74666666Y-111952380D01*
X74809523Y-112000000D01*
X74857142Y-112047619D01*
X75238095Y-112047619D02*
X75285714Y-112000000D01*
X75380952Y-111952380D01*
X75619047Y-111952380D01*
X75714285Y-112000000D01*
X75761904Y-112047619D01*
X75809523Y-112142857D01*
X75809523Y-112238095D01*
X75761904Y-112380952D01*
X75190476Y-112952380D01*
X75809523Y-112952380D01*
X76761904Y-112952380D02*
X76190476Y-112952380D01*
X76476190Y-112952380D02*
X76476190Y-111952380D01*
X76380952Y-112095238D01*
X76285714Y-112190476D01*
X76190476Y-112238095D01*
G04 #@! TO.C,C22*
X91757142Y-68392857D02*
X91804761Y-68440476D01*
X91852380Y-68583333D01*
X91852380Y-68678571D01*
X91804761Y-68821428D01*
X91709523Y-68916666D01*
X91614285Y-68964285D01*
X91423809Y-69011904D01*
X91280952Y-69011904D01*
X91090476Y-68964285D01*
X90995238Y-68916666D01*
X90900000Y-68821428D01*
X90852380Y-68678571D01*
X90852380Y-68583333D01*
X90900000Y-68440476D01*
X90947619Y-68392857D01*
X90947619Y-68011904D02*
X90900000Y-67964285D01*
X90852380Y-67869047D01*
X90852380Y-67630952D01*
X90900000Y-67535714D01*
X90947619Y-67488095D01*
X91042857Y-67440476D01*
X91138095Y-67440476D01*
X91280952Y-67488095D01*
X91852380Y-68059523D01*
X91852380Y-67440476D01*
X90947619Y-67059523D02*
X90900000Y-67011904D01*
X90852380Y-66916666D01*
X90852380Y-66678571D01*
X90900000Y-66583333D01*
X90947619Y-66535714D01*
X91042857Y-66488095D01*
X91138095Y-66488095D01*
X91280952Y-66535714D01*
X91852380Y-67107142D01*
X91852380Y-66488095D01*
G04 #@! TO.C,C23*
X91757142Y-96642857D02*
X91804761Y-96690476D01*
X91852380Y-96833333D01*
X91852380Y-96928571D01*
X91804761Y-97071428D01*
X91709523Y-97166666D01*
X91614285Y-97214285D01*
X91423809Y-97261904D01*
X91280952Y-97261904D01*
X91090476Y-97214285D01*
X90995238Y-97166666D01*
X90900000Y-97071428D01*
X90852380Y-96928571D01*
X90852380Y-96833333D01*
X90900000Y-96690476D01*
X90947619Y-96642857D01*
X90947619Y-96261904D02*
X90900000Y-96214285D01*
X90852380Y-96119047D01*
X90852380Y-95880952D01*
X90900000Y-95785714D01*
X90947619Y-95738095D01*
X91042857Y-95690476D01*
X91138095Y-95690476D01*
X91280952Y-95738095D01*
X91852380Y-96309523D01*
X91852380Y-95690476D01*
X90852380Y-95357142D02*
X90852380Y-94738095D01*
X91233333Y-95071428D01*
X91233333Y-94928571D01*
X91280952Y-94833333D01*
X91328571Y-94785714D01*
X91423809Y-94738095D01*
X91661904Y-94738095D01*
X91757142Y-94785714D01*
X91804761Y-94833333D01*
X91852380Y-94928571D01*
X91852380Y-95214285D01*
X91804761Y-95309523D01*
X91757142Y-95357142D01*
G04 #@! TO.C,C24*
X92607142Y-77857142D02*
X92559523Y-77904761D01*
X92416666Y-77952380D01*
X92321428Y-77952380D01*
X92178571Y-77904761D01*
X92083333Y-77809523D01*
X92035714Y-77714285D01*
X91988095Y-77523809D01*
X91988095Y-77380952D01*
X92035714Y-77190476D01*
X92083333Y-77095238D01*
X92178571Y-77000000D01*
X92321428Y-76952380D01*
X92416666Y-76952380D01*
X92559523Y-77000000D01*
X92607142Y-77047619D01*
X92988095Y-77047619D02*
X93035714Y-77000000D01*
X93130952Y-76952380D01*
X93369047Y-76952380D01*
X93464285Y-77000000D01*
X93511904Y-77047619D01*
X93559523Y-77142857D01*
X93559523Y-77238095D01*
X93511904Y-77380952D01*
X92940476Y-77952380D01*
X93559523Y-77952380D01*
X94416666Y-77285714D02*
X94416666Y-77952380D01*
X94178571Y-76904761D02*
X93940476Y-77619047D01*
X94559523Y-77619047D01*
G04 #@! TO.C,C25*
X99107142Y-79392857D02*
X99154761Y-79440476D01*
X99202380Y-79583333D01*
X99202380Y-79678571D01*
X99154761Y-79821428D01*
X99059523Y-79916666D01*
X98964285Y-79964285D01*
X98773809Y-80011904D01*
X98630952Y-80011904D01*
X98440476Y-79964285D01*
X98345238Y-79916666D01*
X98250000Y-79821428D01*
X98202380Y-79678571D01*
X98202380Y-79583333D01*
X98250000Y-79440476D01*
X98297619Y-79392857D01*
X98297619Y-79011904D02*
X98250000Y-78964285D01*
X98202380Y-78869047D01*
X98202380Y-78630952D01*
X98250000Y-78535714D01*
X98297619Y-78488095D01*
X98392857Y-78440476D01*
X98488095Y-78440476D01*
X98630952Y-78488095D01*
X99202380Y-79059523D01*
X99202380Y-78440476D01*
X98202380Y-77535714D02*
X98202380Y-78011904D01*
X98678571Y-78059523D01*
X98630952Y-78011904D01*
X98583333Y-77916666D01*
X98583333Y-77678571D01*
X98630952Y-77583333D01*
X98678571Y-77535714D01*
X98773809Y-77488095D01*
X99011904Y-77488095D01*
X99107142Y-77535714D01*
X99154761Y-77583333D01*
X99202380Y-77678571D01*
X99202380Y-77916666D01*
X99154761Y-78011904D01*
X99107142Y-78059523D01*
G04 #@! TO.C,C26*
X99007142Y-96642857D02*
X99054761Y-96690476D01*
X99102380Y-96833333D01*
X99102380Y-96928571D01*
X99054761Y-97071428D01*
X98959523Y-97166666D01*
X98864285Y-97214285D01*
X98673809Y-97261904D01*
X98530952Y-97261904D01*
X98340476Y-97214285D01*
X98245238Y-97166666D01*
X98150000Y-97071428D01*
X98102380Y-96928571D01*
X98102380Y-96833333D01*
X98150000Y-96690476D01*
X98197619Y-96642857D01*
X98197619Y-96261904D02*
X98150000Y-96214285D01*
X98102380Y-96119047D01*
X98102380Y-95880952D01*
X98150000Y-95785714D01*
X98197619Y-95738095D01*
X98292857Y-95690476D01*
X98388095Y-95690476D01*
X98530952Y-95738095D01*
X99102380Y-96309523D01*
X99102380Y-95690476D01*
X98102380Y-94833333D02*
X98102380Y-95023809D01*
X98150000Y-95119047D01*
X98197619Y-95166666D01*
X98340476Y-95261904D01*
X98530952Y-95309523D01*
X98911904Y-95309523D01*
X99007142Y-95261904D01*
X99054761Y-95214285D01*
X99102380Y-95119047D01*
X99102380Y-94928571D01*
X99054761Y-94833333D01*
X99007142Y-94785714D01*
X98911904Y-94738095D01*
X98673809Y-94738095D01*
X98578571Y-94785714D01*
X98530952Y-94833333D01*
X98483333Y-94928571D01*
X98483333Y-95119047D01*
X98530952Y-95214285D01*
X98578571Y-95261904D01*
X98673809Y-95309523D01*
G04 #@! TO.C,C27*
X91757142Y-91142857D02*
X91804761Y-91190476D01*
X91852380Y-91333333D01*
X91852380Y-91428571D01*
X91804761Y-91571428D01*
X91709523Y-91666666D01*
X91614285Y-91714285D01*
X91423809Y-91761904D01*
X91280952Y-91761904D01*
X91090476Y-91714285D01*
X90995238Y-91666666D01*
X90900000Y-91571428D01*
X90852380Y-91428571D01*
X90852380Y-91333333D01*
X90900000Y-91190476D01*
X90947619Y-91142857D01*
X90947619Y-90761904D02*
X90900000Y-90714285D01*
X90852380Y-90619047D01*
X90852380Y-90380952D01*
X90900000Y-90285714D01*
X90947619Y-90238095D01*
X91042857Y-90190476D01*
X91138095Y-90190476D01*
X91280952Y-90238095D01*
X91852380Y-90809523D01*
X91852380Y-90190476D01*
X90852380Y-89857142D02*
X90852380Y-89190476D01*
X91852380Y-89619047D01*
G04 #@! TO.C,C28*
X95357142Y-59392857D02*
X95404761Y-59440476D01*
X95452380Y-59583333D01*
X95452380Y-59678571D01*
X95404761Y-59821428D01*
X95309523Y-59916666D01*
X95214285Y-59964285D01*
X95023809Y-60011904D01*
X94880952Y-60011904D01*
X94690476Y-59964285D01*
X94595238Y-59916666D01*
X94500000Y-59821428D01*
X94452380Y-59678571D01*
X94452380Y-59583333D01*
X94500000Y-59440476D01*
X94547619Y-59392857D01*
X94547619Y-59011904D02*
X94500000Y-58964285D01*
X94452380Y-58869047D01*
X94452380Y-58630952D01*
X94500000Y-58535714D01*
X94547619Y-58488095D01*
X94642857Y-58440476D01*
X94738095Y-58440476D01*
X94880952Y-58488095D01*
X95452380Y-59059523D01*
X95452380Y-58440476D01*
X94880952Y-57869047D02*
X94833333Y-57964285D01*
X94785714Y-58011904D01*
X94690476Y-58059523D01*
X94642857Y-58059523D01*
X94547619Y-58011904D01*
X94500000Y-57964285D01*
X94452380Y-57869047D01*
X94452380Y-57678571D01*
X94500000Y-57583333D01*
X94547619Y-57535714D01*
X94642857Y-57488095D01*
X94690476Y-57488095D01*
X94785714Y-57535714D01*
X94833333Y-57583333D01*
X94880952Y-57678571D01*
X94880952Y-57869047D01*
X94928571Y-57964285D01*
X94976190Y-58011904D01*
X95071428Y-58059523D01*
X95261904Y-58059523D01*
X95357142Y-58011904D01*
X95404761Y-57964285D01*
X95452380Y-57869047D01*
X95452380Y-57678571D01*
X95404761Y-57583333D01*
X95357142Y-57535714D01*
X95261904Y-57488095D01*
X95071428Y-57488095D01*
X94976190Y-57535714D01*
X94928571Y-57583333D01*
X94880952Y-57678571D01*
G04 #@! TO.C,C29*
X102857142Y-68392857D02*
X102904761Y-68440476D01*
X102952380Y-68583333D01*
X102952380Y-68678571D01*
X102904761Y-68821428D01*
X102809523Y-68916666D01*
X102714285Y-68964285D01*
X102523809Y-69011904D01*
X102380952Y-69011904D01*
X102190476Y-68964285D01*
X102095238Y-68916666D01*
X102000000Y-68821428D01*
X101952380Y-68678571D01*
X101952380Y-68583333D01*
X102000000Y-68440476D01*
X102047619Y-68392857D01*
X102047619Y-68011904D02*
X102000000Y-67964285D01*
X101952380Y-67869047D01*
X101952380Y-67630952D01*
X102000000Y-67535714D01*
X102047619Y-67488095D01*
X102142857Y-67440476D01*
X102238095Y-67440476D01*
X102380952Y-67488095D01*
X102952380Y-68059523D01*
X102952380Y-67440476D01*
X102952380Y-66964285D02*
X102952380Y-66773809D01*
X102904761Y-66678571D01*
X102857142Y-66630952D01*
X102714285Y-66535714D01*
X102523809Y-66488095D01*
X102142857Y-66488095D01*
X102047619Y-66535714D01*
X102000000Y-66583333D01*
X101952380Y-66678571D01*
X101952380Y-66869047D01*
X102000000Y-66964285D01*
X102047619Y-67011904D01*
X102142857Y-67059523D01*
X102380952Y-67059523D01*
X102476190Y-67011904D01*
X102523809Y-66964285D01*
X102571428Y-66869047D01*
X102571428Y-66678571D01*
X102523809Y-66583333D01*
X102476190Y-66535714D01*
X102380952Y-66488095D01*
G04 #@! TO.C,D1*
X89693380Y-102211095D02*
X88693380Y-102211095D01*
X88693380Y-101973000D01*
X88741000Y-101830142D01*
X88836238Y-101734904D01*
X88931476Y-101687285D01*
X89121952Y-101639666D01*
X89264809Y-101639666D01*
X89455285Y-101687285D01*
X89550523Y-101734904D01*
X89645761Y-101830142D01*
X89693380Y-101973000D01*
X89693380Y-102211095D01*
X89693380Y-100687285D02*
X89693380Y-101258714D01*
X89693380Y-100973000D02*
X88693380Y-100973000D01*
X88836238Y-101068238D01*
X88931476Y-101163476D01*
X88979095Y-101258714D01*
G04 #@! TO.C,D2*
X95027380Y-102211095D02*
X94027380Y-102211095D01*
X94027380Y-101973000D01*
X94075000Y-101830142D01*
X94170238Y-101734904D01*
X94265476Y-101687285D01*
X94455952Y-101639666D01*
X94598809Y-101639666D01*
X94789285Y-101687285D01*
X94884523Y-101734904D01*
X94979761Y-101830142D01*
X95027380Y-101973000D01*
X95027380Y-102211095D01*
X94122619Y-101258714D02*
X94075000Y-101211095D01*
X94027380Y-101115857D01*
X94027380Y-100877761D01*
X94075000Y-100782523D01*
X94122619Y-100734904D01*
X94217857Y-100687285D01*
X94313095Y-100687285D01*
X94455952Y-100734904D01*
X95027380Y-101306333D01*
X95027380Y-100687285D01*
G04 #@! TO.C,K1*
X88012666Y-66016666D02*
X87312666Y-66016666D01*
X88012666Y-65616666D02*
X87612666Y-65916666D01*
X87312666Y-65616666D02*
X87712666Y-66016666D01*
X88012666Y-64950000D02*
X88012666Y-65350000D01*
X88012666Y-65150000D02*
X87312666Y-65150000D01*
X87412666Y-65216666D01*
X87479333Y-65283333D01*
X87512666Y-65350000D01*
G04 #@! TO.C,K2*
X88012666Y-71509666D02*
X87312666Y-71509666D01*
X88012666Y-71109666D02*
X87612666Y-71409666D01*
X87312666Y-71109666D02*
X87712666Y-71509666D01*
X87379333Y-70843000D02*
X87346000Y-70809666D01*
X87312666Y-70743000D01*
X87312666Y-70576333D01*
X87346000Y-70509666D01*
X87379333Y-70476333D01*
X87446000Y-70443000D01*
X87512666Y-70443000D01*
X87612666Y-70476333D01*
X88012666Y-70876333D01*
X88012666Y-70443000D01*
G04 #@! TO.C,K4*
X88012666Y-77224666D02*
X87312666Y-77224666D01*
X88012666Y-76824666D02*
X87612666Y-77124666D01*
X87312666Y-76824666D02*
X87712666Y-77224666D01*
X87546000Y-76224666D02*
X88012666Y-76224666D01*
X87279333Y-76391333D02*
X87779333Y-76558000D01*
X87779333Y-76124666D01*
G04 #@! TO.C,P1*
X64507904Y-62452380D02*
X64507904Y-61452380D01*
X64888857Y-61452380D01*
X64984095Y-61500000D01*
X65031714Y-61547619D01*
X65079333Y-61642857D01*
X65079333Y-61785714D01*
X65031714Y-61880952D01*
X64984095Y-61928571D01*
X64888857Y-61976190D01*
X64507904Y-61976190D01*
X66031714Y-62452380D02*
X65460285Y-62452380D01*
X65746000Y-62452380D02*
X65746000Y-61452380D01*
X65650761Y-61595238D01*
X65555523Y-61690476D01*
X65460285Y-61738095D01*
G04 #@! TO.C,P3*
X64511904Y-78202380D02*
X64511904Y-77202380D01*
X64892857Y-77202380D01*
X64988095Y-77250000D01*
X65035714Y-77297619D01*
X65083333Y-77392857D01*
X65083333Y-77535714D01*
X65035714Y-77630952D01*
X64988095Y-77678571D01*
X64892857Y-77726190D01*
X64511904Y-77726190D01*
X65416666Y-77202380D02*
X66035714Y-77202380D01*
X65702380Y-77583333D01*
X65845238Y-77583333D01*
X65940476Y-77630952D01*
X65988095Y-77678571D01*
X66035714Y-77773809D01*
X66035714Y-78011904D01*
X65988095Y-78107142D01*
X65940476Y-78154761D01*
X65845238Y-78202380D01*
X65559523Y-78202380D01*
X65464285Y-78154761D01*
X65416666Y-78107142D01*
G04 #@! TO.C,R1*
X55083333Y-64202380D02*
X54750000Y-63726190D01*
X54511904Y-64202380D02*
X54511904Y-63202380D01*
X54892857Y-63202380D01*
X54988095Y-63250000D01*
X55035714Y-63297619D01*
X55083333Y-63392857D01*
X55083333Y-63535714D01*
X55035714Y-63630952D01*
X54988095Y-63678571D01*
X54892857Y-63726190D01*
X54511904Y-63726190D01*
X56035714Y-64202380D02*
X55464285Y-64202380D01*
X55750000Y-64202380D02*
X55750000Y-63202380D01*
X55654761Y-63345238D01*
X55559523Y-63440476D01*
X55464285Y-63488095D01*
G04 #@! TO.C,R2*
X57352380Y-53916666D02*
X56876190Y-54250000D01*
X57352380Y-54488095D02*
X56352380Y-54488095D01*
X56352380Y-54107142D01*
X56400000Y-54011904D01*
X56447619Y-53964285D01*
X56542857Y-53916666D01*
X56685714Y-53916666D01*
X56780952Y-53964285D01*
X56828571Y-54011904D01*
X56876190Y-54107142D01*
X56876190Y-54488095D01*
X56447619Y-53535714D02*
X56400000Y-53488095D01*
X56352380Y-53392857D01*
X56352380Y-53154761D01*
X56400000Y-53059523D01*
X56447619Y-53011904D01*
X56542857Y-52964285D01*
X56638095Y-52964285D01*
X56780952Y-53011904D01*
X57352380Y-53583333D01*
X57352380Y-52964285D01*
G04 #@! TO.C,R3*
X91852380Y-58416666D02*
X91376190Y-58750000D01*
X91852380Y-58988095D02*
X90852380Y-58988095D01*
X90852380Y-58607142D01*
X90900000Y-58511904D01*
X90947619Y-58464285D01*
X91042857Y-58416666D01*
X91185714Y-58416666D01*
X91280952Y-58464285D01*
X91328571Y-58511904D01*
X91376190Y-58607142D01*
X91376190Y-58988095D01*
X90852380Y-58083333D02*
X90852380Y-57464285D01*
X91233333Y-57797619D01*
X91233333Y-57654761D01*
X91280952Y-57559523D01*
X91328571Y-57511904D01*
X91423809Y-57464285D01*
X91661904Y-57464285D01*
X91757142Y-57511904D01*
X91804761Y-57559523D01*
X91852380Y-57654761D01*
X91852380Y-57940476D01*
X91804761Y-58035714D01*
X91757142Y-58083333D01*
G04 #@! TO.C,R4*
X103202380Y-80166666D02*
X102726190Y-80500000D01*
X103202380Y-80738095D02*
X102202380Y-80738095D01*
X102202380Y-80357142D01*
X102250000Y-80261904D01*
X102297619Y-80214285D01*
X102392857Y-80166666D01*
X102535714Y-80166666D01*
X102630952Y-80214285D01*
X102678571Y-80261904D01*
X102726190Y-80357142D01*
X102726190Y-80738095D01*
X102535714Y-79309523D02*
X103202380Y-79309523D01*
X102154761Y-79547619D02*
X102869047Y-79785714D01*
X102869047Y-79166666D01*
G04 #@! TO.C,R5*
X91852380Y-80166666D02*
X91376190Y-80500000D01*
X91852380Y-80738095D02*
X90852380Y-80738095D01*
X90852380Y-80357142D01*
X90900000Y-80261904D01*
X90947619Y-80214285D01*
X91042857Y-80166666D01*
X91185714Y-80166666D01*
X91280952Y-80214285D01*
X91328571Y-80261904D01*
X91376190Y-80357142D01*
X91376190Y-80738095D01*
X90852380Y-79261904D02*
X90852380Y-79738095D01*
X91328571Y-79785714D01*
X91280952Y-79738095D01*
X91233333Y-79642857D01*
X91233333Y-79404761D01*
X91280952Y-79309523D01*
X91328571Y-79261904D01*
X91423809Y-79214285D01*
X91661904Y-79214285D01*
X91757142Y-79261904D01*
X91804761Y-79309523D01*
X91852380Y-79404761D01*
X91852380Y-79642857D01*
X91804761Y-79738095D01*
X91757142Y-79785714D01*
G04 #@! TO.C,R6*
X91852380Y-85637666D02*
X91376190Y-85971000D01*
X91852380Y-86209095D02*
X90852380Y-86209095D01*
X90852380Y-85828142D01*
X90900000Y-85732904D01*
X90947619Y-85685285D01*
X91042857Y-85637666D01*
X91185714Y-85637666D01*
X91280952Y-85685285D01*
X91328571Y-85732904D01*
X91376190Y-85828142D01*
X91376190Y-86209095D01*
X90852380Y-84780523D02*
X90852380Y-84971000D01*
X90900000Y-85066238D01*
X90947619Y-85113857D01*
X91090476Y-85209095D01*
X91280952Y-85256714D01*
X91661904Y-85256714D01*
X91757142Y-85209095D01*
X91804761Y-85161476D01*
X91852380Y-85066238D01*
X91852380Y-84875761D01*
X91804761Y-84780523D01*
X91757142Y-84732904D01*
X91661904Y-84685285D01*
X91423809Y-84685285D01*
X91328571Y-84732904D01*
X91280952Y-84780523D01*
X91233333Y-84875761D01*
X91233333Y-85066238D01*
X91280952Y-85161476D01*
X91328571Y-85209095D01*
X91423809Y-85256714D01*
G04 #@! TO.C,R7*
X91852380Y-62916666D02*
X91376190Y-63250000D01*
X91852380Y-63488095D02*
X90852380Y-63488095D01*
X90852380Y-63107142D01*
X90900000Y-63011904D01*
X90947619Y-62964285D01*
X91042857Y-62916666D01*
X91185714Y-62916666D01*
X91280952Y-62964285D01*
X91328571Y-63011904D01*
X91376190Y-63107142D01*
X91376190Y-63488095D01*
X90852380Y-62583333D02*
X90852380Y-61916666D01*
X91852380Y-62345238D01*
G04 #@! TO.C,R8*
X95352380Y-96166666D02*
X94876190Y-96500000D01*
X95352380Y-96738095D02*
X94352380Y-96738095D01*
X94352380Y-96357142D01*
X94400000Y-96261904D01*
X94447619Y-96214285D01*
X94542857Y-96166666D01*
X94685714Y-96166666D01*
X94780952Y-96214285D01*
X94828571Y-96261904D01*
X94876190Y-96357142D01*
X94876190Y-96738095D01*
X94780952Y-95595238D02*
X94733333Y-95690476D01*
X94685714Y-95738095D01*
X94590476Y-95785714D01*
X94542857Y-95785714D01*
X94447619Y-95738095D01*
X94400000Y-95690476D01*
X94352380Y-95595238D01*
X94352380Y-95404761D01*
X94400000Y-95309523D01*
X94447619Y-95261904D01*
X94542857Y-95214285D01*
X94590476Y-95214285D01*
X94685714Y-95261904D01*
X94733333Y-95309523D01*
X94780952Y-95404761D01*
X94780952Y-95595238D01*
X94828571Y-95690476D01*
X94876190Y-95738095D01*
X94971428Y-95785714D01*
X95161904Y-95785714D01*
X95257142Y-95738095D01*
X95304761Y-95690476D01*
X95352380Y-95595238D01*
X95352380Y-95404761D01*
X95304761Y-95309523D01*
X95257142Y-95261904D01*
X95161904Y-95214285D01*
X94971428Y-95214285D01*
X94876190Y-95261904D01*
X94828571Y-95309523D01*
X94780952Y-95404761D01*
G04 #@! TO.C,R9*
X91852380Y-53666666D02*
X91376190Y-54000000D01*
X91852380Y-54238095D02*
X90852380Y-54238095D01*
X90852380Y-53857142D01*
X90900000Y-53761904D01*
X90947619Y-53714285D01*
X91042857Y-53666666D01*
X91185714Y-53666666D01*
X91280952Y-53714285D01*
X91328571Y-53761904D01*
X91376190Y-53857142D01*
X91376190Y-54238095D01*
X91852380Y-53190476D02*
X91852380Y-53000000D01*
X91804761Y-52904761D01*
X91757142Y-52857142D01*
X91614285Y-52761904D01*
X91423809Y-52714285D01*
X91042857Y-52714285D01*
X90947619Y-52761904D01*
X90900000Y-52809523D01*
X90852380Y-52904761D01*
X90852380Y-53095238D01*
X90900000Y-53190476D01*
X90947619Y-53238095D01*
X91042857Y-53285714D01*
X91280952Y-53285714D01*
X91376190Y-53238095D01*
X91423809Y-53190476D01*
X91471428Y-53095238D01*
X91471428Y-52904761D01*
X91423809Y-52809523D01*
X91376190Y-52761904D01*
X91280952Y-52714285D01*
G04 #@! TO.C,R10*
X88102380Y-88392857D02*
X87626190Y-88726190D01*
X88102380Y-88964285D02*
X87102380Y-88964285D01*
X87102380Y-88583333D01*
X87150000Y-88488095D01*
X87197619Y-88440476D01*
X87292857Y-88392857D01*
X87435714Y-88392857D01*
X87530952Y-88440476D01*
X87578571Y-88488095D01*
X87626190Y-88583333D01*
X87626190Y-88964285D01*
X88102380Y-87440476D02*
X88102380Y-88011904D01*
X88102380Y-87726190D02*
X87102380Y-87726190D01*
X87245238Y-87821428D01*
X87340476Y-87916666D01*
X87388095Y-88011904D01*
X87102380Y-86821428D02*
X87102380Y-86726190D01*
X87150000Y-86630952D01*
X87197619Y-86583333D01*
X87292857Y-86535714D01*
X87483333Y-86488095D01*
X87721428Y-86488095D01*
X87911904Y-86535714D01*
X88007142Y-86583333D01*
X88054761Y-86630952D01*
X88102380Y-86726190D01*
X88102380Y-86821428D01*
X88054761Y-86916666D01*
X88007142Y-86964285D01*
X87911904Y-87011904D01*
X87721428Y-87059523D01*
X87483333Y-87059523D01*
X87292857Y-87011904D01*
X87197619Y-86964285D01*
X87150000Y-86916666D01*
X87102380Y-86821428D01*
G04 #@! TO.C,R11*
X88081380Y-92642857D02*
X87605190Y-92976190D01*
X88081380Y-93214285D02*
X87081380Y-93214285D01*
X87081380Y-92833333D01*
X87129000Y-92738095D01*
X87176619Y-92690476D01*
X87271857Y-92642857D01*
X87414714Y-92642857D01*
X87509952Y-92690476D01*
X87557571Y-92738095D01*
X87605190Y-92833333D01*
X87605190Y-93214285D01*
X88081380Y-91690476D02*
X88081380Y-92261904D01*
X88081380Y-91976190D02*
X87081380Y-91976190D01*
X87224238Y-92071428D01*
X87319476Y-92166666D01*
X87367095Y-92261904D01*
X88081380Y-90738095D02*
X88081380Y-91309523D01*
X88081380Y-91023809D02*
X87081380Y-91023809D01*
X87224238Y-91119047D01*
X87319476Y-91214285D01*
X87367095Y-91309523D01*
G04 #@! TO.C,R12*
X88081380Y-96892857D02*
X87605190Y-97226190D01*
X88081380Y-97464285D02*
X87081380Y-97464285D01*
X87081380Y-97083333D01*
X87129000Y-96988095D01*
X87176619Y-96940476D01*
X87271857Y-96892857D01*
X87414714Y-96892857D01*
X87509952Y-96940476D01*
X87557571Y-96988095D01*
X87605190Y-97083333D01*
X87605190Y-97464285D01*
X88081380Y-95940476D02*
X88081380Y-96511904D01*
X88081380Y-96226190D02*
X87081380Y-96226190D01*
X87224238Y-96321428D01*
X87319476Y-96416666D01*
X87367095Y-96511904D01*
X87176619Y-95559523D02*
X87129000Y-95511904D01*
X87081380Y-95416666D01*
X87081380Y-95178571D01*
X87129000Y-95083333D01*
X87176619Y-95035714D01*
X87271857Y-94988095D01*
X87367095Y-94988095D01*
X87509952Y-95035714D01*
X88081380Y-95607142D01*
X88081380Y-94988095D01*
G04 #@! TO.C,R13*
X99102380Y-54109857D02*
X98626190Y-54443190D01*
X99102380Y-54681285D02*
X98102380Y-54681285D01*
X98102380Y-54300333D01*
X98150000Y-54205095D01*
X98197619Y-54157476D01*
X98292857Y-54109857D01*
X98435714Y-54109857D01*
X98530952Y-54157476D01*
X98578571Y-54205095D01*
X98626190Y-54300333D01*
X98626190Y-54681285D01*
X99102380Y-53157476D02*
X99102380Y-53728904D01*
X99102380Y-53443190D02*
X98102380Y-53443190D01*
X98245238Y-53538428D01*
X98340476Y-53633666D01*
X98388095Y-53728904D01*
X98102380Y-52824142D02*
X98102380Y-52205095D01*
X98483333Y-52538428D01*
X98483333Y-52395571D01*
X98530952Y-52300333D01*
X98578571Y-52252714D01*
X98673809Y-52205095D01*
X98911904Y-52205095D01*
X99007142Y-52252714D01*
X99054761Y-52300333D01*
X99102380Y-52395571D01*
X99102380Y-52681285D01*
X99054761Y-52776523D01*
X99007142Y-52824142D01*
G04 #@! TO.C,R14*
X95452380Y-54048857D02*
X94976190Y-54382190D01*
X95452380Y-54620285D02*
X94452380Y-54620285D01*
X94452380Y-54239333D01*
X94500000Y-54144095D01*
X94547619Y-54096476D01*
X94642857Y-54048857D01*
X94785714Y-54048857D01*
X94880952Y-54096476D01*
X94928571Y-54144095D01*
X94976190Y-54239333D01*
X94976190Y-54620285D01*
X95452380Y-53096476D02*
X95452380Y-53667904D01*
X95452380Y-53382190D02*
X94452380Y-53382190D01*
X94595238Y-53477428D01*
X94690476Y-53572666D01*
X94738095Y-53667904D01*
X94785714Y-52239333D02*
X95452380Y-52239333D01*
X94404761Y-52477428D02*
X95119047Y-52715523D01*
X95119047Y-52096476D01*
G04 #@! TO.C,R15*
X95352380Y-63392857D02*
X94876190Y-63726190D01*
X95352380Y-63964285D02*
X94352380Y-63964285D01*
X94352380Y-63583333D01*
X94400000Y-63488095D01*
X94447619Y-63440476D01*
X94542857Y-63392857D01*
X94685714Y-63392857D01*
X94780952Y-63440476D01*
X94828571Y-63488095D01*
X94876190Y-63583333D01*
X94876190Y-63964285D01*
X95352380Y-62440476D02*
X95352380Y-63011904D01*
X95352380Y-62726190D02*
X94352380Y-62726190D01*
X94495238Y-62821428D01*
X94590476Y-62916666D01*
X94638095Y-63011904D01*
X94352380Y-61535714D02*
X94352380Y-62011904D01*
X94828571Y-62059523D01*
X94780952Y-62011904D01*
X94733333Y-61916666D01*
X94733333Y-61678571D01*
X94780952Y-61583333D01*
X94828571Y-61535714D01*
X94923809Y-61488095D01*
X95161904Y-61488095D01*
X95257142Y-61535714D01*
X95304761Y-61583333D01*
X95352380Y-61678571D01*
X95352380Y-61916666D01*
X95304761Y-62011904D01*
X95257142Y-62059523D01*
G04 #@! TO.C,R16*
X102952380Y-54142857D02*
X102476190Y-54476190D01*
X102952380Y-54714285D02*
X101952380Y-54714285D01*
X101952380Y-54333333D01*
X102000000Y-54238095D01*
X102047619Y-54190476D01*
X102142857Y-54142857D01*
X102285714Y-54142857D01*
X102380952Y-54190476D01*
X102428571Y-54238095D01*
X102476190Y-54333333D01*
X102476190Y-54714285D01*
X102952380Y-53190476D02*
X102952380Y-53761904D01*
X102952380Y-53476190D02*
X101952380Y-53476190D01*
X102095238Y-53571428D01*
X102190476Y-53666666D01*
X102238095Y-53761904D01*
X101952380Y-52333333D02*
X101952380Y-52523809D01*
X102000000Y-52619047D01*
X102047619Y-52666666D01*
X102190476Y-52761904D01*
X102380952Y-52809523D01*
X102761904Y-52809523D01*
X102857142Y-52761904D01*
X102904761Y-52714285D01*
X102952380Y-52619047D01*
X102952380Y-52428571D01*
X102904761Y-52333333D01*
X102857142Y-52285714D01*
X102761904Y-52238095D01*
X102523809Y-52238095D01*
X102428571Y-52285714D01*
X102380952Y-52333333D01*
X102333333Y-52428571D01*
X102333333Y-52619047D01*
X102380952Y-52714285D01*
X102428571Y-52761904D01*
X102523809Y-52809523D01*
G04 #@! TO.C,R18*
X99202380Y-68892857D02*
X98726190Y-69226190D01*
X99202380Y-69464285D02*
X98202380Y-69464285D01*
X98202380Y-69083333D01*
X98250000Y-68988095D01*
X98297619Y-68940476D01*
X98392857Y-68892857D01*
X98535714Y-68892857D01*
X98630952Y-68940476D01*
X98678571Y-68988095D01*
X98726190Y-69083333D01*
X98726190Y-69464285D01*
X99202380Y-67940476D02*
X99202380Y-68511904D01*
X99202380Y-68226190D02*
X98202380Y-68226190D01*
X98345238Y-68321428D01*
X98440476Y-68416666D01*
X98488095Y-68511904D01*
X98630952Y-67369047D02*
X98583333Y-67464285D01*
X98535714Y-67511904D01*
X98440476Y-67559523D01*
X98392857Y-67559523D01*
X98297619Y-67511904D01*
X98250000Y-67464285D01*
X98202380Y-67369047D01*
X98202380Y-67178571D01*
X98250000Y-67083333D01*
X98297619Y-67035714D01*
X98392857Y-66988095D01*
X98440476Y-66988095D01*
X98535714Y-67035714D01*
X98583333Y-67083333D01*
X98630952Y-67178571D01*
X98630952Y-67369047D01*
X98678571Y-67464285D01*
X98726190Y-67511904D01*
X98821428Y-67559523D01*
X99011904Y-67559523D01*
X99107142Y-67511904D01*
X99154761Y-67464285D01*
X99202380Y-67369047D01*
X99202380Y-67178571D01*
X99154761Y-67083333D01*
X99107142Y-67035714D01*
X99011904Y-66988095D01*
X98821428Y-66988095D01*
X98726190Y-67035714D01*
X98678571Y-67083333D01*
X98630952Y-67178571D01*
G04 #@! TO.C,U1*
X94504380Y-107822904D02*
X95313904Y-107822904D01*
X95409142Y-107775285D01*
X95456761Y-107727666D01*
X95504380Y-107632428D01*
X95504380Y-107441952D01*
X95456761Y-107346714D01*
X95409142Y-107299095D01*
X95313904Y-107251476D01*
X94504380Y-107251476D01*
X95504380Y-106251476D02*
X95504380Y-106822904D01*
X95504380Y-106537190D02*
X94504380Y-106537190D01*
X94647238Y-106632428D01*
X94742476Y-106727666D01*
X94790095Y-106822904D01*
G04 #@! TO.C,U2*
X83406380Y-92836904D02*
X84215904Y-92836904D01*
X84311142Y-92789285D01*
X84358761Y-92741666D01*
X84406380Y-92646428D01*
X84406380Y-92455952D01*
X84358761Y-92360714D01*
X84311142Y-92313095D01*
X84215904Y-92265476D01*
X83406380Y-92265476D01*
X83501619Y-91836904D02*
X83454000Y-91789285D01*
X83406380Y-91694047D01*
X83406380Y-91455952D01*
X83454000Y-91360714D01*
X83501619Y-91313095D01*
X83596857Y-91265476D01*
X83692095Y-91265476D01*
X83834952Y-91313095D01*
X84406380Y-91884523D01*
X84406380Y-91265476D01*
G04 #@! TO.C,U3*
X57238095Y-81702380D02*
X57238095Y-82511904D01*
X57285714Y-82607142D01*
X57333333Y-82654761D01*
X57428571Y-82702380D01*
X57619047Y-82702380D01*
X57714285Y-82654761D01*
X57761904Y-82607142D01*
X57809523Y-82511904D01*
X57809523Y-81702380D01*
X58190476Y-81702380D02*
X58809523Y-81702380D01*
X58476190Y-82083333D01*
X58619047Y-82083333D01*
X58714285Y-82130952D01*
X58761904Y-82178571D01*
X58809523Y-82273809D01*
X58809523Y-82511904D01*
X58761904Y-82607142D01*
X58714285Y-82654761D01*
X58619047Y-82702380D01*
X58333333Y-82702380D01*
X58238095Y-82654761D01*
X58190476Y-82607142D01*
G04 #@! TO.C,U4*
X57238095Y-68952380D02*
X57238095Y-69761904D01*
X57285714Y-69857142D01*
X57333333Y-69904761D01*
X57428571Y-69952380D01*
X57619047Y-69952380D01*
X57714285Y-69904761D01*
X57761904Y-69857142D01*
X57809523Y-69761904D01*
X57809523Y-68952380D01*
X58714285Y-69285714D02*
X58714285Y-69952380D01*
X58476190Y-68904761D02*
X58238095Y-69619047D01*
X58857142Y-69619047D01*
G04 #@! TO.C,U5*
X57238095Y-55702380D02*
X57238095Y-56511904D01*
X57285714Y-56607142D01*
X57333333Y-56654761D01*
X57428571Y-56702380D01*
X57619047Y-56702380D01*
X57714285Y-56654761D01*
X57761904Y-56607142D01*
X57809523Y-56511904D01*
X57809523Y-55702380D01*
X58761904Y-55702380D02*
X58285714Y-55702380D01*
X58238095Y-56178571D01*
X58285714Y-56130952D01*
X58380952Y-56083333D01*
X58619047Y-56083333D01*
X58714285Y-56130952D01*
X58761904Y-56178571D01*
X58809523Y-56273809D01*
X58809523Y-56511904D01*
X58761904Y-56607142D01*
X58714285Y-56654761D01*
X58619047Y-56702380D01*
X58380952Y-56702380D01*
X58285714Y-56654761D01*
X58238095Y-56607142D01*
G04 #@! TO.C,U6*
X73025095Y-101362380D02*
X73025095Y-102171904D01*
X73072714Y-102267142D01*
X73120333Y-102314761D01*
X73215571Y-102362380D01*
X73406047Y-102362380D01*
X73501285Y-102314761D01*
X73548904Y-102267142D01*
X73596523Y-102171904D01*
X73596523Y-101362380D01*
X74501285Y-101362380D02*
X74310809Y-101362380D01*
X74215571Y-101410000D01*
X74167952Y-101457619D01*
X74072714Y-101600476D01*
X74025095Y-101790952D01*
X74025095Y-102171904D01*
X74072714Y-102267142D01*
X74120333Y-102314761D01*
X74215571Y-102362380D01*
X74406047Y-102362380D01*
X74501285Y-102314761D01*
X74548904Y-102267142D01*
X74596523Y-102171904D01*
X74596523Y-101933809D01*
X74548904Y-101838571D01*
X74501285Y-101790952D01*
X74406047Y-101743333D01*
X74215571Y-101743333D01*
X74120333Y-101790952D01*
X74072714Y-101838571D01*
X74025095Y-101933809D01*
G04 #@! TO.C,U7*
X96393095Y-82088380D02*
X96393095Y-82897904D01*
X96440714Y-82993142D01*
X96488333Y-83040761D01*
X96583571Y-83088380D01*
X96774047Y-83088380D01*
X96869285Y-83040761D01*
X96916904Y-82993142D01*
X96964523Y-82897904D01*
X96964523Y-82088380D01*
X97345476Y-82088380D02*
X98012142Y-82088380D01*
X97583571Y-83088380D01*
G04 #@! TO.C,U8*
X94890476Y-73561904D02*
X94890476Y-74209523D01*
X94928571Y-74285714D01*
X94966666Y-74323809D01*
X95042857Y-74361904D01*
X95195238Y-74361904D01*
X95271428Y-74323809D01*
X95309523Y-74285714D01*
X95347619Y-74209523D01*
X95347619Y-73561904D01*
X95842857Y-73904761D02*
X95766666Y-73866666D01*
X95728571Y-73828571D01*
X95690476Y-73752380D01*
X95690476Y-73714285D01*
X95728571Y-73638095D01*
X95766666Y-73600000D01*
X95842857Y-73561904D01*
X95995238Y-73561904D01*
X96071428Y-73600000D01*
X96109523Y-73638095D01*
X96147619Y-73714285D01*
X96147619Y-73752380D01*
X96109523Y-73828571D01*
X96071428Y-73866666D01*
X95995238Y-73904761D01*
X95842857Y-73904761D01*
X95766666Y-73942857D01*
X95728571Y-73980952D01*
X95690476Y-74057142D01*
X95690476Y-74209523D01*
X95728571Y-74285714D01*
X95766666Y-74323809D01*
X95842857Y-74361904D01*
X95995238Y-74361904D01*
X96071428Y-74323809D01*
X96109523Y-74285714D01*
X96147619Y-74209523D01*
X96147619Y-74057142D01*
X96109523Y-73980952D01*
X96071428Y-73942857D01*
X95995238Y-73904761D01*
G04 #@! TO.C,U9*
X101758380Y-61467904D02*
X102567904Y-61467904D01*
X102663142Y-61420285D01*
X102710761Y-61372666D01*
X102758380Y-61277428D01*
X102758380Y-61086952D01*
X102710761Y-60991714D01*
X102663142Y-60944095D01*
X102567904Y-60896476D01*
X101758380Y-60896476D01*
X102758380Y-60372666D02*
X102758380Y-60182190D01*
X102710761Y-60086952D01*
X102663142Y-60039333D01*
X102520285Y-59944095D01*
X102329809Y-59896476D01*
X101948857Y-59896476D01*
X101853619Y-59944095D01*
X101806000Y-59991714D01*
X101758380Y-60086952D01*
X101758380Y-60277428D01*
X101806000Y-60372666D01*
X101853619Y-60420285D01*
X101948857Y-60467904D01*
X102186952Y-60467904D01*
X102282190Y-60420285D01*
X102329809Y-60372666D01*
X102377428Y-60277428D01*
X102377428Y-60086952D01*
X102329809Y-59991714D01*
X102282190Y-59944095D01*
X102186952Y-59896476D01*
G04 #@! TO.C,X1*
X61205380Y-103271523D02*
X62205380Y-102604857D01*
X61205380Y-102604857D02*
X62205380Y-103271523D01*
X62205380Y-101700095D02*
X62205380Y-102271523D01*
X62205380Y-101985809D02*
X61205380Y-101985809D01*
X61348238Y-102081047D01*
X61443476Y-102176285D01*
X61491095Y-102271523D01*
G04 #@! TD*
M02*
