M48
INCH,TZ
T1C0.0130
T2C0.0315
T3C0.0394
T4C0.0531
%
G90
G05
T1
X2.1752Y-2.874
X2.2835Y-3.315
X2.3819Y-3.3563
X2.3819Y-3.9862
X2.3819Y-4.9705
X2.4016Y-3.1004
X2.687Y-3.5039
X2.687Y-3.8583
X2.7461Y-3.2972
X2.7461Y-3.7697
X2.8051Y-3.2972
X2.8051Y-3.4449
X2.8051Y-3.9469
X2.874Y-3.5236
X2.874Y-3.7106
X2.9291Y-2.9843
X2.9528Y-4.3307
X2.9528Y-4.4488
X3.04Y-4.4501
X3.0413Y-4.3307
X3.1367Y-4.9026
X3.1378Y-4.6729
X3.1389Y-4.5079
X3.1693Y-3.5531
X3.2608Y-4.3504
X3.2917Y-4.685
X3.3366Y-4.2313
X3.3858Y-3.9173
X3.5138Y-3.9173
X3.5608Y-4.1514
X3.5925Y-3.5531
X3.6713Y-3.6122
X3.7106Y-4.7835
X3.75Y-3.2382
X3.9173Y-3.563
X3.9764Y-2.0472
X4.0059Y-3.2382
X4.0079Y-2.7402
X4.0079Y-3.4331
X4.065Y-3.4843
X4.0846Y-3.3465
X4.0866Y-3.7224
X4.1024Y-2.2441
X4.1437Y-3.563
X4.1585Y-4.813
X4.189Y-2.9843
X4.2815Y-4.5215
X4.3701Y-2.2441
X4.4232Y-2.565
X4.4567Y-3.9921
X4.4677Y-3.6114
X4.5079Y-3.3031
X4.5256Y-3.8937
X4.5787Y-2.9646
X4.5827Y-3.378
X4.5925Y-3.9311
X4.6535Y-2.622
X4.685Y-2.9823
X4.6929Y-2.5142
X4.7008Y-3.4587
X4.7047Y-3.2677
X4.7087Y-2.7874
X4.7244Y-3.6713
X4.7559Y-2.685
X4.8109Y-2.5118
X4.8346Y-3.874
X4.874Y-2.4094
X4.9114Y-4.0748
T2
X2.5394Y-4.5669
X2.5394Y-4.7591
T3
X3.8484Y-3.9157
X3.8484Y-4.0157
X3.8484Y-4.1157
X3.8484Y-4.2157
X3.8484Y-4.3157
X3.8484Y-4.4157
X3.2417Y-2.8642
X3.4417Y-2.8642
X3.6417Y-2.8642
X3.8417Y-2.8642
X3.3366Y-4.9705
X3.4366Y-4.9705
X3.5366Y-4.9705
X3.6366Y-4.9705
X3.7366Y-4.9705
X3.2417Y-2.6181
X3.4417Y-2.6181
X3.6417Y-2.6181
X3.8417Y-2.6181
X3.2417Y-3.3661
X3.4417Y-3.3661
X3.6417Y-3.3661
X3.8417Y-3.3661
X3.2417Y-3.1102
X3.4417Y-3.1102
X3.6417Y-3.1102
X3.8417Y-3.1102
T4
X3.4736Y-2.2531
X3.4736Y-2.3925
X3.5433Y-2.1654
X3.613Y-2.2531
X3.613Y-2.3925
T0
M30
