M48
;DRILL file {KiCad 5.0.0+dfsg1-1} date Fri Jul 27 15:14:17 2018
;FORMAT={-:-/ absolute / inch / decimal}
FMAT,2
INCH,TZ
T1C0.0100
T2C0.0315
T3C0.0394
T4C0.0512
T5C0.0925
T6C0.1102
%
G90
G05
M72
T1
X2.0748Y-2.874
X2.0787Y-2.7323
X2.1406Y-3.9173
X2.1541Y-4.3307
X2.2096Y-3.5276
X2.2205Y-3.9173
X2.2677Y-2.7323
X2.2677Y-3.2756
X2.2717Y-4.0551
X2.2756Y-3.0748
X2.2795Y-2.8031
X2.2874Y-2.6214
X2.2894Y-2.9508
X2.2953Y-2.8661
X2.3346Y-2.248
X2.4221Y-3.6347
X2.4449Y-3.6969
X2.4567Y-2.7534
X2.4577Y-3.0207
X2.4721Y-3.2674
X2.5221Y-3.6441
X2.5315Y-2.8622
X2.5815Y-3.7059
X2.5948Y-2.9485
X2.6102Y-4.0512
X2.6496Y-3.0157
X2.6496Y-3.2677
X2.6654Y-2.1339
X2.7008Y-3.2205
X2.7087Y-3.9488
X2.7205Y-3.3898
X2.7559Y-2.4331
X2.7559Y-3.3386
X2.7797Y-4.2518
X2.8124Y-4.1549
X2.8858Y-3.0512
X2.8894Y-2.9485
X2.8898Y-2.626
X2.8942Y-3.7441
X2.9134Y-2.3189
X2.9173Y-4.2165
X2.9292Y-3.6418
X2.937Y-2.9016
X2.9449Y-3.189
X2.9685Y-3.4055
X2.9685Y-3.6732
X2.9685Y-4.3504
X3.0315Y-3.9843
X3.0394Y-3.5
X3.0748Y-3.5512
X3.1104Y-4.2167
X3.126Y-3.5394
X3.189Y-3.6811
X3.189Y-3.874
X3.2992Y-4.0236
X3.3346Y-3.1969
X3.3441Y-2.6913
X3.3609Y-4.2283
X3.3701Y-3.252
X3.374Y-3.1457
X3.3819Y-4.5906
X3.3858Y-3.9843
X3.3937Y-2.9724
X3.4252Y-2.9016
X3.4646Y-3.8937
X3.4685Y-4.5
X3.5315Y-4.2244
X3.5536Y-2.7938
X3.5551Y-2.9385
X3.5748Y-3.9843
X3.6496Y-2.4134
X3.6496Y-3.0394
X3.6496Y-3.5474
X3.6575Y-3.1969
X3.6575Y-3.252
X3.6614Y-2.9252
X3.6693Y-4.3411
X3.6732Y-2.1969
X3.7126Y-3.3701
X3.7248Y-3.5474
X3.7992Y-2.9316
X3.811Y-3.626
X3.9488Y-3.7638
X3.9685Y-2.5
X4.0354Y-4.126
T2
X3.3193Y-3.6101
X3.3193Y-3.8022
T3
X2.7575Y-2.5827
X2.9575Y-2.5827
X3.1575Y-2.5827
X3.3575Y-2.5827
X2.7575Y-2.8189
X2.9575Y-2.8189
X3.1575Y-2.8189
X3.3575Y-2.8189
X2.7575Y-3.0551
X2.9575Y-3.0551
X3.1575Y-3.0551
X3.3575Y-3.0551
X2.859Y-3.3057
X2.959Y-3.3057
X3.059Y-3.3057
X3.159Y-3.3057
X3.259Y-3.3057
X3.5827Y-2.0913
X3.5827Y-2.2913
X3.5827Y-2.4913
X3.5827Y-2.6913
X3.8012Y-2.0984
X3.8012Y-2.1984
X3.8012Y-2.2984
X3.8012Y-2.3984
X3.8012Y-2.4984
X3.8012Y-2.5984
T4
X2.9913Y-2.2571
X2.9913Y-2.3965
X3.061Y-2.1693
X3.1307Y-2.2571
X3.1307Y-2.3965
T5
X2.7657Y-2.3268
X3.3563Y-2.3268
T6
X2.7657Y-2.1693
X3.3563Y-2.1693
T0
M30
