G04 #@! TF.GenerationSoftware,KiCad,Pcbnew,5.0.0+dfsg1-1*
G04 #@! TF.CreationDate,2018-07-27T15:14:12-04:00*
G04 #@! TF.ProjectId,mystat,6D79737461742E6B696361645F706362,1*
G04 #@! TF.SameCoordinates,Original*
G04 #@! TF.FileFunction,Legend,Top*
G04 #@! TF.FilePolarity,Positive*
%FSLAX46Y46*%
G04 Gerber Fmt 4.6, Leading zero omitted, Abs format (unit mm)*
G04 Created by KiCad (PCBNEW 5.0.0+dfsg1-1) date Fri Jul 27 15:14:12 2018*
%MOMM*%
%LPD*%
G01*
G04 APERTURE LIST*
%ADD10C,0.250000*%
%ADD11C,0.120000*%
%ADD12C,0.150000*%
G04 APERTURE END LIST*
D10*
X103400000Y-99171428D02*
X103342857Y-99285714D01*
X103342857Y-99457142D01*
X103400000Y-99628571D01*
X103514285Y-99742857D01*
X103628571Y-99800000D01*
X103857142Y-99857142D01*
X104028571Y-99857142D01*
X104257142Y-99800000D01*
X104371428Y-99742857D01*
X104485714Y-99628571D01*
X104542857Y-99457142D01*
X104542857Y-99342857D01*
X104485714Y-99171428D01*
X104428571Y-99114285D01*
X104028571Y-99114285D01*
X104028571Y-99342857D01*
X104542857Y-98600000D02*
X103342857Y-98600000D01*
X103342857Y-98142857D01*
X103400000Y-98028571D01*
X103457142Y-97971428D01*
X103571428Y-97914285D01*
X103742857Y-97914285D01*
X103857142Y-97971428D01*
X103914285Y-98028571D01*
X103971428Y-98142857D01*
X103971428Y-98600000D01*
X104542857Y-96828571D02*
X104542857Y-97400000D01*
X103342857Y-97400000D01*
X103342857Y-95685714D02*
X104542857Y-95285714D01*
X103342857Y-94885714D01*
X104428571Y-94485714D02*
X104485714Y-94428571D01*
X104542857Y-94485714D01*
X104485714Y-94542857D01*
X104428571Y-94485714D01*
X104542857Y-94485714D01*
X103342857Y-94028571D02*
X103342857Y-93285714D01*
X103800000Y-93685714D01*
X103800000Y-93514285D01*
X103857142Y-93400000D01*
X103914285Y-93342857D01*
X104028571Y-93285714D01*
X104314285Y-93285714D01*
X104428571Y-93342857D01*
X104485714Y-93400000D01*
X104542857Y-93514285D01*
X104542857Y-93857142D01*
X104485714Y-93971428D01*
X104428571Y-94028571D01*
X104542857Y-91285714D02*
X104542857Y-91857142D01*
X103342857Y-91857142D01*
X104542857Y-90885714D02*
X103742857Y-90885714D01*
X103342857Y-90885714D02*
X103400000Y-90942857D01*
X103457142Y-90885714D01*
X103400000Y-90828571D01*
X103342857Y-90885714D01*
X103457142Y-90885714D01*
X104485714Y-89800000D02*
X104542857Y-89914285D01*
X104542857Y-90142857D01*
X104485714Y-90257142D01*
X104428571Y-90314285D01*
X104314285Y-90371428D01*
X103971428Y-90371428D01*
X103857142Y-90314285D01*
X103800000Y-90257142D01*
X103742857Y-90142857D01*
X103742857Y-89914285D01*
X103800000Y-89800000D01*
X104485714Y-88828571D02*
X104542857Y-88942857D01*
X104542857Y-89171428D01*
X104485714Y-89285714D01*
X104371428Y-89342857D01*
X103914285Y-89342857D01*
X103800000Y-89285714D01*
X103742857Y-89171428D01*
X103742857Y-88942857D01*
X103800000Y-88828571D01*
X103914285Y-88771428D01*
X104028571Y-88771428D01*
X104142857Y-89342857D01*
X103742857Y-88257142D02*
X104542857Y-88257142D01*
X103857142Y-88257142D02*
X103800000Y-88200000D01*
X103742857Y-88085714D01*
X103742857Y-87914285D01*
X103800000Y-87800000D01*
X103914285Y-87742857D01*
X104542857Y-87742857D01*
X104485714Y-87228571D02*
X104542857Y-87114285D01*
X104542857Y-86885714D01*
X104485714Y-86771428D01*
X104371428Y-86714285D01*
X104314285Y-86714285D01*
X104200000Y-86771428D01*
X104142857Y-86885714D01*
X104142857Y-87057142D01*
X104085714Y-87171428D01*
X103971428Y-87228571D01*
X103914285Y-87228571D01*
X103800000Y-87171428D01*
X103742857Y-87057142D01*
X103742857Y-86885714D01*
X103800000Y-86771428D01*
X104485714Y-85742857D02*
X104542857Y-85857142D01*
X104542857Y-86085714D01*
X104485714Y-86200000D01*
X104371428Y-86257142D01*
X103914285Y-86257142D01*
X103800000Y-86200000D01*
X103742857Y-86085714D01*
X103742857Y-85857142D01*
X103800000Y-85742857D01*
X103914285Y-85685714D01*
X104028571Y-85685714D01*
X104142857Y-86257142D01*
X104542857Y-84657142D02*
X103342857Y-84657142D01*
X104485714Y-84657142D02*
X104542857Y-84771428D01*
X104542857Y-85000000D01*
X104485714Y-85114285D01*
X104428571Y-85171428D01*
X104314285Y-85228571D01*
X103971428Y-85228571D01*
X103857142Y-85171428D01*
X103800000Y-85114285D01*
X103742857Y-85000000D01*
X103742857Y-84771428D01*
X103800000Y-84657142D01*
X104542857Y-83171428D02*
X103342857Y-83171428D01*
X103914285Y-83171428D02*
X103914285Y-82485714D01*
X104542857Y-82485714D02*
X103342857Y-82485714D01*
X104542857Y-81400000D02*
X103914285Y-81400000D01*
X103800000Y-81457142D01*
X103742857Y-81571428D01*
X103742857Y-81800000D01*
X103800000Y-81914285D01*
X104485714Y-81400000D02*
X104542857Y-81514285D01*
X104542857Y-81800000D01*
X104485714Y-81914285D01*
X104371428Y-81971428D01*
X104257142Y-81971428D01*
X104142857Y-81914285D01*
X104085714Y-81800000D01*
X104085714Y-81514285D01*
X104028571Y-81400000D01*
X104542857Y-80828571D02*
X103742857Y-80828571D01*
X103971428Y-80828571D02*
X103857142Y-80771428D01*
X103800000Y-80714285D01*
X103742857Y-80600000D01*
X103742857Y-80485714D01*
X104542857Y-79571428D02*
X103342857Y-79571428D01*
X104485714Y-79571428D02*
X104542857Y-79685714D01*
X104542857Y-79914285D01*
X104485714Y-80028571D01*
X104428571Y-80085714D01*
X104314285Y-80142857D01*
X103971428Y-80142857D01*
X103857142Y-80085714D01*
X103800000Y-80028571D01*
X103742857Y-79914285D01*
X103742857Y-79685714D01*
X103800000Y-79571428D01*
X103742857Y-79114285D02*
X104542857Y-78885714D01*
X103971428Y-78657142D01*
X104542857Y-78428571D01*
X103742857Y-78200000D01*
X104542857Y-77228571D02*
X103914285Y-77228571D01*
X103800000Y-77285714D01*
X103742857Y-77400000D01*
X103742857Y-77628571D01*
X103800000Y-77742857D01*
X104485714Y-77228571D02*
X104542857Y-77342857D01*
X104542857Y-77628571D01*
X104485714Y-77742857D01*
X104371428Y-77800000D01*
X104257142Y-77800000D01*
X104142857Y-77742857D01*
X104085714Y-77628571D01*
X104085714Y-77342857D01*
X104028571Y-77228571D01*
X104542857Y-76657142D02*
X103742857Y-76657142D01*
X103971428Y-76657142D02*
X103857142Y-76600000D01*
X103800000Y-76542857D01*
X103742857Y-76428571D01*
X103742857Y-76314285D01*
X104485714Y-75457142D02*
X104542857Y-75571428D01*
X104542857Y-75800000D01*
X104485714Y-75914285D01*
X104371428Y-75971428D01*
X103914285Y-75971428D01*
X103800000Y-75914285D01*
X103742857Y-75800000D01*
X103742857Y-75571428D01*
X103800000Y-75457142D01*
X103914285Y-75400000D01*
X104028571Y-75400000D01*
X104142857Y-75971428D01*
X104542857Y-73971428D02*
X103342857Y-73971428D01*
X103342857Y-73685714D01*
X103400000Y-73514285D01*
X103514285Y-73400000D01*
X103628571Y-73342857D01*
X103857142Y-73285714D01*
X104028571Y-73285714D01*
X104257142Y-73342857D01*
X104371428Y-73400000D01*
X104485714Y-73514285D01*
X104542857Y-73685714D01*
X104542857Y-73971428D01*
X104485714Y-72314285D02*
X104542857Y-72428571D01*
X104542857Y-72657142D01*
X104485714Y-72771428D01*
X104371428Y-72828571D01*
X103914285Y-72828571D01*
X103800000Y-72771428D01*
X103742857Y-72657142D01*
X103742857Y-72428571D01*
X103800000Y-72314285D01*
X103914285Y-72257142D01*
X104028571Y-72257142D01*
X104142857Y-72828571D01*
X104485714Y-71800000D02*
X104542857Y-71685714D01*
X104542857Y-71457142D01*
X104485714Y-71342857D01*
X104371428Y-71285714D01*
X104314285Y-71285714D01*
X104200000Y-71342857D01*
X104142857Y-71457142D01*
X104142857Y-71628571D01*
X104085714Y-71742857D01*
X103971428Y-71800000D01*
X103914285Y-71800000D01*
X103800000Y-71742857D01*
X103742857Y-71628571D01*
X103742857Y-71457142D01*
X103800000Y-71342857D01*
X104542857Y-70771428D02*
X103742857Y-70771428D01*
X103342857Y-70771428D02*
X103400000Y-70828571D01*
X103457142Y-70771428D01*
X103400000Y-70714285D01*
X103342857Y-70771428D01*
X103457142Y-70771428D01*
X103742857Y-69685714D02*
X104714285Y-69685714D01*
X104828571Y-69742857D01*
X104885714Y-69800000D01*
X104942857Y-69914285D01*
X104942857Y-70085714D01*
X104885714Y-70200000D01*
X104485714Y-69685714D02*
X104542857Y-69800000D01*
X104542857Y-70028571D01*
X104485714Y-70142857D01*
X104428571Y-70200000D01*
X104314285Y-70257142D01*
X103971428Y-70257142D01*
X103857142Y-70200000D01*
X103800000Y-70142857D01*
X103742857Y-70028571D01*
X103742857Y-69800000D01*
X103800000Y-69685714D01*
X103742857Y-69114285D02*
X104542857Y-69114285D01*
X103857142Y-69114285D02*
X103800000Y-69057142D01*
X103742857Y-68942857D01*
X103742857Y-68771428D01*
X103800000Y-68657142D01*
X103914285Y-68600000D01*
X104542857Y-68600000D01*
X51888095Y-108783333D02*
X50588095Y-108783333D01*
X51516666Y-108350000D01*
X50588095Y-107916666D01*
X51888095Y-107916666D01*
X51269047Y-107050000D02*
X51888095Y-107050000D01*
X50588095Y-107483333D02*
X51269047Y-107050000D01*
X50588095Y-106616666D01*
X51826190Y-106245238D02*
X51888095Y-106059523D01*
X51888095Y-105750000D01*
X51826190Y-105626190D01*
X51764285Y-105564285D01*
X51640476Y-105502380D01*
X51516666Y-105502380D01*
X51392857Y-105564285D01*
X51330952Y-105626190D01*
X51269047Y-105750000D01*
X51207142Y-105997619D01*
X51145238Y-106121428D01*
X51083333Y-106183333D01*
X50959523Y-106245238D01*
X50835714Y-106245238D01*
X50711904Y-106183333D01*
X50650000Y-106121428D01*
X50588095Y-105997619D01*
X50588095Y-105688095D01*
X50650000Y-105502380D01*
X50588095Y-105130952D02*
X50588095Y-104388095D01*
X51888095Y-104759523D02*
X50588095Y-104759523D01*
X51516666Y-104016666D02*
X51516666Y-103397619D01*
X51888095Y-104140476D02*
X50588095Y-103707142D01*
X51888095Y-103273809D01*
X50588095Y-103026190D02*
X50588095Y-102283333D01*
X51888095Y-102654761D02*
X50588095Y-102654761D01*
X51764285Y-101850000D02*
X51826190Y-101788095D01*
X51888095Y-101850000D01*
X51826190Y-101911904D01*
X51764285Y-101850000D01*
X51888095Y-101850000D01*
X51083333Y-101850000D02*
X51145238Y-101788095D01*
X51207142Y-101850000D01*
X51145238Y-101911904D01*
X51083333Y-101850000D01*
X51207142Y-101850000D01*
X50588095Y-100240476D02*
X51640476Y-100240476D01*
X51764285Y-100178571D01*
X51826190Y-100116666D01*
X51888095Y-99992857D01*
X51888095Y-99745238D01*
X51826190Y-99621428D01*
X51764285Y-99559523D01*
X51640476Y-99497619D01*
X50588095Y-99497619D01*
X51826190Y-98940476D02*
X51888095Y-98754761D01*
X51888095Y-98445238D01*
X51826190Y-98321428D01*
X51764285Y-98259523D01*
X51640476Y-98197619D01*
X51516666Y-98197619D01*
X51392857Y-98259523D01*
X51330952Y-98321428D01*
X51269047Y-98445238D01*
X51207142Y-98692857D01*
X51145238Y-98816666D01*
X51083333Y-98878571D01*
X50959523Y-98940476D01*
X50835714Y-98940476D01*
X50711904Y-98878571D01*
X50650000Y-98816666D01*
X50588095Y-98692857D01*
X50588095Y-98383333D01*
X50650000Y-98197619D01*
X51207142Y-97207142D02*
X51269047Y-97021428D01*
X51330952Y-96959523D01*
X51454761Y-96897619D01*
X51640476Y-96897619D01*
X51764285Y-96959523D01*
X51826190Y-97021428D01*
X51888095Y-97145238D01*
X51888095Y-97640476D01*
X50588095Y-97640476D01*
X50588095Y-97207142D01*
X50650000Y-97083333D01*
X50711904Y-97021428D01*
X50835714Y-96959523D01*
X50959523Y-96959523D01*
X51083333Y-97021428D01*
X51145238Y-97083333D01*
X51207142Y-97207142D01*
X51207142Y-97640476D01*
X51392857Y-96340476D02*
X51392857Y-95350000D01*
X51764285Y-93988095D02*
X51826190Y-94050000D01*
X51888095Y-94235714D01*
X51888095Y-94359523D01*
X51826190Y-94545238D01*
X51702380Y-94669047D01*
X51578571Y-94730952D01*
X51330952Y-94792857D01*
X51145238Y-94792857D01*
X50897619Y-94730952D01*
X50773809Y-94669047D01*
X50650000Y-94545238D01*
X50588095Y-94359523D01*
X50588095Y-94235714D01*
X50650000Y-94050000D01*
X50711904Y-93988095D01*
X51888095Y-93245238D02*
X51826190Y-93369047D01*
X51764285Y-93430952D01*
X51640476Y-93492857D01*
X51269047Y-93492857D01*
X51145238Y-93430952D01*
X51083333Y-93369047D01*
X51021428Y-93245238D01*
X51021428Y-93059523D01*
X51083333Y-92935714D01*
X51145238Y-92873809D01*
X51269047Y-92811904D01*
X51640476Y-92811904D01*
X51764285Y-92873809D01*
X51826190Y-92935714D01*
X51888095Y-93059523D01*
X51888095Y-93245238D01*
X51021428Y-92254761D02*
X51888095Y-92254761D01*
X51145238Y-92254761D02*
X51083333Y-92192857D01*
X51021428Y-92069047D01*
X51021428Y-91883333D01*
X51083333Y-91759523D01*
X51207142Y-91697619D01*
X51888095Y-91697619D01*
X51021428Y-91264285D02*
X51021428Y-90769047D01*
X50588095Y-91078571D02*
X51702380Y-91078571D01*
X51826190Y-91016666D01*
X51888095Y-90892857D01*
X51888095Y-90769047D01*
X51888095Y-90335714D02*
X51021428Y-90335714D01*
X51269047Y-90335714D02*
X51145238Y-90273809D01*
X51083333Y-90211904D01*
X51021428Y-90088095D01*
X51021428Y-89964285D01*
X51888095Y-89345238D02*
X51826190Y-89469047D01*
X51764285Y-89530952D01*
X51640476Y-89592857D01*
X51269047Y-89592857D01*
X51145238Y-89530952D01*
X51083333Y-89469047D01*
X51021428Y-89345238D01*
X51021428Y-89159523D01*
X51083333Y-89035714D01*
X51145238Y-88973809D01*
X51269047Y-88911904D01*
X51640476Y-88911904D01*
X51764285Y-88973809D01*
X51826190Y-89035714D01*
X51888095Y-89159523D01*
X51888095Y-89345238D01*
X51888095Y-88169047D02*
X51826190Y-88292857D01*
X51702380Y-88354761D01*
X50588095Y-88354761D01*
X51888095Y-87488095D02*
X51826190Y-87611904D01*
X51702380Y-87673809D01*
X50588095Y-87673809D01*
X51826190Y-86497619D02*
X51888095Y-86621428D01*
X51888095Y-86869047D01*
X51826190Y-86992857D01*
X51702380Y-87054761D01*
X51207142Y-87054761D01*
X51083333Y-86992857D01*
X51021428Y-86869047D01*
X51021428Y-86621428D01*
X51083333Y-86497619D01*
X51207142Y-86435714D01*
X51330952Y-86435714D01*
X51454761Y-87054761D01*
X51888095Y-85321428D02*
X50588095Y-85321428D01*
X51826190Y-85321428D02*
X51888095Y-85445238D01*
X51888095Y-85692857D01*
X51826190Y-85816666D01*
X51764285Y-85878571D01*
X51640476Y-85940476D01*
X51269047Y-85940476D01*
X51145238Y-85878571D01*
X51083333Y-85816666D01*
X51021428Y-85692857D01*
X51021428Y-85445238D01*
X51083333Y-85321428D01*
X51888095Y-83711904D02*
X50588095Y-83711904D01*
X50588095Y-83216666D01*
X50650000Y-83092857D01*
X50711904Y-83030952D01*
X50835714Y-82969047D01*
X51021428Y-82969047D01*
X51145238Y-83030952D01*
X51207142Y-83092857D01*
X51269047Y-83216666D01*
X51269047Y-83711904D01*
X51888095Y-82226190D02*
X51826190Y-82350000D01*
X51764285Y-82411904D01*
X51640476Y-82473809D01*
X51269047Y-82473809D01*
X51145238Y-82411904D01*
X51083333Y-82350000D01*
X51021428Y-82226190D01*
X51021428Y-82040476D01*
X51083333Y-81916666D01*
X51145238Y-81854761D01*
X51269047Y-81792857D01*
X51640476Y-81792857D01*
X51764285Y-81854761D01*
X51826190Y-81916666D01*
X51888095Y-82040476D01*
X51888095Y-82226190D01*
X51021428Y-81421428D02*
X51021428Y-80926190D01*
X50588095Y-81235714D02*
X51702380Y-81235714D01*
X51826190Y-81173809D01*
X51888095Y-81050000D01*
X51888095Y-80926190D01*
X51826190Y-79997619D02*
X51888095Y-80121428D01*
X51888095Y-80369047D01*
X51826190Y-80492857D01*
X51702380Y-80554761D01*
X51207142Y-80554761D01*
X51083333Y-80492857D01*
X51021428Y-80369047D01*
X51021428Y-80121428D01*
X51083333Y-79997619D01*
X51207142Y-79935714D01*
X51330952Y-79935714D01*
X51454761Y-80554761D01*
X51021428Y-79378571D02*
X51888095Y-79378571D01*
X51145238Y-79378571D02*
X51083333Y-79316666D01*
X51021428Y-79192857D01*
X51021428Y-79007142D01*
X51083333Y-78883333D01*
X51207142Y-78821428D01*
X51888095Y-78821428D01*
X51021428Y-78388095D02*
X51021428Y-77892857D01*
X50588095Y-78202380D02*
X51702380Y-78202380D01*
X51826190Y-78140476D01*
X51888095Y-78016666D01*
X51888095Y-77892857D01*
X51888095Y-77459523D02*
X51021428Y-77459523D01*
X50588095Y-77459523D02*
X50650000Y-77521428D01*
X50711904Y-77459523D01*
X50650000Y-77397619D01*
X50588095Y-77459523D01*
X50711904Y-77459523D01*
X51888095Y-76654761D02*
X51826190Y-76778571D01*
X51764285Y-76840476D01*
X51640476Y-76902380D01*
X51269047Y-76902380D01*
X51145238Y-76840476D01*
X51083333Y-76778571D01*
X51021428Y-76654761D01*
X51021428Y-76469047D01*
X51083333Y-76345238D01*
X51145238Y-76283333D01*
X51269047Y-76221428D01*
X51640476Y-76221428D01*
X51764285Y-76283333D01*
X51826190Y-76345238D01*
X51888095Y-76469047D01*
X51888095Y-76654761D01*
X51826190Y-75726190D02*
X51888095Y-75602380D01*
X51888095Y-75354761D01*
X51826190Y-75230952D01*
X51702380Y-75169047D01*
X51640476Y-75169047D01*
X51516666Y-75230952D01*
X51454761Y-75354761D01*
X51454761Y-75540476D01*
X51392857Y-75664285D01*
X51269047Y-75726190D01*
X51207142Y-75726190D01*
X51083333Y-75664285D01*
X51021428Y-75540476D01*
X51021428Y-75354761D01*
X51083333Y-75230952D01*
X51021428Y-74797619D02*
X51021428Y-74302380D01*
X50588095Y-74611904D02*
X51702380Y-74611904D01*
X51826190Y-74550000D01*
X51888095Y-74426190D01*
X51888095Y-74302380D01*
X51888095Y-73311904D02*
X51207142Y-73311904D01*
X51083333Y-73373809D01*
X51021428Y-73497619D01*
X51021428Y-73745238D01*
X51083333Y-73869047D01*
X51826190Y-73311904D02*
X51888095Y-73435714D01*
X51888095Y-73745238D01*
X51826190Y-73869047D01*
X51702380Y-73930952D01*
X51578571Y-73930952D01*
X51454761Y-73869047D01*
X51392857Y-73745238D01*
X51392857Y-73435714D01*
X51330952Y-73311904D01*
X51021428Y-72878571D02*
X51021428Y-72383333D01*
X50588095Y-72692857D02*
X51702380Y-72692857D01*
X51826190Y-72630952D01*
X51888095Y-72507142D01*
X51888095Y-72383333D01*
X50526190Y-71021428D02*
X52197619Y-72135714D01*
X50650000Y-69907142D02*
X50588095Y-70030952D01*
X50588095Y-70216666D01*
X50650000Y-70402380D01*
X50773809Y-70526190D01*
X50897619Y-70588095D01*
X51145238Y-70650000D01*
X51330952Y-70650000D01*
X51578571Y-70588095D01*
X51702380Y-70526190D01*
X51826190Y-70402380D01*
X51888095Y-70216666D01*
X51888095Y-70092857D01*
X51826190Y-69907142D01*
X51764285Y-69845238D01*
X51330952Y-69845238D01*
X51330952Y-70092857D01*
X51888095Y-68730952D02*
X51207142Y-68730952D01*
X51083333Y-68792857D01*
X51021428Y-68916666D01*
X51021428Y-69164285D01*
X51083333Y-69288095D01*
X51826190Y-68730952D02*
X51888095Y-68854761D01*
X51888095Y-69164285D01*
X51826190Y-69288095D01*
X51702380Y-69350000D01*
X51578571Y-69350000D01*
X51454761Y-69288095D01*
X51392857Y-69164285D01*
X51392857Y-68854761D01*
X51330952Y-68730952D01*
X51888095Y-67926190D02*
X51826190Y-68050000D01*
X51702380Y-68111904D01*
X50588095Y-68111904D01*
X51021428Y-67554761D02*
X51888095Y-67245238D01*
X51021428Y-66935714D01*
X51888095Y-65883333D02*
X51207142Y-65883333D01*
X51083333Y-65945238D01*
X51021428Y-66069047D01*
X51021428Y-66316666D01*
X51083333Y-66440476D01*
X51826190Y-65883333D02*
X51888095Y-66007142D01*
X51888095Y-66316666D01*
X51826190Y-66440476D01*
X51702380Y-66502380D01*
X51578571Y-66502380D01*
X51454761Y-66440476D01*
X51392857Y-66316666D01*
X51392857Y-66007142D01*
X51330952Y-65883333D01*
X51021428Y-65264285D02*
X51888095Y-65264285D01*
X51145238Y-65264285D02*
X51083333Y-65202380D01*
X51021428Y-65078571D01*
X51021428Y-64892857D01*
X51083333Y-64769047D01*
X51207142Y-64707142D01*
X51888095Y-64707142D01*
X51888095Y-63902380D02*
X51826190Y-64026190D01*
X51764285Y-64088095D01*
X51640476Y-64150000D01*
X51269047Y-64150000D01*
X51145238Y-64088095D01*
X51083333Y-64026190D01*
X51021428Y-63902380D01*
X51021428Y-63716666D01*
X51083333Y-63592857D01*
X51145238Y-63530952D01*
X51269047Y-63469047D01*
X51640476Y-63469047D01*
X51764285Y-63530952D01*
X51826190Y-63592857D01*
X51888095Y-63716666D01*
X51888095Y-63902380D01*
X51826190Y-62973809D02*
X51888095Y-62850000D01*
X51888095Y-62602380D01*
X51826190Y-62478571D01*
X51702380Y-62416666D01*
X51640476Y-62416666D01*
X51516666Y-62478571D01*
X51454761Y-62602380D01*
X51454761Y-62788095D01*
X51392857Y-62911904D01*
X51269047Y-62973809D01*
X51207142Y-62973809D01*
X51083333Y-62911904D01*
X51021428Y-62788095D01*
X51021428Y-62602380D01*
X51083333Y-62478571D01*
X51021428Y-62045238D02*
X51021428Y-61550000D01*
X50588095Y-61859523D02*
X51702380Y-61859523D01*
X51826190Y-61797619D01*
X51888095Y-61673809D01*
X51888095Y-61550000D01*
X51888095Y-60559523D02*
X51207142Y-60559523D01*
X51083333Y-60621428D01*
X51021428Y-60745238D01*
X51021428Y-60992857D01*
X51083333Y-61116666D01*
X51826190Y-60559523D02*
X51888095Y-60683333D01*
X51888095Y-60992857D01*
X51826190Y-61116666D01*
X51702380Y-61178571D01*
X51578571Y-61178571D01*
X51454761Y-61116666D01*
X51392857Y-60992857D01*
X51392857Y-60683333D01*
X51330952Y-60559523D01*
X51021428Y-60126190D02*
X51021428Y-59630952D01*
X50588095Y-59940476D02*
X51702380Y-59940476D01*
X51826190Y-59878571D01*
X51888095Y-59754761D01*
X51888095Y-59630952D01*
D11*
G04 #@! TO.C,R15*
X61090000Y-65058578D02*
X61090000Y-64541422D01*
X62510000Y-65058578D02*
X62510000Y-64541422D01*
G04 #@! TO.C,C28*
X59678922Y-68690000D02*
X60196078Y-68690000D01*
X59678922Y-70110000D02*
X60196078Y-70110000D01*
G04 #@! TO.C,C1*
X73397936Y-87440000D02*
X74602064Y-87440000D01*
X73397936Y-90160000D02*
X74602064Y-90160000D01*
G04 #@! TO.C,C2*
X90102064Y-115340000D02*
X88897936Y-115340000D01*
X90102064Y-118060000D02*
X88897936Y-118060000D01*
G04 #@! TO.C,C3*
X98540000Y-116702064D02*
X98540000Y-115497936D01*
X101260000Y-116702064D02*
X101260000Y-115497936D01*
G04 #@! TO.C,C4*
X101260000Y-110802064D02*
X101260000Y-109597936D01*
X98540000Y-110802064D02*
X98540000Y-109597936D01*
G04 #@! TO.C,C5*
X85140000Y-111102064D02*
X85140000Y-109897936D01*
X87860000Y-111102064D02*
X87860000Y-109897936D01*
G04 #@! TO.C,C6*
X99802064Y-103540000D02*
X98597936Y-103540000D01*
X99802064Y-106260000D02*
X98597936Y-106260000D01*
G04 #@! TO.C,C7*
X87697936Y-103540000D02*
X88902064Y-103540000D01*
X87697936Y-106260000D02*
X88902064Y-106260000D01*
G04 #@! TO.C,C8*
X81702064Y-108140000D02*
X80497936Y-108140000D01*
X81702064Y-110860000D02*
X80497936Y-110860000D01*
G04 #@! TO.C,C9*
X91458578Y-73510000D02*
X90941422Y-73510000D01*
X91458578Y-72090000D02*
X90941422Y-72090000D01*
G04 #@! TO.C,C10*
X99358578Y-72090000D02*
X98841422Y-72090000D01*
X99358578Y-73510000D02*
X98841422Y-73510000D01*
G04 #@! TO.C,C11*
X72141422Y-111210000D02*
X72658578Y-111210000D01*
X72141422Y-109790000D02*
X72658578Y-109790000D01*
G04 #@! TO.C,C12*
X64136990Y-104022918D02*
X64654146Y-104022918D01*
X64136990Y-105442918D02*
X64654146Y-105442918D01*
G04 #@! TO.C,C13*
X56577913Y-103999042D02*
X56060757Y-103999042D01*
X56577913Y-105419042D02*
X56060757Y-105419042D01*
G04 #@! TO.C,C14*
X71841422Y-114510000D02*
X72358578Y-114510000D01*
X71841422Y-113090000D02*
X72358578Y-113090000D01*
G04 #@! TO.C,C15*
X69810000Y-93341422D02*
X69810000Y-93858578D01*
X68390000Y-93341422D02*
X68390000Y-93858578D01*
G04 #@! TO.C,C16*
X76710000Y-103841422D02*
X76710000Y-104358578D01*
X75290000Y-103841422D02*
X75290000Y-104358578D01*
G04 #@! TO.C,C17*
X78390000Y-92341422D02*
X78390000Y-92858578D01*
X79810000Y-92341422D02*
X79810000Y-92858578D01*
G04 #@! TO.C,C18*
X79810000Y-97241422D02*
X79810000Y-97758578D01*
X78390000Y-97241422D02*
X78390000Y-97758578D01*
G04 #@! TO.C,C19*
X82902064Y-106260000D02*
X81697936Y-106260000D01*
X82902064Y-103540000D02*
X81697936Y-103540000D01*
G04 #@! TO.C,C20*
X97199511Y-96954517D02*
X97199511Y-96437361D01*
X98619511Y-96954517D02*
X98619511Y-96437361D01*
G04 #@! TO.C,C21*
X93968089Y-99885939D02*
X93450933Y-99885939D01*
X93968089Y-101305939D02*
X93450933Y-101305939D01*
G04 #@! TO.C,C22*
X54941422Y-82210000D02*
X55458578Y-82210000D01*
X54941422Y-80790000D02*
X55458578Y-80790000D01*
G04 #@! TO.C,C23*
X64860830Y-97038575D02*
X64860830Y-96521419D01*
X66280830Y-97038575D02*
X66280830Y-96521419D01*
G04 #@! TO.C,C24*
X65279408Y-82239997D02*
X64762252Y-82239997D01*
X65279408Y-80819997D02*
X64762252Y-80819997D01*
G04 #@! TO.C,C25*
X60358578Y-79290000D02*
X59841422Y-79290000D01*
X60358578Y-80710000D02*
X59841422Y-80710000D01*
G04 #@! TO.C,C26*
X58279408Y-93269997D02*
X57762252Y-93269997D01*
X58279408Y-94689997D02*
X57762252Y-94689997D01*
G04 #@! TO.C,C27*
X64910000Y-69258578D02*
X64910000Y-68741422D01*
X63490000Y-69258578D02*
X63490000Y-68741422D01*
G04 #@! TO.C,C29*
X55001752Y-70867421D02*
X55518908Y-70867421D01*
X55001752Y-72287421D02*
X55518908Y-72287421D01*
G04 #@! TO.C,D1*
X93320000Y-117460000D02*
X93320000Y-116000000D01*
X96480000Y-117460000D02*
X96480000Y-115300000D01*
X96480000Y-117460000D02*
X95550000Y-117460000D01*
X93320000Y-117460000D02*
X94250000Y-117460000D01*
G04 #@! TO.C,D2*
X94560000Y-106480000D02*
X94560000Y-105550000D01*
X94560000Y-103320000D02*
X94560000Y-104250000D01*
X94560000Y-103320000D02*
X92400000Y-103320000D01*
X94560000Y-106480000D02*
X93100000Y-106480000D01*
D12*
G04 #@! TO.C,K1*
X88500000Y-51000000D02*
X89100000Y-51000000D01*
X88500000Y-70400000D02*
X88800000Y-70400000D01*
X93500000Y-51000000D02*
X92900000Y-51000000D01*
X93500000Y-70400000D02*
X93200000Y-70400000D01*
X88500000Y-65820000D02*
X89100000Y-65820000D01*
X93500000Y-65820000D02*
X92900000Y-65820000D01*
X88500000Y-70400000D02*
X88500000Y-51000000D01*
X93500000Y-51000000D02*
X93500000Y-70400000D01*
G04 #@! TO.C,K2*
X87400000Y-74100000D02*
X68000000Y-74100000D01*
X68000000Y-69100000D02*
X87400000Y-69100000D01*
X72580000Y-74100000D02*
X72580000Y-73500000D01*
X72580000Y-69100000D02*
X72580000Y-69700000D01*
X68000000Y-74100000D02*
X68000000Y-73800000D01*
X87400000Y-74100000D02*
X87400000Y-73500000D01*
X68000000Y-69100000D02*
X68000000Y-69400000D01*
X87400000Y-69100000D02*
X87400000Y-69700000D01*
G04 #@! TO.C,K3*
X87400000Y-68100000D02*
X68000000Y-68100000D01*
X68000000Y-63100000D02*
X87400000Y-63100000D01*
X72580000Y-68100000D02*
X72580000Y-67500000D01*
X72580000Y-63100000D02*
X72580000Y-63700000D01*
X68000000Y-68100000D02*
X68000000Y-67800000D01*
X87400000Y-68100000D02*
X87400000Y-67500000D01*
X68000000Y-63100000D02*
X68000000Y-63400000D01*
X87400000Y-63100000D02*
X87400000Y-63700000D01*
G04 #@! TO.C,K4*
X87400000Y-75100000D02*
X87400000Y-75700000D01*
X68000000Y-75100000D02*
X68000000Y-75400000D01*
X87400000Y-80100000D02*
X87400000Y-79500000D01*
X68000000Y-80100000D02*
X68000000Y-79800000D01*
X72580000Y-75100000D02*
X72580000Y-75700000D01*
X72580000Y-80100000D02*
X72580000Y-79500000D01*
X68000000Y-75100000D02*
X87400000Y-75100000D01*
X87400000Y-80100000D02*
X68000000Y-80100000D01*
D11*
G04 #@! TO.C,P1*
X71288286Y-82634941D02*
X71288286Y-85294941D01*
X81508286Y-82634941D02*
X71288286Y-82634941D01*
X81508286Y-85294941D02*
X71288286Y-85294941D01*
X81508286Y-82634941D02*
X81508286Y-85294941D01*
X82778286Y-82634941D02*
X84108286Y-82634941D01*
X84108286Y-82634941D02*
X84108286Y-83964941D01*
G04 #@! TO.C,P3*
X95220000Y-67330000D02*
X97880000Y-67330000D01*
X95220000Y-54570000D02*
X95220000Y-67330000D01*
X97880000Y-54570000D02*
X97880000Y-67330000D01*
X95220000Y-54570000D02*
X97880000Y-54570000D01*
X95220000Y-53300000D02*
X95220000Y-51970000D01*
X95220000Y-51970000D02*
X96550000Y-51970000D01*
G04 #@! TO.C,R1*
X56060757Y-100599042D02*
X56577913Y-100599042D01*
X56060757Y-102019042D02*
X56577913Y-102019042D01*
G04 #@! TO.C,R2*
X64041422Y-100290000D02*
X64558578Y-100290000D01*
X64041422Y-101710000D02*
X64558578Y-101710000D01*
G04 #@! TO.C,R3*
X68390000Y-88441422D02*
X68390000Y-88958578D01*
X69810000Y-88441422D02*
X69810000Y-88958578D01*
G04 #@! TO.C,R4*
X65229408Y-78889997D02*
X64712252Y-78889997D01*
X65229408Y-77469997D02*
X64712252Y-77469997D01*
G04 #@! TO.C,R5*
X55458578Y-77490000D02*
X54941422Y-77490000D01*
X55458578Y-78910000D02*
X54941422Y-78910000D01*
G04 #@! TO.C,R6*
X53660830Y-85471419D02*
X53660830Y-85988575D01*
X55080830Y-85471419D02*
X55080830Y-85988575D01*
G04 #@! TO.C,R7*
X53660830Y-90671419D02*
X53660830Y-91188575D01*
X55080830Y-90671419D02*
X55080830Y-91188575D01*
G04 #@! TO.C,R8*
X61410830Y-96988575D02*
X61410830Y-96471419D01*
X62830830Y-96988575D02*
X62830830Y-96471419D01*
G04 #@! TO.C,R9*
X57762252Y-96669997D02*
X58279408Y-96669997D01*
X57762252Y-98089997D02*
X58279408Y-98089997D01*
G04 #@! TO.C,R10*
X61590000Y-52941422D02*
X61590000Y-53458578D01*
X63010000Y-52941422D02*
X63010000Y-53458578D01*
G04 #@! TO.C,R11*
X66310000Y-52978922D02*
X66310000Y-53496078D01*
X64890000Y-52978922D02*
X64890000Y-53496078D01*
G04 #@! TO.C,R12*
X59672500Y-52941422D02*
X59672500Y-53458578D01*
X58252500Y-52941422D02*
X58252500Y-53458578D01*
G04 #@! TO.C,R13*
X55101752Y-56637421D02*
X55618908Y-56637421D01*
X55101752Y-55217421D02*
X55618908Y-55217421D01*
G04 #@! TO.C,R14*
X55101752Y-53237421D02*
X55618908Y-53237421D01*
X55101752Y-51817421D02*
X55618908Y-51817421D01*
G04 #@! TO.C,R16*
X61090000Y-59541422D02*
X61090000Y-60058578D01*
X62510000Y-59541422D02*
X62510000Y-60058578D01*
G04 #@! TO.C,R17*
X55001752Y-67467421D02*
X55518908Y-67467421D01*
X55001752Y-68887421D02*
X55518908Y-68887421D01*
G04 #@! TO.C,R18*
X54991422Y-75660000D02*
X55508578Y-75660000D01*
X54991422Y-74240000D02*
X55508578Y-74240000D01*
D12*
G04 #@! TO.C,U1*
X95275000Y-113425000D02*
X96675000Y-113425000D01*
X95275000Y-108325000D02*
X91125000Y-108325000D01*
X95275000Y-113475000D02*
X91125000Y-113475000D01*
X95275000Y-108325000D02*
X95275000Y-108470000D01*
X91125000Y-108325000D02*
X91125000Y-108470000D01*
X91125000Y-113475000D02*
X91125000Y-113330000D01*
X95275000Y-113475000D02*
X95275000Y-113425000D01*
G04 #@! TO.C,U2*
X91125000Y-75325000D02*
X91125000Y-75575000D01*
X98875000Y-75325000D02*
X98875000Y-75660000D01*
X98875000Y-88475000D02*
X98875000Y-88140000D01*
X91125000Y-88475000D02*
X91125000Y-88140000D01*
X91125000Y-75325000D02*
X98875000Y-75325000D01*
X91125000Y-88475000D02*
X98875000Y-88475000D01*
X91125000Y-75575000D02*
X89325000Y-75575000D01*
G04 #@! TO.C,U3*
X67475000Y-112475000D02*
X67475000Y-112425000D01*
X63325000Y-112475000D02*
X63325000Y-112330000D01*
X63325000Y-107325000D02*
X63325000Y-107470000D01*
X67475000Y-107325000D02*
X67475000Y-107470000D01*
X67475000Y-112475000D02*
X63325000Y-112475000D01*
X67475000Y-107325000D02*
X63325000Y-107325000D01*
X67475000Y-112425000D02*
X68875000Y-112425000D01*
G04 #@! TO.C,U4*
X59194335Y-108834042D02*
X59144335Y-108834042D01*
X59194335Y-112984042D02*
X59049335Y-112984042D01*
X54044335Y-112984042D02*
X54189335Y-112984042D01*
X54044335Y-108834042D02*
X54189335Y-108834042D01*
X59194335Y-108834042D02*
X59194335Y-112984042D01*
X54044335Y-108834042D02*
X54044335Y-112984042D01*
X59144335Y-108834042D02*
X59144335Y-107434042D01*
G04 #@! TO.C,U5*
X73325000Y-98325000D02*
X73325000Y-96925000D01*
X68225000Y-98325000D02*
X68225000Y-102475000D01*
X73375000Y-98325000D02*
X73375000Y-102475000D01*
X68225000Y-98325000D02*
X68370000Y-98325000D01*
X68225000Y-102475000D02*
X68370000Y-102475000D01*
X73375000Y-102475000D02*
X73230000Y-102475000D01*
X73375000Y-98325000D02*
X73325000Y-98325000D01*
G04 #@! TO.C,U6*
X90009511Y-98070939D02*
X94009511Y-98070939D01*
X88734511Y-92670939D02*
X94009511Y-92670939D01*
G04 #@! TO.C,U7*
X65970830Y-85604997D02*
X65945830Y-85604997D01*
X65970830Y-89754997D02*
X65855830Y-89754997D01*
X57070830Y-89754997D02*
X57185830Y-89754997D01*
X57070830Y-85604997D02*
X57185830Y-85604997D01*
X65970830Y-85604997D02*
X65970830Y-89754997D01*
X57070830Y-85604997D02*
X57070830Y-89754997D01*
X65945830Y-85604997D02*
X65945830Y-84229997D01*
G04 #@! TO.C,U8*
X60676200Y-74280000D02*
X61200000Y-74799200D01*
X60676200Y-73200800D02*
X63523800Y-73200800D01*
X63523800Y-73200800D02*
X63523800Y-74799200D01*
X63523800Y-74799200D02*
X60676200Y-74799200D01*
X60676200Y-74799200D02*
X60676200Y-73200800D01*
G04 #@! TO.C,U9*
X58785330Y-59952421D02*
X58735330Y-59952421D01*
X58785330Y-64102421D02*
X58640330Y-64102421D01*
X53635330Y-64102421D02*
X53780330Y-64102421D01*
X53635330Y-59952421D02*
X53780330Y-59952421D01*
X58785330Y-59952421D02*
X58785330Y-64102421D01*
X53635330Y-59952421D02*
X53635330Y-64102421D01*
X58735330Y-59952421D02*
X58735330Y-58552421D01*
D11*
G04 #@! TO.C,X1*
X86834511Y-91010939D02*
X86834511Y-97260939D01*
X81784511Y-91010939D02*
X81784511Y-97260939D01*
X81784511Y-91010939D02*
G75*
G02X86834511Y-91010939I2525000J0D01*
G01*
X81784511Y-97260939D02*
G75*
G03X86834511Y-97260939I2525000J0D01*
G01*
G04 #@! TO.C,R15*
D12*
X61157142Y-67752380D02*
X60823809Y-67276190D01*
X60585714Y-67752380D02*
X60585714Y-66752380D01*
X60966666Y-66752380D01*
X61061904Y-66800000D01*
X61109523Y-66847619D01*
X61157142Y-66942857D01*
X61157142Y-67085714D01*
X61109523Y-67180952D01*
X61061904Y-67228571D01*
X60966666Y-67276190D01*
X60585714Y-67276190D01*
X62109523Y-67752380D02*
X61538095Y-67752380D01*
X61823809Y-67752380D02*
X61823809Y-66752380D01*
X61728571Y-66895238D01*
X61633333Y-66990476D01*
X61538095Y-67038095D01*
X63014285Y-66752380D02*
X62538095Y-66752380D01*
X62490476Y-67228571D01*
X62538095Y-67180952D01*
X62633333Y-67133333D01*
X62871428Y-67133333D01*
X62966666Y-67180952D01*
X63014285Y-67228571D01*
X63061904Y-67323809D01*
X63061904Y-67561904D01*
X63014285Y-67657142D01*
X62966666Y-67704761D01*
X62871428Y-67752380D01*
X62633333Y-67752380D01*
X62538095Y-67704761D01*
X62490476Y-67657142D01*
G04 #@! TO.C,P2*
X77011904Y-52552380D02*
X77011904Y-51552380D01*
X77392857Y-51552380D01*
X77488095Y-51600000D01*
X77535714Y-51647619D01*
X77583333Y-51742857D01*
X77583333Y-51885714D01*
X77535714Y-51980952D01*
X77488095Y-52028571D01*
X77392857Y-52076190D01*
X77011904Y-52076190D01*
X77964285Y-51647619D02*
X78011904Y-51600000D01*
X78107142Y-51552380D01*
X78345238Y-51552380D01*
X78440476Y-51600000D01*
X78488095Y-51647619D01*
X78535714Y-51742857D01*
X78535714Y-51838095D01*
X78488095Y-51980952D01*
X77916666Y-52552380D01*
X78535714Y-52552380D01*
G04 #@! TO.C,C28*
X59257142Y-71557142D02*
X59209523Y-71604761D01*
X59066666Y-71652380D01*
X58971428Y-71652380D01*
X58828571Y-71604761D01*
X58733333Y-71509523D01*
X58685714Y-71414285D01*
X58638095Y-71223809D01*
X58638095Y-71080952D01*
X58685714Y-70890476D01*
X58733333Y-70795238D01*
X58828571Y-70700000D01*
X58971428Y-70652380D01*
X59066666Y-70652380D01*
X59209523Y-70700000D01*
X59257142Y-70747619D01*
X59638095Y-70747619D02*
X59685714Y-70700000D01*
X59780952Y-70652380D01*
X60019047Y-70652380D01*
X60114285Y-70700000D01*
X60161904Y-70747619D01*
X60209523Y-70842857D01*
X60209523Y-70938095D01*
X60161904Y-71080952D01*
X59590476Y-71652380D01*
X60209523Y-71652380D01*
X60780952Y-71080952D02*
X60685714Y-71033333D01*
X60638095Y-70985714D01*
X60590476Y-70890476D01*
X60590476Y-70842857D01*
X60638095Y-70747619D01*
X60685714Y-70700000D01*
X60780952Y-70652380D01*
X60971428Y-70652380D01*
X61066666Y-70700000D01*
X61114285Y-70747619D01*
X61161904Y-70842857D01*
X61161904Y-70890476D01*
X61114285Y-70985714D01*
X61066666Y-71033333D01*
X60971428Y-71080952D01*
X60780952Y-71080952D01*
X60685714Y-71128571D01*
X60638095Y-71176190D01*
X60590476Y-71271428D01*
X60590476Y-71461904D01*
X60638095Y-71557142D01*
X60685714Y-71604761D01*
X60780952Y-71652380D01*
X60971428Y-71652380D01*
X61066666Y-71604761D01*
X61114285Y-71557142D01*
X61161904Y-71461904D01*
X61161904Y-71271428D01*
X61114285Y-71176190D01*
X61066666Y-71128571D01*
X60971428Y-71080952D01*
G04 #@! TO.C,C1*
X73833333Y-91557142D02*
X73785714Y-91604761D01*
X73642857Y-91652380D01*
X73547619Y-91652380D01*
X73404761Y-91604761D01*
X73309523Y-91509523D01*
X73261904Y-91414285D01*
X73214285Y-91223809D01*
X73214285Y-91080952D01*
X73261904Y-90890476D01*
X73309523Y-90795238D01*
X73404761Y-90700000D01*
X73547619Y-90652380D01*
X73642857Y-90652380D01*
X73785714Y-90700000D01*
X73833333Y-90747619D01*
X74785714Y-91652380D02*
X74214285Y-91652380D01*
X74500000Y-91652380D02*
X74500000Y-90652380D01*
X74404761Y-90795238D01*
X74309523Y-90890476D01*
X74214285Y-90938095D01*
G04 #@! TO.C,C2*
X89333333Y-119337142D02*
X89285714Y-119384761D01*
X89142857Y-119432380D01*
X89047619Y-119432380D01*
X88904761Y-119384761D01*
X88809523Y-119289523D01*
X88761904Y-119194285D01*
X88714285Y-119003809D01*
X88714285Y-118860952D01*
X88761904Y-118670476D01*
X88809523Y-118575238D01*
X88904761Y-118480000D01*
X89047619Y-118432380D01*
X89142857Y-118432380D01*
X89285714Y-118480000D01*
X89333333Y-118527619D01*
X89714285Y-118527619D02*
X89761904Y-118480000D01*
X89857142Y-118432380D01*
X90095238Y-118432380D01*
X90190476Y-118480000D01*
X90238095Y-118527619D01*
X90285714Y-118622857D01*
X90285714Y-118718095D01*
X90238095Y-118860952D01*
X89666666Y-119432380D01*
X90285714Y-119432380D01*
G04 #@! TO.C,C3*
X99733333Y-119457142D02*
X99685714Y-119504761D01*
X99542857Y-119552380D01*
X99447619Y-119552380D01*
X99304761Y-119504761D01*
X99209523Y-119409523D01*
X99161904Y-119314285D01*
X99114285Y-119123809D01*
X99114285Y-118980952D01*
X99161904Y-118790476D01*
X99209523Y-118695238D01*
X99304761Y-118600000D01*
X99447619Y-118552380D01*
X99542857Y-118552380D01*
X99685714Y-118600000D01*
X99733333Y-118647619D01*
X100066666Y-118552380D02*
X100685714Y-118552380D01*
X100352380Y-118933333D01*
X100495238Y-118933333D01*
X100590476Y-118980952D01*
X100638095Y-119028571D01*
X100685714Y-119123809D01*
X100685714Y-119361904D01*
X100638095Y-119457142D01*
X100590476Y-119504761D01*
X100495238Y-119552380D01*
X100209523Y-119552380D01*
X100114285Y-119504761D01*
X100066666Y-119457142D01*
G04 #@! TO.C,C4*
X99733333Y-113557142D02*
X99685714Y-113604761D01*
X99542857Y-113652380D01*
X99447619Y-113652380D01*
X99304761Y-113604761D01*
X99209523Y-113509523D01*
X99161904Y-113414285D01*
X99114285Y-113223809D01*
X99114285Y-113080952D01*
X99161904Y-112890476D01*
X99209523Y-112795238D01*
X99304761Y-112700000D01*
X99447619Y-112652380D01*
X99542857Y-112652380D01*
X99685714Y-112700000D01*
X99733333Y-112747619D01*
X100590476Y-112985714D02*
X100590476Y-113652380D01*
X100352380Y-112604761D02*
X100114285Y-113319047D01*
X100733333Y-113319047D01*
G04 #@! TO.C,C5*
X86233333Y-113957142D02*
X86185714Y-114004761D01*
X86042857Y-114052380D01*
X85947619Y-114052380D01*
X85804761Y-114004761D01*
X85709523Y-113909523D01*
X85661904Y-113814285D01*
X85614285Y-113623809D01*
X85614285Y-113480952D01*
X85661904Y-113290476D01*
X85709523Y-113195238D01*
X85804761Y-113100000D01*
X85947619Y-113052380D01*
X86042857Y-113052380D01*
X86185714Y-113100000D01*
X86233333Y-113147619D01*
X87138095Y-113052380D02*
X86661904Y-113052380D01*
X86614285Y-113528571D01*
X86661904Y-113480952D01*
X86757142Y-113433333D01*
X86995238Y-113433333D01*
X87090476Y-113480952D01*
X87138095Y-113528571D01*
X87185714Y-113623809D01*
X87185714Y-113861904D01*
X87138095Y-113957142D01*
X87090476Y-114004761D01*
X86995238Y-114052380D01*
X86757142Y-114052380D01*
X86661904Y-114004761D01*
X86614285Y-113957142D01*
G04 #@! TO.C,C6*
X99033333Y-107537142D02*
X98985714Y-107584761D01*
X98842857Y-107632380D01*
X98747619Y-107632380D01*
X98604761Y-107584761D01*
X98509523Y-107489523D01*
X98461904Y-107394285D01*
X98414285Y-107203809D01*
X98414285Y-107060952D01*
X98461904Y-106870476D01*
X98509523Y-106775238D01*
X98604761Y-106680000D01*
X98747619Y-106632380D01*
X98842857Y-106632380D01*
X98985714Y-106680000D01*
X99033333Y-106727619D01*
X99890476Y-106632380D02*
X99700000Y-106632380D01*
X99604761Y-106680000D01*
X99557142Y-106727619D01*
X99461904Y-106870476D01*
X99414285Y-107060952D01*
X99414285Y-107441904D01*
X99461904Y-107537142D01*
X99509523Y-107584761D01*
X99604761Y-107632380D01*
X99795238Y-107632380D01*
X99890476Y-107584761D01*
X99938095Y-107537142D01*
X99985714Y-107441904D01*
X99985714Y-107203809D01*
X99938095Y-107108571D01*
X99890476Y-107060952D01*
X99795238Y-107013333D01*
X99604761Y-107013333D01*
X99509523Y-107060952D01*
X99461904Y-107108571D01*
X99414285Y-107203809D01*
G04 #@! TO.C,C7*
X88133333Y-107557142D02*
X88085714Y-107604761D01*
X87942857Y-107652380D01*
X87847619Y-107652380D01*
X87704761Y-107604761D01*
X87609523Y-107509523D01*
X87561904Y-107414285D01*
X87514285Y-107223809D01*
X87514285Y-107080952D01*
X87561904Y-106890476D01*
X87609523Y-106795238D01*
X87704761Y-106700000D01*
X87847619Y-106652380D01*
X87942857Y-106652380D01*
X88085714Y-106700000D01*
X88133333Y-106747619D01*
X88466666Y-106652380D02*
X89133333Y-106652380D01*
X88704761Y-107652380D01*
G04 #@! TO.C,C8*
X80933333Y-112137142D02*
X80885714Y-112184761D01*
X80742857Y-112232380D01*
X80647619Y-112232380D01*
X80504761Y-112184761D01*
X80409523Y-112089523D01*
X80361904Y-111994285D01*
X80314285Y-111803809D01*
X80314285Y-111660952D01*
X80361904Y-111470476D01*
X80409523Y-111375238D01*
X80504761Y-111280000D01*
X80647619Y-111232380D01*
X80742857Y-111232380D01*
X80885714Y-111280000D01*
X80933333Y-111327619D01*
X81504761Y-111660952D02*
X81409523Y-111613333D01*
X81361904Y-111565714D01*
X81314285Y-111470476D01*
X81314285Y-111422857D01*
X81361904Y-111327619D01*
X81409523Y-111280000D01*
X81504761Y-111232380D01*
X81695238Y-111232380D01*
X81790476Y-111280000D01*
X81838095Y-111327619D01*
X81885714Y-111422857D01*
X81885714Y-111470476D01*
X81838095Y-111565714D01*
X81790476Y-111613333D01*
X81695238Y-111660952D01*
X81504761Y-111660952D01*
X81409523Y-111708571D01*
X81361904Y-111756190D01*
X81314285Y-111851428D01*
X81314285Y-112041904D01*
X81361904Y-112137142D01*
X81409523Y-112184761D01*
X81504761Y-112232380D01*
X81695238Y-112232380D01*
X81790476Y-112184761D01*
X81838095Y-112137142D01*
X81885714Y-112041904D01*
X81885714Y-111851428D01*
X81838095Y-111756190D01*
X81790476Y-111708571D01*
X81695238Y-111660952D01*
G04 #@! TO.C,C9*
X91033333Y-74857142D02*
X90985714Y-74904761D01*
X90842857Y-74952380D01*
X90747619Y-74952380D01*
X90604761Y-74904761D01*
X90509523Y-74809523D01*
X90461904Y-74714285D01*
X90414285Y-74523809D01*
X90414285Y-74380952D01*
X90461904Y-74190476D01*
X90509523Y-74095238D01*
X90604761Y-74000000D01*
X90747619Y-73952380D01*
X90842857Y-73952380D01*
X90985714Y-74000000D01*
X91033333Y-74047619D01*
X91509523Y-74952380D02*
X91700000Y-74952380D01*
X91795238Y-74904761D01*
X91842857Y-74857142D01*
X91938095Y-74714285D01*
X91985714Y-74523809D01*
X91985714Y-74142857D01*
X91938095Y-74047619D01*
X91890476Y-74000000D01*
X91795238Y-73952380D01*
X91604761Y-73952380D01*
X91509523Y-74000000D01*
X91461904Y-74047619D01*
X91414285Y-74142857D01*
X91414285Y-74380952D01*
X91461904Y-74476190D01*
X91509523Y-74523809D01*
X91604761Y-74571428D01*
X91795238Y-74571428D01*
X91890476Y-74523809D01*
X91938095Y-74476190D01*
X91985714Y-74380952D01*
G04 #@! TO.C,C10*
X98457142Y-74857142D02*
X98409523Y-74904761D01*
X98266666Y-74952380D01*
X98171428Y-74952380D01*
X98028571Y-74904761D01*
X97933333Y-74809523D01*
X97885714Y-74714285D01*
X97838095Y-74523809D01*
X97838095Y-74380952D01*
X97885714Y-74190476D01*
X97933333Y-74095238D01*
X98028571Y-74000000D01*
X98171428Y-73952380D01*
X98266666Y-73952380D01*
X98409523Y-74000000D01*
X98457142Y-74047619D01*
X99409523Y-74952380D02*
X98838095Y-74952380D01*
X99123809Y-74952380D02*
X99123809Y-73952380D01*
X99028571Y-74095238D01*
X98933333Y-74190476D01*
X98838095Y-74238095D01*
X100028571Y-73952380D02*
X100123809Y-73952380D01*
X100219047Y-74000000D01*
X100266666Y-74047619D01*
X100314285Y-74142857D01*
X100361904Y-74333333D01*
X100361904Y-74571428D01*
X100314285Y-74761904D01*
X100266666Y-74857142D01*
X100219047Y-74904761D01*
X100123809Y-74952380D01*
X100028571Y-74952380D01*
X99933333Y-74904761D01*
X99885714Y-74857142D01*
X99838095Y-74761904D01*
X99790476Y-74571428D01*
X99790476Y-74333333D01*
X99838095Y-74142857D01*
X99885714Y-74047619D01*
X99933333Y-74000000D01*
X100028571Y-73952380D01*
G04 #@! TO.C,C11*
X71757142Y-112557142D02*
X71709523Y-112604761D01*
X71566666Y-112652380D01*
X71471428Y-112652380D01*
X71328571Y-112604761D01*
X71233333Y-112509523D01*
X71185714Y-112414285D01*
X71138095Y-112223809D01*
X71138095Y-112080952D01*
X71185714Y-111890476D01*
X71233333Y-111795238D01*
X71328571Y-111700000D01*
X71471428Y-111652380D01*
X71566666Y-111652380D01*
X71709523Y-111700000D01*
X71757142Y-111747619D01*
X72709523Y-112652380D02*
X72138095Y-112652380D01*
X72423809Y-112652380D02*
X72423809Y-111652380D01*
X72328571Y-111795238D01*
X72233333Y-111890476D01*
X72138095Y-111938095D01*
X73661904Y-112652380D02*
X73090476Y-112652380D01*
X73376190Y-112652380D02*
X73376190Y-111652380D01*
X73280952Y-111795238D01*
X73185714Y-111890476D01*
X73090476Y-111938095D01*
G04 #@! TO.C,C12*
X63752710Y-106757142D02*
X63705091Y-106804761D01*
X63562234Y-106852380D01*
X63466996Y-106852380D01*
X63324139Y-106804761D01*
X63228901Y-106709523D01*
X63181282Y-106614285D01*
X63133663Y-106423809D01*
X63133663Y-106280952D01*
X63181282Y-106090476D01*
X63228901Y-105995238D01*
X63324139Y-105900000D01*
X63466996Y-105852380D01*
X63562234Y-105852380D01*
X63705091Y-105900000D01*
X63752710Y-105947619D01*
X64705091Y-106852380D02*
X64133663Y-106852380D01*
X64419377Y-106852380D02*
X64419377Y-105852380D01*
X64324139Y-105995238D01*
X64228901Y-106090476D01*
X64133663Y-106138095D01*
X65086044Y-105947619D02*
X65133663Y-105900000D01*
X65228901Y-105852380D01*
X65466996Y-105852380D01*
X65562234Y-105900000D01*
X65609853Y-105947619D01*
X65657472Y-106042857D01*
X65657472Y-106138095D01*
X65609853Y-106280952D01*
X65038425Y-106852380D01*
X65657472Y-106852380D01*
G04 #@! TO.C,C13*
X55657142Y-106757142D02*
X55609523Y-106804761D01*
X55466666Y-106852380D01*
X55371428Y-106852380D01*
X55228571Y-106804761D01*
X55133333Y-106709523D01*
X55085714Y-106614285D01*
X55038095Y-106423809D01*
X55038095Y-106280952D01*
X55085714Y-106090476D01*
X55133333Y-105995238D01*
X55228571Y-105900000D01*
X55371428Y-105852380D01*
X55466666Y-105852380D01*
X55609523Y-105900000D01*
X55657142Y-105947619D01*
X56609523Y-106852380D02*
X56038095Y-106852380D01*
X56323809Y-106852380D02*
X56323809Y-105852380D01*
X56228571Y-105995238D01*
X56133333Y-106090476D01*
X56038095Y-106138095D01*
X56942857Y-105852380D02*
X57561904Y-105852380D01*
X57228571Y-106233333D01*
X57371428Y-106233333D01*
X57466666Y-106280952D01*
X57514285Y-106328571D01*
X57561904Y-106423809D01*
X57561904Y-106661904D01*
X57514285Y-106757142D01*
X57466666Y-106804761D01*
X57371428Y-106852380D01*
X57085714Y-106852380D01*
X56990476Y-106804761D01*
X56942857Y-106757142D01*
G04 #@! TO.C,C14*
X71412141Y-115822143D02*
X71364522Y-115869762D01*
X71221665Y-115917381D01*
X71126427Y-115917381D01*
X70983570Y-115869762D01*
X70888332Y-115774524D01*
X70840713Y-115679286D01*
X70793094Y-115488810D01*
X70793094Y-115345953D01*
X70840713Y-115155477D01*
X70888332Y-115060239D01*
X70983570Y-114965001D01*
X71126427Y-114917381D01*
X71221665Y-114917381D01*
X71364522Y-114965001D01*
X71412141Y-115012620D01*
X72364522Y-115917381D02*
X71793094Y-115917381D01*
X72078808Y-115917381D02*
X72078808Y-114917381D01*
X71983570Y-115060239D01*
X71888332Y-115155477D01*
X71793094Y-115203096D01*
X73221665Y-115250715D02*
X73221665Y-115917381D01*
X72983570Y-114869762D02*
X72745475Y-115584048D01*
X73364522Y-115584048D01*
G04 #@! TO.C,C15*
X68457142Y-96357142D02*
X68409523Y-96404761D01*
X68266666Y-96452380D01*
X68171428Y-96452380D01*
X68028571Y-96404761D01*
X67933333Y-96309523D01*
X67885714Y-96214285D01*
X67838095Y-96023809D01*
X67838095Y-95880952D01*
X67885714Y-95690476D01*
X67933333Y-95595238D01*
X68028571Y-95500000D01*
X68171428Y-95452380D01*
X68266666Y-95452380D01*
X68409523Y-95500000D01*
X68457142Y-95547619D01*
X69409523Y-96452380D02*
X68838095Y-96452380D01*
X69123809Y-96452380D02*
X69123809Y-95452380D01*
X69028571Y-95595238D01*
X68933333Y-95690476D01*
X68838095Y-95738095D01*
X70314285Y-95452380D02*
X69838095Y-95452380D01*
X69790476Y-95928571D01*
X69838095Y-95880952D01*
X69933333Y-95833333D01*
X70171428Y-95833333D01*
X70266666Y-95880952D01*
X70314285Y-95928571D01*
X70361904Y-96023809D01*
X70361904Y-96261904D01*
X70314285Y-96357142D01*
X70266666Y-96404761D01*
X70171428Y-96452380D01*
X69933333Y-96452380D01*
X69838095Y-96404761D01*
X69790476Y-96357142D01*
G04 #@! TO.C,C16*
X75357142Y-106857142D02*
X75309523Y-106904761D01*
X75166666Y-106952380D01*
X75071428Y-106952380D01*
X74928571Y-106904761D01*
X74833333Y-106809523D01*
X74785714Y-106714285D01*
X74738095Y-106523809D01*
X74738095Y-106380952D01*
X74785714Y-106190476D01*
X74833333Y-106095238D01*
X74928571Y-106000000D01*
X75071428Y-105952380D01*
X75166666Y-105952380D01*
X75309523Y-106000000D01*
X75357142Y-106047619D01*
X76309523Y-106952380D02*
X75738095Y-106952380D01*
X76023809Y-106952380D02*
X76023809Y-105952380D01*
X75928571Y-106095238D01*
X75833333Y-106190476D01*
X75738095Y-106238095D01*
X77166666Y-105952380D02*
X76976190Y-105952380D01*
X76880952Y-106000000D01*
X76833333Y-106047619D01*
X76738095Y-106190476D01*
X76690476Y-106380952D01*
X76690476Y-106761904D01*
X76738095Y-106857142D01*
X76785714Y-106904761D01*
X76880952Y-106952380D01*
X77071428Y-106952380D01*
X77166666Y-106904761D01*
X77214285Y-106857142D01*
X77261904Y-106761904D01*
X77261904Y-106523809D01*
X77214285Y-106428571D01*
X77166666Y-106380952D01*
X77071428Y-106333333D01*
X76880952Y-106333333D01*
X76785714Y-106380952D01*
X76738095Y-106428571D01*
X76690476Y-106523809D01*
G04 #@! TO.C,C17*
X78457142Y-95357142D02*
X78409523Y-95404761D01*
X78266666Y-95452380D01*
X78171428Y-95452380D01*
X78028571Y-95404761D01*
X77933333Y-95309523D01*
X77885714Y-95214285D01*
X77838095Y-95023809D01*
X77838095Y-94880952D01*
X77885714Y-94690476D01*
X77933333Y-94595238D01*
X78028571Y-94500000D01*
X78171428Y-94452380D01*
X78266666Y-94452380D01*
X78409523Y-94500000D01*
X78457142Y-94547619D01*
X79409523Y-95452380D02*
X78838095Y-95452380D01*
X79123809Y-95452380D02*
X79123809Y-94452380D01*
X79028571Y-94595238D01*
X78933333Y-94690476D01*
X78838095Y-94738095D01*
X79742857Y-94452380D02*
X80409523Y-94452380D01*
X79980952Y-95452380D01*
G04 #@! TO.C,C18*
X78457142Y-100357142D02*
X78409523Y-100404761D01*
X78266666Y-100452380D01*
X78171428Y-100452380D01*
X78028571Y-100404761D01*
X77933333Y-100309523D01*
X77885714Y-100214285D01*
X77838095Y-100023809D01*
X77838095Y-99880952D01*
X77885714Y-99690476D01*
X77933333Y-99595238D01*
X78028571Y-99500000D01*
X78171428Y-99452380D01*
X78266666Y-99452380D01*
X78409523Y-99500000D01*
X78457142Y-99547619D01*
X79409523Y-100452380D02*
X78838095Y-100452380D01*
X79123809Y-100452380D02*
X79123809Y-99452380D01*
X79028571Y-99595238D01*
X78933333Y-99690476D01*
X78838095Y-99738095D01*
X79980952Y-99880952D02*
X79885714Y-99833333D01*
X79838095Y-99785714D01*
X79790476Y-99690476D01*
X79790476Y-99642857D01*
X79838095Y-99547619D01*
X79885714Y-99500000D01*
X79980952Y-99452380D01*
X80171428Y-99452380D01*
X80266666Y-99500000D01*
X80314285Y-99547619D01*
X80361904Y-99642857D01*
X80361904Y-99690476D01*
X80314285Y-99785714D01*
X80266666Y-99833333D01*
X80171428Y-99880952D01*
X79980952Y-99880952D01*
X79885714Y-99928571D01*
X79838095Y-99976190D01*
X79790476Y-100071428D01*
X79790476Y-100261904D01*
X79838095Y-100357142D01*
X79885714Y-100404761D01*
X79980952Y-100452380D01*
X80171428Y-100452380D01*
X80266666Y-100404761D01*
X80314285Y-100357142D01*
X80361904Y-100261904D01*
X80361904Y-100071428D01*
X80314285Y-99976190D01*
X80266666Y-99928571D01*
X80171428Y-99880952D01*
G04 #@! TO.C,C19*
X81657142Y-107537142D02*
X81609523Y-107584761D01*
X81466666Y-107632380D01*
X81371428Y-107632380D01*
X81228571Y-107584761D01*
X81133333Y-107489523D01*
X81085714Y-107394285D01*
X81038095Y-107203809D01*
X81038095Y-107060952D01*
X81085714Y-106870476D01*
X81133333Y-106775238D01*
X81228571Y-106680000D01*
X81371428Y-106632380D01*
X81466666Y-106632380D01*
X81609523Y-106680000D01*
X81657142Y-106727619D01*
X82609523Y-107632380D02*
X82038095Y-107632380D01*
X82323809Y-107632380D02*
X82323809Y-106632380D01*
X82228571Y-106775238D01*
X82133333Y-106870476D01*
X82038095Y-106918095D01*
X83085714Y-107632380D02*
X83276190Y-107632380D01*
X83371428Y-107584761D01*
X83419047Y-107537142D01*
X83514285Y-107394285D01*
X83561904Y-107203809D01*
X83561904Y-106822857D01*
X83514285Y-106727619D01*
X83466666Y-106680000D01*
X83371428Y-106632380D01*
X83180952Y-106632380D01*
X83085714Y-106680000D01*
X83038095Y-106727619D01*
X82990476Y-106822857D01*
X82990476Y-107060952D01*
X83038095Y-107156190D01*
X83085714Y-107203809D01*
X83180952Y-107251428D01*
X83371428Y-107251428D01*
X83466666Y-107203809D01*
X83514285Y-107156190D01*
X83561904Y-107060952D01*
G04 #@! TO.C,C20*
X97257142Y-99557142D02*
X97209523Y-99604761D01*
X97066666Y-99652380D01*
X96971428Y-99652380D01*
X96828571Y-99604761D01*
X96733333Y-99509523D01*
X96685714Y-99414285D01*
X96638095Y-99223809D01*
X96638095Y-99080952D01*
X96685714Y-98890476D01*
X96733333Y-98795238D01*
X96828571Y-98700000D01*
X96971428Y-98652380D01*
X97066666Y-98652380D01*
X97209523Y-98700000D01*
X97257142Y-98747619D01*
X97638095Y-98747619D02*
X97685714Y-98700000D01*
X97780952Y-98652380D01*
X98019047Y-98652380D01*
X98114285Y-98700000D01*
X98161904Y-98747619D01*
X98209523Y-98842857D01*
X98209523Y-98938095D01*
X98161904Y-99080952D01*
X97590476Y-99652380D01*
X98209523Y-99652380D01*
X98828571Y-98652380D02*
X98923809Y-98652380D01*
X99019047Y-98700000D01*
X99066666Y-98747619D01*
X99114285Y-98842857D01*
X99161904Y-99033333D01*
X99161904Y-99271428D01*
X99114285Y-99461904D01*
X99066666Y-99557142D01*
X99019047Y-99604761D01*
X98923809Y-99652380D01*
X98828571Y-99652380D01*
X98733333Y-99604761D01*
X98685714Y-99557142D01*
X98638095Y-99461904D01*
X98590476Y-99271428D01*
X98590476Y-99033333D01*
X98638095Y-98842857D01*
X98685714Y-98747619D01*
X98733333Y-98700000D01*
X98828571Y-98652380D01*
G04 #@! TO.C,C21*
X93057142Y-102657142D02*
X93009523Y-102704761D01*
X92866666Y-102752380D01*
X92771428Y-102752380D01*
X92628571Y-102704761D01*
X92533333Y-102609523D01*
X92485714Y-102514285D01*
X92438095Y-102323809D01*
X92438095Y-102180952D01*
X92485714Y-101990476D01*
X92533333Y-101895238D01*
X92628571Y-101800000D01*
X92771428Y-101752380D01*
X92866666Y-101752380D01*
X93009523Y-101800000D01*
X93057142Y-101847619D01*
X93438095Y-101847619D02*
X93485714Y-101800000D01*
X93580952Y-101752380D01*
X93819047Y-101752380D01*
X93914285Y-101800000D01*
X93961904Y-101847619D01*
X94009523Y-101942857D01*
X94009523Y-102038095D01*
X93961904Y-102180952D01*
X93390476Y-102752380D01*
X94009523Y-102752380D01*
X94961904Y-102752380D02*
X94390476Y-102752380D01*
X94676190Y-102752380D02*
X94676190Y-101752380D01*
X94580952Y-101895238D01*
X94485714Y-101990476D01*
X94390476Y-102038095D01*
G04 #@! TO.C,C22*
X54557142Y-83557142D02*
X54509523Y-83604761D01*
X54366666Y-83652380D01*
X54271428Y-83652380D01*
X54128571Y-83604761D01*
X54033333Y-83509523D01*
X53985714Y-83414285D01*
X53938095Y-83223809D01*
X53938095Y-83080952D01*
X53985714Y-82890476D01*
X54033333Y-82795238D01*
X54128571Y-82700000D01*
X54271428Y-82652380D01*
X54366666Y-82652380D01*
X54509523Y-82700000D01*
X54557142Y-82747619D01*
X54938095Y-82747619D02*
X54985714Y-82700000D01*
X55080952Y-82652380D01*
X55319047Y-82652380D01*
X55414285Y-82700000D01*
X55461904Y-82747619D01*
X55509523Y-82842857D01*
X55509523Y-82938095D01*
X55461904Y-83080952D01*
X54890476Y-83652380D01*
X55509523Y-83652380D01*
X55890476Y-82747619D02*
X55938095Y-82700000D01*
X56033333Y-82652380D01*
X56271428Y-82652380D01*
X56366666Y-82700000D01*
X56414285Y-82747619D01*
X56461904Y-82842857D01*
X56461904Y-82938095D01*
X56414285Y-83080952D01*
X55842857Y-83652380D01*
X56461904Y-83652380D01*
G04 #@! TO.C,C23*
X64957142Y-99557142D02*
X64909523Y-99604761D01*
X64766666Y-99652380D01*
X64671428Y-99652380D01*
X64528571Y-99604761D01*
X64433333Y-99509523D01*
X64385714Y-99414285D01*
X64338095Y-99223809D01*
X64338095Y-99080952D01*
X64385714Y-98890476D01*
X64433333Y-98795238D01*
X64528571Y-98700000D01*
X64671428Y-98652380D01*
X64766666Y-98652380D01*
X64909523Y-98700000D01*
X64957142Y-98747619D01*
X65338095Y-98747619D02*
X65385714Y-98700000D01*
X65480952Y-98652380D01*
X65719047Y-98652380D01*
X65814285Y-98700000D01*
X65861904Y-98747619D01*
X65909523Y-98842857D01*
X65909523Y-98938095D01*
X65861904Y-99080952D01*
X65290476Y-99652380D01*
X65909523Y-99652380D01*
X66242857Y-98652380D02*
X66861904Y-98652380D01*
X66528571Y-99033333D01*
X66671428Y-99033333D01*
X66766666Y-99080952D01*
X66814285Y-99128571D01*
X66861904Y-99223809D01*
X66861904Y-99461904D01*
X66814285Y-99557142D01*
X66766666Y-99604761D01*
X66671428Y-99652380D01*
X66385714Y-99652380D01*
X66290476Y-99604761D01*
X66242857Y-99557142D01*
G04 #@! TO.C,C24*
X64377972Y-83537139D02*
X64330353Y-83584758D01*
X64187496Y-83632377D01*
X64092258Y-83632377D01*
X63949401Y-83584758D01*
X63854163Y-83489520D01*
X63806544Y-83394282D01*
X63758925Y-83203806D01*
X63758925Y-83060949D01*
X63806544Y-82870473D01*
X63854163Y-82775235D01*
X63949401Y-82679997D01*
X64092258Y-82632377D01*
X64187496Y-82632377D01*
X64330353Y-82679997D01*
X64377972Y-82727616D01*
X64758925Y-82727616D02*
X64806544Y-82679997D01*
X64901782Y-82632377D01*
X65139877Y-82632377D01*
X65235115Y-82679997D01*
X65282734Y-82727616D01*
X65330353Y-82822854D01*
X65330353Y-82918092D01*
X65282734Y-83060949D01*
X64711306Y-83632377D01*
X65330353Y-83632377D01*
X66187496Y-82965711D02*
X66187496Y-83632377D01*
X65949401Y-82584758D02*
X65711306Y-83299044D01*
X66330353Y-83299044D01*
G04 #@! TO.C,C25*
X59457142Y-82157142D02*
X59409523Y-82204761D01*
X59266666Y-82252380D01*
X59171428Y-82252380D01*
X59028571Y-82204761D01*
X58933333Y-82109523D01*
X58885714Y-82014285D01*
X58838095Y-81823809D01*
X58838095Y-81680952D01*
X58885714Y-81490476D01*
X58933333Y-81395238D01*
X59028571Y-81300000D01*
X59171428Y-81252380D01*
X59266666Y-81252380D01*
X59409523Y-81300000D01*
X59457142Y-81347619D01*
X59838095Y-81347619D02*
X59885714Y-81300000D01*
X59980952Y-81252380D01*
X60219047Y-81252380D01*
X60314285Y-81300000D01*
X60361904Y-81347619D01*
X60409523Y-81442857D01*
X60409523Y-81538095D01*
X60361904Y-81680952D01*
X59790476Y-82252380D01*
X60409523Y-82252380D01*
X61314285Y-81252380D02*
X60838095Y-81252380D01*
X60790476Y-81728571D01*
X60838095Y-81680952D01*
X60933333Y-81633333D01*
X61171428Y-81633333D01*
X61266666Y-81680952D01*
X61314285Y-81728571D01*
X61361904Y-81823809D01*
X61361904Y-82061904D01*
X61314285Y-82157142D01*
X61266666Y-82204761D01*
X61171428Y-82252380D01*
X60933333Y-82252380D01*
X60838095Y-82204761D01*
X60790476Y-82157142D01*
G04 #@! TO.C,C26*
X57357142Y-96057142D02*
X57309523Y-96104761D01*
X57166666Y-96152380D01*
X57071428Y-96152380D01*
X56928571Y-96104761D01*
X56833333Y-96009523D01*
X56785714Y-95914285D01*
X56738095Y-95723809D01*
X56738095Y-95580952D01*
X56785714Y-95390476D01*
X56833333Y-95295238D01*
X56928571Y-95200000D01*
X57071428Y-95152380D01*
X57166666Y-95152380D01*
X57309523Y-95200000D01*
X57357142Y-95247619D01*
X57738095Y-95247619D02*
X57785714Y-95200000D01*
X57880952Y-95152380D01*
X58119047Y-95152380D01*
X58214285Y-95200000D01*
X58261904Y-95247619D01*
X58309523Y-95342857D01*
X58309523Y-95438095D01*
X58261904Y-95580952D01*
X57690476Y-96152380D01*
X58309523Y-96152380D01*
X59166666Y-95152380D02*
X58976190Y-95152380D01*
X58880952Y-95200000D01*
X58833333Y-95247619D01*
X58738095Y-95390476D01*
X58690476Y-95580952D01*
X58690476Y-95961904D01*
X58738095Y-96057142D01*
X58785714Y-96104761D01*
X58880952Y-96152380D01*
X59071428Y-96152380D01*
X59166666Y-96104761D01*
X59214285Y-96057142D01*
X59261904Y-95961904D01*
X59261904Y-95723809D01*
X59214285Y-95628571D01*
X59166666Y-95580952D01*
X59071428Y-95533333D01*
X58880952Y-95533333D01*
X58785714Y-95580952D01*
X58738095Y-95628571D01*
X58690476Y-95723809D01*
G04 #@! TO.C,C27*
X63557142Y-71857142D02*
X63509523Y-71904761D01*
X63366666Y-71952380D01*
X63271428Y-71952380D01*
X63128571Y-71904761D01*
X63033333Y-71809523D01*
X62985714Y-71714285D01*
X62938095Y-71523809D01*
X62938095Y-71380952D01*
X62985714Y-71190476D01*
X63033333Y-71095238D01*
X63128571Y-71000000D01*
X63271428Y-70952380D01*
X63366666Y-70952380D01*
X63509523Y-71000000D01*
X63557142Y-71047619D01*
X63938095Y-71047619D02*
X63985714Y-71000000D01*
X64080952Y-70952380D01*
X64319047Y-70952380D01*
X64414285Y-71000000D01*
X64461904Y-71047619D01*
X64509523Y-71142857D01*
X64509523Y-71238095D01*
X64461904Y-71380952D01*
X63890476Y-71952380D01*
X64509523Y-71952380D01*
X64842857Y-70952380D02*
X65509523Y-70952380D01*
X65080952Y-71952380D01*
G04 #@! TO.C,C29*
X54657142Y-73657142D02*
X54609523Y-73704761D01*
X54466666Y-73752380D01*
X54371428Y-73752380D01*
X54228571Y-73704761D01*
X54133333Y-73609523D01*
X54085714Y-73514285D01*
X54038095Y-73323809D01*
X54038095Y-73180952D01*
X54085714Y-72990476D01*
X54133333Y-72895238D01*
X54228571Y-72800000D01*
X54371428Y-72752380D01*
X54466666Y-72752380D01*
X54609523Y-72800000D01*
X54657142Y-72847619D01*
X55038095Y-72847619D02*
X55085714Y-72800000D01*
X55180952Y-72752380D01*
X55419047Y-72752380D01*
X55514285Y-72800000D01*
X55561904Y-72847619D01*
X55609523Y-72942857D01*
X55609523Y-73038095D01*
X55561904Y-73180952D01*
X54990476Y-73752380D01*
X55609523Y-73752380D01*
X56085714Y-73752380D02*
X56276190Y-73752380D01*
X56371428Y-73704761D01*
X56419047Y-73657142D01*
X56514285Y-73514285D01*
X56561904Y-73323809D01*
X56561904Y-72942857D01*
X56514285Y-72847619D01*
X56466666Y-72800000D01*
X56371428Y-72752380D01*
X56180952Y-72752380D01*
X56085714Y-72800000D01*
X56038095Y-72847619D01*
X55990476Y-72942857D01*
X55990476Y-73180952D01*
X56038095Y-73276190D01*
X56085714Y-73323809D01*
X56180952Y-73371428D01*
X56371428Y-73371428D01*
X56466666Y-73323809D01*
X56514285Y-73276190D01*
X56561904Y-73180952D01*
G04 #@! TO.C,D1*
X94161904Y-119552380D02*
X94161904Y-118552380D01*
X94400000Y-118552380D01*
X94542857Y-118600000D01*
X94638095Y-118695238D01*
X94685714Y-118790476D01*
X94733333Y-118980952D01*
X94733333Y-119123809D01*
X94685714Y-119314285D01*
X94638095Y-119409523D01*
X94542857Y-119504761D01*
X94400000Y-119552380D01*
X94161904Y-119552380D01*
X95685714Y-119552380D02*
X95114285Y-119552380D01*
X95400000Y-119552380D02*
X95400000Y-118552380D01*
X95304761Y-118695238D01*
X95209523Y-118790476D01*
X95114285Y-118838095D01*
G04 #@! TO.C,D2*
X93061904Y-107852380D02*
X93061904Y-106852380D01*
X93300000Y-106852380D01*
X93442857Y-106900000D01*
X93538095Y-106995238D01*
X93585714Y-107090476D01*
X93633333Y-107280952D01*
X93633333Y-107423809D01*
X93585714Y-107614285D01*
X93538095Y-107709523D01*
X93442857Y-107804761D01*
X93300000Y-107852380D01*
X93061904Y-107852380D01*
X94014285Y-106947619D02*
X94061904Y-106900000D01*
X94157142Y-106852380D01*
X94395238Y-106852380D01*
X94490476Y-106900000D01*
X94538095Y-106947619D01*
X94585714Y-107042857D01*
X94585714Y-107138095D01*
X94538095Y-107280952D01*
X93966666Y-107852380D01*
X94585714Y-107852380D01*
G04 #@! TO.C,K1*
X90483333Y-61016666D02*
X90483333Y-60316666D01*
X90883333Y-61016666D02*
X90583333Y-60616666D01*
X90883333Y-60316666D02*
X90483333Y-60716666D01*
X91550000Y-61016666D02*
X91150000Y-61016666D01*
X91350000Y-61016666D02*
X91350000Y-60316666D01*
X91283333Y-60416666D01*
X91216666Y-60483333D01*
X91150000Y-60516666D01*
G04 #@! TO.C,K2*
X77083333Y-71916666D02*
X77083333Y-71216666D01*
X77483333Y-71916666D02*
X77183333Y-71516666D01*
X77483333Y-71216666D02*
X77083333Y-71616666D01*
X77750000Y-71283333D02*
X77783333Y-71250000D01*
X77850000Y-71216666D01*
X78016666Y-71216666D01*
X78083333Y-71250000D01*
X78116666Y-71283333D01*
X78150000Y-71350000D01*
X78150000Y-71416666D01*
X78116666Y-71516666D01*
X77716666Y-71916666D01*
X78150000Y-71916666D01*
G04 #@! TO.C,K3*
X77183333Y-65816666D02*
X77183333Y-65116666D01*
X77583333Y-65816666D02*
X77283333Y-65416666D01*
X77583333Y-65116666D02*
X77183333Y-65516666D01*
X77816666Y-65116666D02*
X78250000Y-65116666D01*
X78016666Y-65383333D01*
X78116666Y-65383333D01*
X78183333Y-65416666D01*
X78216666Y-65450000D01*
X78250000Y-65516666D01*
X78250000Y-65683333D01*
X78216666Y-65750000D01*
X78183333Y-65783333D01*
X78116666Y-65816666D01*
X77916666Y-65816666D01*
X77850000Y-65783333D01*
X77816666Y-65750000D01*
G04 #@! TO.C,K4*
X77083333Y-77916666D02*
X77083333Y-77216666D01*
X77483333Y-77916666D02*
X77183333Y-77516666D01*
X77483333Y-77216666D02*
X77083333Y-77616666D01*
X78083333Y-77450000D02*
X78083333Y-77916666D01*
X77916666Y-77183333D02*
X77750000Y-77683333D01*
X78183333Y-77683333D01*
G04 #@! TO.C,P1*
X76961904Y-87052380D02*
X76961904Y-86052380D01*
X77342857Y-86052380D01*
X77438095Y-86100000D01*
X77485714Y-86147619D01*
X77533333Y-86242857D01*
X77533333Y-86385714D01*
X77485714Y-86480952D01*
X77438095Y-86528571D01*
X77342857Y-86576190D01*
X76961904Y-86576190D01*
X78485714Y-87052380D02*
X77914285Y-87052380D01*
X78200000Y-87052380D02*
X78200000Y-86052380D01*
X78104761Y-86195238D01*
X78009523Y-86290476D01*
X77914285Y-86338095D01*
G04 #@! TO.C,P3*
X95761904Y-69152380D02*
X95761904Y-68152380D01*
X96142857Y-68152380D01*
X96238095Y-68200000D01*
X96285714Y-68247619D01*
X96333333Y-68342857D01*
X96333333Y-68485714D01*
X96285714Y-68580952D01*
X96238095Y-68628571D01*
X96142857Y-68676190D01*
X95761904Y-68676190D01*
X96666666Y-68152380D02*
X97285714Y-68152380D01*
X96952380Y-68533333D01*
X97095238Y-68533333D01*
X97190476Y-68580952D01*
X97238095Y-68628571D01*
X97285714Y-68723809D01*
X97285714Y-68961904D01*
X97238095Y-69057142D01*
X97190476Y-69104761D01*
X97095238Y-69152380D01*
X96809523Y-69152380D01*
X96714285Y-69104761D01*
X96666666Y-69057142D01*
G04 #@! TO.C,R1*
X56152668Y-103461422D02*
X55819335Y-102985232D01*
X55581239Y-103461422D02*
X55581239Y-102461422D01*
X55962192Y-102461422D01*
X56057430Y-102509042D01*
X56105049Y-102556661D01*
X56152668Y-102651899D01*
X56152668Y-102794756D01*
X56105049Y-102889994D01*
X56057430Y-102937613D01*
X55962192Y-102985232D01*
X55581239Y-102985232D01*
X57105049Y-103461422D02*
X56533620Y-103461422D01*
X56819335Y-103461422D02*
X56819335Y-102461422D01*
X56724096Y-102604280D01*
X56628858Y-102699518D01*
X56533620Y-102747137D01*
G04 #@! TO.C,R2*
X64133333Y-103219462D02*
X63800000Y-102743272D01*
X63561904Y-103219462D02*
X63561904Y-102219462D01*
X63942857Y-102219462D01*
X64038095Y-102267082D01*
X64085714Y-102314701D01*
X64133333Y-102409939D01*
X64133333Y-102552796D01*
X64085714Y-102648034D01*
X64038095Y-102695653D01*
X63942857Y-102743272D01*
X63561904Y-102743272D01*
X64514285Y-102314701D02*
X64561904Y-102267082D01*
X64657142Y-102219462D01*
X64895238Y-102219462D01*
X64990476Y-102267082D01*
X65038095Y-102314701D01*
X65085714Y-102409939D01*
X65085714Y-102505177D01*
X65038095Y-102648034D01*
X64466666Y-103219462D01*
X65085714Y-103219462D01*
G04 #@! TO.C,R3*
X68933333Y-91652380D02*
X68600000Y-91176190D01*
X68361904Y-91652380D02*
X68361904Y-90652380D01*
X68742857Y-90652380D01*
X68838095Y-90700000D01*
X68885714Y-90747619D01*
X68933333Y-90842857D01*
X68933333Y-90985714D01*
X68885714Y-91080952D01*
X68838095Y-91128571D01*
X68742857Y-91176190D01*
X68361904Y-91176190D01*
X69266666Y-90652380D02*
X69885714Y-90652380D01*
X69552380Y-91033333D01*
X69695238Y-91033333D01*
X69790476Y-91080952D01*
X69838095Y-91128571D01*
X69885714Y-91223809D01*
X69885714Y-91461904D01*
X69838095Y-91557142D01*
X69790476Y-91604761D01*
X69695238Y-91652380D01*
X69409523Y-91652380D01*
X69314285Y-91604761D01*
X69266666Y-91557142D01*
G04 #@! TO.C,R4*
X64804163Y-80282377D02*
X64470830Y-79806187D01*
X64232734Y-80282377D02*
X64232734Y-79282377D01*
X64613687Y-79282377D01*
X64708925Y-79329997D01*
X64756544Y-79377616D01*
X64804163Y-79472854D01*
X64804163Y-79615711D01*
X64756544Y-79710949D01*
X64708925Y-79758568D01*
X64613687Y-79806187D01*
X64232734Y-79806187D01*
X65661306Y-79615711D02*
X65661306Y-80282377D01*
X65423210Y-79234758D02*
X65185115Y-79949044D01*
X65804163Y-79949044D01*
G04 #@! TO.C,R5*
X55033333Y-80302380D02*
X54700000Y-79826190D01*
X54461904Y-80302380D02*
X54461904Y-79302380D01*
X54842857Y-79302380D01*
X54938095Y-79350000D01*
X54985714Y-79397619D01*
X55033333Y-79492857D01*
X55033333Y-79635714D01*
X54985714Y-79730952D01*
X54938095Y-79778571D01*
X54842857Y-79826190D01*
X54461904Y-79826190D01*
X55938095Y-79302380D02*
X55461904Y-79302380D01*
X55414285Y-79778571D01*
X55461904Y-79730952D01*
X55557142Y-79683333D01*
X55795238Y-79683333D01*
X55890476Y-79730952D01*
X55938095Y-79778571D01*
X55985714Y-79873809D01*
X55985714Y-80111904D01*
X55938095Y-80207142D01*
X55890476Y-80254761D01*
X55795238Y-80302380D01*
X55557142Y-80302380D01*
X55461904Y-80254761D01*
X55414285Y-80207142D01*
G04 #@! TO.C,R6*
X54233333Y-88652380D02*
X53900000Y-88176190D01*
X53661904Y-88652380D02*
X53661904Y-87652380D01*
X54042857Y-87652380D01*
X54138095Y-87700000D01*
X54185714Y-87747619D01*
X54233333Y-87842857D01*
X54233333Y-87985714D01*
X54185714Y-88080952D01*
X54138095Y-88128571D01*
X54042857Y-88176190D01*
X53661904Y-88176190D01*
X55090476Y-87652380D02*
X54900000Y-87652380D01*
X54804761Y-87700000D01*
X54757142Y-87747619D01*
X54661904Y-87890476D01*
X54614285Y-88080952D01*
X54614285Y-88461904D01*
X54661904Y-88557142D01*
X54709523Y-88604761D01*
X54804761Y-88652380D01*
X54995238Y-88652380D01*
X55090476Y-88604761D01*
X55138095Y-88557142D01*
X55185714Y-88461904D01*
X55185714Y-88223809D01*
X55138095Y-88128571D01*
X55090476Y-88080952D01*
X54995238Y-88033333D01*
X54804761Y-88033333D01*
X54709523Y-88080952D01*
X54661904Y-88128571D01*
X54614285Y-88223809D01*
G04 #@! TO.C,R7*
X54133333Y-93852380D02*
X53800000Y-93376190D01*
X53561904Y-93852380D02*
X53561904Y-92852380D01*
X53942857Y-92852380D01*
X54038095Y-92900000D01*
X54085714Y-92947619D01*
X54133333Y-93042857D01*
X54133333Y-93185714D01*
X54085714Y-93280952D01*
X54038095Y-93328571D01*
X53942857Y-93376190D01*
X53561904Y-93376190D01*
X54466666Y-92852380D02*
X55133333Y-92852380D01*
X54704761Y-93852380D01*
G04 #@! TO.C,R8*
X61933333Y-99652380D02*
X61600000Y-99176190D01*
X61361904Y-99652380D02*
X61361904Y-98652380D01*
X61742857Y-98652380D01*
X61838095Y-98700000D01*
X61885714Y-98747619D01*
X61933333Y-98842857D01*
X61933333Y-98985714D01*
X61885714Y-99080952D01*
X61838095Y-99128571D01*
X61742857Y-99176190D01*
X61361904Y-99176190D01*
X62504761Y-99080952D02*
X62409523Y-99033333D01*
X62361904Y-98985714D01*
X62314285Y-98890476D01*
X62314285Y-98842857D01*
X62361904Y-98747619D01*
X62409523Y-98700000D01*
X62504761Y-98652380D01*
X62695238Y-98652380D01*
X62790476Y-98700000D01*
X62838095Y-98747619D01*
X62885714Y-98842857D01*
X62885714Y-98890476D01*
X62838095Y-98985714D01*
X62790476Y-99033333D01*
X62695238Y-99080952D01*
X62504761Y-99080952D01*
X62409523Y-99128571D01*
X62361904Y-99176190D01*
X62314285Y-99271428D01*
X62314285Y-99461904D01*
X62361904Y-99557142D01*
X62409523Y-99604761D01*
X62504761Y-99652380D01*
X62695238Y-99652380D01*
X62790476Y-99604761D01*
X62838095Y-99557142D01*
X62885714Y-99461904D01*
X62885714Y-99271428D01*
X62838095Y-99176190D01*
X62790476Y-99128571D01*
X62695238Y-99080952D01*
G04 #@! TO.C,R9*
X57833333Y-99552380D02*
X57500000Y-99076190D01*
X57261904Y-99552380D02*
X57261904Y-98552380D01*
X57642857Y-98552380D01*
X57738095Y-98600000D01*
X57785714Y-98647619D01*
X57833333Y-98742857D01*
X57833333Y-98885714D01*
X57785714Y-98980952D01*
X57738095Y-99028571D01*
X57642857Y-99076190D01*
X57261904Y-99076190D01*
X58309523Y-99552380D02*
X58500000Y-99552380D01*
X58595238Y-99504761D01*
X58642857Y-99457142D01*
X58738095Y-99314285D01*
X58785714Y-99123809D01*
X58785714Y-98742857D01*
X58738095Y-98647619D01*
X58690476Y-98600000D01*
X58595238Y-98552380D01*
X58404761Y-98552380D01*
X58309523Y-98600000D01*
X58261904Y-98647619D01*
X58214285Y-98742857D01*
X58214285Y-98980952D01*
X58261904Y-99076190D01*
X58309523Y-99123809D01*
X58404761Y-99171428D01*
X58595238Y-99171428D01*
X58690476Y-99123809D01*
X58738095Y-99076190D01*
X58785714Y-98980952D01*
G04 #@! TO.C,R10*
X61657142Y-56152380D02*
X61323809Y-55676190D01*
X61085714Y-56152380D02*
X61085714Y-55152380D01*
X61466666Y-55152380D01*
X61561904Y-55200000D01*
X61609523Y-55247619D01*
X61657142Y-55342857D01*
X61657142Y-55485714D01*
X61609523Y-55580952D01*
X61561904Y-55628571D01*
X61466666Y-55676190D01*
X61085714Y-55676190D01*
X62609523Y-56152380D02*
X62038095Y-56152380D01*
X62323809Y-56152380D02*
X62323809Y-55152380D01*
X62228571Y-55295238D01*
X62133333Y-55390476D01*
X62038095Y-55438095D01*
X63228571Y-55152380D02*
X63323809Y-55152380D01*
X63419047Y-55200000D01*
X63466666Y-55247619D01*
X63514285Y-55342857D01*
X63561904Y-55533333D01*
X63561904Y-55771428D01*
X63514285Y-55961904D01*
X63466666Y-56057142D01*
X63419047Y-56104761D01*
X63323809Y-56152380D01*
X63228571Y-56152380D01*
X63133333Y-56104761D01*
X63085714Y-56057142D01*
X63038095Y-55961904D01*
X62990476Y-55771428D01*
X62990476Y-55533333D01*
X63038095Y-55342857D01*
X63085714Y-55247619D01*
X63133333Y-55200000D01*
X63228571Y-55152380D01*
G04 #@! TO.C,R11*
X64957142Y-56152380D02*
X64623809Y-55676190D01*
X64385714Y-56152380D02*
X64385714Y-55152380D01*
X64766666Y-55152380D01*
X64861904Y-55200000D01*
X64909523Y-55247619D01*
X64957142Y-55342857D01*
X64957142Y-55485714D01*
X64909523Y-55580952D01*
X64861904Y-55628571D01*
X64766666Y-55676190D01*
X64385714Y-55676190D01*
X65909523Y-56152380D02*
X65338095Y-56152380D01*
X65623809Y-56152380D02*
X65623809Y-55152380D01*
X65528571Y-55295238D01*
X65433333Y-55390476D01*
X65338095Y-55438095D01*
X66861904Y-56152380D02*
X66290476Y-56152380D01*
X66576190Y-56152380D02*
X66576190Y-55152380D01*
X66480952Y-55295238D01*
X66385714Y-55390476D01*
X66290476Y-55438095D01*
G04 #@! TO.C,R12*
X58257142Y-56152380D02*
X57923809Y-55676190D01*
X57685714Y-56152380D02*
X57685714Y-55152380D01*
X58066666Y-55152380D01*
X58161904Y-55200000D01*
X58209523Y-55247619D01*
X58257142Y-55342857D01*
X58257142Y-55485714D01*
X58209523Y-55580952D01*
X58161904Y-55628571D01*
X58066666Y-55676190D01*
X57685714Y-55676190D01*
X59209523Y-56152380D02*
X58638095Y-56152380D01*
X58923809Y-56152380D02*
X58923809Y-55152380D01*
X58828571Y-55295238D01*
X58733333Y-55390476D01*
X58638095Y-55438095D01*
X59590476Y-55247619D02*
X59638095Y-55200000D01*
X59733333Y-55152380D01*
X59971428Y-55152380D01*
X60066666Y-55200000D01*
X60114285Y-55247619D01*
X60161904Y-55342857D01*
X60161904Y-55438095D01*
X60114285Y-55580952D01*
X59542857Y-56152380D01*
X60161904Y-56152380D01*
G04 #@! TO.C,R13*
X54667472Y-58029801D02*
X54334139Y-57553611D01*
X54096044Y-58029801D02*
X54096044Y-57029801D01*
X54476996Y-57029801D01*
X54572234Y-57077421D01*
X54619853Y-57125040D01*
X54667472Y-57220278D01*
X54667472Y-57363135D01*
X54619853Y-57458373D01*
X54572234Y-57505992D01*
X54476996Y-57553611D01*
X54096044Y-57553611D01*
X55619853Y-58029801D02*
X55048425Y-58029801D01*
X55334139Y-58029801D02*
X55334139Y-57029801D01*
X55238901Y-57172659D01*
X55143663Y-57267897D01*
X55048425Y-57315516D01*
X55953187Y-57029801D02*
X56572234Y-57029801D01*
X56238901Y-57410754D01*
X56381758Y-57410754D01*
X56476996Y-57458373D01*
X56524615Y-57505992D01*
X56572234Y-57601230D01*
X56572234Y-57839325D01*
X56524615Y-57934563D01*
X56476996Y-57982182D01*
X56381758Y-58029801D01*
X56096044Y-58029801D01*
X56000806Y-57982182D01*
X55953187Y-57934563D01*
G04 #@! TO.C,R14*
X54717472Y-54679801D02*
X54384139Y-54203611D01*
X54146044Y-54679801D02*
X54146044Y-53679801D01*
X54526996Y-53679801D01*
X54622234Y-53727421D01*
X54669853Y-53775040D01*
X54717472Y-53870278D01*
X54717472Y-54013135D01*
X54669853Y-54108373D01*
X54622234Y-54155992D01*
X54526996Y-54203611D01*
X54146044Y-54203611D01*
X55669853Y-54679801D02*
X55098425Y-54679801D01*
X55384139Y-54679801D02*
X55384139Y-53679801D01*
X55288901Y-53822659D01*
X55193663Y-53917897D01*
X55098425Y-53965516D01*
X56526996Y-54013135D02*
X56526996Y-54679801D01*
X56288901Y-53632182D02*
X56050806Y-54346468D01*
X56669853Y-54346468D01*
G04 #@! TO.C,R16*
X61157142Y-62752380D02*
X60823809Y-62276190D01*
X60585714Y-62752380D02*
X60585714Y-61752380D01*
X60966666Y-61752380D01*
X61061904Y-61800000D01*
X61109523Y-61847619D01*
X61157142Y-61942857D01*
X61157142Y-62085714D01*
X61109523Y-62180952D01*
X61061904Y-62228571D01*
X60966666Y-62276190D01*
X60585714Y-62276190D01*
X62109523Y-62752380D02*
X61538095Y-62752380D01*
X61823809Y-62752380D02*
X61823809Y-61752380D01*
X61728571Y-61895238D01*
X61633333Y-61990476D01*
X61538095Y-62038095D01*
X62966666Y-61752380D02*
X62776190Y-61752380D01*
X62680952Y-61800000D01*
X62633333Y-61847619D01*
X62538095Y-61990476D01*
X62490476Y-62180952D01*
X62490476Y-62561904D01*
X62538095Y-62657142D01*
X62585714Y-62704761D01*
X62680952Y-62752380D01*
X62871428Y-62752380D01*
X62966666Y-62704761D01*
X63014285Y-62657142D01*
X63061904Y-62561904D01*
X63061904Y-62323809D01*
X63014285Y-62228571D01*
X62966666Y-62180952D01*
X62871428Y-62133333D01*
X62680952Y-62133333D01*
X62585714Y-62180952D01*
X62538095Y-62228571D01*
X62490476Y-62323809D01*
G04 #@! TO.C,R17*
X54657142Y-70352380D02*
X54323809Y-69876190D01*
X54085714Y-70352380D02*
X54085714Y-69352380D01*
X54466666Y-69352380D01*
X54561904Y-69400000D01*
X54609523Y-69447619D01*
X54657142Y-69542857D01*
X54657142Y-69685714D01*
X54609523Y-69780952D01*
X54561904Y-69828571D01*
X54466666Y-69876190D01*
X54085714Y-69876190D01*
X55609523Y-70352380D02*
X55038095Y-70352380D01*
X55323809Y-70352380D02*
X55323809Y-69352380D01*
X55228571Y-69495238D01*
X55133333Y-69590476D01*
X55038095Y-69638095D01*
X55942857Y-69352380D02*
X56609523Y-69352380D01*
X56180952Y-70352380D01*
G04 #@! TO.C,R18*
X54657142Y-77052380D02*
X54323809Y-76576190D01*
X54085714Y-77052380D02*
X54085714Y-76052380D01*
X54466666Y-76052380D01*
X54561904Y-76100000D01*
X54609523Y-76147619D01*
X54657142Y-76242857D01*
X54657142Y-76385714D01*
X54609523Y-76480952D01*
X54561904Y-76528571D01*
X54466666Y-76576190D01*
X54085714Y-76576190D01*
X55609523Y-77052380D02*
X55038095Y-77052380D01*
X55323809Y-77052380D02*
X55323809Y-76052380D01*
X55228571Y-76195238D01*
X55133333Y-76290476D01*
X55038095Y-76338095D01*
X56180952Y-76480952D02*
X56085714Y-76433333D01*
X56038095Y-76385714D01*
X55990476Y-76290476D01*
X55990476Y-76242857D01*
X56038095Y-76147619D01*
X56085714Y-76100000D01*
X56180952Y-76052380D01*
X56371428Y-76052380D01*
X56466666Y-76100000D01*
X56514285Y-76147619D01*
X56561904Y-76242857D01*
X56561904Y-76290476D01*
X56514285Y-76385714D01*
X56466666Y-76433333D01*
X56371428Y-76480952D01*
X56180952Y-76480952D01*
X56085714Y-76528571D01*
X56038095Y-76576190D01*
X55990476Y-76671428D01*
X55990476Y-76861904D01*
X56038095Y-76957142D01*
X56085714Y-77004761D01*
X56180952Y-77052380D01*
X56371428Y-77052380D01*
X56466666Y-77004761D01*
X56514285Y-76957142D01*
X56561904Y-76861904D01*
X56561904Y-76671428D01*
X56514285Y-76576190D01*
X56466666Y-76528571D01*
X56371428Y-76480952D01*
G04 #@! TO.C,U1*
X92438095Y-111052380D02*
X92438095Y-111861904D01*
X92485714Y-111957142D01*
X92533333Y-112004761D01*
X92628571Y-112052380D01*
X92819047Y-112052380D01*
X92914285Y-112004761D01*
X92961904Y-111957142D01*
X93009523Y-111861904D01*
X93009523Y-111052380D01*
X94009523Y-112052380D02*
X93438095Y-112052380D01*
X93723809Y-112052380D02*
X93723809Y-111052380D01*
X93628571Y-111195238D01*
X93533333Y-111290476D01*
X93438095Y-111338095D01*
G04 #@! TO.C,U2*
X94238095Y-81352380D02*
X94238095Y-82161904D01*
X94285714Y-82257142D01*
X94333333Y-82304761D01*
X94428571Y-82352380D01*
X94619047Y-82352380D01*
X94714285Y-82304761D01*
X94761904Y-82257142D01*
X94809523Y-82161904D01*
X94809523Y-81352380D01*
X95238095Y-81447619D02*
X95285714Y-81400000D01*
X95380952Y-81352380D01*
X95619047Y-81352380D01*
X95714285Y-81400000D01*
X95761904Y-81447619D01*
X95809523Y-81542857D01*
X95809523Y-81638095D01*
X95761904Y-81780952D01*
X95190476Y-82352380D01*
X95809523Y-82352380D01*
G04 #@! TO.C,U3*
X64605177Y-109447948D02*
X64605177Y-110257472D01*
X64652796Y-110352710D01*
X64700415Y-110400329D01*
X64795653Y-110447948D01*
X64986129Y-110447948D01*
X65081367Y-110400329D01*
X65128986Y-110352710D01*
X65176605Y-110257472D01*
X65176605Y-109447948D01*
X65557558Y-109447948D02*
X66176605Y-109447948D01*
X65843272Y-109828901D01*
X65986129Y-109828901D01*
X66081367Y-109876520D01*
X66128986Y-109924139D01*
X66176605Y-110019377D01*
X66176605Y-110257472D01*
X66128986Y-110352710D01*
X66081367Y-110400329D01*
X65986129Y-110447948D01*
X65700415Y-110447948D01*
X65605177Y-110400329D01*
X65557558Y-110352710D01*
G04 #@! TO.C,U4*
X55738095Y-110352380D02*
X55738095Y-111161904D01*
X55785714Y-111257142D01*
X55833333Y-111304761D01*
X55928571Y-111352380D01*
X56119047Y-111352380D01*
X56214285Y-111304761D01*
X56261904Y-111257142D01*
X56309523Y-111161904D01*
X56309523Y-110352380D01*
X57214285Y-110685714D02*
X57214285Y-111352380D01*
X56976190Y-110304761D02*
X56738095Y-111019047D01*
X57357142Y-111019047D01*
G04 #@! TO.C,U5*
X70038095Y-99852380D02*
X70038095Y-100661904D01*
X70085714Y-100757142D01*
X70133333Y-100804761D01*
X70228571Y-100852380D01*
X70419047Y-100852380D01*
X70514285Y-100804761D01*
X70561904Y-100757142D01*
X70609523Y-100661904D01*
X70609523Y-99852380D01*
X71561904Y-99852380D02*
X71085714Y-99852380D01*
X71038095Y-100328571D01*
X71085714Y-100280952D01*
X71180952Y-100233333D01*
X71419047Y-100233333D01*
X71514285Y-100280952D01*
X71561904Y-100328571D01*
X71609523Y-100423809D01*
X71609523Y-100661904D01*
X71561904Y-100757142D01*
X71514285Y-100804761D01*
X71419047Y-100852380D01*
X71180952Y-100852380D01*
X71085714Y-100804761D01*
X71038095Y-100757142D01*
G04 #@! TO.C,U6*
X91238095Y-94852380D02*
X91238095Y-95661904D01*
X91285714Y-95757142D01*
X91333333Y-95804761D01*
X91428571Y-95852380D01*
X91619047Y-95852380D01*
X91714285Y-95804761D01*
X91761904Y-95757142D01*
X91809523Y-95661904D01*
X91809523Y-94852380D01*
X92714285Y-94852380D02*
X92523809Y-94852380D01*
X92428571Y-94900000D01*
X92380952Y-94947619D01*
X92285714Y-95090476D01*
X92238095Y-95280952D01*
X92238095Y-95661904D01*
X92285714Y-95757142D01*
X92333333Y-95804761D01*
X92428571Y-95852380D01*
X92619047Y-95852380D01*
X92714285Y-95804761D01*
X92761904Y-95757142D01*
X92809523Y-95661904D01*
X92809523Y-95423809D01*
X92761904Y-95328571D01*
X92714285Y-95280952D01*
X92619047Y-95233333D01*
X92428571Y-95233333D01*
X92333333Y-95280952D01*
X92285714Y-95328571D01*
X92238095Y-95423809D01*
G04 #@! TO.C,U7*
X60738095Y-87132377D02*
X60738095Y-87941901D01*
X60785714Y-88037139D01*
X60833333Y-88084758D01*
X60928571Y-88132377D01*
X61119047Y-88132377D01*
X61214285Y-88084758D01*
X61261904Y-88037139D01*
X61309523Y-87941901D01*
X61309523Y-87132377D01*
X61690476Y-87132377D02*
X62357142Y-87132377D01*
X61928571Y-88132377D01*
G04 #@! TO.C,U8*
X61490476Y-73561904D02*
X61490476Y-74209523D01*
X61528571Y-74285714D01*
X61566666Y-74323809D01*
X61642857Y-74361904D01*
X61795238Y-74361904D01*
X61871428Y-74323809D01*
X61909523Y-74285714D01*
X61947619Y-74209523D01*
X61947619Y-73561904D01*
X62442857Y-73904761D02*
X62366666Y-73866666D01*
X62328571Y-73828571D01*
X62290476Y-73752380D01*
X62290476Y-73714285D01*
X62328571Y-73638095D01*
X62366666Y-73600000D01*
X62442857Y-73561904D01*
X62595238Y-73561904D01*
X62671428Y-73600000D01*
X62709523Y-73638095D01*
X62747619Y-73714285D01*
X62747619Y-73752380D01*
X62709523Y-73828571D01*
X62671428Y-73866666D01*
X62595238Y-73904761D01*
X62442857Y-73904761D01*
X62366666Y-73942857D01*
X62328571Y-73980952D01*
X62290476Y-74057142D01*
X62290476Y-74209523D01*
X62328571Y-74285714D01*
X62366666Y-74323809D01*
X62442857Y-74361904D01*
X62595238Y-74361904D01*
X62671428Y-74323809D01*
X62709523Y-74285714D01*
X62747619Y-74209523D01*
X62747619Y-74057142D01*
X62709523Y-73980952D01*
X62671428Y-73942857D01*
X62595238Y-73904761D01*
G04 #@! TO.C,U9*
X55538095Y-61452380D02*
X55538095Y-62261904D01*
X55585714Y-62357142D01*
X55633333Y-62404761D01*
X55728571Y-62452380D01*
X55919047Y-62452380D01*
X56014285Y-62404761D01*
X56061904Y-62357142D01*
X56109523Y-62261904D01*
X56109523Y-61452380D01*
X56633333Y-62452380D02*
X56823809Y-62452380D01*
X56919047Y-62404761D01*
X56966666Y-62357142D01*
X57061904Y-62214285D01*
X57109523Y-62023809D01*
X57109523Y-61642857D01*
X57061904Y-61547619D01*
X57014285Y-61500000D01*
X56919047Y-61452380D01*
X56728571Y-61452380D01*
X56633333Y-61500000D01*
X56585714Y-61547619D01*
X56538095Y-61642857D01*
X56538095Y-61880952D01*
X56585714Y-61976190D01*
X56633333Y-62023809D01*
X56728571Y-62071428D01*
X56919047Y-62071428D01*
X57014285Y-62023809D01*
X57061904Y-61976190D01*
X57109523Y-61880952D01*
G04 #@! TO.C,X1*
X83490476Y-93698319D02*
X84157142Y-94698319D01*
X84157142Y-93698319D02*
X83490476Y-94698319D01*
X85061904Y-94698319D02*
X84490476Y-94698319D01*
X84776190Y-94698319D02*
X84776190Y-93698319D01*
X84680952Y-93841177D01*
X84585714Y-93936415D01*
X84490476Y-93984034D01*
G04 #@! TD*
M02*
