G04 #@! TF.GenerationSoftware,KiCad,Pcbnew,5.0.0-rc2+dfsg1-3*
G04 #@! TF.CreationDate,2018-07-01T23:41:37-04:00*
G04 #@! TF.ProjectId,mystatv1,6D797374617476312E6B696361645F70,1*
G04 #@! TF.SameCoordinates,Original*
G04 #@! TF.FileFunction,Paste,Top*
G04 #@! TF.FilePolarity,Positive*
%FSLAX46Y46*%
G04 Gerber Fmt 4.6, Leading zero omitted, Abs format (unit mm)*
G04 Created by KiCad (PCBNEW 5.0.0-rc2+dfsg1-3) date Sun Jul  1 23:41:37 2018*
%MOMM*%
%LPD*%
G01*
G04 APERTURE LIST*
%ADD10R,1.400000X1.120000*%
%ADD11R,1.220000X2.700000*%
%ADD12R,2.700000X1.220000*%
%ADD13R,1.120000X1.400000*%
%ADD14R,0.800000X0.900000*%
%ADD15R,0.600000X1.550000*%
%ADD16R,0.600000X1.950000*%
%ADD17R,1.550000X0.600000*%
%ADD18R,1.200000X0.400000*%
%ADD19R,1.500000X0.600000*%
%ADD20R,0.400000X1.000000*%
G04 APERTURE END LIST*
D10*
G04 #@! TO.C,R17*
X93250000Y-68630000D03*
X93250000Y-66870000D03*
G04 #@! TD*
D11*
G04 #@! TO.C,C1*
X97376000Y-100203000D03*
X100236000Y-100203000D03*
G04 #@! TD*
D12*
G04 #@! TO.C,C2*
X90500000Y-75430000D03*
X90500000Y-72570000D03*
G04 #@! TD*
G04 #@! TO.C,C3*
X81534000Y-100678000D03*
X81534000Y-103538000D03*
G04 #@! TD*
G04 #@! TO.C,C4*
X81407000Y-107155000D03*
X81407000Y-110015000D03*
G04 #@! TD*
G04 #@! TO.C,C5*
X86614000Y-107155000D03*
X86614000Y-110015000D03*
G04 #@! TD*
G04 #@! TO.C,C6*
X92075000Y-107155000D03*
X92075000Y-110015000D03*
G04 #@! TD*
G04 #@! TO.C,C7*
X100203000Y-72570000D03*
X100203000Y-75430000D03*
G04 #@! TD*
G04 #@! TO.C,C8*
X58750000Y-100930000D03*
X58750000Y-98070000D03*
G04 #@! TD*
D10*
G04 #@! TO.C,C9*
X59750000Y-92630000D03*
X59750000Y-90870000D03*
G04 #@! TD*
G04 #@! TO.C,C10*
X59750000Y-80130000D03*
X59750000Y-78370000D03*
G04 #@! TD*
G04 #@! TO.C,C11*
X55245000Y-92630000D03*
X55245000Y-90870000D03*
G04 #@! TD*
G04 #@! TO.C,C12*
X60000000Y-54630000D03*
X60000000Y-52870000D03*
G04 #@! TD*
G04 #@! TO.C,C13*
X60000000Y-67130000D03*
X60000000Y-65370000D03*
G04 #@! TD*
G04 #@! TO.C,C14*
X55250000Y-97880000D03*
X55250000Y-96120000D03*
G04 #@! TD*
G04 #@! TO.C,C15*
X64643000Y-54474000D03*
X64643000Y-52714000D03*
G04 #@! TD*
G04 #@! TO.C,C16*
X55250000Y-80130000D03*
X55250000Y-78370000D03*
G04 #@! TD*
D13*
G04 #@! TO.C,C17*
X57870000Y-108500000D03*
X59630000Y-108500000D03*
G04 #@! TD*
D10*
G04 #@! TO.C,C18*
X55250000Y-101370000D03*
X55250000Y-103130000D03*
G04 #@! TD*
D12*
G04 #@! TO.C,C19*
X65151000Y-60071000D03*
X65151000Y-57211000D03*
G04 #@! TD*
D13*
G04 #@! TO.C,C20*
X69870000Y-111000000D03*
X71630000Y-111000000D03*
G04 #@! TD*
G04 #@! TO.C,C21*
X76380000Y-111000000D03*
X74620000Y-111000000D03*
G04 #@! TD*
D10*
G04 #@! TO.C,C22*
X89750000Y-68630000D03*
X89750000Y-66870000D03*
G04 #@! TD*
G04 #@! TO.C,C23*
X89750000Y-96880000D03*
X89750000Y-95120000D03*
G04 #@! TD*
G04 #@! TO.C,C24*
X93250000Y-80880000D03*
X93250000Y-79120000D03*
G04 #@! TD*
G04 #@! TO.C,C25*
X97000000Y-79120000D03*
X97000000Y-80880000D03*
G04 #@! TD*
G04 #@! TO.C,C26*
X97000000Y-96880000D03*
X97000000Y-95120000D03*
G04 #@! TD*
G04 #@! TO.C,C27*
X89750000Y-91380000D03*
X89750000Y-89620000D03*
G04 #@! TD*
G04 #@! TO.C,C28*
X93250000Y-59130000D03*
X93250000Y-57370000D03*
G04 #@! TD*
G04 #@! TO.C,C29*
X100500000Y-68630000D03*
X100500000Y-66870000D03*
G04 #@! TD*
D14*
G04 #@! TO.C,D1*
X86741000Y-102473000D03*
X85791000Y-100473000D03*
X87691000Y-100473000D03*
G04 #@! TD*
G04 #@! TO.C,D2*
X92075000Y-102473000D03*
X91125000Y-100473000D03*
X93025000Y-100473000D03*
G04 #@! TD*
D10*
G04 #@! TO.C,R1*
X55245000Y-67130000D03*
X55245000Y-65370000D03*
G04 #@! TD*
G04 #@! TO.C,R2*
X55250000Y-54630000D03*
X55250000Y-52870000D03*
G04 #@! TD*
G04 #@! TO.C,R3*
X89750000Y-59130000D03*
X89750000Y-57370000D03*
G04 #@! TD*
G04 #@! TO.C,R4*
X100750000Y-80880000D03*
X100750000Y-79120000D03*
G04 #@! TD*
G04 #@! TO.C,R5*
X89750000Y-80880000D03*
X89750000Y-79120000D03*
G04 #@! TD*
G04 #@! TO.C,R6*
X89750000Y-86351000D03*
X89750000Y-84591000D03*
G04 #@! TD*
G04 #@! TO.C,R7*
X89750000Y-63630000D03*
X89750000Y-61870000D03*
G04 #@! TD*
G04 #@! TO.C,R8*
X93250000Y-96880000D03*
X93250000Y-95120000D03*
G04 #@! TD*
G04 #@! TO.C,R9*
X89750000Y-54380000D03*
X89750000Y-52620000D03*
G04 #@! TD*
G04 #@! TO.C,R10*
X86000000Y-88630000D03*
X86000000Y-86870000D03*
G04 #@! TD*
G04 #@! TO.C,R11*
X85979000Y-92880000D03*
X85979000Y-91120000D03*
G04 #@! TD*
G04 #@! TO.C,R12*
X85979000Y-97130000D03*
X85979000Y-95370000D03*
G04 #@! TD*
G04 #@! TO.C,R13*
X97000000Y-54347000D03*
X97000000Y-52587000D03*
G04 #@! TD*
G04 #@! TO.C,R14*
X93218000Y-52620000D03*
X93218000Y-54380000D03*
G04 #@! TD*
G04 #@! TO.C,R15*
X93250000Y-63630000D03*
X93250000Y-61870000D03*
G04 #@! TD*
G04 #@! TO.C,R16*
X100500000Y-52620000D03*
X100500000Y-54380000D03*
G04 #@! TD*
G04 #@! TO.C,R18*
X97000000Y-68630000D03*
X97000000Y-66870000D03*
G04 #@! TD*
D15*
G04 #@! TO.C,U1*
X96647000Y-104361000D03*
X97917000Y-104361000D03*
X99187000Y-104361000D03*
X100457000Y-104361000D03*
X100457000Y-109761000D03*
X99187000Y-109761000D03*
X97917000Y-109761000D03*
X96647000Y-109761000D03*
G04 #@! TD*
D16*
G04 #@! TO.C,U2*
X82169000Y-96775000D03*
X80899000Y-96775000D03*
X79629000Y-96775000D03*
X78359000Y-96775000D03*
X77089000Y-96775000D03*
X75819000Y-96775000D03*
X74549000Y-96775000D03*
X73279000Y-96775000D03*
X72009000Y-96775000D03*
X70739000Y-96775000D03*
X70739000Y-87375000D03*
X72009000Y-87375000D03*
X73279000Y-87375000D03*
X74549000Y-87375000D03*
X75819000Y-87375000D03*
X77089000Y-87375000D03*
X78359000Y-87375000D03*
X79629000Y-87375000D03*
X80899000Y-87375000D03*
X82169000Y-87375000D03*
G04 #@! TD*
D17*
G04 #@! TO.C,U3*
X60700000Y-83845000D03*
X60700000Y-85115000D03*
X60700000Y-86385000D03*
X60700000Y-87655000D03*
X55300000Y-87655000D03*
X55300000Y-86385000D03*
X55300000Y-85115000D03*
X55300000Y-83845000D03*
G04 #@! TD*
G04 #@! TO.C,U4*
X60700000Y-71095000D03*
X60700000Y-72365000D03*
X60700000Y-73635000D03*
X60700000Y-74905000D03*
X55300000Y-74905000D03*
X55300000Y-73635000D03*
X55300000Y-72365000D03*
X55300000Y-71095000D03*
G04 #@! TD*
G04 #@! TO.C,U5*
X60700000Y-57845000D03*
X60700000Y-59115000D03*
X60700000Y-60385000D03*
X60700000Y-61655000D03*
X55300000Y-61655000D03*
X55300000Y-60385000D03*
X55300000Y-59115000D03*
X55300000Y-57845000D03*
G04 #@! TD*
D18*
G04 #@! TO.C,U6*
X76387000Y-103187500D03*
X76387000Y-103822500D03*
X76387000Y-104457500D03*
X76387000Y-105092500D03*
X76387000Y-105727500D03*
X76387000Y-106362500D03*
X76387000Y-106997500D03*
X76387000Y-107632500D03*
X71187000Y-107632500D03*
X71187000Y-106997500D03*
X71187000Y-106362500D03*
X71187000Y-105727500D03*
X71187000Y-105092500D03*
X71187000Y-104457500D03*
X71187000Y-103822500D03*
X71187000Y-103187500D03*
G04 #@! TD*
D19*
G04 #@! TO.C,U7*
X99855000Y-84201000D03*
X99855000Y-85471000D03*
X99855000Y-86741000D03*
X99855000Y-88011000D03*
X99855000Y-89281000D03*
X99855000Y-90551000D03*
X99855000Y-91821000D03*
X94455000Y-91821000D03*
X94455000Y-90551000D03*
X94455000Y-89281000D03*
X94455000Y-88011000D03*
X94455000Y-86741000D03*
X94455000Y-85471000D03*
X94455000Y-84201000D03*
G04 #@! TD*
D20*
G04 #@! TO.C,U8*
X96475000Y-75200000D03*
X95825000Y-75200000D03*
X94525000Y-75200000D03*
X95175000Y-75200000D03*
X94525000Y-72800000D03*
X95825000Y-72800000D03*
X95175000Y-72800000D03*
X96475000Y-72800000D03*
G04 #@! TD*
D15*
G04 #@! TO.C,U9*
X100711000Y-63406000D03*
X99441000Y-63406000D03*
X98171000Y-63406000D03*
X96901000Y-63406000D03*
X96901000Y-58006000D03*
X98171000Y-58006000D03*
X99441000Y-58006000D03*
X100711000Y-58006000D03*
G04 #@! TD*
M02*
