G04 #@! TF.GenerationSoftware,KiCad,Pcbnew,5.0.0-rc3+dfsg1-2*
G04 #@! TF.CreationDate,2018-07-16T20:12:42-06:00*
G04 #@! TF.ProjectId,mystat,6D79737461742E6B696361645F706362,1*
G04 #@! TF.SameCoordinates,Original*
G04 #@! TF.FileFunction,Legend,Top*
G04 #@! TF.FilePolarity,Positive*
%FSLAX46Y46*%
G04 Gerber Fmt 4.6, Leading zero omitted, Abs format (unit mm)*
G04 Created by KiCad (PCBNEW 5.0.0-rc3+dfsg1-2) date Mon Jul 16 20:12:42 2018*
%MOMM*%
%LPD*%
G01*
G04 APERTURE LIST*
%ADD10C,0.300000*%
%ADD11C,0.120000*%
%ADD12C,0.150000*%
G04 APERTURE END LIST*
D10*
X51942857Y-106657142D02*
X52914285Y-106657142D01*
X53028571Y-106600000D01*
X53085714Y-106542857D01*
X53142857Y-106428571D01*
X53142857Y-106200000D01*
X53085714Y-106085714D01*
X53028571Y-106028571D01*
X52914285Y-105971428D01*
X51942857Y-105971428D01*
X53085714Y-105457142D02*
X53142857Y-105285714D01*
X53142857Y-105000000D01*
X53085714Y-104885714D01*
X53028571Y-104828571D01*
X52914285Y-104771428D01*
X52800000Y-104771428D01*
X52685714Y-104828571D01*
X52628571Y-104885714D01*
X52571428Y-105000000D01*
X52514285Y-105228571D01*
X52457142Y-105342857D01*
X52400000Y-105400000D01*
X52285714Y-105457142D01*
X52171428Y-105457142D01*
X52057142Y-105400000D01*
X52000000Y-105342857D01*
X51942857Y-105228571D01*
X51942857Y-104942857D01*
X52000000Y-104771428D01*
X52514285Y-103857142D02*
X52571428Y-103685714D01*
X52628571Y-103628571D01*
X52742857Y-103571428D01*
X52914285Y-103571428D01*
X53028571Y-103628571D01*
X53085714Y-103685714D01*
X53142857Y-103800000D01*
X53142857Y-104257142D01*
X51942857Y-104257142D01*
X51942857Y-103857142D01*
X52000000Y-103742857D01*
X52057142Y-103685714D01*
X52171428Y-103628571D01*
X52285714Y-103628571D01*
X52400000Y-103685714D01*
X52457142Y-103742857D01*
X52514285Y-103857142D01*
X52514285Y-104257142D01*
X52685714Y-103057142D02*
X52685714Y-102142857D01*
X53028571Y-100885714D02*
X53085714Y-100942857D01*
X53142857Y-101114285D01*
X53142857Y-101228571D01*
X53085714Y-101400000D01*
X52971428Y-101514285D01*
X52857142Y-101571428D01*
X52628571Y-101628571D01*
X52457142Y-101628571D01*
X52228571Y-101571428D01*
X52114285Y-101514285D01*
X52000000Y-101400000D01*
X51942857Y-101228571D01*
X51942857Y-101114285D01*
X52000000Y-100942857D01*
X52057142Y-100885714D01*
X53142857Y-100200000D02*
X53085714Y-100314285D01*
X53028571Y-100371428D01*
X52914285Y-100428571D01*
X52571428Y-100428571D01*
X52457142Y-100371428D01*
X52400000Y-100314285D01*
X52342857Y-100200000D01*
X52342857Y-100028571D01*
X52400000Y-99914285D01*
X52457142Y-99857142D01*
X52571428Y-99800000D01*
X52914285Y-99800000D01*
X53028571Y-99857142D01*
X53085714Y-99914285D01*
X53142857Y-100028571D01*
X53142857Y-100200000D01*
X52342857Y-99285714D02*
X53142857Y-99285714D01*
X52457142Y-99285714D02*
X52400000Y-99228571D01*
X52342857Y-99114285D01*
X52342857Y-98942857D01*
X52400000Y-98828571D01*
X52514285Y-98771428D01*
X53142857Y-98771428D01*
X52342857Y-98371428D02*
X52342857Y-97914285D01*
X51942857Y-98200000D02*
X52971428Y-98200000D01*
X53085714Y-98142857D01*
X53142857Y-98028571D01*
X53142857Y-97914285D01*
X53142857Y-97514285D02*
X52342857Y-97514285D01*
X52571428Y-97514285D02*
X52457142Y-97457142D01*
X52400000Y-97400000D01*
X52342857Y-97285714D01*
X52342857Y-97171428D01*
X53142857Y-96600000D02*
X53085714Y-96714285D01*
X53028571Y-96771428D01*
X52914285Y-96828571D01*
X52571428Y-96828571D01*
X52457142Y-96771428D01*
X52400000Y-96714285D01*
X52342857Y-96600000D01*
X52342857Y-96428571D01*
X52400000Y-96314285D01*
X52457142Y-96257142D01*
X52571428Y-96200000D01*
X52914285Y-96200000D01*
X53028571Y-96257142D01*
X53085714Y-96314285D01*
X53142857Y-96428571D01*
X53142857Y-96600000D01*
X53142857Y-95514285D02*
X53085714Y-95628571D01*
X52971428Y-95685714D01*
X51942857Y-95685714D01*
X53142857Y-94885714D02*
X53085714Y-95000000D01*
X52971428Y-95057142D01*
X51942857Y-95057142D01*
X53085714Y-93971428D02*
X53142857Y-94085714D01*
X53142857Y-94314285D01*
X53085714Y-94428571D01*
X52971428Y-94485714D01*
X52514285Y-94485714D01*
X52400000Y-94428571D01*
X52342857Y-94314285D01*
X52342857Y-94085714D01*
X52400000Y-93971428D01*
X52514285Y-93914285D01*
X52628571Y-93914285D01*
X52742857Y-94485714D01*
X53142857Y-92885714D02*
X51942857Y-92885714D01*
X53085714Y-92885714D02*
X53142857Y-93000000D01*
X53142857Y-93228571D01*
X53085714Y-93342857D01*
X53028571Y-93400000D01*
X52914285Y-93457142D01*
X52571428Y-93457142D01*
X52457142Y-93400000D01*
X52400000Y-93342857D01*
X52342857Y-93228571D01*
X52342857Y-93000000D01*
X52400000Y-92885714D01*
X53142857Y-91400000D02*
X51942857Y-91400000D01*
X51942857Y-90942857D01*
X52000000Y-90828571D01*
X52057142Y-90771428D01*
X52171428Y-90714285D01*
X52342857Y-90714285D01*
X52457142Y-90771428D01*
X52514285Y-90828571D01*
X52571428Y-90942857D01*
X52571428Y-91400000D01*
X53142857Y-90028571D02*
X53085714Y-90142857D01*
X53028571Y-90200000D01*
X52914285Y-90257142D01*
X52571428Y-90257142D01*
X52457142Y-90200000D01*
X52400000Y-90142857D01*
X52342857Y-90028571D01*
X52342857Y-89857142D01*
X52400000Y-89742857D01*
X52457142Y-89685714D01*
X52571428Y-89628571D01*
X52914285Y-89628571D01*
X53028571Y-89685714D01*
X53085714Y-89742857D01*
X53142857Y-89857142D01*
X53142857Y-90028571D01*
X52342857Y-89285714D02*
X52342857Y-88828571D01*
X51942857Y-89114285D02*
X52971428Y-89114285D01*
X53085714Y-89057142D01*
X53142857Y-88942857D01*
X53142857Y-88828571D01*
X53085714Y-87971428D02*
X53142857Y-88085714D01*
X53142857Y-88314285D01*
X53085714Y-88428571D01*
X52971428Y-88485714D01*
X52514285Y-88485714D01*
X52400000Y-88428571D01*
X52342857Y-88314285D01*
X52342857Y-88085714D01*
X52400000Y-87971428D01*
X52514285Y-87914285D01*
X52628571Y-87914285D01*
X52742857Y-88485714D01*
X52342857Y-87400000D02*
X53142857Y-87400000D01*
X52457142Y-87400000D02*
X52400000Y-87342857D01*
X52342857Y-87228571D01*
X52342857Y-87057142D01*
X52400000Y-86942857D01*
X52514285Y-86885714D01*
X53142857Y-86885714D01*
X52342857Y-86485714D02*
X52342857Y-86028571D01*
X51942857Y-86314285D02*
X52971428Y-86314285D01*
X53085714Y-86257142D01*
X53142857Y-86142857D01*
X53142857Y-86028571D01*
X53142857Y-85628571D02*
X52342857Y-85628571D01*
X51942857Y-85628571D02*
X52000000Y-85685714D01*
X52057142Y-85628571D01*
X52000000Y-85571428D01*
X51942857Y-85628571D01*
X52057142Y-85628571D01*
X53142857Y-84885714D02*
X53085714Y-85000000D01*
X53028571Y-85057142D01*
X52914285Y-85114285D01*
X52571428Y-85114285D01*
X52457142Y-85057142D01*
X52400000Y-85000000D01*
X52342857Y-84885714D01*
X52342857Y-84714285D01*
X52400000Y-84600000D01*
X52457142Y-84542857D01*
X52571428Y-84485714D01*
X52914285Y-84485714D01*
X53028571Y-84542857D01*
X53085714Y-84600000D01*
X53142857Y-84714285D01*
X53142857Y-84885714D01*
X53085714Y-84028571D02*
X53142857Y-83914285D01*
X53142857Y-83685714D01*
X53085714Y-83571428D01*
X52971428Y-83514285D01*
X52914285Y-83514285D01*
X52800000Y-83571428D01*
X52742857Y-83685714D01*
X52742857Y-83857142D01*
X52685714Y-83971428D01*
X52571428Y-84028571D01*
X52514285Y-84028571D01*
X52400000Y-83971428D01*
X52342857Y-83857142D01*
X52342857Y-83685714D01*
X52400000Y-83571428D01*
X52342857Y-83171428D02*
X52342857Y-82714285D01*
X51942857Y-83000000D02*
X52971428Y-83000000D01*
X53085714Y-82942857D01*
X53142857Y-82828571D01*
X53142857Y-82714285D01*
X53142857Y-81800000D02*
X52514285Y-81800000D01*
X52400000Y-81857142D01*
X52342857Y-81971428D01*
X52342857Y-82200000D01*
X52400000Y-82314285D01*
X53085714Y-81800000D02*
X53142857Y-81914285D01*
X53142857Y-82200000D01*
X53085714Y-82314285D01*
X52971428Y-82371428D01*
X52857142Y-82371428D01*
X52742857Y-82314285D01*
X52685714Y-82200000D01*
X52685714Y-81914285D01*
X52628571Y-81800000D01*
X52342857Y-81400000D02*
X52342857Y-80942857D01*
X51942857Y-81228571D02*
X52971428Y-81228571D01*
X53085714Y-81171428D01*
X53142857Y-81057142D01*
X53142857Y-80942857D01*
X51885714Y-79685714D02*
X53428571Y-80714285D01*
X52000000Y-78657142D02*
X51942857Y-78771428D01*
X51942857Y-78942857D01*
X52000000Y-79114285D01*
X52114285Y-79228571D01*
X52228571Y-79285714D01*
X52457142Y-79342857D01*
X52628571Y-79342857D01*
X52857142Y-79285714D01*
X52971428Y-79228571D01*
X53085714Y-79114285D01*
X53142857Y-78942857D01*
X53142857Y-78828571D01*
X53085714Y-78657142D01*
X53028571Y-78600000D01*
X52628571Y-78600000D01*
X52628571Y-78828571D01*
X53142857Y-77571428D02*
X52514285Y-77571428D01*
X52400000Y-77628571D01*
X52342857Y-77742857D01*
X52342857Y-77971428D01*
X52400000Y-78085714D01*
X53085714Y-77571428D02*
X53142857Y-77685714D01*
X53142857Y-77971428D01*
X53085714Y-78085714D01*
X52971428Y-78142857D01*
X52857142Y-78142857D01*
X52742857Y-78085714D01*
X52685714Y-77971428D01*
X52685714Y-77685714D01*
X52628571Y-77571428D01*
X53142857Y-76828571D02*
X53085714Y-76942857D01*
X52971428Y-76999999D01*
X51942857Y-76999999D01*
X52342857Y-76485714D02*
X53142857Y-76199999D01*
X52342857Y-75914285D01*
X53142857Y-74942857D02*
X52514285Y-74942857D01*
X52400000Y-75000000D01*
X52342857Y-75114285D01*
X52342857Y-75342857D01*
X52400000Y-75457142D01*
X53085714Y-74942857D02*
X53142857Y-75057142D01*
X53142857Y-75342857D01*
X53085714Y-75457142D01*
X52971428Y-75514285D01*
X52857142Y-75514285D01*
X52742857Y-75457142D01*
X52685714Y-75342857D01*
X52685714Y-75057142D01*
X52628571Y-74942857D01*
X52342857Y-74371428D02*
X53142857Y-74371428D01*
X52457142Y-74371428D02*
X52400000Y-74314285D01*
X52342857Y-74199999D01*
X52342857Y-74028571D01*
X52400000Y-73914285D01*
X52514285Y-73857142D01*
X53142857Y-73857142D01*
X53142857Y-73114285D02*
X53085714Y-73228571D01*
X53028571Y-73285714D01*
X52914285Y-73342857D01*
X52571428Y-73342857D01*
X52457142Y-73285714D01*
X52400000Y-73228571D01*
X52342857Y-73114285D01*
X52342857Y-72942857D01*
X52400000Y-72828571D01*
X52457142Y-72771428D01*
X52571428Y-72714285D01*
X52914285Y-72714285D01*
X53028571Y-72771428D01*
X53085714Y-72828571D01*
X53142857Y-72942857D01*
X53142857Y-73114285D01*
X53085714Y-72257142D02*
X53142857Y-72142857D01*
X53142857Y-71914285D01*
X53085714Y-71800000D01*
X52971428Y-71742857D01*
X52914285Y-71742857D01*
X52800000Y-71800000D01*
X52742857Y-71914285D01*
X52742857Y-72085714D01*
X52685714Y-72200000D01*
X52571428Y-72257142D01*
X52514285Y-72257142D01*
X52400000Y-72200000D01*
X52342857Y-72085714D01*
X52342857Y-71914285D01*
X52400000Y-71800000D01*
X52342857Y-71399999D02*
X52342857Y-70942857D01*
X51942857Y-71228571D02*
X52971428Y-71228571D01*
X53085714Y-71171428D01*
X53142857Y-71057142D01*
X53142857Y-70942857D01*
X53142857Y-70028571D02*
X52514285Y-70028571D01*
X52400000Y-70085714D01*
X52342857Y-70200000D01*
X52342857Y-70428571D01*
X52400000Y-70542857D01*
X53085714Y-70028571D02*
X53142857Y-70142857D01*
X53142857Y-70428571D01*
X53085714Y-70542857D01*
X52971428Y-70600000D01*
X52857142Y-70600000D01*
X52742857Y-70542857D01*
X52685714Y-70428571D01*
X52685714Y-70142857D01*
X52628571Y-70028571D01*
X52342857Y-69628571D02*
X52342857Y-69171428D01*
X51942857Y-69457142D02*
X52971428Y-69457142D01*
X53085714Y-69400000D01*
X53142857Y-69285714D01*
X53142857Y-69171428D01*
D11*
G04 #@! TO.C,R17*
X109310000Y-71807983D02*
X109310000Y-71392017D01*
X107890000Y-71807983D02*
X107890000Y-71392017D01*
G04 #@! TO.C,C1*
X101897936Y-126610000D02*
X103102064Y-126610000D01*
X101897936Y-123890000D02*
X103102064Y-123890000D01*
G04 #@! TO.C,C2*
X120640000Y-107897936D02*
X120640000Y-109102064D01*
X123360000Y-107897936D02*
X123360000Y-109102064D01*
G04 #@! TO.C,C3*
X110352064Y-108040000D02*
X109147936Y-108040000D01*
X110352064Y-110760000D02*
X109147936Y-110760000D01*
G04 #@! TO.C,C4*
X104140000Y-116147936D02*
X104140000Y-117352064D01*
X106860000Y-116147936D02*
X106860000Y-117352064D01*
G04 #@! TO.C,C5*
X120640000Y-116147936D02*
X120640000Y-117352064D01*
X123360000Y-116147936D02*
X123360000Y-117352064D01*
G04 #@! TO.C,C6*
X109147936Y-125360000D02*
X110352064Y-125360000D01*
X109147936Y-122640000D02*
X110352064Y-122640000D01*
G04 #@! TO.C,C7*
X120640000Y-124147936D02*
X120640000Y-125352064D01*
X123360000Y-124147936D02*
X123360000Y-125352064D01*
G04 #@! TO.C,C8*
X100102064Y-116890000D02*
X98897936Y-116890000D01*
X100102064Y-119610000D02*
X98897936Y-119610000D01*
G04 #@! TO.C,C9*
X101040000Y-106042017D02*
X101040000Y-106457983D01*
X102460000Y-106042017D02*
X102460000Y-106457983D01*
G04 #@! TO.C,C10*
X85540000Y-110292017D02*
X85540000Y-110707983D01*
X86960000Y-110292017D02*
X86960000Y-110707983D01*
G04 #@! TO.C,C11*
X69790000Y-103042017D02*
X69790000Y-103457983D01*
X71210000Y-103042017D02*
X71210000Y-103457983D01*
G04 #@! TO.C,C12*
X57540000Y-106392017D02*
X57540000Y-106807983D01*
X58960000Y-106392017D02*
X58960000Y-106807983D01*
G04 #@! TO.C,C13*
X69790000Y-91042017D02*
X69790000Y-91457983D01*
X71210000Y-91042017D02*
X71210000Y-91457983D01*
G04 #@! TO.C,C14*
X57290000Y-90792017D02*
X57290000Y-91207983D01*
X58710000Y-90792017D02*
X58710000Y-91207983D01*
G04 #@! TO.C,C15*
X57290000Y-71042017D02*
X57290000Y-71457983D01*
X58710000Y-71042017D02*
X58710000Y-71457983D01*
G04 #@! TO.C,C16*
X57290000Y-79292017D02*
X57290000Y-79707983D01*
X58710000Y-79292017D02*
X58710000Y-79707983D01*
G04 #@! TO.C,C17*
X58457983Y-115290000D02*
X58042017Y-115290000D01*
X58457983Y-116710000D02*
X58042017Y-116710000D01*
G04 #@! TO.C,C18*
X58457983Y-120040000D02*
X58042017Y-120040000D01*
X58457983Y-121460000D02*
X58042017Y-121460000D01*
G04 #@! TO.C,C19*
X71860000Y-110602064D02*
X71860000Y-109397936D01*
X69140000Y-110602064D02*
X69140000Y-109397936D01*
G04 #@! TO.C,C20*
X77992017Y-127110000D02*
X78407983Y-127110000D01*
X77992017Y-125690000D02*
X78407983Y-125690000D01*
G04 #@! TO.C,C21*
X72007983Y-125690000D02*
X71592017Y-125690000D01*
X72007983Y-127110000D02*
X71592017Y-127110000D01*
G04 #@! TO.C,C22*
X122207983Y-101290000D02*
X121792017Y-101290000D01*
X122207983Y-102710000D02*
X121792017Y-102710000D01*
G04 #@! TO.C,C23*
X110957983Y-99090000D02*
X110542017Y-99090000D01*
X110957983Y-100510000D02*
X110542017Y-100510000D01*
G04 #@! TO.C,C24*
X115592017Y-103910000D02*
X116007983Y-103910000D01*
X115592017Y-102490000D02*
X116007983Y-102490000D01*
G04 #@! TO.C,C25*
X106007983Y-102490000D02*
X105592017Y-102490000D01*
X106007983Y-103910000D02*
X105592017Y-103910000D01*
G04 #@! TO.C,C26*
X96460000Y-93457983D02*
X96460000Y-93042017D01*
X95040000Y-93457983D02*
X95040000Y-93042017D01*
G04 #@! TO.C,C27*
X122290000Y-56942017D02*
X122290000Y-57357983D01*
X123710000Y-56942017D02*
X123710000Y-57357983D01*
G04 #@! TO.C,C28*
X122290000Y-71392017D02*
X122290000Y-71807983D01*
X123710000Y-71392017D02*
X123710000Y-71807983D01*
G04 #@! TO.C,C29*
X113910000Y-71807983D02*
X113910000Y-71392017D01*
X112490000Y-71807983D02*
X112490000Y-71392017D01*
G04 #@! TO.C,D1*
X115240000Y-107820000D02*
X116700000Y-107820000D01*
X115240000Y-110980000D02*
X117400000Y-110980000D01*
X115240000Y-110980000D02*
X115240000Y-110050000D01*
X115240000Y-107820000D02*
X115240000Y-108750000D01*
G04 #@! TO.C,D2*
X115240000Y-122420000D02*
X116700000Y-122420000D01*
X115240000Y-125580000D02*
X117400000Y-125580000D01*
X115240000Y-125580000D02*
X115240000Y-124650000D01*
X115240000Y-122420000D02*
X115240000Y-123350000D01*
D12*
G04 #@! TO.C,K1*
X99700000Y-64000000D02*
X99700000Y-64600000D01*
X80300000Y-64000000D02*
X80300000Y-64300000D01*
X99700000Y-69000000D02*
X99700000Y-68400000D01*
X80300000Y-69000000D02*
X80300000Y-68700000D01*
X84880000Y-64000000D02*
X84880000Y-64600000D01*
X84880000Y-69000000D02*
X84880000Y-68400000D01*
X80300000Y-64000000D02*
X99700000Y-64000000D01*
X99700000Y-69000000D02*
X80300000Y-69000000D01*
G04 #@! TO.C,K2*
X99700000Y-76500000D02*
X99700000Y-77100000D01*
X80300000Y-76500000D02*
X80300000Y-76800000D01*
X99700000Y-81500000D02*
X99700000Y-80900000D01*
X80300000Y-81500000D02*
X80300000Y-81200000D01*
X84880000Y-76500000D02*
X84880000Y-77100000D01*
X84880000Y-81500000D02*
X84880000Y-80900000D01*
X80300000Y-76500000D02*
X99700000Y-76500000D01*
X99700000Y-81500000D02*
X80300000Y-81500000D01*
G04 #@! TO.C,K3*
X99700000Y-83000000D02*
X99700000Y-83600000D01*
X80300000Y-83000000D02*
X80300000Y-83300000D01*
X99700000Y-88000000D02*
X99700000Y-87400000D01*
X80300000Y-88000000D02*
X80300000Y-87700000D01*
X84880000Y-83000000D02*
X84880000Y-83600000D01*
X84880000Y-88000000D02*
X84880000Y-87400000D01*
X80300000Y-83000000D02*
X99700000Y-83000000D01*
X99700000Y-88000000D02*
X80300000Y-88000000D01*
G04 #@! TO.C,K4*
X99700000Y-70250000D02*
X99700000Y-70850000D01*
X80300000Y-70250000D02*
X80300000Y-70550000D01*
X99700000Y-75250000D02*
X99700000Y-74650000D01*
X80300000Y-75250000D02*
X80300000Y-74950000D01*
X84880000Y-70250000D02*
X84880000Y-70850000D01*
X84880000Y-75250000D02*
X84880000Y-74650000D01*
X80300000Y-70250000D02*
X99700000Y-70250000D01*
X99700000Y-75250000D02*
X80300000Y-75250000D01*
D11*
G04 #@! TO.C,P1*
X83420000Y-127580000D02*
X83420000Y-126250000D01*
X84750000Y-127580000D02*
X83420000Y-127580000D01*
X86020000Y-127580000D02*
X86020000Y-124920000D01*
X86020000Y-124920000D02*
X96240000Y-124920000D01*
X86020000Y-127580000D02*
X96240000Y-127580000D01*
X96240000Y-127580000D02*
X96240000Y-124920000D01*
G04 #@! TO.C,P3*
X96420000Y-98130000D02*
X97750000Y-98130000D01*
X96420000Y-99460000D02*
X96420000Y-98130000D01*
X96420000Y-100730000D02*
X99080000Y-100730000D01*
X99080000Y-100730000D02*
X99080000Y-113490000D01*
X96420000Y-100730000D02*
X96420000Y-113490000D01*
X96420000Y-113490000D02*
X99080000Y-113490000D01*
G04 #@! TO.C,R1*
X74790000Y-90892017D02*
X74790000Y-91307983D01*
X76210000Y-90892017D02*
X76210000Y-91307983D01*
G04 #@! TO.C,R2*
X57540000Y-99042017D02*
X57540000Y-99457983D01*
X58960000Y-99042017D02*
X58960000Y-99457983D01*
G04 #@! TO.C,R3*
X62210000Y-71457983D02*
X62210000Y-71042017D01*
X60790000Y-71457983D02*
X60790000Y-71042017D01*
G04 #@! TO.C,R4*
X111007983Y-102490000D02*
X110592017Y-102490000D01*
X111007983Y-103910000D02*
X110592017Y-103910000D01*
G04 #@! TO.C,R5*
X123710000Y-80107983D02*
X123710000Y-79692017D01*
X122290000Y-80107983D02*
X122290000Y-79692017D01*
G04 #@! TO.C,R6*
X122290000Y-86792017D02*
X122290000Y-87207983D01*
X123710000Y-86792017D02*
X123710000Y-87207983D01*
G04 #@! TO.C,R7*
X122290000Y-93542017D02*
X122290000Y-93957983D01*
X123710000Y-93542017D02*
X123710000Y-93957983D01*
G04 #@! TO.C,R8*
X104442017Y-97960000D02*
X104857983Y-97960000D01*
X104442017Y-96540000D02*
X104857983Y-96540000D01*
G04 #@! TO.C,R9*
X98790000Y-93042017D02*
X98790000Y-93457983D01*
X100210000Y-93042017D02*
X100210000Y-93457983D01*
G04 #@! TO.C,R10*
X76292017Y-79710000D02*
X76707983Y-79710000D01*
X76292017Y-78290000D02*
X76707983Y-78290000D01*
G04 #@! TO.C,R11*
X76292017Y-86210000D02*
X76707983Y-86210000D01*
X76292017Y-84790000D02*
X76707983Y-84790000D01*
G04 #@! TO.C,R12*
X76292017Y-73460000D02*
X76707983Y-73460000D01*
X76292017Y-72040000D02*
X76707983Y-72040000D01*
G04 #@! TO.C,R13*
X113607983Y-53490000D02*
X113192017Y-53490000D01*
X113607983Y-54910000D02*
X113192017Y-54910000D01*
G04 #@! TO.C,R14*
X118792017Y-54910000D02*
X119207983Y-54910000D01*
X118792017Y-53490000D02*
X119207983Y-53490000D01*
G04 #@! TO.C,R15*
X104910000Y-66207983D02*
X104910000Y-65792017D01*
X103490000Y-66207983D02*
X103490000Y-65792017D01*
G04 #@! TO.C,R16*
X103490000Y-59592017D02*
X103490000Y-60007983D01*
X104910000Y-59592017D02*
X104910000Y-60007983D01*
G04 #@! TO.C,R18*
X103490000Y-71392017D02*
X103490000Y-71807983D01*
X104910000Y-71392017D02*
X104910000Y-71807983D01*
D12*
G04 #@! TO.C,U1*
X111675000Y-114225000D02*
X110275000Y-114225000D01*
X111675000Y-119325000D02*
X115825000Y-119325000D01*
X111675000Y-114175000D02*
X115825000Y-114175000D01*
X111675000Y-119325000D02*
X111675000Y-119180000D01*
X115825000Y-119325000D02*
X115825000Y-119180000D01*
X115825000Y-114175000D02*
X115825000Y-114320000D01*
X111675000Y-114175000D02*
X111675000Y-114225000D01*
G04 #@! TO.C,U2*
X92325000Y-94375000D02*
X92325000Y-92575000D01*
X79425000Y-94375000D02*
X79425000Y-102125000D01*
X92575000Y-94375000D02*
X92575000Y-102125000D01*
X79425000Y-94375000D02*
X79760000Y-94375000D01*
X79425000Y-102125000D02*
X79760000Y-102125000D01*
X92575000Y-102125000D02*
X92240000Y-102125000D01*
X92575000Y-94375000D02*
X92325000Y-94375000D01*
G04 #@! TO.C,U3*
X61975000Y-103325000D02*
X61975000Y-104725000D01*
X67075000Y-103325000D02*
X67075000Y-99175000D01*
X61925000Y-103325000D02*
X61925000Y-99175000D01*
X67075000Y-103325000D02*
X66930000Y-103325000D01*
X67075000Y-99175000D02*
X66930000Y-99175000D01*
X61925000Y-99175000D02*
X62070000Y-99175000D01*
X61925000Y-103325000D02*
X61975000Y-103325000D01*
G04 #@! TO.C,U4*
X61975000Y-92075000D02*
X61975000Y-93475000D01*
X67075000Y-92075000D02*
X67075000Y-87925000D01*
X61925000Y-92075000D02*
X61925000Y-87925000D01*
X67075000Y-92075000D02*
X66930000Y-92075000D01*
X67075000Y-87925000D02*
X66930000Y-87925000D01*
X61925000Y-87925000D02*
X62070000Y-87925000D01*
X61925000Y-92075000D02*
X61975000Y-92075000D01*
G04 #@! TO.C,U5*
X61975000Y-80825000D02*
X61975000Y-82225000D01*
X67075000Y-80825000D02*
X67075000Y-76675000D01*
X61925000Y-80825000D02*
X61925000Y-76675000D01*
X67075000Y-80825000D02*
X66930000Y-80825000D01*
X67075000Y-76675000D02*
X66930000Y-76675000D01*
X61925000Y-76675000D02*
X62070000Y-76675000D01*
X61925000Y-80825000D02*
X61975000Y-80825000D01*
G04 #@! TO.C,U6*
X71341973Y-114918772D02*
X76616973Y-114918772D01*
X72616973Y-120318772D02*
X76616973Y-120318772D01*
G04 #@! TO.C,U7*
X115575000Y-97425000D02*
X116950000Y-97425000D01*
X115575000Y-88550000D02*
X111425000Y-88550000D01*
X115575000Y-97450000D02*
X111425000Y-97450000D01*
X115575000Y-88550000D02*
X115575000Y-88665000D01*
X111425000Y-88550000D02*
X111425000Y-88665000D01*
X111425000Y-97450000D02*
X111425000Y-97335000D01*
X115575000Y-97450000D02*
X115575000Y-97425000D01*
G04 #@! TO.C,U8*
X117498800Y-77750800D02*
X117498800Y-79349200D01*
X114651200Y-77750800D02*
X117498800Y-77750800D01*
X114651200Y-79349200D02*
X114651200Y-77750800D01*
X117498800Y-79349200D02*
X114651200Y-79349200D01*
X117498800Y-78270000D02*
X116975000Y-77750800D01*
G04 #@! TO.C,U9*
X113125000Y-57475000D02*
X111725000Y-57475000D01*
X113125000Y-62575000D02*
X117275000Y-62575000D01*
X113125000Y-57425000D02*
X117275000Y-57425000D01*
X113125000Y-62575000D02*
X113125000Y-62430000D01*
X117275000Y-62575000D02*
X117275000Y-62430000D01*
X117275000Y-57425000D02*
X117275000Y-57570000D01*
X113125000Y-57425000D02*
X113125000Y-57475000D01*
D11*
G04 #@! TO.C,X1*
X61975000Y-121565000D02*
G75*
G03X67025000Y-121565000I2525000J0D01*
G01*
X61975000Y-115315000D02*
G75*
G02X67025000Y-115315000I2525000J0D01*
G01*
X61975000Y-115315000D02*
X61975000Y-121565000D01*
X67025000Y-115315000D02*
X67025000Y-121565000D01*
G04 #@! TO.C,R17*
D12*
X107957142Y-74652380D02*
X107623809Y-74176190D01*
X107385714Y-74652380D02*
X107385714Y-73652380D01*
X107766666Y-73652380D01*
X107861904Y-73700000D01*
X107909523Y-73747619D01*
X107957142Y-73842857D01*
X107957142Y-73985714D01*
X107909523Y-74080952D01*
X107861904Y-74128571D01*
X107766666Y-74176190D01*
X107385714Y-74176190D01*
X108909523Y-74652380D02*
X108338095Y-74652380D01*
X108623809Y-74652380D02*
X108623809Y-73652380D01*
X108528571Y-73795238D01*
X108433333Y-73890476D01*
X108338095Y-73938095D01*
X109242857Y-73652380D02*
X109909523Y-73652380D01*
X109480952Y-74652380D01*
G04 #@! TO.C,C1*
X102333333Y-128107142D02*
X102285714Y-128154761D01*
X102142857Y-128202380D01*
X102047619Y-128202380D01*
X101904761Y-128154761D01*
X101809523Y-128059523D01*
X101761904Y-127964285D01*
X101714285Y-127773809D01*
X101714285Y-127630952D01*
X101761904Y-127440476D01*
X101809523Y-127345238D01*
X101904761Y-127250000D01*
X102047619Y-127202380D01*
X102142857Y-127202380D01*
X102285714Y-127250000D01*
X102333333Y-127297619D01*
X103285714Y-128202380D02*
X102714285Y-128202380D01*
X103000000Y-128202380D02*
X103000000Y-127202380D01*
X102904761Y-127345238D01*
X102809523Y-127440476D01*
X102714285Y-127488095D01*
G04 #@! TO.C,C2*
X121833333Y-112107142D02*
X121785714Y-112154761D01*
X121642857Y-112202380D01*
X121547619Y-112202380D01*
X121404761Y-112154761D01*
X121309523Y-112059523D01*
X121261904Y-111964285D01*
X121214285Y-111773809D01*
X121214285Y-111630952D01*
X121261904Y-111440476D01*
X121309523Y-111345238D01*
X121404761Y-111250000D01*
X121547619Y-111202380D01*
X121642857Y-111202380D01*
X121785714Y-111250000D01*
X121833333Y-111297619D01*
X122214285Y-111297619D02*
X122261904Y-111250000D01*
X122357142Y-111202380D01*
X122595238Y-111202380D01*
X122690476Y-111250000D01*
X122738095Y-111297619D01*
X122785714Y-111392857D01*
X122785714Y-111488095D01*
X122738095Y-111630952D01*
X122166666Y-112202380D01*
X122785714Y-112202380D01*
G04 #@! TO.C,C3*
X109583333Y-112257142D02*
X109535714Y-112304761D01*
X109392857Y-112352380D01*
X109297619Y-112352380D01*
X109154761Y-112304761D01*
X109059523Y-112209523D01*
X109011904Y-112114285D01*
X108964285Y-111923809D01*
X108964285Y-111780952D01*
X109011904Y-111590476D01*
X109059523Y-111495238D01*
X109154761Y-111400000D01*
X109297619Y-111352380D01*
X109392857Y-111352380D01*
X109535714Y-111400000D01*
X109583333Y-111447619D01*
X109916666Y-111352380D02*
X110535714Y-111352380D01*
X110202380Y-111733333D01*
X110345238Y-111733333D01*
X110440476Y-111780952D01*
X110488095Y-111828571D01*
X110535714Y-111923809D01*
X110535714Y-112161904D01*
X110488095Y-112257142D01*
X110440476Y-112304761D01*
X110345238Y-112352380D01*
X110059523Y-112352380D01*
X109964285Y-112304761D01*
X109916666Y-112257142D01*
G04 #@! TO.C,C4*
X105333333Y-120357142D02*
X105285714Y-120404761D01*
X105142857Y-120452380D01*
X105047619Y-120452380D01*
X104904761Y-120404761D01*
X104809523Y-120309523D01*
X104761904Y-120214285D01*
X104714285Y-120023809D01*
X104714285Y-119880952D01*
X104761904Y-119690476D01*
X104809523Y-119595238D01*
X104904761Y-119500000D01*
X105047619Y-119452380D01*
X105142857Y-119452380D01*
X105285714Y-119500000D01*
X105333333Y-119547619D01*
X106190476Y-119785714D02*
X106190476Y-120452380D01*
X105952380Y-119404761D02*
X105714285Y-120119047D01*
X106333333Y-120119047D01*
G04 #@! TO.C,C5*
X121833333Y-120357142D02*
X121785714Y-120404761D01*
X121642857Y-120452380D01*
X121547619Y-120452380D01*
X121404761Y-120404761D01*
X121309523Y-120309523D01*
X121261904Y-120214285D01*
X121214285Y-120023809D01*
X121214285Y-119880952D01*
X121261904Y-119690476D01*
X121309523Y-119595238D01*
X121404761Y-119500000D01*
X121547619Y-119452380D01*
X121642857Y-119452380D01*
X121785714Y-119500000D01*
X121833333Y-119547619D01*
X122738095Y-119452380D02*
X122261904Y-119452380D01*
X122214285Y-119928571D01*
X122261904Y-119880952D01*
X122357142Y-119833333D01*
X122595238Y-119833333D01*
X122690476Y-119880952D01*
X122738095Y-119928571D01*
X122785714Y-120023809D01*
X122785714Y-120261904D01*
X122738095Y-120357142D01*
X122690476Y-120404761D01*
X122595238Y-120452380D01*
X122357142Y-120452380D01*
X122261904Y-120404761D01*
X122214285Y-120357142D01*
G04 #@! TO.C,C6*
X109583333Y-126857142D02*
X109535714Y-126904761D01*
X109392857Y-126952380D01*
X109297619Y-126952380D01*
X109154761Y-126904761D01*
X109059523Y-126809523D01*
X109011904Y-126714285D01*
X108964285Y-126523809D01*
X108964285Y-126380952D01*
X109011904Y-126190476D01*
X109059523Y-126095238D01*
X109154761Y-126000000D01*
X109297619Y-125952380D01*
X109392857Y-125952380D01*
X109535714Y-126000000D01*
X109583333Y-126047619D01*
X110440476Y-125952380D02*
X110250000Y-125952380D01*
X110154761Y-126000000D01*
X110107142Y-126047619D01*
X110011904Y-126190476D01*
X109964285Y-126380952D01*
X109964285Y-126761904D01*
X110011904Y-126857142D01*
X110059523Y-126904761D01*
X110154761Y-126952380D01*
X110345238Y-126952380D01*
X110440476Y-126904761D01*
X110488095Y-126857142D01*
X110535714Y-126761904D01*
X110535714Y-126523809D01*
X110488095Y-126428571D01*
X110440476Y-126380952D01*
X110345238Y-126333333D01*
X110154761Y-126333333D01*
X110059523Y-126380952D01*
X110011904Y-126428571D01*
X109964285Y-126523809D01*
G04 #@! TO.C,C7*
X121833333Y-128357142D02*
X121785714Y-128404761D01*
X121642857Y-128452380D01*
X121547619Y-128452380D01*
X121404761Y-128404761D01*
X121309523Y-128309523D01*
X121261904Y-128214285D01*
X121214285Y-128023809D01*
X121214285Y-127880952D01*
X121261904Y-127690476D01*
X121309523Y-127595238D01*
X121404761Y-127500000D01*
X121547619Y-127452380D01*
X121642857Y-127452380D01*
X121785714Y-127500000D01*
X121833333Y-127547619D01*
X122166666Y-127452380D02*
X122833333Y-127452380D01*
X122404761Y-128452380D01*
G04 #@! TO.C,C8*
X99333333Y-121107142D02*
X99285714Y-121154761D01*
X99142857Y-121202380D01*
X99047619Y-121202380D01*
X98904761Y-121154761D01*
X98809523Y-121059523D01*
X98761904Y-120964285D01*
X98714285Y-120773809D01*
X98714285Y-120630952D01*
X98761904Y-120440476D01*
X98809523Y-120345238D01*
X98904761Y-120250000D01*
X99047619Y-120202380D01*
X99142857Y-120202380D01*
X99285714Y-120250000D01*
X99333333Y-120297619D01*
X99904761Y-120630952D02*
X99809523Y-120583333D01*
X99761904Y-120535714D01*
X99714285Y-120440476D01*
X99714285Y-120392857D01*
X99761904Y-120297619D01*
X99809523Y-120250000D01*
X99904761Y-120202380D01*
X100095238Y-120202380D01*
X100190476Y-120250000D01*
X100238095Y-120297619D01*
X100285714Y-120392857D01*
X100285714Y-120440476D01*
X100238095Y-120535714D01*
X100190476Y-120583333D01*
X100095238Y-120630952D01*
X99904761Y-120630952D01*
X99809523Y-120678571D01*
X99761904Y-120726190D01*
X99714285Y-120821428D01*
X99714285Y-121011904D01*
X99761904Y-121107142D01*
X99809523Y-121154761D01*
X99904761Y-121202380D01*
X100095238Y-121202380D01*
X100190476Y-121154761D01*
X100238095Y-121107142D01*
X100285714Y-121011904D01*
X100285714Y-120821428D01*
X100238095Y-120726190D01*
X100190476Y-120678571D01*
X100095238Y-120630952D01*
G04 #@! TO.C,C9*
X101583333Y-109707142D02*
X101535714Y-109754761D01*
X101392857Y-109802380D01*
X101297619Y-109802380D01*
X101154761Y-109754761D01*
X101059523Y-109659523D01*
X101011904Y-109564285D01*
X100964285Y-109373809D01*
X100964285Y-109230952D01*
X101011904Y-109040476D01*
X101059523Y-108945238D01*
X101154761Y-108850000D01*
X101297619Y-108802380D01*
X101392857Y-108802380D01*
X101535714Y-108850000D01*
X101583333Y-108897619D01*
X102059523Y-109802380D02*
X102250000Y-109802380D01*
X102345238Y-109754761D01*
X102392857Y-109707142D01*
X102488095Y-109564285D01*
X102535714Y-109373809D01*
X102535714Y-108992857D01*
X102488095Y-108897619D01*
X102440476Y-108850000D01*
X102345238Y-108802380D01*
X102154761Y-108802380D01*
X102059523Y-108850000D01*
X102011904Y-108897619D01*
X101964285Y-108992857D01*
X101964285Y-109230952D01*
X102011904Y-109326190D01*
X102059523Y-109373809D01*
X102154761Y-109421428D01*
X102345238Y-109421428D01*
X102440476Y-109373809D01*
X102488095Y-109326190D01*
X102535714Y-109230952D01*
G04 #@! TO.C,C10*
X85607142Y-113607142D02*
X85559523Y-113654761D01*
X85416666Y-113702380D01*
X85321428Y-113702380D01*
X85178571Y-113654761D01*
X85083333Y-113559523D01*
X85035714Y-113464285D01*
X84988095Y-113273809D01*
X84988095Y-113130952D01*
X85035714Y-112940476D01*
X85083333Y-112845238D01*
X85178571Y-112750000D01*
X85321428Y-112702380D01*
X85416666Y-112702380D01*
X85559523Y-112750000D01*
X85607142Y-112797619D01*
X86559523Y-113702380D02*
X85988095Y-113702380D01*
X86273809Y-113702380D02*
X86273809Y-112702380D01*
X86178571Y-112845238D01*
X86083333Y-112940476D01*
X85988095Y-112988095D01*
X87178571Y-112702380D02*
X87273809Y-112702380D01*
X87369047Y-112750000D01*
X87416666Y-112797619D01*
X87464285Y-112892857D01*
X87511904Y-113083333D01*
X87511904Y-113321428D01*
X87464285Y-113511904D01*
X87416666Y-113607142D01*
X87369047Y-113654761D01*
X87273809Y-113702380D01*
X87178571Y-113702380D01*
X87083333Y-113654761D01*
X87035714Y-113607142D01*
X86988095Y-113511904D01*
X86940476Y-113321428D01*
X86940476Y-113083333D01*
X86988095Y-112892857D01*
X87035714Y-112797619D01*
X87083333Y-112750000D01*
X87178571Y-112702380D01*
G04 #@! TO.C,C11*
X69857142Y-106357142D02*
X69809523Y-106404761D01*
X69666666Y-106452380D01*
X69571428Y-106452380D01*
X69428571Y-106404761D01*
X69333333Y-106309523D01*
X69285714Y-106214285D01*
X69238095Y-106023809D01*
X69238095Y-105880952D01*
X69285714Y-105690476D01*
X69333333Y-105595238D01*
X69428571Y-105500000D01*
X69571428Y-105452380D01*
X69666666Y-105452380D01*
X69809523Y-105500000D01*
X69857142Y-105547619D01*
X70809523Y-106452380D02*
X70238095Y-106452380D01*
X70523809Y-106452380D02*
X70523809Y-105452380D01*
X70428571Y-105595238D01*
X70333333Y-105690476D01*
X70238095Y-105738095D01*
X71761904Y-106452380D02*
X71190476Y-106452380D01*
X71476190Y-106452380D02*
X71476190Y-105452380D01*
X71380952Y-105595238D01*
X71285714Y-105690476D01*
X71190476Y-105738095D01*
G04 #@! TO.C,C12*
X57607142Y-109807142D02*
X57559523Y-109854761D01*
X57416666Y-109902380D01*
X57321428Y-109902380D01*
X57178571Y-109854761D01*
X57083333Y-109759523D01*
X57035714Y-109664285D01*
X56988095Y-109473809D01*
X56988095Y-109330952D01*
X57035714Y-109140476D01*
X57083333Y-109045238D01*
X57178571Y-108950000D01*
X57321428Y-108902380D01*
X57416666Y-108902380D01*
X57559523Y-108950000D01*
X57607142Y-108997619D01*
X58559523Y-109902380D02*
X57988095Y-109902380D01*
X58273809Y-109902380D02*
X58273809Y-108902380D01*
X58178571Y-109045238D01*
X58083333Y-109140476D01*
X57988095Y-109188095D01*
X58940476Y-108997619D02*
X58988095Y-108950000D01*
X59083333Y-108902380D01*
X59321428Y-108902380D01*
X59416666Y-108950000D01*
X59464285Y-108997619D01*
X59511904Y-109092857D01*
X59511904Y-109188095D01*
X59464285Y-109330952D01*
X58892857Y-109902380D01*
X59511904Y-109902380D01*
G04 #@! TO.C,C13*
X69857142Y-94357142D02*
X69809523Y-94404761D01*
X69666666Y-94452380D01*
X69571428Y-94452380D01*
X69428571Y-94404761D01*
X69333333Y-94309523D01*
X69285714Y-94214285D01*
X69238095Y-94023809D01*
X69238095Y-93880952D01*
X69285714Y-93690476D01*
X69333333Y-93595238D01*
X69428571Y-93500000D01*
X69571428Y-93452380D01*
X69666666Y-93452380D01*
X69809523Y-93500000D01*
X69857142Y-93547619D01*
X70809523Y-94452380D02*
X70238095Y-94452380D01*
X70523809Y-94452380D02*
X70523809Y-93452380D01*
X70428571Y-93595238D01*
X70333333Y-93690476D01*
X70238095Y-93738095D01*
X71142857Y-93452380D02*
X71761904Y-93452380D01*
X71428571Y-93833333D01*
X71571428Y-93833333D01*
X71666666Y-93880952D01*
X71714285Y-93928571D01*
X71761904Y-94023809D01*
X71761904Y-94261904D01*
X71714285Y-94357142D01*
X71666666Y-94404761D01*
X71571428Y-94452380D01*
X71285714Y-94452380D01*
X71190476Y-94404761D01*
X71142857Y-94357142D01*
G04 #@! TO.C,C14*
X57357142Y-93857142D02*
X57309523Y-93904761D01*
X57166666Y-93952380D01*
X57071428Y-93952380D01*
X56928571Y-93904761D01*
X56833333Y-93809523D01*
X56785714Y-93714285D01*
X56738095Y-93523809D01*
X56738095Y-93380952D01*
X56785714Y-93190476D01*
X56833333Y-93095238D01*
X56928571Y-93000000D01*
X57071428Y-92952380D01*
X57166666Y-92952380D01*
X57309523Y-93000000D01*
X57357142Y-93047619D01*
X58309523Y-93952380D02*
X57738095Y-93952380D01*
X58023809Y-93952380D02*
X58023809Y-92952380D01*
X57928571Y-93095238D01*
X57833333Y-93190476D01*
X57738095Y-93238095D01*
X59166666Y-93285714D02*
X59166666Y-93952380D01*
X58928571Y-92904761D02*
X58690476Y-93619047D01*
X59309523Y-93619047D01*
G04 #@! TO.C,C15*
X57357142Y-74107142D02*
X57309523Y-74154761D01*
X57166666Y-74202380D01*
X57071428Y-74202380D01*
X56928571Y-74154761D01*
X56833333Y-74059523D01*
X56785714Y-73964285D01*
X56738095Y-73773809D01*
X56738095Y-73630952D01*
X56785714Y-73440476D01*
X56833333Y-73345238D01*
X56928571Y-73250000D01*
X57071428Y-73202380D01*
X57166666Y-73202380D01*
X57309523Y-73250000D01*
X57357142Y-73297619D01*
X58309523Y-74202380D02*
X57738095Y-74202380D01*
X58023809Y-74202380D02*
X58023809Y-73202380D01*
X57928571Y-73345238D01*
X57833333Y-73440476D01*
X57738095Y-73488095D01*
X59214285Y-73202380D02*
X58738095Y-73202380D01*
X58690476Y-73678571D01*
X58738095Y-73630952D01*
X58833333Y-73583333D01*
X59071428Y-73583333D01*
X59166666Y-73630952D01*
X59214285Y-73678571D01*
X59261904Y-73773809D01*
X59261904Y-74011904D01*
X59214285Y-74107142D01*
X59166666Y-74154761D01*
X59071428Y-74202380D01*
X58833333Y-74202380D01*
X58738095Y-74154761D01*
X58690476Y-74107142D01*
G04 #@! TO.C,C16*
X57357142Y-82357142D02*
X57309523Y-82404761D01*
X57166666Y-82452380D01*
X57071428Y-82452380D01*
X56928571Y-82404761D01*
X56833333Y-82309523D01*
X56785714Y-82214285D01*
X56738095Y-82023809D01*
X56738095Y-81880952D01*
X56785714Y-81690476D01*
X56833333Y-81595238D01*
X56928571Y-81500000D01*
X57071428Y-81452380D01*
X57166666Y-81452380D01*
X57309523Y-81500000D01*
X57357142Y-81547619D01*
X58309523Y-82452380D02*
X57738095Y-82452380D01*
X58023809Y-82452380D02*
X58023809Y-81452380D01*
X57928571Y-81595238D01*
X57833333Y-81690476D01*
X57738095Y-81738095D01*
X59166666Y-81452380D02*
X58976190Y-81452380D01*
X58880952Y-81500000D01*
X58833333Y-81547619D01*
X58738095Y-81690476D01*
X58690476Y-81880952D01*
X58690476Y-82261904D01*
X58738095Y-82357142D01*
X58785714Y-82404761D01*
X58880952Y-82452380D01*
X59071428Y-82452380D01*
X59166666Y-82404761D01*
X59214285Y-82357142D01*
X59261904Y-82261904D01*
X59261904Y-82023809D01*
X59214285Y-81928571D01*
X59166666Y-81880952D01*
X59071428Y-81833333D01*
X58880952Y-81833333D01*
X58785714Y-81880952D01*
X58738095Y-81928571D01*
X58690476Y-82023809D01*
G04 #@! TO.C,C17*
X57607142Y-118357142D02*
X57559523Y-118404761D01*
X57416666Y-118452380D01*
X57321428Y-118452380D01*
X57178571Y-118404761D01*
X57083333Y-118309523D01*
X57035714Y-118214285D01*
X56988095Y-118023809D01*
X56988095Y-117880952D01*
X57035714Y-117690476D01*
X57083333Y-117595238D01*
X57178571Y-117500000D01*
X57321428Y-117452380D01*
X57416666Y-117452380D01*
X57559523Y-117500000D01*
X57607142Y-117547619D01*
X58559523Y-118452380D02*
X57988095Y-118452380D01*
X58273809Y-118452380D02*
X58273809Y-117452380D01*
X58178571Y-117595238D01*
X58083333Y-117690476D01*
X57988095Y-117738095D01*
X58892857Y-117452380D02*
X59559523Y-117452380D01*
X59130952Y-118452380D01*
G04 #@! TO.C,C18*
X57607142Y-123107142D02*
X57559523Y-123154761D01*
X57416666Y-123202380D01*
X57321428Y-123202380D01*
X57178571Y-123154761D01*
X57083333Y-123059523D01*
X57035714Y-122964285D01*
X56988095Y-122773809D01*
X56988095Y-122630952D01*
X57035714Y-122440476D01*
X57083333Y-122345238D01*
X57178571Y-122250000D01*
X57321428Y-122202380D01*
X57416666Y-122202380D01*
X57559523Y-122250000D01*
X57607142Y-122297619D01*
X58559523Y-123202380D02*
X57988095Y-123202380D01*
X58273809Y-123202380D02*
X58273809Y-122202380D01*
X58178571Y-122345238D01*
X58083333Y-122440476D01*
X57988095Y-122488095D01*
X59130952Y-122630952D02*
X59035714Y-122583333D01*
X58988095Y-122535714D01*
X58940476Y-122440476D01*
X58940476Y-122392857D01*
X58988095Y-122297619D01*
X59035714Y-122250000D01*
X59130952Y-122202380D01*
X59321428Y-122202380D01*
X59416666Y-122250000D01*
X59464285Y-122297619D01*
X59511904Y-122392857D01*
X59511904Y-122440476D01*
X59464285Y-122535714D01*
X59416666Y-122583333D01*
X59321428Y-122630952D01*
X59130952Y-122630952D01*
X59035714Y-122678571D01*
X58988095Y-122726190D01*
X58940476Y-122821428D01*
X58940476Y-123011904D01*
X58988095Y-123107142D01*
X59035714Y-123154761D01*
X59130952Y-123202380D01*
X59321428Y-123202380D01*
X59416666Y-123154761D01*
X59464285Y-123107142D01*
X59511904Y-123011904D01*
X59511904Y-122821428D01*
X59464285Y-122726190D01*
X59416666Y-122678571D01*
X59321428Y-122630952D01*
G04 #@! TO.C,C19*
X69857142Y-113607142D02*
X69809523Y-113654761D01*
X69666666Y-113702380D01*
X69571428Y-113702380D01*
X69428571Y-113654761D01*
X69333333Y-113559523D01*
X69285714Y-113464285D01*
X69238095Y-113273809D01*
X69238095Y-113130952D01*
X69285714Y-112940476D01*
X69333333Y-112845238D01*
X69428571Y-112750000D01*
X69571428Y-112702380D01*
X69666666Y-112702380D01*
X69809523Y-112750000D01*
X69857142Y-112797619D01*
X70809523Y-113702380D02*
X70238095Y-113702380D01*
X70523809Y-113702380D02*
X70523809Y-112702380D01*
X70428571Y-112845238D01*
X70333333Y-112940476D01*
X70238095Y-112988095D01*
X71285714Y-113702380D02*
X71476190Y-113702380D01*
X71571428Y-113654761D01*
X71619047Y-113607142D01*
X71714285Y-113464285D01*
X71761904Y-113273809D01*
X71761904Y-112892857D01*
X71714285Y-112797619D01*
X71666666Y-112750000D01*
X71571428Y-112702380D01*
X71380952Y-112702380D01*
X71285714Y-112750000D01*
X71238095Y-112797619D01*
X71190476Y-112892857D01*
X71190476Y-113130952D01*
X71238095Y-113226190D01*
X71285714Y-113273809D01*
X71380952Y-113321428D01*
X71571428Y-113321428D01*
X71666666Y-113273809D01*
X71714285Y-113226190D01*
X71761904Y-113130952D01*
G04 #@! TO.C,C20*
X77557142Y-128757142D02*
X77509523Y-128804761D01*
X77366666Y-128852380D01*
X77271428Y-128852380D01*
X77128571Y-128804761D01*
X77033333Y-128709523D01*
X76985714Y-128614285D01*
X76938095Y-128423809D01*
X76938095Y-128280952D01*
X76985714Y-128090476D01*
X77033333Y-127995238D01*
X77128571Y-127900000D01*
X77271428Y-127852380D01*
X77366666Y-127852380D01*
X77509523Y-127900000D01*
X77557142Y-127947619D01*
X77938095Y-127947619D02*
X77985714Y-127900000D01*
X78080952Y-127852380D01*
X78319047Y-127852380D01*
X78414285Y-127900000D01*
X78461904Y-127947619D01*
X78509523Y-128042857D01*
X78509523Y-128138095D01*
X78461904Y-128280952D01*
X77890476Y-128852380D01*
X78509523Y-128852380D01*
X79128571Y-127852380D02*
X79223809Y-127852380D01*
X79319047Y-127900000D01*
X79366666Y-127947619D01*
X79414285Y-128042857D01*
X79461904Y-128233333D01*
X79461904Y-128471428D01*
X79414285Y-128661904D01*
X79366666Y-128757142D01*
X79319047Y-128804761D01*
X79223809Y-128852380D01*
X79128571Y-128852380D01*
X79033333Y-128804761D01*
X78985714Y-128757142D01*
X78938095Y-128661904D01*
X78890476Y-128471428D01*
X78890476Y-128233333D01*
X78938095Y-128042857D01*
X78985714Y-127947619D01*
X79033333Y-127900000D01*
X79128571Y-127852380D01*
G04 #@! TO.C,C21*
X71093009Y-128711098D02*
X71045390Y-128758717D01*
X70902533Y-128806336D01*
X70807295Y-128806336D01*
X70664438Y-128758717D01*
X70569200Y-128663479D01*
X70521581Y-128568241D01*
X70473962Y-128377765D01*
X70473962Y-128234908D01*
X70521581Y-128044432D01*
X70569200Y-127949194D01*
X70664438Y-127853956D01*
X70807295Y-127806336D01*
X70902533Y-127806336D01*
X71045390Y-127853956D01*
X71093009Y-127901575D01*
X71473962Y-127901575D02*
X71521581Y-127853956D01*
X71616819Y-127806336D01*
X71854914Y-127806336D01*
X71950152Y-127853956D01*
X71997771Y-127901575D01*
X72045390Y-127996813D01*
X72045390Y-128092051D01*
X71997771Y-128234908D01*
X71426343Y-128806336D01*
X72045390Y-128806336D01*
X72997771Y-128806336D02*
X72426343Y-128806336D01*
X72712057Y-128806336D02*
X72712057Y-127806336D01*
X72616819Y-127949194D01*
X72521581Y-128044432D01*
X72426343Y-128092051D01*
G04 #@! TO.C,C22*
X121357142Y-104357142D02*
X121309523Y-104404761D01*
X121166666Y-104452380D01*
X121071428Y-104452380D01*
X120928571Y-104404761D01*
X120833333Y-104309523D01*
X120785714Y-104214285D01*
X120738095Y-104023809D01*
X120738095Y-103880952D01*
X120785714Y-103690476D01*
X120833333Y-103595238D01*
X120928571Y-103500000D01*
X121071428Y-103452380D01*
X121166666Y-103452380D01*
X121309523Y-103500000D01*
X121357142Y-103547619D01*
X121738095Y-103547619D02*
X121785714Y-103500000D01*
X121880952Y-103452380D01*
X122119047Y-103452380D01*
X122214285Y-103500000D01*
X122261904Y-103547619D01*
X122309523Y-103642857D01*
X122309523Y-103738095D01*
X122261904Y-103880952D01*
X121690476Y-104452380D01*
X122309523Y-104452380D01*
X122690476Y-103547619D02*
X122738095Y-103500000D01*
X122833333Y-103452380D01*
X123071428Y-103452380D01*
X123166666Y-103500000D01*
X123214285Y-103547619D01*
X123261904Y-103642857D01*
X123261904Y-103738095D01*
X123214285Y-103880952D01*
X122642857Y-104452380D01*
X123261904Y-104452380D01*
G04 #@! TO.C,C23*
X110107142Y-101807142D02*
X110059523Y-101854761D01*
X109916666Y-101902380D01*
X109821428Y-101902380D01*
X109678571Y-101854761D01*
X109583333Y-101759523D01*
X109535714Y-101664285D01*
X109488095Y-101473809D01*
X109488095Y-101330952D01*
X109535714Y-101140476D01*
X109583333Y-101045238D01*
X109678571Y-100950000D01*
X109821428Y-100902380D01*
X109916666Y-100902380D01*
X110059523Y-100950000D01*
X110107142Y-100997619D01*
X110488095Y-100997619D02*
X110535714Y-100950000D01*
X110630952Y-100902380D01*
X110869047Y-100902380D01*
X110964285Y-100950000D01*
X111011904Y-100997619D01*
X111059523Y-101092857D01*
X111059523Y-101188095D01*
X111011904Y-101330952D01*
X110440476Y-101902380D01*
X111059523Y-101902380D01*
X111392857Y-100902380D02*
X112011904Y-100902380D01*
X111678571Y-101283333D01*
X111821428Y-101283333D01*
X111916666Y-101330952D01*
X111964285Y-101378571D01*
X112011904Y-101473809D01*
X112011904Y-101711904D01*
X111964285Y-101807142D01*
X111916666Y-101854761D01*
X111821428Y-101902380D01*
X111535714Y-101902380D01*
X111440476Y-101854761D01*
X111392857Y-101807142D01*
G04 #@! TO.C,C24*
X115157142Y-105557142D02*
X115109523Y-105604761D01*
X114966666Y-105652380D01*
X114871428Y-105652380D01*
X114728571Y-105604761D01*
X114633333Y-105509523D01*
X114585714Y-105414285D01*
X114538095Y-105223809D01*
X114538095Y-105080952D01*
X114585714Y-104890476D01*
X114633333Y-104795238D01*
X114728571Y-104700000D01*
X114871428Y-104652380D01*
X114966666Y-104652380D01*
X115109523Y-104700000D01*
X115157142Y-104747619D01*
X115538095Y-104747619D02*
X115585714Y-104700000D01*
X115680952Y-104652380D01*
X115919047Y-104652380D01*
X116014285Y-104700000D01*
X116061904Y-104747619D01*
X116109523Y-104842857D01*
X116109523Y-104938095D01*
X116061904Y-105080952D01*
X115490476Y-105652380D01*
X116109523Y-105652380D01*
X116966666Y-104985714D02*
X116966666Y-105652380D01*
X116728571Y-104604761D02*
X116490476Y-105319047D01*
X117109523Y-105319047D01*
G04 #@! TO.C,C25*
X105257142Y-105557142D02*
X105209523Y-105604761D01*
X105066666Y-105652380D01*
X104971428Y-105652380D01*
X104828571Y-105604761D01*
X104733333Y-105509523D01*
X104685714Y-105414285D01*
X104638095Y-105223809D01*
X104638095Y-105080952D01*
X104685714Y-104890476D01*
X104733333Y-104795238D01*
X104828571Y-104700000D01*
X104971428Y-104652380D01*
X105066666Y-104652380D01*
X105209523Y-104700000D01*
X105257142Y-104747619D01*
X105638095Y-104747619D02*
X105685714Y-104700000D01*
X105780952Y-104652380D01*
X106019047Y-104652380D01*
X106114285Y-104700000D01*
X106161904Y-104747619D01*
X106209523Y-104842857D01*
X106209523Y-104938095D01*
X106161904Y-105080952D01*
X105590476Y-105652380D01*
X106209523Y-105652380D01*
X107114285Y-104652380D02*
X106638095Y-104652380D01*
X106590476Y-105128571D01*
X106638095Y-105080952D01*
X106733333Y-105033333D01*
X106971428Y-105033333D01*
X107066666Y-105080952D01*
X107114285Y-105128571D01*
X107161904Y-105223809D01*
X107161904Y-105461904D01*
X107114285Y-105557142D01*
X107066666Y-105604761D01*
X106971428Y-105652380D01*
X106733333Y-105652380D01*
X106638095Y-105604761D01*
X106590476Y-105557142D01*
G04 #@! TO.C,C26*
X95107142Y-96357142D02*
X95059523Y-96404761D01*
X94916666Y-96452380D01*
X94821428Y-96452380D01*
X94678571Y-96404761D01*
X94583333Y-96309523D01*
X94535714Y-96214285D01*
X94488095Y-96023809D01*
X94488095Y-95880952D01*
X94535714Y-95690476D01*
X94583333Y-95595238D01*
X94678571Y-95500000D01*
X94821428Y-95452380D01*
X94916666Y-95452380D01*
X95059523Y-95500000D01*
X95107142Y-95547619D01*
X95488095Y-95547619D02*
X95535714Y-95500000D01*
X95630952Y-95452380D01*
X95869047Y-95452380D01*
X95964285Y-95500000D01*
X96011904Y-95547619D01*
X96059523Y-95642857D01*
X96059523Y-95738095D01*
X96011904Y-95880952D01*
X95440476Y-96452380D01*
X96059523Y-96452380D01*
X96916666Y-95452380D02*
X96726190Y-95452380D01*
X96630952Y-95500000D01*
X96583333Y-95547619D01*
X96488095Y-95690476D01*
X96440476Y-95880952D01*
X96440476Y-96261904D01*
X96488095Y-96357142D01*
X96535714Y-96404761D01*
X96630952Y-96452380D01*
X96821428Y-96452380D01*
X96916666Y-96404761D01*
X96964285Y-96357142D01*
X97011904Y-96261904D01*
X97011904Y-96023809D01*
X96964285Y-95928571D01*
X96916666Y-95880952D01*
X96821428Y-95833333D01*
X96630952Y-95833333D01*
X96535714Y-95880952D01*
X96488095Y-95928571D01*
X96440476Y-96023809D01*
G04 #@! TO.C,C27*
X122357142Y-60157142D02*
X122309523Y-60204761D01*
X122166666Y-60252380D01*
X122071428Y-60252380D01*
X121928571Y-60204761D01*
X121833333Y-60109523D01*
X121785714Y-60014285D01*
X121738095Y-59823809D01*
X121738095Y-59680952D01*
X121785714Y-59490476D01*
X121833333Y-59395238D01*
X121928571Y-59300000D01*
X122071428Y-59252380D01*
X122166666Y-59252380D01*
X122309523Y-59300000D01*
X122357142Y-59347619D01*
X122738095Y-59347619D02*
X122785714Y-59300000D01*
X122880952Y-59252380D01*
X123119047Y-59252380D01*
X123214285Y-59300000D01*
X123261904Y-59347619D01*
X123309523Y-59442857D01*
X123309523Y-59538095D01*
X123261904Y-59680952D01*
X122690476Y-60252380D01*
X123309523Y-60252380D01*
X123642857Y-59252380D02*
X124309523Y-59252380D01*
X123880952Y-60252380D01*
G04 #@! TO.C,C28*
X122357142Y-74357142D02*
X122309523Y-74404761D01*
X122166666Y-74452380D01*
X122071428Y-74452380D01*
X121928571Y-74404761D01*
X121833333Y-74309523D01*
X121785714Y-74214285D01*
X121738095Y-74023809D01*
X121738095Y-73880952D01*
X121785714Y-73690476D01*
X121833333Y-73595238D01*
X121928571Y-73500000D01*
X122071428Y-73452380D01*
X122166666Y-73452380D01*
X122309523Y-73500000D01*
X122357142Y-73547619D01*
X122738095Y-73547619D02*
X122785714Y-73500000D01*
X122880952Y-73452380D01*
X123119047Y-73452380D01*
X123214285Y-73500000D01*
X123261904Y-73547619D01*
X123309523Y-73642857D01*
X123309523Y-73738095D01*
X123261904Y-73880952D01*
X122690476Y-74452380D01*
X123309523Y-74452380D01*
X123880952Y-73880952D02*
X123785714Y-73833333D01*
X123738095Y-73785714D01*
X123690476Y-73690476D01*
X123690476Y-73642857D01*
X123738095Y-73547619D01*
X123785714Y-73500000D01*
X123880952Y-73452380D01*
X124071428Y-73452380D01*
X124166666Y-73500000D01*
X124214285Y-73547619D01*
X124261904Y-73642857D01*
X124261904Y-73690476D01*
X124214285Y-73785714D01*
X124166666Y-73833333D01*
X124071428Y-73880952D01*
X123880952Y-73880952D01*
X123785714Y-73928571D01*
X123738095Y-73976190D01*
X123690476Y-74071428D01*
X123690476Y-74261904D01*
X123738095Y-74357142D01*
X123785714Y-74404761D01*
X123880952Y-74452380D01*
X124071428Y-74452380D01*
X124166666Y-74404761D01*
X124214285Y-74357142D01*
X124261904Y-74261904D01*
X124261904Y-74071428D01*
X124214285Y-73976190D01*
X124166666Y-73928571D01*
X124071428Y-73880952D01*
G04 #@! TO.C,C29*
X112557142Y-74557142D02*
X112509523Y-74604761D01*
X112366666Y-74652380D01*
X112271428Y-74652380D01*
X112128571Y-74604761D01*
X112033333Y-74509523D01*
X111985714Y-74414285D01*
X111938095Y-74223809D01*
X111938095Y-74080952D01*
X111985714Y-73890476D01*
X112033333Y-73795238D01*
X112128571Y-73700000D01*
X112271428Y-73652380D01*
X112366666Y-73652380D01*
X112509523Y-73700000D01*
X112557142Y-73747619D01*
X112938095Y-73747619D02*
X112985714Y-73700000D01*
X113080952Y-73652380D01*
X113319047Y-73652380D01*
X113414285Y-73700000D01*
X113461904Y-73747619D01*
X113509523Y-73842857D01*
X113509523Y-73938095D01*
X113461904Y-74080952D01*
X112890476Y-74652380D01*
X113509523Y-74652380D01*
X113985714Y-74652380D02*
X114176190Y-74652380D01*
X114271428Y-74604761D01*
X114319047Y-74557142D01*
X114414285Y-74414285D01*
X114461904Y-74223809D01*
X114461904Y-73842857D01*
X114414285Y-73747619D01*
X114366666Y-73700000D01*
X114271428Y-73652380D01*
X114080952Y-73652380D01*
X113985714Y-73700000D01*
X113938095Y-73747619D01*
X113890476Y-73842857D01*
X113890476Y-74080952D01*
X113938095Y-74176190D01*
X113985714Y-74223809D01*
X114080952Y-74271428D01*
X114271428Y-74271428D01*
X114366666Y-74223809D01*
X114414285Y-74176190D01*
X114461904Y-74080952D01*
G04 #@! TO.C,D1*
X115261904Y-112602380D02*
X115261904Y-111602380D01*
X115500000Y-111602380D01*
X115642857Y-111650000D01*
X115738095Y-111745238D01*
X115785714Y-111840476D01*
X115833333Y-112030952D01*
X115833333Y-112173809D01*
X115785714Y-112364285D01*
X115738095Y-112459523D01*
X115642857Y-112554761D01*
X115500000Y-112602380D01*
X115261904Y-112602380D01*
X116785714Y-112602380D02*
X116214285Y-112602380D01*
X116500000Y-112602380D02*
X116500000Y-111602380D01*
X116404761Y-111745238D01*
X116309523Y-111840476D01*
X116214285Y-111888095D01*
G04 #@! TO.C,D2*
X115261904Y-127202380D02*
X115261904Y-126202380D01*
X115500000Y-126202380D01*
X115642857Y-126250000D01*
X115738095Y-126345238D01*
X115785714Y-126440476D01*
X115833333Y-126630952D01*
X115833333Y-126773809D01*
X115785714Y-126964285D01*
X115738095Y-127059523D01*
X115642857Y-127154761D01*
X115500000Y-127202380D01*
X115261904Y-127202380D01*
X116214285Y-126297619D02*
X116261904Y-126250000D01*
X116357142Y-126202380D01*
X116595238Y-126202380D01*
X116690476Y-126250000D01*
X116738095Y-126297619D01*
X116785714Y-126392857D01*
X116785714Y-126488095D01*
X116738095Y-126630952D01*
X116166666Y-127202380D01*
X116785714Y-127202380D01*
G04 #@! TO.C,K1*
X89483333Y-66816666D02*
X89483333Y-66116666D01*
X89883333Y-66816666D02*
X89583333Y-66416666D01*
X89883333Y-66116666D02*
X89483333Y-66516666D01*
X90550000Y-66816666D02*
X90150000Y-66816666D01*
X90350000Y-66816666D02*
X90350000Y-66116666D01*
X90283333Y-66216666D01*
X90216666Y-66283333D01*
X90150000Y-66316666D01*
G04 #@! TO.C,K2*
X89483333Y-79316666D02*
X89483333Y-78616666D01*
X89883333Y-79316666D02*
X89583333Y-78916666D01*
X89883333Y-78616666D02*
X89483333Y-79016666D01*
X90150000Y-78683333D02*
X90183333Y-78650000D01*
X90250000Y-78616666D01*
X90416666Y-78616666D01*
X90483333Y-78650000D01*
X90516666Y-78683333D01*
X90550000Y-78750000D01*
X90550000Y-78816666D01*
X90516666Y-78916666D01*
X90116666Y-79316666D01*
X90550000Y-79316666D01*
G04 #@! TO.C,K3*
X89483333Y-85816666D02*
X89483333Y-85116666D01*
X89883333Y-85816666D02*
X89583333Y-85416666D01*
X89883333Y-85116666D02*
X89483333Y-85516666D01*
X90116666Y-85116666D02*
X90550000Y-85116666D01*
X90316666Y-85383333D01*
X90416666Y-85383333D01*
X90483333Y-85416666D01*
X90516666Y-85450000D01*
X90550000Y-85516666D01*
X90550000Y-85683333D01*
X90516666Y-85750000D01*
X90483333Y-85783333D01*
X90416666Y-85816666D01*
X90216666Y-85816666D01*
X90150000Y-85783333D01*
X90116666Y-85750000D01*
G04 #@! TO.C,K4*
X89483333Y-72816666D02*
X89483333Y-72116666D01*
X89883333Y-72816666D02*
X89583333Y-72416666D01*
X89883333Y-72116666D02*
X89483333Y-72516666D01*
X90483333Y-72350000D02*
X90483333Y-72816666D01*
X90316666Y-72083333D02*
X90150000Y-72583333D01*
X90583333Y-72583333D01*
G04 #@! TO.C,P1*
X89011904Y-123952380D02*
X89011904Y-122952380D01*
X89392857Y-122952380D01*
X89488095Y-123000000D01*
X89535714Y-123047619D01*
X89583333Y-123142857D01*
X89583333Y-123285714D01*
X89535714Y-123380952D01*
X89488095Y-123428571D01*
X89392857Y-123476190D01*
X89011904Y-123476190D01*
X90535714Y-123952380D02*
X89964285Y-123952380D01*
X90250000Y-123952380D02*
X90250000Y-122952380D01*
X90154761Y-123095238D01*
X90059523Y-123190476D01*
X89964285Y-123238095D01*
G04 #@! TO.C,P2*
X89261904Y-52452380D02*
X89261904Y-51452380D01*
X89642857Y-51452380D01*
X89738095Y-51500000D01*
X89785714Y-51547619D01*
X89833333Y-51642857D01*
X89833333Y-51785714D01*
X89785714Y-51880952D01*
X89738095Y-51928571D01*
X89642857Y-51976190D01*
X89261904Y-51976190D01*
X90214285Y-51547619D02*
X90261904Y-51500000D01*
X90357142Y-51452380D01*
X90595238Y-51452380D01*
X90690476Y-51500000D01*
X90738095Y-51547619D01*
X90785714Y-51642857D01*
X90785714Y-51738095D01*
X90738095Y-51880952D01*
X90166666Y-52452380D01*
X90785714Y-52452380D01*
G04 #@! TO.C,P3*
X97011904Y-115452380D02*
X97011904Y-114452380D01*
X97392857Y-114452380D01*
X97488095Y-114500000D01*
X97535714Y-114547619D01*
X97583333Y-114642857D01*
X97583333Y-114785714D01*
X97535714Y-114880952D01*
X97488095Y-114928571D01*
X97392857Y-114976190D01*
X97011904Y-114976190D01*
X97916666Y-114452380D02*
X98535714Y-114452380D01*
X98202380Y-114833333D01*
X98345238Y-114833333D01*
X98440476Y-114880952D01*
X98488095Y-114928571D01*
X98535714Y-115023809D01*
X98535714Y-115261904D01*
X98488095Y-115357142D01*
X98440476Y-115404761D01*
X98345238Y-115452380D01*
X98059523Y-115452380D01*
X97964285Y-115404761D01*
X97916666Y-115357142D01*
G04 #@! TO.C,R1*
X75333333Y-94452380D02*
X75000000Y-93976190D01*
X74761904Y-94452380D02*
X74761904Y-93452380D01*
X75142857Y-93452380D01*
X75238095Y-93500000D01*
X75285714Y-93547619D01*
X75333333Y-93642857D01*
X75333333Y-93785714D01*
X75285714Y-93880952D01*
X75238095Y-93928571D01*
X75142857Y-93976190D01*
X74761904Y-93976190D01*
X76285714Y-94452380D02*
X75714285Y-94452380D01*
X76000000Y-94452380D02*
X76000000Y-93452380D01*
X75904761Y-93595238D01*
X75809523Y-93690476D01*
X75714285Y-93738095D01*
G04 #@! TO.C,R2*
X58083333Y-102452380D02*
X57750000Y-101976190D01*
X57511904Y-102452380D02*
X57511904Y-101452380D01*
X57892857Y-101452380D01*
X57988095Y-101500000D01*
X58035714Y-101547619D01*
X58083333Y-101642857D01*
X58083333Y-101785714D01*
X58035714Y-101880952D01*
X57988095Y-101928571D01*
X57892857Y-101976190D01*
X57511904Y-101976190D01*
X58464285Y-101547619D02*
X58511904Y-101500000D01*
X58607142Y-101452380D01*
X58845238Y-101452380D01*
X58940476Y-101500000D01*
X58988095Y-101547619D01*
X59035714Y-101642857D01*
X59035714Y-101738095D01*
X58988095Y-101880952D01*
X58416666Y-102452380D01*
X59035714Y-102452380D01*
G04 #@! TO.C,R3*
X61333333Y-74202380D02*
X61000000Y-73726190D01*
X60761904Y-74202380D02*
X60761904Y-73202380D01*
X61142857Y-73202380D01*
X61238095Y-73250000D01*
X61285714Y-73297619D01*
X61333333Y-73392857D01*
X61333333Y-73535714D01*
X61285714Y-73630952D01*
X61238095Y-73678571D01*
X61142857Y-73726190D01*
X60761904Y-73726190D01*
X61666666Y-73202380D02*
X62285714Y-73202380D01*
X61952380Y-73583333D01*
X62095238Y-73583333D01*
X62190476Y-73630952D01*
X62238095Y-73678571D01*
X62285714Y-73773809D01*
X62285714Y-74011904D01*
X62238095Y-74107142D01*
X62190476Y-74154761D01*
X62095238Y-74202380D01*
X61809523Y-74202380D01*
X61714285Y-74154761D01*
X61666666Y-74107142D01*
G04 #@! TO.C,R4*
X110633333Y-105652380D02*
X110300000Y-105176190D01*
X110061904Y-105652380D02*
X110061904Y-104652380D01*
X110442857Y-104652380D01*
X110538095Y-104700000D01*
X110585714Y-104747619D01*
X110633333Y-104842857D01*
X110633333Y-104985714D01*
X110585714Y-105080952D01*
X110538095Y-105128571D01*
X110442857Y-105176190D01*
X110061904Y-105176190D01*
X111490476Y-104985714D02*
X111490476Y-105652380D01*
X111252380Y-104604761D02*
X111014285Y-105319047D01*
X111633333Y-105319047D01*
G04 #@! TO.C,R5*
X122833333Y-83102380D02*
X122500000Y-82626190D01*
X122261904Y-83102380D02*
X122261904Y-82102380D01*
X122642857Y-82102380D01*
X122738095Y-82150000D01*
X122785714Y-82197619D01*
X122833333Y-82292857D01*
X122833333Y-82435714D01*
X122785714Y-82530952D01*
X122738095Y-82578571D01*
X122642857Y-82626190D01*
X122261904Y-82626190D01*
X123738095Y-82102380D02*
X123261904Y-82102380D01*
X123214285Y-82578571D01*
X123261904Y-82530952D01*
X123357142Y-82483333D01*
X123595238Y-82483333D01*
X123690476Y-82530952D01*
X123738095Y-82578571D01*
X123785714Y-82673809D01*
X123785714Y-82911904D01*
X123738095Y-83007142D01*
X123690476Y-83054761D01*
X123595238Y-83102380D01*
X123357142Y-83102380D01*
X123261904Y-83054761D01*
X123214285Y-83007142D01*
G04 #@! TO.C,R6*
X122833333Y-90202380D02*
X122500000Y-89726190D01*
X122261904Y-90202380D02*
X122261904Y-89202380D01*
X122642857Y-89202380D01*
X122738095Y-89250000D01*
X122785714Y-89297619D01*
X122833333Y-89392857D01*
X122833333Y-89535714D01*
X122785714Y-89630952D01*
X122738095Y-89678571D01*
X122642857Y-89726190D01*
X122261904Y-89726190D01*
X123690476Y-89202380D02*
X123500000Y-89202380D01*
X123404761Y-89250000D01*
X123357142Y-89297619D01*
X123261904Y-89440476D01*
X123214285Y-89630952D01*
X123214285Y-90011904D01*
X123261904Y-90107142D01*
X123309523Y-90154761D01*
X123404761Y-90202380D01*
X123595238Y-90202380D01*
X123690476Y-90154761D01*
X123738095Y-90107142D01*
X123785714Y-90011904D01*
X123785714Y-89773809D01*
X123738095Y-89678571D01*
X123690476Y-89630952D01*
X123595238Y-89583333D01*
X123404761Y-89583333D01*
X123309523Y-89630952D01*
X123261904Y-89678571D01*
X123214285Y-89773809D01*
G04 #@! TO.C,R7*
X122833333Y-97202380D02*
X122500000Y-96726190D01*
X122261904Y-97202380D02*
X122261904Y-96202380D01*
X122642857Y-96202380D01*
X122738095Y-96250000D01*
X122785714Y-96297619D01*
X122833333Y-96392857D01*
X122833333Y-96535714D01*
X122785714Y-96630952D01*
X122738095Y-96678571D01*
X122642857Y-96726190D01*
X122261904Y-96726190D01*
X123166666Y-96202380D02*
X123833333Y-96202380D01*
X123404761Y-97202380D01*
G04 #@! TO.C,R8*
X104483333Y-99452380D02*
X104150000Y-98976190D01*
X103911904Y-99452380D02*
X103911904Y-98452380D01*
X104292857Y-98452380D01*
X104388095Y-98500000D01*
X104435714Y-98547619D01*
X104483333Y-98642857D01*
X104483333Y-98785714D01*
X104435714Y-98880952D01*
X104388095Y-98928571D01*
X104292857Y-98976190D01*
X103911904Y-98976190D01*
X105054761Y-98880952D02*
X104959523Y-98833333D01*
X104911904Y-98785714D01*
X104864285Y-98690476D01*
X104864285Y-98642857D01*
X104911904Y-98547619D01*
X104959523Y-98500000D01*
X105054761Y-98452380D01*
X105245238Y-98452380D01*
X105340476Y-98500000D01*
X105388095Y-98547619D01*
X105435714Y-98642857D01*
X105435714Y-98690476D01*
X105388095Y-98785714D01*
X105340476Y-98833333D01*
X105245238Y-98880952D01*
X105054761Y-98880952D01*
X104959523Y-98928571D01*
X104911904Y-98976190D01*
X104864285Y-99071428D01*
X104864285Y-99261904D01*
X104911904Y-99357142D01*
X104959523Y-99404761D01*
X105054761Y-99452380D01*
X105245238Y-99452380D01*
X105340476Y-99404761D01*
X105388095Y-99357142D01*
X105435714Y-99261904D01*
X105435714Y-99071428D01*
X105388095Y-98976190D01*
X105340476Y-98928571D01*
X105245238Y-98880952D01*
G04 #@! TO.C,R9*
X99333333Y-96452380D02*
X99000000Y-95976190D01*
X98761904Y-96452380D02*
X98761904Y-95452380D01*
X99142857Y-95452380D01*
X99238095Y-95500000D01*
X99285714Y-95547619D01*
X99333333Y-95642857D01*
X99333333Y-95785714D01*
X99285714Y-95880952D01*
X99238095Y-95928571D01*
X99142857Y-95976190D01*
X98761904Y-95976190D01*
X99809523Y-96452380D02*
X100000000Y-96452380D01*
X100095238Y-96404761D01*
X100142857Y-96357142D01*
X100238095Y-96214285D01*
X100285714Y-96023809D01*
X100285714Y-95642857D01*
X100238095Y-95547619D01*
X100190476Y-95500000D01*
X100095238Y-95452380D01*
X99904761Y-95452380D01*
X99809523Y-95500000D01*
X99761904Y-95547619D01*
X99714285Y-95642857D01*
X99714285Y-95880952D01*
X99761904Y-95976190D01*
X99809523Y-96023809D01*
X99904761Y-96071428D01*
X100095238Y-96071428D01*
X100190476Y-96023809D01*
X100238095Y-95976190D01*
X100285714Y-95880952D01*
G04 #@! TO.C,R10*
X75857142Y-81452380D02*
X75523809Y-80976190D01*
X75285714Y-81452380D02*
X75285714Y-80452380D01*
X75666666Y-80452380D01*
X75761904Y-80500000D01*
X75809523Y-80547619D01*
X75857142Y-80642857D01*
X75857142Y-80785714D01*
X75809523Y-80880952D01*
X75761904Y-80928571D01*
X75666666Y-80976190D01*
X75285714Y-80976190D01*
X76809523Y-81452380D02*
X76238095Y-81452380D01*
X76523809Y-81452380D02*
X76523809Y-80452380D01*
X76428571Y-80595238D01*
X76333333Y-80690476D01*
X76238095Y-80738095D01*
X77428571Y-80452380D02*
X77523809Y-80452380D01*
X77619047Y-80500000D01*
X77666666Y-80547619D01*
X77714285Y-80642857D01*
X77761904Y-80833333D01*
X77761904Y-81071428D01*
X77714285Y-81261904D01*
X77666666Y-81357142D01*
X77619047Y-81404761D01*
X77523809Y-81452380D01*
X77428571Y-81452380D01*
X77333333Y-81404761D01*
X77285714Y-81357142D01*
X77238095Y-81261904D01*
X77190476Y-81071428D01*
X77190476Y-80833333D01*
X77238095Y-80642857D01*
X77285714Y-80547619D01*
X77333333Y-80500000D01*
X77428571Y-80452380D01*
G04 #@! TO.C,R11*
X75857142Y-87952380D02*
X75523809Y-87476190D01*
X75285714Y-87952380D02*
X75285714Y-86952380D01*
X75666666Y-86952380D01*
X75761904Y-87000000D01*
X75809523Y-87047619D01*
X75857142Y-87142857D01*
X75857142Y-87285714D01*
X75809523Y-87380952D01*
X75761904Y-87428571D01*
X75666666Y-87476190D01*
X75285714Y-87476190D01*
X76809523Y-87952380D02*
X76238095Y-87952380D01*
X76523809Y-87952380D02*
X76523809Y-86952380D01*
X76428571Y-87095238D01*
X76333333Y-87190476D01*
X76238095Y-87238095D01*
X77761904Y-87952380D02*
X77190476Y-87952380D01*
X77476190Y-87952380D02*
X77476190Y-86952380D01*
X77380952Y-87095238D01*
X77285714Y-87190476D01*
X77190476Y-87238095D01*
G04 #@! TO.C,R12*
X75857142Y-75202380D02*
X75523809Y-74726190D01*
X75285714Y-75202380D02*
X75285714Y-74202380D01*
X75666666Y-74202380D01*
X75761904Y-74250000D01*
X75809523Y-74297619D01*
X75857142Y-74392857D01*
X75857142Y-74535714D01*
X75809523Y-74630952D01*
X75761904Y-74678571D01*
X75666666Y-74726190D01*
X75285714Y-74726190D01*
X76809523Y-75202380D02*
X76238095Y-75202380D01*
X76523809Y-75202380D02*
X76523809Y-74202380D01*
X76428571Y-74345238D01*
X76333333Y-74440476D01*
X76238095Y-74488095D01*
X77190476Y-74297619D02*
X77238095Y-74250000D01*
X77333333Y-74202380D01*
X77571428Y-74202380D01*
X77666666Y-74250000D01*
X77714285Y-74297619D01*
X77761904Y-74392857D01*
X77761904Y-74488095D01*
X77714285Y-74630952D01*
X77142857Y-75202380D01*
X77761904Y-75202380D01*
G04 #@! TO.C,R13*
X112757142Y-56302380D02*
X112423809Y-55826190D01*
X112185714Y-56302380D02*
X112185714Y-55302380D01*
X112566666Y-55302380D01*
X112661904Y-55350000D01*
X112709523Y-55397619D01*
X112757142Y-55492857D01*
X112757142Y-55635714D01*
X112709523Y-55730952D01*
X112661904Y-55778571D01*
X112566666Y-55826190D01*
X112185714Y-55826190D01*
X113709523Y-56302380D02*
X113138095Y-56302380D01*
X113423809Y-56302380D02*
X113423809Y-55302380D01*
X113328571Y-55445238D01*
X113233333Y-55540476D01*
X113138095Y-55588095D01*
X114042857Y-55302380D02*
X114661904Y-55302380D01*
X114328571Y-55683333D01*
X114471428Y-55683333D01*
X114566666Y-55730952D01*
X114614285Y-55778571D01*
X114661904Y-55873809D01*
X114661904Y-56111904D01*
X114614285Y-56207142D01*
X114566666Y-56254761D01*
X114471428Y-56302380D01*
X114185714Y-56302380D01*
X114090476Y-56254761D01*
X114042857Y-56207142D01*
G04 #@! TO.C,R14*
X118357142Y-56452380D02*
X118023809Y-55976190D01*
X117785714Y-56452380D02*
X117785714Y-55452380D01*
X118166666Y-55452380D01*
X118261904Y-55500000D01*
X118309523Y-55547619D01*
X118357142Y-55642857D01*
X118357142Y-55785714D01*
X118309523Y-55880952D01*
X118261904Y-55928571D01*
X118166666Y-55976190D01*
X117785714Y-55976190D01*
X119309523Y-56452380D02*
X118738095Y-56452380D01*
X119023809Y-56452380D02*
X119023809Y-55452380D01*
X118928571Y-55595238D01*
X118833333Y-55690476D01*
X118738095Y-55738095D01*
X120166666Y-55785714D02*
X120166666Y-56452380D01*
X119928571Y-55404761D02*
X119690476Y-56119047D01*
X120309523Y-56119047D01*
G04 #@! TO.C,R15*
X103557142Y-69052380D02*
X103223809Y-68576190D01*
X102985714Y-69052380D02*
X102985714Y-68052380D01*
X103366666Y-68052380D01*
X103461904Y-68100000D01*
X103509523Y-68147619D01*
X103557142Y-68242857D01*
X103557142Y-68385714D01*
X103509523Y-68480952D01*
X103461904Y-68528571D01*
X103366666Y-68576190D01*
X102985714Y-68576190D01*
X104509523Y-69052380D02*
X103938095Y-69052380D01*
X104223809Y-69052380D02*
X104223809Y-68052380D01*
X104128571Y-68195238D01*
X104033333Y-68290476D01*
X103938095Y-68338095D01*
X105414285Y-68052380D02*
X104938095Y-68052380D01*
X104890476Y-68528571D01*
X104938095Y-68480952D01*
X105033333Y-68433333D01*
X105271428Y-68433333D01*
X105366666Y-68480952D01*
X105414285Y-68528571D01*
X105461904Y-68623809D01*
X105461904Y-68861904D01*
X105414285Y-68957142D01*
X105366666Y-69004761D01*
X105271428Y-69052380D01*
X105033333Y-69052380D01*
X104938095Y-69004761D01*
X104890476Y-68957142D01*
G04 #@! TO.C,R16*
X103557142Y-62852380D02*
X103223809Y-62376190D01*
X102985714Y-62852380D02*
X102985714Y-61852380D01*
X103366666Y-61852380D01*
X103461904Y-61900000D01*
X103509523Y-61947619D01*
X103557142Y-62042857D01*
X103557142Y-62185714D01*
X103509523Y-62280952D01*
X103461904Y-62328571D01*
X103366666Y-62376190D01*
X102985714Y-62376190D01*
X104509523Y-62852380D02*
X103938095Y-62852380D01*
X104223809Y-62852380D02*
X104223809Y-61852380D01*
X104128571Y-61995238D01*
X104033333Y-62090476D01*
X103938095Y-62138095D01*
X105366666Y-61852380D02*
X105176190Y-61852380D01*
X105080952Y-61900000D01*
X105033333Y-61947619D01*
X104938095Y-62090476D01*
X104890476Y-62280952D01*
X104890476Y-62661904D01*
X104938095Y-62757142D01*
X104985714Y-62804761D01*
X105080952Y-62852380D01*
X105271428Y-62852380D01*
X105366666Y-62804761D01*
X105414285Y-62757142D01*
X105461904Y-62661904D01*
X105461904Y-62423809D01*
X105414285Y-62328571D01*
X105366666Y-62280952D01*
X105271428Y-62233333D01*
X105080952Y-62233333D01*
X104985714Y-62280952D01*
X104938095Y-62328571D01*
X104890476Y-62423809D01*
G04 #@! TO.C,R18*
X103557142Y-74652380D02*
X103223809Y-74176190D01*
X102985714Y-74652380D02*
X102985714Y-73652380D01*
X103366666Y-73652380D01*
X103461904Y-73700000D01*
X103509523Y-73747619D01*
X103557142Y-73842857D01*
X103557142Y-73985714D01*
X103509523Y-74080952D01*
X103461904Y-74128571D01*
X103366666Y-74176190D01*
X102985714Y-74176190D01*
X104509523Y-74652380D02*
X103938095Y-74652380D01*
X104223809Y-74652380D02*
X104223809Y-73652380D01*
X104128571Y-73795238D01*
X104033333Y-73890476D01*
X103938095Y-73938095D01*
X105080952Y-74080952D02*
X104985714Y-74033333D01*
X104938095Y-73985714D01*
X104890476Y-73890476D01*
X104890476Y-73842857D01*
X104938095Y-73747619D01*
X104985714Y-73700000D01*
X105080952Y-73652380D01*
X105271428Y-73652380D01*
X105366666Y-73700000D01*
X105414285Y-73747619D01*
X105461904Y-73842857D01*
X105461904Y-73890476D01*
X105414285Y-73985714D01*
X105366666Y-74033333D01*
X105271428Y-74080952D01*
X105080952Y-74080952D01*
X104985714Y-74128571D01*
X104938095Y-74176190D01*
X104890476Y-74271428D01*
X104890476Y-74461904D01*
X104938095Y-74557142D01*
X104985714Y-74604761D01*
X105080952Y-74652380D01*
X105271428Y-74652380D01*
X105366666Y-74604761D01*
X105414285Y-74557142D01*
X105461904Y-74461904D01*
X105461904Y-74271428D01*
X105414285Y-74176190D01*
X105366666Y-74128571D01*
X105271428Y-74080952D01*
G04 #@! TO.C,U1*
X112988095Y-116202380D02*
X112988095Y-117011904D01*
X113035714Y-117107142D01*
X113083333Y-117154761D01*
X113178571Y-117202380D01*
X113369047Y-117202380D01*
X113464285Y-117154761D01*
X113511904Y-117107142D01*
X113559523Y-117011904D01*
X113559523Y-116202380D01*
X114559523Y-117202380D02*
X113988095Y-117202380D01*
X114273809Y-117202380D02*
X114273809Y-116202380D01*
X114178571Y-116345238D01*
X114083333Y-116440476D01*
X113988095Y-116488095D01*
G04 #@! TO.C,U2*
X85238095Y-97702380D02*
X85238095Y-98511904D01*
X85285714Y-98607142D01*
X85333333Y-98654761D01*
X85428571Y-98702380D01*
X85619047Y-98702380D01*
X85714285Y-98654761D01*
X85761904Y-98607142D01*
X85809523Y-98511904D01*
X85809523Y-97702380D01*
X86238095Y-97797619D02*
X86285714Y-97750000D01*
X86380952Y-97702380D01*
X86619047Y-97702380D01*
X86714285Y-97750000D01*
X86761904Y-97797619D01*
X86809523Y-97892857D01*
X86809523Y-97988095D01*
X86761904Y-98130952D01*
X86190476Y-98702380D01*
X86809523Y-98702380D01*
G04 #@! TO.C,U3*
X63738095Y-100702380D02*
X63738095Y-101511904D01*
X63785714Y-101607142D01*
X63833333Y-101654761D01*
X63928571Y-101702380D01*
X64119047Y-101702380D01*
X64214285Y-101654761D01*
X64261904Y-101607142D01*
X64309523Y-101511904D01*
X64309523Y-100702380D01*
X64690476Y-100702380D02*
X65309523Y-100702380D01*
X64976190Y-101083333D01*
X65119047Y-101083333D01*
X65214285Y-101130952D01*
X65261904Y-101178571D01*
X65309523Y-101273809D01*
X65309523Y-101511904D01*
X65261904Y-101607142D01*
X65214285Y-101654761D01*
X65119047Y-101702380D01*
X64833333Y-101702380D01*
X64738095Y-101654761D01*
X64690476Y-101607142D01*
G04 #@! TO.C,U4*
X63738095Y-89452380D02*
X63738095Y-90261904D01*
X63785714Y-90357142D01*
X63833333Y-90404761D01*
X63928571Y-90452380D01*
X64119047Y-90452380D01*
X64214285Y-90404761D01*
X64261904Y-90357142D01*
X64309523Y-90261904D01*
X64309523Y-89452380D01*
X65214285Y-89785714D02*
X65214285Y-90452380D01*
X64976190Y-89404761D02*
X64738095Y-90119047D01*
X65357142Y-90119047D01*
G04 #@! TO.C,U5*
X63738095Y-78202380D02*
X63738095Y-79011904D01*
X63785714Y-79107142D01*
X63833333Y-79154761D01*
X63928571Y-79202380D01*
X64119047Y-79202380D01*
X64214285Y-79154761D01*
X64261904Y-79107142D01*
X64309523Y-79011904D01*
X64309523Y-78202380D01*
X65261904Y-78202380D02*
X64785714Y-78202380D01*
X64738095Y-78678571D01*
X64785714Y-78630952D01*
X64880952Y-78583333D01*
X65119047Y-78583333D01*
X65214285Y-78630952D01*
X65261904Y-78678571D01*
X65309523Y-78773809D01*
X65309523Y-79011904D01*
X65261904Y-79107142D01*
X65214285Y-79154761D01*
X65119047Y-79202380D01*
X64880952Y-79202380D01*
X64785714Y-79154761D01*
X64738095Y-79107142D01*
G04 #@! TO.C,U6*
X73738095Y-117452380D02*
X73738095Y-118261904D01*
X73785714Y-118357142D01*
X73833333Y-118404761D01*
X73928571Y-118452380D01*
X74119047Y-118452380D01*
X74214285Y-118404761D01*
X74261904Y-118357142D01*
X74309523Y-118261904D01*
X74309523Y-117452380D01*
X75214285Y-117452380D02*
X75023809Y-117452380D01*
X74928571Y-117500000D01*
X74880952Y-117547619D01*
X74785714Y-117690476D01*
X74738095Y-117880952D01*
X74738095Y-118261904D01*
X74785714Y-118357142D01*
X74833333Y-118404761D01*
X74928571Y-118452380D01*
X75119047Y-118452380D01*
X75214285Y-118404761D01*
X75261904Y-118357142D01*
X75309523Y-118261904D01*
X75309523Y-118023809D01*
X75261904Y-117928571D01*
X75214285Y-117880952D01*
X75119047Y-117833333D01*
X74928571Y-117833333D01*
X74833333Y-117880952D01*
X74785714Y-117928571D01*
X74738095Y-118023809D01*
G04 #@! TO.C,U7*
X112738095Y-92702380D02*
X112738095Y-93511904D01*
X112785714Y-93607142D01*
X112833333Y-93654761D01*
X112928571Y-93702380D01*
X113119047Y-93702380D01*
X113214285Y-93654761D01*
X113261904Y-93607142D01*
X113309523Y-93511904D01*
X113309523Y-92702380D01*
X113690476Y-92702380D02*
X114357142Y-92702380D01*
X113928571Y-93702380D01*
G04 #@! TO.C,U8*
X115465476Y-78111904D02*
X115465476Y-78759523D01*
X115503571Y-78835714D01*
X115541666Y-78873809D01*
X115617857Y-78911904D01*
X115770238Y-78911904D01*
X115846428Y-78873809D01*
X115884523Y-78835714D01*
X115922619Y-78759523D01*
X115922619Y-78111904D01*
X116417857Y-78454761D02*
X116341666Y-78416666D01*
X116303571Y-78378571D01*
X116265476Y-78302380D01*
X116265476Y-78264285D01*
X116303571Y-78188095D01*
X116341666Y-78150000D01*
X116417857Y-78111904D01*
X116570238Y-78111904D01*
X116646428Y-78150000D01*
X116684523Y-78188095D01*
X116722619Y-78264285D01*
X116722619Y-78302380D01*
X116684523Y-78378571D01*
X116646428Y-78416666D01*
X116570238Y-78454761D01*
X116417857Y-78454761D01*
X116341666Y-78492857D01*
X116303571Y-78530952D01*
X116265476Y-78607142D01*
X116265476Y-78759523D01*
X116303571Y-78835714D01*
X116341666Y-78873809D01*
X116417857Y-78911904D01*
X116570238Y-78911904D01*
X116646428Y-78873809D01*
X116684523Y-78835714D01*
X116722619Y-78759523D01*
X116722619Y-78607142D01*
X116684523Y-78530952D01*
X116646428Y-78492857D01*
X116570238Y-78454761D01*
G04 #@! TO.C,U9*
X114438095Y-59452380D02*
X114438095Y-60261904D01*
X114485714Y-60357142D01*
X114533333Y-60404761D01*
X114628571Y-60452380D01*
X114819047Y-60452380D01*
X114914285Y-60404761D01*
X114961904Y-60357142D01*
X115009523Y-60261904D01*
X115009523Y-59452380D01*
X115533333Y-60452380D02*
X115723809Y-60452380D01*
X115819047Y-60404761D01*
X115866666Y-60357142D01*
X115961904Y-60214285D01*
X116009523Y-60023809D01*
X116009523Y-59642857D01*
X115961904Y-59547619D01*
X115914285Y-59500000D01*
X115819047Y-59452380D01*
X115628571Y-59452380D01*
X115533333Y-59500000D01*
X115485714Y-59547619D01*
X115438095Y-59642857D01*
X115438095Y-59880952D01*
X115485714Y-59976190D01*
X115533333Y-60023809D01*
X115628571Y-60071428D01*
X115819047Y-60071428D01*
X115914285Y-60023809D01*
X115961904Y-59976190D01*
X116009523Y-59880952D01*
G04 #@! TO.C,X1*
X63626343Y-117906336D02*
X64293009Y-118906336D01*
X64293009Y-117906336D02*
X63626343Y-118906336D01*
X65197771Y-118906336D02*
X64626343Y-118906336D01*
X64912057Y-118906336D02*
X64912057Y-117906336D01*
X64816819Y-118049194D01*
X64721581Y-118144432D01*
X64626343Y-118192051D01*
G04 #@! TD*
M02*
