M48
;DRILL file {KiCad 5.0.0-rc2+dfsg1-3} date Sun Jul  1 23:41:41 2018
;FORMAT={-:-/ absolute / inch / decimal}
FMAT,2
INCH,TZ
T1C0.0130
T2C0.0315
T3C0.0394
T4C0.0531
%
G90
G05
M72
T1
X2.2736Y-2.592
X2.4315Y-2.1768
X2.4532Y-2.7312
X2.4756Y-3.3465
X2.6969Y-3.5236
X2.7176Y-3.31
X2.9134Y-3.641
X2.9134Y-4.1755
X2.9921Y-3.6698
X3.185Y-3.6162
X3.2579Y-3.1693
X3.4367Y-3.3354
X3.5244Y-2.027
X3.5335Y-2.2132
X3.563Y-3.0162
X3.5802Y-3.4682
X3.6395Y-2.1883
X3.6417Y-3.4646
X3.6479Y-3.3685
X3.6789Y-2.9725
X3.7401Y-3.1144
X3.7483Y-3.1685
X3.75Y-2.3917
X3.7536Y-2.2397
X3.7697Y-2.8051
X3.7795Y-3.0315
X3.8484Y-3.4154
X3.8496Y-3.515
X3.8876Y-2.6038
X3.9099Y-3.1697
X3.9784Y-2.5492
X4.013Y-3.615
T2
X2.57Y-3.9379
X2.57Y-4.13
T3
X2.57Y-3.16
X2.57Y-3.26
X2.57Y-3.36
X2.57Y-3.46
X2.57Y-3.56
X2.57Y-3.66
X2.7626Y-2.795
X2.9626Y-2.795
X3.1626Y-2.795
X3.3626Y-2.795
X2.57Y-2.545
X2.57Y-2.645
X2.57Y-2.745
X2.57Y-2.845
X2.57Y-2.945
X2.7626Y-3.02
X2.9626Y-3.02
X3.1626Y-3.02
X3.3626Y-3.02
X2.7626Y-2.5787
X2.9626Y-2.5787
X3.1626Y-2.5787
X3.3626Y-2.5787
X2.7626Y-3.24
X2.9626Y-3.24
X3.1626Y-3.24
X3.3626Y-3.24
T4
X2.9913Y-2.2531
X2.9913Y-2.3925
X3.061Y-2.1654
X3.1307Y-2.2531
X3.1307Y-2.3925
T0
M30
